<?xml version="1.0" standalone="no"?>
<!DOCTYPE svg PUBLIC "-//W3C//DTD SVG 1.1//EN" "http://www.w3.org/Graphics/SVG/1.1/DTD/svg11.dtd" >
<svg xmlns="http://www.w3.org/2000/svg" xmlns:xlink="http://www.w3.org/1999/xlink" version="1.1">
<metadata>
Created by FontForge 20201107 at Mon Feb  6 14:54:44 2023
 By 
Copyright (c) 2021 by TypeType. All rights reserved. Special version for DaFont.
</metadata>
<defs>
<font id="TTTravelsNextTrl-Rg" horiz-adv-x="0" >
  <font-face 
    font-family="TT Travels Next Trl"
    font-weight="400"
    font-stretch="normal"
    units-per-em="1000"
    panose-1="2 11 0 3 4 0 0 1 2 4"
    ascent="800"
    descent="-200"
    x-height="503"
    cap-height="700"
    bbox="-522 -290 1596 989"
    underline-thickness="68"
    underline-position="-200"
    unicode-range="U+0020-FB03"
  />
<missing-glyph horiz-adv-x="900" 
d="M100 0v284h45v-139h33v139h50v31h-128v126l19 -61h23l34 106l33 -106h23l54 170h-32l-34 -110l-35 110h-19l-35 -110l-31 103v157h700v-150h-110v-170h110v-91q-6 13 -19.5 20t-30.5 7q-27 0 -43.5 -14.5t-16.5 -34.5q0 -22 14.5 -32.5t39.5 -17.5q17 -5 25.5 -9.5
t8.5 -13.5q0 -21 -28 -21q-14 0 -21 7t-7 18h-33q0 -24 17 -39.5t44 -15.5q17 0 30.5 6.5t19.5 13.5v-163h-700zM311 380h33v62h24l35 -62h37l-40 67q36 17 36 50q0 22 -16 37.5t-41 15.5h-68v-170zM469 550v-170h33v170h-33zM580 519v-139h32v139h50v31h-132v-31h50z
M344 473v46h35q10 0 17 -6.5t7 -16.5q0 -12 -7.5 -17.5t-16.5 -5.5h-35zM800 483h-78v36h78v-36zM800 411h-78v41h78v-41zM387.5 167.5q22.5 24.5 22.5 61.5t-23 62t-59 25t-59 -25t-23 -62t22.5 -61.5t59.5 -24.5t59.5 24.5zM633 162q19 19 19 47v106h-32v-106
q0 -15 -9.5 -25t-25.5 -10q-17 0 -26.5 10.5t-9.5 24.5v106h-32v-106q0 -28 19.5 -47t48.5 -19t48 19zM800 224q-15 14 -46 22q-16 5 -23 9t-7 12q0 9 7.5 14.5t18.5 5.5q10 0 18 -7t8 -18h24v-38zM291.5 190q-14.5 16 -14.5 39q0 25 14 40.5t37 15.5q24 0 37.5 -15.5
t13.5 -40.5q0 -23 -14.5 -39t-36.5 -16t-36.5 16z" />
    <glyph glyph-name="fi" unicode="fi" horiz-adv-x="1191" 
d="M974 56h184v-56h-459v56h210v287q0 44 -19 62.5t-63 18.5h-544v-424h-66v424h-186v52h196v9q-49 5 -85.5 33t-36.5 74q0 55 65.5 89.5t221.5 34.5q151 0 218.5 -45.5t67.5 -124.5v-2h-65v4q0 54 -50.5 85t-170.5 31q-222 0 -222 -88q0 -36 29.5 -58t76.5 -42h570
q67 0 97.5 -29t30.5 -91v-300zM892 625.5q-14 12.5 -14 31.5q0 20 13.5 32.5t37.5 12.5q23 0 36.5 -12.5t13.5 -32.5q0 -19 -13.5 -31.5t-36.5 -12.5t-37 12.5z" />
    <glyph glyph-name="f_f_i" unicode="ffi" horiz-adv-x="1628" 
d="M1411 56h185v-56h-459v56h209v287q0 44 -18.5 62.5t-63.5 18.5h-460v-424h-65v424h-456v-424h-66v424h-186v52h196v9q-53 6 -87.5 35t-34.5 74q0 54 56.5 88t183.5 34q103 0 174.5 -28t116.5 -70q8 44 62.5 71t166.5 27q143 0 237 -55.5t149 -136.5v-48h34q67 0 96.5 -29
t29.5 -91v-300zM712 476q-76 99 -161.5 143.5t-200.5 44.5q-97 0 -138.5 -24t-41.5 -62q0 -37 29 -59.5t77 -42.5h436zM1222 476q-47 78 -134 133t-218 55q-181 0 -181 -86q0 -31 23.5 -54.5t65.5 -47.5h444z" />
    <glyph glyph-name=".notdef" horiz-adv-x="900" 
d="M100 0v284h45v-139h33v139h50v31h-128v126l19 -61h23l34 106l33 -106h23l54 170h-32l-34 -110l-35 110h-19l-35 -110l-31 103v157h700v-150h-110v-170h110v-91q-6 13 -19.5 20t-30.5 7q-27 0 -43.5 -14.5t-16.5 -34.5q0 -22 14.5 -32.5t39.5 -17.5q17 -5 25.5 -9.5
t8.5 -13.5q0 -21 -28 -21q-14 0 -21 7t-7 18h-33q0 -24 17 -39.5t44 -15.5q17 0 30.5 6.5t19.5 13.5v-163h-700zM311 380h33v62h24l35 -62h37l-40 67q36 17 36 50q0 22 -16 37.5t-41 15.5h-68v-170zM469 550v-170h33v170h-33zM580 519v-139h32v139h50v31h-132v-31h50z
M344 473v46h35q10 0 17 -6.5t7 -16.5q0 -12 -7.5 -17.5t-16.5 -5.5h-35zM800 483h-78v36h78v-36zM800 411h-78v41h78v-41zM387.5 167.5q22.5 24.5 22.5 61.5t-23 62t-59 25t-59 -25t-23 -62t22.5 -61.5t59.5 -24.5t59.5 24.5zM633 162q19 19 19 47v106h-32v-106
q0 -15 -9.5 -25t-25.5 -10q-17 0 -26.5 10.5t-9.5 24.5v106h-32v-106q0 -28 19.5 -47t48.5 -19t48 19zM800 224q-15 14 -46 22q-16 5 -23 9t-7 12q0 9 7.5 14.5t18.5 5.5q10 0 18 -7t8 -18h24v-38zM291.5 190q-14.5 16 -14.5 39q0 25 14 40.5t37 15.5q24 0 37.5 -15.5
t13.5 -40.5q0 -23 -14.5 -39t-36.5 -16t-36.5 16z" />
    <glyph glyph-name=".null" 
 />
    <glyph glyph-name="nonmarkingreturn" 
 />
    <glyph glyph-name="space" unicode=" " horiz-adv-x="287" 
 />
    <glyph glyph-name="exclam" unicode="!" horiz-adv-x="246" 
d="M143 169h-40l-15 154v377h71v-377zM86.5 2q-14.5 13 -14.5 33t14.5 33.5t36.5 13.5q23 0 37 -13t14 -34q0 -20 -14 -33t-37 -13q-22 0 -36.5 13z" />
    <glyph glyph-name="quotedbl" unicode="&#x22;" horiz-adv-x="343" 
d="M120 442h-46l-10 189v69h65v-69zM270 442h-46l-10 189v69h65v-69z" />
    <glyph glyph-name="numbersign" unicode="#" horiz-adv-x="882" 
d="M823 526v-58h-146l-58 -236h141v-58h-155l-42 -174h-59l42 174h-297l-42 -174h-59l42 174h-133v58h147l58 236h-141v58h155l42 174h59l-42 -174h297l42 174h59l-42 -174h132zM263 232h297l58 236h-297z" />
    <glyph glyph-name="dollar" unicode="$" horiz-adv-x="945" 
d="M790.5 46q-82.5 -53 -281.5 -57v-120h-68v121q-190 6 -277 72.5t-87 178.5v15h72v-14q0 -194 326 -194q184 0 255 37.5t71 104.5q0 58 -45 87.5t-110.5 39t-179.5 15.5q-125 6 -201.5 18t-129.5 50.5t-53 115.5q0 186 359 195v120h68v-120q188 -6 273.5 -71t85.5 -174v-7
h-72v7q0 86 -75 136t-246 50q-321 0 -321 -138q0 -52 42 -78.5t104.5 -35t171.5 -13.5q130 -6 209.5 -18.5t135.5 -54t56 -124.5q0 -91 -82.5 -144z" />
    <glyph glyph-name="percent" unicode="%" horiz-adv-x="938" 
d="M109.5 406.5q-52.5 49.5 -52.5 127.5t52.5 127.5t141.5 49.5q88 0 140.5 -49.5t52.5 -127.5t-52.5 -127.5t-140.5 -49.5q-89 0 -141.5 49.5zM242 0h-66l520 700h66zM355 439.5q39 36.5 39 94.5t-39 94.5t-104 36.5q-66 0 -105 -36.5t-39 -94.5t39 -94.5t105 -36.5
q65 0 104 36.5zM546.5 38.5q-52.5 49.5 -52.5 127.5t52.5 127.5t140.5 49.5t140.5 -49.5t52.5 -127.5t-52.5 -127.5t-140.5 -49.5t-140.5 49.5zM792 71.5q39 36.5 39 94.5t-39 94.5t-105 36.5q-65 0 -104 -36.5t-39 -94.5t39 -94.5t104 -36.5q66 0 105 36.5z" />
    <glyph glyph-name="ampersand" unicode="&#x26;" horiz-adv-x="857" 
d="M848 34l-37 -45l-96 89q-35 -38 -113 -63.5t-198 -25.5q-172 0 -252.5 59.5t-80.5 162.5q0 94 63.5 151t197.5 68l-221 203v67h593v-56h-508v-11l480 -441v262h63v-320zM578.5 70q63.5 22 86.5 53l-281 259q-128 -3 -187.5 -47.5t-59.5 -118.5q0 -78 64 -123t205 -45
q109 0 172.5 22z" />
    <glyph glyph-name="quotesingle" unicode="'" horiz-adv-x="193" 
d="M120 442h-46l-10 189v69h65v-69z" />
    <glyph glyph-name="parenleft" unicode="(" horiz-adv-x="471" 
d="M412 -290q-158 58 -245.5 197t-87.5 348t87.5 348t245.5 197v-60q-127 -60 -197 -181.5t-70 -303.5t70 -303.5t197 -181.5v-60z" />
    <glyph glyph-name="parenright" unicode=")" horiz-adv-x="471" 
d="M59 -230q127 60 197 181.5t70 303.5t-70 303.5t-197 181.5v60q158 -58 245.5 -197t87.5 -348t-87.5 -348t-245.5 -197v60z" />
    <glyph glyph-name="asterisk" unicode="*" horiz-adv-x="473" 
d="M229 554q-1 20 -6 34.5t-15 34.5q-8 14 -12 24t-4 22q0 42 45 42q22 0 33.5 -11t11.5 -31q0 -12 -3.5 -20.5t-12.5 -25.5q-10 -18 -15.5 -33t-6.5 -36h-15zM53 561q0 9 3 19q11 33 38 33q7 0 16 -3q12 -4 20.5 -11t19.5 -19q26 -30 58 -42l-4 -13q-16 5 -35 5
q-15 0 -37 -4q-20 -4 -30 -4q-9 0 -20 3q-29 8 -29 36zM371 522q-9 0 -29 4q-24 4 -37 4q-19 0 -35 -5l-5 13q20 7 32.5 17t26.5 25q12 13 20 19.5t20 10.5q9 3 16 3q28 0 38 -33q3 -9 3 -18q0 -28 -30 -37q-10 -3 -20 -3zM104 403q0 13 9 25q7 10 16 15.5t25 12.5
q20 10 32.5 18.5t25.5 24.5l11 -7q-11 -18 -15.5 -34t-6.5 -36q-2 -16 -5 -26.5t-10 -20.5q-13 -18 -32 -18q-13 0 -29 11q-21 15 -21 35zM319 357q-19 0 -31 18q-7 10 -10 19.5t-6 28.5q-2 19 -6.5 35t-15.5 34l12 7q12 -16 24.5 -24t33.5 -19q16 -7 24.5 -12.5t15.5 -15.5
q10 -13 10 -25q0 -19 -22 -35q-16 -11 -29 -11z" />
    <glyph glyph-name="plus" unicode="+" horiz-adv-x="600" 
d="M329 138h-58v185h-197v55h197v185h58v-185h197v-55h-197v-185z" />
    <glyph glyph-name="comma" unicode="," horiz-adv-x="206" 
d="M154 16q0 -58 -17.5 -102.5t-48.5 -69t-69 -24.5v61h5q43 0 70.5 30t31.5 82q-9 -4 -23 -4q-22 0 -36.5 13t-14.5 33t14 33.5t34 13.5q54 0 54 -66z" />
    <glyph glyph-name="hyphen" unicode="-" horiz-adv-x="530" 
d="M461 280l-392 -90v54l392 90v-54z" />
    <glyph glyph-name="period" unicode="." horiz-adv-x="206" 
d="M66.5 2q-14.5 13 -14.5 33t14.5 33.5t36.5 13.5q23 0 37 -13t14 -34q0 -20 -14 -33t-37 -13q-22 0 -36.5 13z" />
    <glyph glyph-name="slash" unicode="/" horiz-adv-x="481" 
d="M70 -120h-70l410 820h71z" />
    <glyph glyph-name="zero" unicode="0" horiz-adv-x="906" 
d="M253.5 35.5q-86.5 46.5 -134.5 129t-48 185.5t48 185.5t134.5 129t199.5 46.5t200 -46.5t135 -129t48 -185.5t-48 -185.5t-135 -129t-200 -46.5t-199.5 46.5zM614.5 89.5q70.5 38.5 110 107t39.5 153.5t-39.5 153.5t-110 107t-161.5 38.5q-90 0 -161 -38.5t-110 -107
t-39 -153.5t39 -153.5t110 -107t161 -38.5q91 0 161.5 38.5z" />
    <glyph glyph-name="one" unicode="1" horiz-adv-x="754" 
d="M454 63h264v-63h-636v63h300v358q0 41 5 73.5t18 91.5h-10q-27 -96 -83.5 -141t-161.5 -45h-26v63h35q113 0 168.5 56.5t55.5 171.5v9h71v-637z" />
    <glyph glyph-name="two" unicode="2" horiz-adv-x="883" 
d="M159 59h649v-59h-719v112q0 97 51.5 146t124.5 64t194 23q100 7 156.5 17t95 40t38.5 90q0 160 -299 160q-155 0 -227 -51.5t-72 -138.5v-28h-72v29q0 115 90 181.5t281 66.5q195 0 283 -59t88 -158q0 -85 -47.5 -127.5t-115 -56t-182.5 -21.5q-106 -7 -169 -18.5
t-105.5 -47.5t-42.5 -108v-56z" />
    <glyph glyph-name="three" unicode="3" horiz-adv-x="891" 
d="M471 422q356 0 356 -216q0 -99 -89 -158t-287 -59q-202 0 -289.5 59t-87.5 164v29h72v-27q0 -78 70 -122t235 -44q304 0 304 161q0 159 -300 159h-133v52l399 231v10q-62 -20 -145 -20h-472v59h697v-61l-379 -217h49z" />
    <glyph glyph-name="four" unicode="4" horiz-adv-x="870" 
d="M658 207h158v-60h-158v-147h-72v147h-522v60l485 493h109v-493zM161 217v-10h428v342q0 29 3.5 56t10.5 67h-11q-32 -56 -82 -106z" />
    <glyph glyph-name="five" unicode="5" horiz-adv-x="874" 
d="M170.5 49.5q-88.5 60.5 -88.5 158.5v8h72v-7q0 -71 70.5 -116t224.5 -45q153 0 223.5 48.5t70.5 130.5q0 81 -70.5 129.5t-224.5 48.5q-139 0 -206.5 -33.5t-91.5 -77.5h-74l47 406h674v-59h-617l-36 -289h10q32 46 106 77.5t208 31.5q179 0 263 -63t84 -173t-88 -173
t-279 -63q-189 0 -277.5 60.5z" />
    <glyph glyph-name="six" unicode="6" horiz-adv-x="910" 
d="M246 24q-87 35 -128.5 114t-41.5 212q0 186 92 273.5t294 87.5q189 0 278 -61t89 -158v-10h-72v8q0 71 -70.5 116.5t-221.5 45.5q-169 0 -244.5 -71t-75.5 -225q0 -34 3 -75h11q16 67 94.5 109.5t234.5 42.5q181 0 266 -60.5t85 -161.5q0 -100 -87.5 -161t-274.5 -61
q-144 0 -231 35zM697 94q70 46 70 119t-71.5 118.5t-228.5 45.5q-156 0 -227 -45.5t-71 -118.5q0 -74 72 -119.5t233 -45.5q153 0 223 46z" />
    <glyph glyph-name="seven" unicode="7" horiz-adv-x="784" 
d="M262 14q0 209 95.5 362t305.5 251v10h-601v63h669v-79q-206 -90 -299.5 -241t-93.5 -366v-14h-76v14z" />
    <glyph glyph-name="eight" unicode="8" horiz-adv-x="892" 
d="M610 355q97 -4 157.5 -49.5t60.5 -122.5q0 -91 -86.5 -142.5t-295.5 -51.5t-295.5 51.5t-86.5 142.5q0 77 60.5 122t157.5 50v10q-91 4 -144.5 48.5t-53.5 114.5q0 85 83 134t279 49q197 0 279.5 -49t82.5 -134q0 -70 -53.5 -114t-144.5 -49v-10zM221 420q65 -36 225 -36
t225 36t65 98t-65 98t-225 36t-225 -36t-65 -98t65 -98zM687 86q69 38 69 104t-69 103.5t-241 37.5t-241 -37.5t-69 -103.5t69 -104t241 -38t241 38z" />
    <glyph glyph-name="nine" unicode="9" horiz-adv-x="910" 
d="M238 17.5q-82 28.5 -119.5 75.5t-37.5 105v10h72v-8q0 -40 29.5 -74.5t95 -56t167.5 -21.5q168 0 244 70.5t76 219.5q0 35 -3 74h-11q-16 -69 -94 -112t-235 -43q-181 0 -266 61.5t-85 165.5t87 165.5t274 61.5q144 0 231.5 -35t129 -114t41.5 -212q0 -186 -92.5 -273.5
t-294.5 -87.5q-127 0 -209 28.5zM670 359.5q71 46.5 71 122.5q0 77 -72 123.5t-233 46.5q-153 0 -223 -46.5t-70 -123.5q0 -76 71.5 -122.5t228.5 -46.5q156 0 227 46.5z" />
    <glyph glyph-name="colon" unicode=":" horiz-adv-x="206" 
d="M66.5 434.5q-14.5 13.5 -14.5 33.5t14.5 33t36.5 13q23 0 37 -13t14 -33q0 -21 -14 -34t-37 -13q-22 0 -36.5 13.5zM66.5 2q-14.5 13 -14.5 33t14.5 33.5t36.5 13.5q23 0 37 -13t14 -34q0 -20 -14 -33t-37 -13q-22 0 -36.5 13z" />
    <glyph glyph-name="semicolon" unicode=";" horiz-adv-x="206" 
d="M66.5 434.5q-14.5 13.5 -14.5 33.5t14.5 33t36.5 13q23 0 37 -13t14 -33q0 -21 -14 -34t-37 -13q-22 0 -36.5 13.5zM154 16q0 -58 -17.5 -102.5t-48.5 -69t-69 -24.5v61h5q43 0 70.5 30t31.5 82q-9 -4 -23 -4q-22 0 -36.5 13t-14.5 33t14 33.5t34 13.5q54 0 54 -66z" />
    <glyph glyph-name="less" unicode="&#x3c;" horiz-adv-x="563" 
d="M57 381l432 186v-61l-369 -156l369 -156v-62l-432 187v62z" />
    <glyph glyph-name="equal" unicode="=" horiz-adv-x="610" 
d="M531 433h-452v52h452v-52zM531 215h-452v53h452v-53z" />
    <glyph glyph-name="greater" unicode="&#x3e;" horiz-adv-x="563" 
d="M74 506v61l432 -186v-62l-432 -187v62l370 156z" />
    <glyph glyph-name="question" unicode="?" horiz-adv-x="770" 
d="M334 194q0 65 24 103.5t58.5 57.5t89.5 39q45 16 69.5 28.5t41.5 35t17 59.5q0 62 -57.5 98.5t-189.5 36.5q-251 0 -251 -164v-22h-72v22q0 106 77 164.5t244 58.5q168 0 244.5 -51t76.5 -136q0 -55 -21.5 -88.5t-52 -51t-81.5 -36.5q-48 -18 -77 -34.5t-48.5 -46
t-19.5 -76.5v-23h-72v26zM333 2q-14 13 -14 33t14 33.5t36 13.5q23 0 37 -13t14 -34q0 -20 -14 -33t-37 -13q-22 0 -36 13z" />
    <glyph glyph-name="at" unicode="@" horiz-adv-x="1139" 
d="M302.5 -125q-114.5 56 -175 155t-60.5 225t60.5 225t175 155t269.5 56t269 -56t174.5 -155t60.5 -225q0 -109 -42.5 -162t-118.5 -53q-63 0 -100 30.5t-42 81.5h-9q-23 -47 -75.5 -79.5t-137.5 -32.5q-73 0 -127 27.5t-83 76t-29 111.5t29 111.5t83 76t127 27.5
q84 0 135.5 -33.5t70.5 -78.5h11l-12 102h55v-275q0 -45 26 -70t74 -25q52 0 80.5 38.5t28.5 126.5q0 111 -53.5 198.5t-155 137.5t-239.5 50t-239.5 -50t-155 -137.5t-53.5 -198.5t53.5 -198.5t155 -137.5t239.5 -50q75 0 136 14.5t102 34.5l23 -44q-42 -22 -108 -38.5
t-153 -16.5q-155 0 -269.5 56zM704 135.5q51 45.5 51 119.5t-51 119.5t-142 45.5q-92 0 -142.5 -45.5t-50.5 -119.5t50.5 -119.5t142.5 -45.5q91 0 142 45.5z" />
    <glyph glyph-name="A" unicode="A" horiz-adv-x="893" 
d="M861 0h-78l-80 153h-513l-80 -153h-78l373 700h83zM221 212h451l-194 368q-26 52 -26 77v1h-11v-1q0 -25 -26 -77z" />
    <glyph glyph-name="B" unicode="B" horiz-adv-x="919" 
d="M700 354q74 -6 117 -50.5t43 -117.5q0 -89 -60 -137.5t-188 -48.5h-508v700h507q110 0 167 -48t57 -129q0 -65 -38 -107t-97 -50v-12zM176 637v-253h432q76 0 115.5 34.5t39.5 92.5t-39.5 92t-115.5 34h-432zM616 63q88 0 130 34t42 96q0 63 -42 97.5t-130 34.5h-440
v-262h440z" />
    <glyph glyph-name="C" unicode="C" horiz-adv-x="1005" 
d="M269.5 36q-99.5 47 -151.5 129t-52 185t52 185t151.5 129t238.5 47q194 0 304 -78t137 -204h-72q-24 97 -115 158.5t-254 61.5q-116 0 -199.5 -39.5t-127 -107t-43.5 -152.5t43.5 -152.5t127 -107t199.5 -39.5q163 0 254 61.5t115 158.5h72q-26 -128 -135.5 -205
t-305.5 -77q-139 0 -238.5 47z" />
    <glyph glyph-name="D" unicode="D" horiz-adv-x="909" 
d="M104 0v700h322q129 0 223 -46t144 -125.5t50 -178.5t-50 -178.5t-144 -125.5t-223 -46h-322zM426 63q106 0 184 38t119.5 103t41.5 146t-41.5 146t-119.5 103t-184 38h-250v-574h250z" />
    <glyph glyph-name="E" unicode="E" horiz-adv-x="839" 
d="M761 700v-63h-585v-252h515v-59h-515v-263h585v-63h-657v700h657z" />
    <glyph glyph-name="F" unicode="F" horiz-adv-x="809" 
d="M741 700v-63h-565v-295h495v-60h-495v-282h-72v700h637z" />
    <glyph glyph-name="G" unicode="G" horiz-adv-x="1005" 
d="M433 284v56h491v-340h-67l16 195h-11q-18 -46 -61 -93t-121 -80t-190 -33q-130 0 -226 47t-147 129t-51 185t51.5 185t150.5 129t236 47q193 0 302.5 -78t137.5 -204h-72q-27 98 -118.5 159t-249.5 61q-114 0 -197 -39.5t-126 -107t-43 -152.5q0 -86 43 -154.5
t125.5 -108t195.5 -39.5q108 0 184 36.5t117 90t52 109.5h-422z" />
    <glyph glyph-name="H" unicode="H" horiz-adv-x="967" 
d="M791 392v308h72v-700h-72v329h-615v-329h-72v700h72v-308h615z" />
    <glyph glyph-name="I" unicode="I" horiz-adv-x="731" 
d="M653 0h-576v63h252v574h-252v63h576v-63h-252v-574h252v-63z" />
    <glyph glyph-name="J" unicode="J" horiz-adv-x="814" 
d="M142 63q-83 74 -83 208v25h72v-23q0 -107 64 -164.5t194 -57.5t194 57.5t64 164.5v364h-488v63h560v-429q0 -134 -83 -208t-247 -74t-247 74z" />
    <glyph glyph-name="K" unicode="K" horiz-adv-x="826" 
d="M275 361l536 -361h-114l-521 353v-353h-72v700h72v-333l504 333h111z" />
    <glyph glyph-name="L" unicode="L" horiz-adv-x="779" 
d="M718 0h-614v700h72v-637h542v-63z" />
    <glyph glyph-name="M" unicode="M" horiz-adv-x="1119" 
d="M104 0v700h118l311 -469q21 -34 21 -48v-4h11v4q0 15 21 48l311 469h118v-700h-70v523q0 42 2.5 69.5t8.5 65.5h-10l-346 -521h-80l-346 521h-11q6 -34 8.5 -62.5t2.5 -72.5v-523h-70z" />
    <glyph glyph-name="N" unicode="N" horiz-adv-x="977" 
d="M104 0v700h116l585 -658h11q-7 34 -10 61.5t-3 68.5v528h70v-700h-116l-585 658h-10q7 -35 9.5 -62t2.5 -68v-528h-70z" />
    <glyph glyph-name="O" unicode="O" horiz-adv-x="1026" 
d="M271 36q-101 47 -153 129t-52 185t52 185t153 129t242 47t242 -47t153.5 -129t52.5 -185t-52.5 -185t-153.5 -129t-242 -47t-242 47zM716 90q85 39 129 107t44 153t-44 153t-129 107t-203 39t-203 -39t-128.5 -107t-43.5 -153t43.5 -153t128.5 -107t203 -39t203 39z" />
    <glyph glyph-name="P" unicode="P" horiz-adv-x="872" 
d="M533 700q132 0 201 -60t69 -164t-69 -164t-201 -60h-357v-252h-72v700h429zM533 315q98 0 148 43.5t50 117.5q0 75 -50 118t-148 43h-359v-322h359z" />
    <glyph glyph-name="Q" unicode="Q" horiz-adv-x="1026" 
d="M530 -27q0 -40 24 -60.5t78 -20.5h252v-65l-233 2q-80 1 -123.5 38t-43.5 97v26q-132 5 -226.5 53t-143 127.5t-48.5 179.5q0 103 52 185t153 129t242 47t242 -47t153.5 -129t52.5 -185q0 -101 -50.5 -181.5t-147.5 -128.5t-233 -51v-16zM181.5 197q43.5 -68 128.5 -107
t203 -39t203 39t129 107t44 153t-44 153t-129 107t-203 39t-203 -39t-128.5 -107t-43.5 -153t43.5 -153z" />
    <glyph glyph-name="R" unicode="R" horiz-adv-x="894" 
d="M846 0h-84l-81 180q-17 39 -35.5 57.5t-46.5 25t-80 6.5h-343v-269h-72v700h442q84 0 143 -27t89 -74.5t30 -108.5q0 -80 -45.5 -133.5t-118.5 -64.5v-11q45 -4 70 -26.5t52 -82.5zM174 329h372q93 0 141.5 41.5t48.5 112.5t-48.5 112.5t-141.5 41.5h-372v-308z" />
    <glyph glyph-name="S" unicode="S" horiz-adv-x="945" 
d="M172 56.5q-95 67.5 -95 184.5v15h72v-14q0 -194 326 -194q184 0 255 37.5t71 104.5q0 58 -45 87.5t-110.5 39t-179.5 15.5q-125 6 -201.5 18t-129.5 50.5t-53 115.5q0 195 393 195q206 0 299.5 -65.5t93.5 -179.5v-7h-72v7q0 86 -75 136t-246 50q-321 0 -321 -138
q0 -52 42 -78.5t104.5 -35t171.5 -13.5q130 -6 209.5 -18.5t135.5 -54t56 -124.5q0 -95 -89.5 -148t-308.5 -53q-208 0 -303 67.5z" />
    <glyph glyph-name="T" unicode="T" horiz-adv-x="796" 
d="M434 0h-72v637h-330v63h731v-63h-329v-637z" />
    <glyph glyph-name="U" unicode="U" horiz-adv-x="940" 
d="M189 74.5q-95 85.5 -95 240.5v385h72v-383q0 -126 76 -194.5t228 -68.5t228 68.5t76 194.5v383h72v-385q0 -155 -95 -240.5t-281 -85.5t-281 85.5z" />
    <glyph glyph-name="V" unicode="V" horiz-adv-x="893" 
d="M403 0l-366 700h82l296 -580q15 -28 20.5 -45.5t5.5 -31.5v-1h11v1q0 13 6 30t20 47l296 580h82l-365 -700h-88z" />
    <glyph glyph-name="W" unicode="W" horiz-adv-x="1192" 
d="M301 0l-254 700h78l206 -580q17 -48 17 -76v-2h10v2q0 32 17 76l178 443h85l179 -443q17 -44 17 -76v-2h10v2q0 28 17 76l206 580h77l-253 -700h-93l-177 432q-20 53 -20 87v2h-10v-2q0 -36 -21 -87l-176 -432h-93z" />
    <glyph glyph-name="X" unicode="X" horiz-adv-x="887" 
d="M32 0l361 355l-351 345h94l263 -263q19 -19 29 -32t10 -24v-3h11v3q0 11 9.5 23.5t28.5 32.5l264 263h93l-350 -345l360 -355h-95l-274 272q-18 18 -27 30t-9 22v3h-11v-3q0 -10 -9 -22t-27 -30l-274 -272h-96z" />
    <glyph glyph-name="Y" unicode="Y" horiz-adv-x="833" 
d="M381 0v238l-354 462h85l267 -353q16 -23 24 -38t8 -26v-4h11v4q0 11 8 26.5t25 37.5l266 353h85l-353 -462v-238h-72z" />
    <glyph glyph-name="Z" unicode="Z" horiz-adv-x="865" 
d="M788 0h-706v58l591 569v10h-581v63h686v-58l-591 -569v-10h601v-63z" />
    <glyph glyph-name="bracketleft" unicode="[" horiz-adv-x="466" 
d="M407 -275h-298v1060h298v-56h-235v-948h235v-56z" />
    <glyph glyph-name="backslash" unicode="\" horiz-adv-x="481" 
d="M481 -120h-71l-410 820h70z" />
    <glyph glyph-name="bracketright" unicode="]" horiz-adv-x="466" 
d="M357 -275h-298v56h235v948h-235v56h298v-1060z" />
    <glyph glyph-name="asciicircum" unicode="^" horiz-adv-x="566" 
d="M315 700l214 -340h-64l-182 293l-182 -293h-64l214 340h64z" />
    <glyph glyph-name="underscore" unicode="_" horiz-adv-x="516" 
d="M499 -116h-482v52h482v-52z" />
    <glyph glyph-name="grave" unicode="`" horiz-adv-x="247" 
d="M217 591h-54l-133 152h83z" />
    <glyph glyph-name="a" unicode="a" horiz-adv-x="773" 
d="M130.5 29.5q-56.5 40.5 -56.5 110.5q0 68 57 109t177 41q99 0 168.5 -21.5t132.5 -59.5v57q0 90 -60.5 141.5t-182.5 51.5q-77 0 -129.5 -20t-80 -51t-32.5 -66h-65q4 52 39 95.5t102.5 70t166.5 26.5q154 0 230.5 -66t76.5 -184v-166q0 -54 50 -54q14 0 34 5v-53
q-20 -7 -45 -7q-45 0 -70.5 23.5t-25.5 65.5v11h-10v-1q-6 -22 -45 -45t-105 -38.5t-149 -15.5q-121 0 -177.5 40.5zM490 63.5q71 22.5 119 58.5v45q-60 34 -126 53.5t-156 19.5q-188 0 -188 -99q0 -100 188 -100q92 0 163 22.5z" />
    <glyph glyph-name="b" unicode="b" horiz-adv-x="796" 
d="M252 34q-70 45 -94 117h-11l14 -151h-67v700h65v-174q0 -75 -12 -173h11q24 71 94 116t183 45q93 0 161 -33.5t104 -93.5t36 -136t-36 -135.5t-104.5 -93t-160.5 -33.5q-113 0 -183 45zM553 71q58 27 88 74t30 106t-30 106.5t-88 74.5t-138 27t-138 -27t-88 -74.5
t-30 -106.5t30 -106t88 -74t138 -27t138 27z" />
    <glyph glyph-name="c" unicode="c" horiz-adv-x="751" 
d="M205.5 23.5q-73.5 34.5 -111.5 94t-38 133.5q0 75 38 134.5t111.5 94t175.5 34.5q95 0 165 -28t110.5 -77t49.5 -112h-65q-14 71 -80.5 116.5t-179.5 45.5q-82 0 -140.5 -27.5t-89 -74.5t-30.5 -106q0 -58 30.5 -105t89 -74.5t140.5 -27.5q113 0 179.5 45.5t80.5 116.5
h65q-9 -62 -49.5 -111t-110.5 -77.5t-165 -28.5q-102 0 -175.5 34.5z" />
    <glyph glyph-name="d" unicode="d" horiz-adv-x="796" 
d="M201 22.5q-68 33.5 -104 93t-36 135.5t36 136t103.5 93.5t160.5 33.5q113 0 183.5 -45t94.5 -116h10q-12 98 -12 173v174h65v-700h-67l14 151h-10q-24 -72 -94.5 -117t-183.5 -45q-92 0 -160 33.5zM519 71q58 27 88 74t30 106t-30 106.5t-88 74.5t-138 27t-137.5 -27
t-87.5 -74.5t-30 -106.5t30 -106t87.5 -74t137.5 -27t138 27z" />
    <glyph glyph-name="e" unicode="e" horiz-adv-x="771" 
d="M713 223h-592q10 -81 79 -131.5t186 -50.5q105 0 164.5 34.5t83.5 80.5h66q-25 -67 -102 -117t-213 -50q-104 0 -178.5 34t-112.5 93.5t-38 133.5q0 76 38.5 135.5t112.5 94t179 34.5q103 0 177.5 -34.5t113 -94t38.5 -134.5q0 -10 -2 -28zM198 410q-69 -52 -78 -137h531
q-6 54 -38.5 97t-90 67.5t-136.5 24.5q-119 0 -188 -52z" />
    <glyph glyph-name="f" unicode="f" horiz-adv-x="691" 
d="M217 0v424h-186v52h196v9q-49 5 -85.5 33t-36.5 74q0 55 65.5 89.5t221.5 34.5q152 0 219 -47t67 -133v-2h-65v4q0 61 -49.5 93.5t-171.5 32.5q-222 0 -222 -88q0 -36 29.5 -58t76.5 -42h307v-52h-300v-424h-66z" />
    <glyph glyph-name="g" unicode="g" horiz-adv-x="769" 
d="M174.5 -206.5q-75.5 20.5 -105.5 56t-30 87.5q0 58 33.5 90t94.5 46v9h-16q-35 0 -53.5 16t-18.5 42t19 42t53 16h42v9q-51 14 -82.5 48t-31.5 88q0 82 72 126.5t240 44.5h210q23 0 34.5 9t11.5 24q0 12 -7 23.5t-24 27.5h66q28 -22 28 -52q0 -25 -18 -40t-54 -15h-56v-8
q56 -15 87 -51t31 -89q0 -77 -71 -120.5t-235 -43.5h-211q-22 0 -35 -11.5t-13 -28.5q0 -16 13 -27t35 -11h222q177 0 248.5 -42.5t71.5 -120.5q0 -52 -30 -88t-105.5 -56.5t-207.5 -20.5t-207.5 20.5zM581.5 256.5q55.5 31.5 55.5 86.5q0 56 -55 87.5t-192 31.5t-192 -31.5
t-55 -87.5q0 -55 55 -86.5t192 -31.5q136 0 191.5 31.5zM554.5 -160q61.5 14 84.5 39t23 61t-23 61t-84.5 39t-172.5 14t-172 -14t-84 -39t-23 -61t23 -61t84 -39t172 -14t172.5 14z" />
    <glyph glyph-name="h" unicode="h" horiz-adv-x="802" 
d="M94 0v700h65v-185q0 -44 -2.5 -82t-9.5 -97h11q19 77 87.5 127.5t179.5 50.5q137 0 215 -79t78 -219v-216h-66v204q0 122 -64.5 188.5t-181.5 66.5q-116 0 -181.5 -66.5t-65.5 -188.5v-204h-65z" />
    <glyph glyph-name="i" unicode="i" horiz-adv-x="537" 
d="M320 56h184v-56h-457v56h210v319q0 43 -18.5 62t-61.5 19q-20 0 -35.5 -3.5t-37.5 -11.5v57q42 16 90 16q66 0 96 -29t30 -91v-338zM237.5 628.5q-13.5 12.5 -13.5 32.5q0 19 14 31.5t37 12.5t36.5 -12.5t13.5 -31.5q0 -20 -13.5 -32.5t-36.5 -12.5q-24 0 -37.5 12.5z
" />
    <glyph glyph-name="j" unicode="j" horiz-adv-x="328" 
d="M-25.5 -214q-20.5 3 -44.5 10v56q39 -13 84 -13q87 0 126.5 34.5t39.5 104.5v397q0 43 -18.5 62t-61.5 19q-20 0 -35.5 -3.5t-37.5 -11.5v57q42 16 91 16q65 0 95 -29t30 -91v-417q0 -194 -220 -194q-28 0 -48.5 3zM161.5 628.5q-13.5 12.5 -13.5 32.5q0 19 14 31.5
t37 12.5t36.5 -12.5t13.5 -31.5q0 -20 -13.5 -32.5t-36.5 -12.5q-24 0 -37.5 12.5z" />
    <glyph glyph-name="k" unicode="k" horiz-adv-x="665" 
d="M252 261l402 -261h-104l-391 257v-257h-65v700h65v-435l382 238h103z" />
    <glyph glyph-name="l" unicode="l" horiz-adv-x="575" 
d="M338 56h205v-56h-501v56h230v515q0 45 -19.5 63t-68.5 18q-24 0 -41.5 -3.5t-41.5 -12.5v57q46 18 100 18q73 0 105 -29t32 -91v-535z" />
    <glyph glyph-name="m" unicode="m" horiz-adv-x="1106" 
d="M89 0v503h67l-13 -130h11q18 62 70.5 101.5t136.5 39.5q87 0 142.5 -43.5t70.5 -111.5h9q17 70 71.5 112.5t141.5 42.5q104 0 165 -63.5t61 -177.5v-273h-65v261q0 93 -50 145.5t-135 52.5q-84 0 -134 -52.5t-50 -145.5v-261h-65v261q0 93 -49.5 145.5t-134.5 52.5
t-135 -52.5t-50 -145.5v-261h-65z" />
    <glyph glyph-name="n" unicode="n" horiz-adv-x="797" 
d="M89 0v503h67l-14 -167h11q19 77 87.5 127.5t179.5 50.5q137 0 215 -79t78 -219v-216h-66v204q0 122 -64.5 188.5t-181.5 66.5q-116 0 -181.5 -66.5t-65.5 -188.5v-204h-65z" />
    <glyph glyph-name="o" unicode="o" horiz-adv-x="779" 
d="M208 23q-75 34 -113.5 93.5t-38.5 134.5t38.5 134.5t113.5 94t181 34.5t181.5 -34.5t114 -94t38.5 -134.5t-38.5 -134.5t-114 -93.5t-181.5 -34t-181 34zM535.5 71q60.5 27 91.5 74t31 106t-31 106t-91.5 74.5t-146.5 27.5q-85 0 -145.5 -27.5t-91.5 -74.5t-31 -106
t31 -105.5t91.5 -74t145.5 -27.5q86 0 146.5 27z" />
    <glyph glyph-name="p" unicode="p" horiz-adv-x="791" 
d="M89 -197v700h67l-14 -150h11q24 71 94 116t183 45q93 0 161 -33.5t104 -93.5t36 -136t-36 -135.5t-104.5 -93t-160.5 -33.5q-113 0 -183 45t-94 117h-11q7 -54 9.5 -91.5t2.5 -82.5v-174h-65zM548 71q58 27 88 74t30 106t-30 106.5t-88 74.5t-138 27t-138 -27t-88 -74.5
t-30 -106.5t30 -106t88 -74t138 -27t138 27z" />
    <glyph glyph-name="q" unicode="q" horiz-adv-x="791" 
d="M637 -23q0 45 3 82.5t9 91.5h-10q-24 -72 -94.5 -117t-183.5 -45q-92 0 -160 33.5t-104 93t-36 135.5t36 136t103.5 93.5t160.5 33.5q113 0 183.5 -45t94.5 -116h10l-14 150h67v-700h-65v174zM519 71q58 27 88 74t30 106t-30 106.5t-88 74.5t-138 27t-137.5 -27
t-87.5 -74.5t-30 -106.5t30 -106t87.5 -74t137.5 -27t138 27z" />
    <glyph glyph-name="r" unicode="r" horiz-adv-x="703" 
d="M89 0v503h67l-13 -150h11q18 69 80 115t162 46q127 0 196 -65.5t69 -179.5v-12h-65v8q0 87 -58 139.5t-163 52.5t-163 -58.5t-58 -170.5v-228h-65z" />
    <glyph glyph-name="s" unicode="s" horiz-adv-x="732" 
d="M134 36.5q-72 47.5 -72 128.5v11h66v-10q0 -57 56 -91t185 -34q135 0 187.5 26.5t52.5 71.5q0 38 -32.5 57t-81 25.5t-129.5 9.5q-99 5 -157.5 13.5t-100 37t-41.5 86.5q0 146 302 146q155 0 226.5 -48.5t73.5 -129.5h-65q-2 57 -56.5 91.5t-178.5 34.5
q-132 0 -184 -26.5t-52 -70.5q0 -35 30.5 -52.5t77 -23t124.5 -8.5q99 -4 160.5 -13t105 -40t43.5 -92q0 -69 -68.5 -108t-236.5 -39q-163 0 -235 47.5z" />
    <glyph glyph-name="t" unicode="t" horiz-adv-x="694" 
d="M156 48q-72 59 -72 157q0 81 49 140t118 85v9h-232v52h190q26 0 35.5 10t9.5 36v86h56v-132h307v-52h-313q-155 -69 -155 -213q0 -85 55.5 -133.5t163.5 -48.5q222 0 222 176v7h65v-8q0 -110 -70.5 -170t-216.5 -60q-140 0 -212 59z" />
    <glyph glyph-name="u" unicode="u" horiz-adv-x="782" 
d="M160 66.5q-76 77.5 -76 214.5v222h65v-210q0 -119 63.5 -184t175.5 -65t175.5 65t63.5 184v210h66v-503h-67l14 167h-11q-19 -78 -85.5 -128t-174.5 -50q-133 0 -209 77.5z" />
    <glyph glyph-name="v" unicode="v" horiz-adv-x="697" 
d="M308 0l-281 503h77l221 -409q18 -31 18 -56v-3h11v3q0 25 18 56l221 409h76l-280 -503h-81z" />
    <glyph glyph-name="w" unicode="w" horiz-adv-x="1026" 
d="M244 0l-212 503h71l167 -404q13 -30 13 -60v-4h11v4q0 37 11 60l174 404h68l174 -404q11 -26 11 -60v-4h10v4q0 27 14 60l167 404h70l-211 -503h-80l-172 393q-12 28 -12 71v4h-10v-4q0 -44 -13 -71l-171 -393h-80z" />
    <glyph glyph-name="x" unicode="x" horiz-adv-x="701" 
d="M22 0l282 256l-272 247h88l191 -175q34 -32 34 -50v-2h11v2q0 18 34 50l191 175h87l-272 -247l282 -256h-88l-203 187q-12 11 -21.5 23t-9.5 20v2h-11v-2q0 -8 -9.5 -20t-21.5 -23l-203 -187h-89z" />
    <glyph glyph-name="y" unicode="y" horiz-adv-x="697" 
d="M593 503h76l-308 -550q-52 -93 -99 -131.5t-120 -38.5q-37 0 -75 13v56q36 -13 69 -13q54 0 87 26t69 89l21 36l-286 513h77l219 -405q19 -37 19 -58h11q0 23 18 58z" />
    <glyph glyph-name="z" unicode="z" horiz-adv-x="708" 
d="M644 0h-575v51l461 386v10h-451v56h555v-51l-461 -386v-10h471v-56z" />
    <glyph glyph-name="braceleft" unicode="{" horiz-adv-x="517" 
d="M338 -275q-80 0 -124 44t-44 125v244q0 93 -111 93v48q111 0 111 93v244q0 81 44 125t124 44h120v-56h-106q-119 0 -119 -120v-242q0 -45 -25 -73t-64 -33v-11q39 -5 64 -33.5t25 -73.5v-242q0 -120 119 -120h106v-56h-120z" />
    <glyph glyph-name="bar" unicode="|" horiz-adv-x="299" 
d="M184 -210h-70v950h70v-950z" />
    <glyph glyph-name="braceright" unicode="}" horiz-adv-x="517" 
d="M59 -275v56h106q119 0 119 120v242q0 45 25 73.5t64 33.5v11q-39 5 -64 33t-25 73v242q0 120 -119 120h-106v56h120q80 0 124 -44t44 -125v-244q0 -93 111 -93v-48q-111 0 -111 -93v-244q0 -81 -44 -125t-124 -44h-120z" />
    <glyph glyph-name="asciitilde" unicode="~" horiz-adv-x="610" 
d="M358.5 275q-31.5 19 -72.5 57q-32 30 -54.5 44.5t-49.5 14.5q-28 0 -43.5 -16t-15.5 -44q0 -32 18 -65h-56q-21 36 -21 75q0 48 29 75.5t82 27.5q45 0 76.5 -19t72.5 -57q32 -30 54.5 -44.5t49.5 -14.5q28 0 43.5 16t15.5 44q0 31 -18 65h56q21 -37 21 -76
q0 -47 -29 -74.5t-82 -27.5q-45 0 -76.5 19z" />
    <glyph glyph-name="uni00A0" unicode="&#xa0;" horiz-adv-x="287" 
 />
    <glyph glyph-name="exclamdown" unicode="&#xa1;" horiz-adv-x="236" 
d="M81.5 434.5q-14.5 13.5 -14.5 33.5t14.5 33t36.5 13q23 0 37 -13t14 -33q0 -21 -14 -34t-37 -13q-22 0 -36.5 13.5zM154 -197h-71v377l15 154h40l16 -154v-377z" />
    <glyph glyph-name="cent" unicode="&#xa2;" horiz-adv-x="751" 
d="M560.5 188.5q66.5 45.5 80.5 116.5h65q-13 -90 -88.5 -149.5t-201.5 -67.5v-105h-69v105q-92 6 -157.5 41.5t-99.5 93t-34 127.5q0 71 34 128t99.5 92.5t157.5 41.5v105h69v-105q126 -8 201.5 -67t88.5 -149h-65q-14 71 -80.5 116t-179.5 45q-82 0 -140.5 -27t-89 -74
t-30.5 -106q0 -58 30.5 -105t89 -74.5t140.5 -27.5q113 0 179.5 45.5z" />
    <glyph glyph-name="sterling" unicode="&#xa3;" horiz-adv-x="830" 
d="M759 489h-72v10q0 38 -26.5 72.5t-79.5 56t-127 21.5q-114 0 -174 -52t-60 -141v-87h366v-57h-366v-149q0 -40 -13.5 -65t-36.5 -35h589v-63h-702v63q47 0 69 20.5t22 70.5v158h-81v57h81v87q0 119 78 187t228 68q98 0 167 -29t103.5 -77t34.5 -106v-10z" />
    <glyph glyph-name="currency" unicode="&#xa4;" horiz-adv-x="712" 
d="M559 247l103 -104l-43 -35l-102 101q-61 -40 -161 -40t-162 40l-101 -101l-44 35l104 104q-32 44 -32 103t32 103l-104 104l44 35l101 -101q62 40 162 40t161 -40l102 101l43 -35l-103 -104q32 -44 32 -103t-32 -103zM488 253.5q46 37.5 46 96.5t-46 96.5t-132 37.5
q-87 0 -133 -37.5t-46 -96.5t46 -96.5t133 -37.5q86 0 132 37.5z" />
    <glyph glyph-name="yen" unicode="&#xa5;" horiz-adv-x="833" 
d="M806 700l-328 -392h186v-52h-211v-105h211v-52h-211v-99h-72v99h-212v52h212v105h-212v52h187l-329 392h85l267 -327q32 -41 32 -62v-3h11v3q0 22 33 62l266 327h85z" />
    <glyph glyph-name="brokenbar" unicode="&#xa6;" horiz-adv-x="299" 
d="M184 330h-70v410h70v-410zM184 -210h-70v410h70v-410z" />
    <glyph glyph-name="section" unicode="&#xa7;" horiz-adv-x="776" 
d="M176 -139q-67 52 -67 149v19h66v-18q0 -74 50 -111.5t168 -37.5q218 0 218 109q0 110 -225 110q-170 0 -241 46t-71 130q0 71 47 110.5t121 47.5v11q-62 11 -100 43.5t-38 87.5q0 154 284 154q149 0 216 -52t67 -149v-19h-65v18q0 74 -50.5 111.5t-167.5 37.5
q-218 0 -218 -109q0 -110 224 -110q170 0 241 -46t71 -130q0 -71 -47 -110.5t-121 -47.5v-11q62 -11 100 -43.5t38 -87.5q0 -154 -283 -154q-150 0 -217 52zM586 165q55 33 55 95t-55.5 95t-195.5 33t-195 -33t-55 -95t55.5 -95t195.5 -33t195 33z" />
    <glyph glyph-name="dieresis" unicode="&#xa8;" horiz-adv-x="386" 
d="M42 633q-12 11 -12 28q0 16 12 27t32 11t32.5 -11t12.5 -27q0 -17 -12 -28t-33 -11q-20 0 -32 11zM280 633q-12 11 -12 28q0 16 12 27t32 11t32 -11t12 -27q0 -17 -12 -28t-32 -11t-32 11z" />
    <glyph glyph-name="copyright" unicode="&#xa9;" horiz-adv-x="964" 
d="M262 36q-94 47 -144.5 129.5t-50.5 184.5t50.5 184.5t144.5 129.5t220 47t219.5 -47t144 -129.5t50.5 -184.5t-50.5 -184.5t-144 -129.5t-219.5 -47t-220 47zM674.5 77.5q82.5 41.5 127 113t44.5 159.5t-44.5 159.5t-127 113t-192.5 41.5t-192.5 -41.5t-127 -113
t-44.5 -159.5t44.5 -159.5t127 -113t192.5 -41.5t192.5 41.5zM335 231.5q-53 45.5 -53 118.5t53 118.5t150 45.5q61 0 104 -19t65.5 -47.5t27.5 -58.5h-54q-7 29 -43.5 53.5t-99.5 24.5q-70 0 -109.5 -33t-39.5 -84t39.5 -84t109.5 -33q63 0 99.5 24.5t43.5 53.5h54
q-5 -30 -27.5 -58.5t-65.5 -47.5t-104 -19q-97 0 -150 45.5z" />
    <glyph glyph-name="ordfeminine" unicode="&#xaa;" horiz-adv-x="567" 
d="M51 430q0 114 179 114q69 0 115 -14t89 -36v48q0 55 -43 89t-126 34q-79 0 -120.5 -28t-48.5 -66h-55q6 59 61.5 99.5t162.5 40.5q109 0 165 -46.5t56 -124.5v-143q0 -19 8.5 -28t27.5 -9q15 0 30 5v-43q-19 -5 -41 -5q-35 0 -53 17t-18 49h-7q-9 -29 -66.5 -47.5
t-136.5 -18.5q-179 0 -179 113zM349 372q49 12 85 34v55q-96 40 -191 40q-75 0 -106 -18.5t-31 -51.5q0 -34 31 -52.5t106 -18.5q57 0 106 12z" />
    <glyph glyph-name="guillemotleft" unicode="&#xab;" horiz-adv-x="565" 
d="M287 64h-67l-183 188l183 188h67l-185 -188zM516 64h-66l-183 188l183 188h66l-185 -188z" />
    <glyph glyph-name="logicalnot" unicode="&#xac;" horiz-adv-x="625" 
d="M541 248h-59v108h-408v56h467v-164z" />
    <glyph glyph-name="uni00AD" unicode="&#xad;" horiz-adv-x="530" 
d="M461 280l-392 -90v54l392 90v-54z" />
    <glyph glyph-name="registered" unicode="&#xae;" horiz-adv-x="599" 
d="M427 684q54 -27 83 -75t29 -109t-29 -109t-83 -75t-128 -27t-128 27t-83 75t-29 109t29 109t83 75t128 27t128 -27zM448.5 371.5q53.5 48.5 53.5 128.5t-53.5 128.5t-149.5 48.5q-95 0 -149 -48.5t-54 -128.5t54 -128.5t149 -48.5q96 0 149.5 48.5zM393.5 496
q-10.5 -16 -30.5 -23l46 -71h-41l-41 65h-3h-81v-65h-37v198h118q39 0 59.5 -18.5t20.5 -48.5q0 -21 -10.5 -37zM241 566v-69h83q21 0 32.5 9.5t11.5 25.5q0 15 -11.5 24.5t-32.5 9.5h-83z" />
    <glyph glyph-name="macron" unicode="&#xaf;" horiz-adv-x="434" 
d="M404 652h-374v49h374v-49z" />
    <glyph glyph-name="degree" unicode="&#xb0;" horiz-adv-x="481" 
d="M142.5 389q-42.5 22 -65.5 61t-23 89t23 89t65.5 61t98.5 22t98 -22t65 -61t23 -89t-23 -89t-65 -61t-98 -22t-98.5 22zM339.5 448.5q37.5 35.5 37.5 90.5t-37.5 90.5t-98.5 35.5q-62 0 -99.5 -35.5t-37.5 -90.5t37.5 -90.5t99.5 -35.5q61 0 98.5 35.5z" />
    <glyph glyph-name="plusminus" unicode="&#xb1;" horiz-adv-x="610" 
d="M531 395v-52h-198v-186h198v-53h-452v53h198v186h-198v52h198v178h56v-178h198z" />
    <glyph glyph-name="uni00B2" unicode="&#xb2;" horiz-adv-x="487" 
d="M108 467h335v-43h-387v52q0 54 28 82.5t67.5 39.5t104.5 20q47 6 74.5 12t45.5 20.5t18 40.5q0 33 -34 53t-112 20q-79 0 -112 -22t-33 -62v-9h-52v10q0 60 46 93t151 33q104 0 151 -31t47 -81q0 -41 -24 -64t-58.5 -32.5t-93.5 -19.5q-55 -9 -86.5 -17.5t-53.5 -28.5
t-22 -55v-11z" />
    <glyph glyph-name="uni00B3" unicode="&#xb3;" horiz-adv-x="472" 
d="M246 646q103 0 149.5 -31t46.5 -85q0 -53 -48 -85t-153 -32t-152.5 32.5t-47.5 87.5v9h52v-9q0 -34 35.5 -55.5t112.5 -21.5q148 0 148 76q0 74 -147 74h-81v42l206 112v7q-32 -7 -55.5 -10.5t-57.5 -3.5h-198v43h366v-50l-188 -100h12z" />
    <glyph glyph-name="acute" unicode="&#xb4;" horiz-adv-x="247" 
d="M84 591h-54l104 152h83z" />
    <glyph glyph-name="uni00B5" unicode="&#xb5;" horiz-adv-x="782" 
d="M627 503h66v-503h-67l14 167h-11q-19 -78 -84.5 -128t-170.5 -50q-80 0 -137.5 30.5t-87.5 85.5v-302h-65v700h65v-210q0 -119 63.5 -184t175.5 -65t175.5 65t63.5 184v210z" />
    <glyph glyph-name="paragraph" unicode="&#xb6;" horiz-adv-x="722" 
d="M270 327q-104 0 -159 50t-55 137q0 86 54.5 136t155.5 50h405v-51h-110v-859h-58v859h-175v-859h-58v537z" />
    <glyph glyph-name="periodcentered" unicode="&#xb7;" horiz-adv-x="287" 
d="M107.5 238q-14.5 13 -14.5 33t14.5 33.5t36.5 13.5q23 0 37 -13t14 -34q0 -20 -14 -33t-37 -13q-22 0 -36.5 13z" />
    <glyph glyph-name="cedilla" unicode="&#xb8;" horiz-adv-x="352" 
d="M159 -57q163 0 163 -85q0 -86 -155 -86q-80 0 -137 27v50q60 -27 137 -27q56 0 77.5 10.5t21.5 29.5q0 20 -22.5 30.5t-84.5 10.5h-72v36l43 70h48l-42 -66h23z" />
    <glyph glyph-name="uni00B9" unicode="&#xb9;" horiz-adv-x="415" 
d="M258 467h143v-43h-350v43h158v136q0 32 3.5 55t13.5 62h-7q-27 -91 -143 -91v43h16q61 0 90.5 30t29.5 82v12h46v-329z" />
    <glyph glyph-name="ordmasculine" unicode="&#xba;" horiz-adv-x="551" 
d="M146 342.5q-54 25.5 -82 70t-28 101.5t28 101.5t82 70t130 25.5t130 -25.5t82 -70t28 -101.5t-28 -101.5t-82 -70t-130 -25.5t-130 25.5zM411.5 405q48.5 42 48.5 109t-48.5 109t-135.5 42t-136 -42t-49 -109t49 -109t136 -42t135.5 42z" />
    <glyph glyph-name="guillemotright" unicode="&#xbb;" horiz-adv-x="565" 
d="M116 64h-67l185 188l-185 188h67l183 -188zM345 64h-67l185 188l-185 188h67l183 -188z" />
    <glyph glyph-name="onequarter" unicode="&#xbc;" horiz-adv-x="1079" 
d="M258 371h143v-43h-350v43h158v136q0 32 3.5 55t13.5 62h-7q-27 -91 -143 -91v43h16q61 0 90.5 30t29.5 82v12h46v-329zM365 0h-66l520 700h66zM975 121h78v-43h-78v-78h-53v78h-267v43l248 251h72v-251zM722 128v-7h203v132q0 27 2.5 45.5t10.5 50.5h-8q-26 -40 -50 -64z
" />
    <glyph glyph-name="onehalf" unicode="&#xbd;" horiz-adv-x="1166" 
d="M258 371h143v-43h-350v43h158v136q0 32 3.5 55t13.5 62h-7q-27 -91 -143 -91v43h16q61 0 90.5 30t29.5 82v12h46v-329zM365 0h-66l520 700h66zM787 43h335v-43h-387v52q0 54 28 82.5t67.5 39.5t104.5 20q47 6 74.5 12t45.5 20.5t18 40.5q0 33 -34 53t-112 20
q-79 0 -112 -22t-33 -62v-9h-52v10q0 60 46 93t151 33q104 0 151 -31t47 -81q0 -41 -24 -64t-58.5 -32.5t-93.5 -19.5q-55 -9 -86.5 -17.5t-53.5 -28.5t-22 -55v-11z" />
    <glyph glyph-name="threequarters" unicode="&#xbe;" horiz-adv-x="1076" 
d="M246 550q103 0 149.5 -31t46.5 -85q0 -53 -48 -85t-153 -32t-152.5 32.5t-47.5 87.5v9h52v-9q0 -34 35.5 -55.5t112.5 -21.5q148 0 148 76q0 74 -147 74h-81v42l206 112v7q-32 -7 -55.5 -10.5t-57.5 -3.5h-198v43h366v-50l-188 -100h12zM362 0h-66l520 700h66zM972 121
h78v-43h-78v-78h-53v78h-267v43l248 251h72v-251zM719 128v-7h203v132q0 27 2.5 45.5t10.5 50.5h-8q-26 -40 -50 -64z" />
    <glyph glyph-name="questiondown" unicode="&#xbf;" horiz-adv-x="745" 
d="M349 434q-14 13 -14 34q0 20 14 33t37 13q22 0 36 -13t14 -33t-14 -33.5t-36 -13.5q-23 0 -37 13zM125.5 -157q-76.5 51 -76.5 136q0 55 21.5 88.5t52 51t81.5 36.5q48 18 77 34.5t48.5 46t19.5 76.5v24h72v-27q0 -65 -24 -103.5t-58.5 -57.5t-89.5 -39
q-45 -16 -69.5 -28.5t-41.5 -35t-17 -59.5q0 -62 57.5 -98.5t189.5 -36.5q251 0 251 164v22h72v-22q0 -106 -77 -164.5t-244 -58.5q-168 0 -244.5 51z" />
    <glyph glyph-name="Agrave" unicode="&#xc0;" horiz-adv-x="893" 
d="M861 0h-78l-80 153h-513l-80 -153h-78l373 700h83zM221 212h451l-194 368q-26 52 -26 77v1h-11v-1q0 -25 -26 -77zM509 781h-60l-160 162h96z" />
    <glyph glyph-name="Aacute" unicode="&#xc1;" horiz-adv-x="893" 
d="M861 0h-78l-80 153h-513l-80 -153h-78l373 700h83zM221 212h451l-194 368q-26 52 -26 77v1h-11v-1q0 -25 -26 -77zM445 781h-60l124 162h96z" />
    <glyph glyph-name="Acircumflex" unicode="&#xc2;" horiz-adv-x="893" 
d="M861 0h-78l-80 153h-513l-80 -153h-78l373 700h83zM221 212h451l-194 368q-26 52 -26 77v1h-11v-1q0 -25 -26 -77zM480 943l203 -162h-84l-152 127l-153 -127h-83l203 162h66z" />
    <glyph glyph-name="Atilde" unicode="&#xc3;" horiz-adv-x="893" 
d="M861 0h-78l-80 153h-513l-80 -153h-78l373 700h83zM221 212h451l-194 368q-26 52 -26 77v1h-11v-1q0 -25 -26 -77zM262 782q-33 43 -33 89q0 39 25.5 63t69.5 24q39 0 70 -18t72 -53q30 -28 51.5 -41.5t45.5 -13.5q22 0 34 12.5t12 34.5q0 39 -32 79h55q15 -19 24 -42
t9 -46q0 -40 -26 -64t-70 -24q-39 0 -68.5 18t-72.5 54q-30 28 -51.5 41.5t-45.5 13.5q-22 0 -34 -12.5t-12 -34.5q0 -40 32 -80h-55z" />
    <glyph glyph-name="Adieresis" unicode="&#xc4;" horiz-adv-x="893" 
d="M861 0h-78l-80 153h-513l-80 -153h-78l373 700h83zM221 212h451l-194 368q-26 52 -26 77v1h-11v-1q0 -25 -26 -77zM268.5 818.5q-14.5 12.5 -14.5 32.5q0 19 14.5 32t39.5 13t39.5 -12.5t14.5 -32.5t-14 -32.5t-40 -12.5q-25 0 -39.5 12.5zM545 818.5q-14 12.5 -14 32.5
t14.5 32.5t39.5 12.5t39.5 -12.5t14.5 -32.5t-14 -32.5t-40 -12.5t-40 12.5z" />
    <glyph glyph-name="Aring" unicode="&#xc5;" horiz-adv-x="893" 
d="M861 0h-78l-80 153h-513l-80 -153h-78l373 700h83zM221 212h451l-194 368q-26 52 -26 77v1h-11v-1q0 -25 -26 -77zM332.5 787q-40.5 33 -40.5 84q0 52 40.5 85t114.5 33t114 -33t40 -85q0 -51 -40 -84t-114 -33t-114.5 33zM523.5 821.5q25.5 19.5 25.5 49.5
q0 31 -25.5 50.5t-76.5 19.5t-76.5 -19.5t-25.5 -50.5q0 -30 25.5 -49.5t76.5 -19.5t76.5 19.5z" />
    <glyph glyph-name="AE" unicode="&#xc6;" horiz-adv-x="1384" 
d="M1307 700v-63h-555v-252h485v-59h-485v-263h555v-63h-625v158h-444l-146 -158h-88l649 700h654zM293 217h389v420h-11q-20 -33 -54 -70z" />
    <glyph glyph-name="Ccedilla" unicode="&#xc7;" horiz-adv-x="1005" 
d="M762 112.5q91 61.5 115 158.5h72q-25 -124 -130.5 -201t-292.5 -81l-29 -46h23q163 0 163 -85q0 -86 -155 -86q-80 0 -137 27v50q60 -27 137 -27q56 0 77.5 10.5t21.5 29.5q0 20 -22.5 30.5t-84.5 10.5h-72v36l31 51q-130 5 -223.5 53t-141.5 127.5t-48 179.5
q0 103 52 185t151.5 129t238.5 47q194 0 304 -78t137 -204h-72q-24 97 -115 158.5t-254 61.5q-116 0 -199.5 -39.5t-127 -107t-43.5 -152.5t43.5 -152.5t127 -107t199.5 -39.5q163 0 254 61.5z" />
    <glyph glyph-name="Egrave" unicode="&#xc8;" horiz-adv-x="839" 
d="M761 700v-63h-585v-252h515v-59h-515v-263h585v-63h-657v700h657zM495 781h-60l-160 162h96z" />
    <glyph glyph-name="Eacute" unicode="&#xc9;" horiz-adv-x="839" 
d="M761 700v-63h-585v-252h515v-59h-515v-263h585v-63h-657v700h657zM431 781h-60l124 162h96z" />
    <glyph glyph-name="Ecircumflex" unicode="&#xca;" horiz-adv-x="839" 
d="M761 700v-63h-585v-252h515v-59h-515v-263h585v-63h-657v700h657zM466 943l203 -162h-84l-152 127l-153 -127h-83l203 162h66z" />
    <glyph glyph-name="Edieresis" unicode="&#xcb;" horiz-adv-x="839" 
d="M761 700v-63h-585v-252h515v-59h-515v-263h585v-63h-657v700h657zM254.5 818.5q-14.5 12.5 -14.5 32.5q0 19 14.5 32t39.5 13t39.5 -12.5t14.5 -32.5t-14 -32.5t-40 -12.5q-25 0 -39.5 12.5zM531 818.5q-14 12.5 -14 32.5t14.5 32.5t39.5 12.5t39.5 -12.5t14.5 -32.5
t-14 -32.5t-40 -12.5t-40 12.5z" />
    <glyph glyph-name="Igrave" unicode="&#xcc;" horiz-adv-x="731" 
d="M653 0h-576v63h252v574h-252v63h576v-63h-252v-574h252v-63zM427 781h-60l-160 162h96z" />
    <glyph glyph-name="Iacute" unicode="&#xcd;" horiz-adv-x="731" 
d="M653 0h-576v63h252v574h-252v63h576v-63h-252v-574h252v-63zM364 781h-60l124 162h96z" />
    <glyph glyph-name="Icircumflex" unicode="&#xce;" horiz-adv-x="731" 
d="M653 0h-576v63h252v574h-252v63h576v-63h-252v-574h252v-63zM398 943l203 -162h-84l-152 127l-153 -127h-83l203 162h66z" />
    <glyph glyph-name="Idieresis" unicode="&#xcf;" horiz-adv-x="731" 
d="M653 0h-576v63h252v574h-252v63h576v-63h-252v-574h252v-63zM187.5 818.5q-14.5 12.5 -14.5 32.5q0 19 14.5 32t39.5 13t39.5 -12.5t14.5 -32.5t-14 -32.5t-40 -12.5q-25 0 -39.5 12.5zM464 818.5q-14 12.5 -14 32.5t14.5 32.5t39.5 12.5t39.5 -12.5t14.5 -32.5
t-14 -32.5t-40 -12.5t-40 12.5z" />
    <glyph glyph-name="Eth" unicode="&#xd0;" horiz-adv-x="939" 
d="M456 700q129 0 223 -46t144 -125.5t50 -178.5t-50 -178.5t-144 -125.5t-223 -46h-322v323h-130v53h130v324h322zM456 63q106 0 184 38t119.5 103t41.5 146t-41.5 146t-119.5 103t-184 38h-250v-261h253v-53h-253v-260h250z" />
    <glyph glyph-name="Ntilde" unicode="&#xd1;" horiz-adv-x="977" 
d="M104 0v700h116l585 -658h11q-7 34 -10 61.5t-3 68.5v528h70v-700h-116l-585 658h-10q7 -35 9.5 -62t2.5 -68v-528h-70zM313 782q-33 43 -33 89q0 39 25.5 63t69.5 24q39 0 70 -18t72 -53q30 -28 51.5 -41.5t45.5 -13.5q22 0 34 12.5t12 34.5q0 39 -32 79h55
q15 -19 24 -42t9 -46q0 -40 -26 -64t-70 -24q-39 0 -68.5 18t-72.5 54q-30 28 -51.5 41.5t-45.5 13.5q-22 0 -34 -12.5t-12 -34.5q0 -40 32 -80h-55z" />
    <glyph glyph-name="Ograve" unicode="&#xd2;" horiz-adv-x="1026" 
d="M271 36q-101 47 -153 129t-52 185t52 185t153 129t242 47t242 -47t153.5 -129t52.5 -185t-52.5 -185t-153.5 -129t-242 -47t-242 47zM716 90q85 39 129 107t44 153t-44 153t-129 107t-203 39t-203 -39t-128.5 -107t-43.5 -153t43.5 -153t128.5 -107t203 -39t203 39z
M575 781h-60l-160 162h96z" />
    <glyph glyph-name="Oacute" unicode="&#xd3;" horiz-adv-x="1026" 
d="M271 36q-101 47 -153 129t-52 185t52 185t153 129t242 47t242 -47t153.5 -129t52.5 -185t-52.5 -185t-153.5 -129t-242 -47t-242 47zM716 90q85 39 129 107t44 153t-44 153t-129 107t-203 39t-203 -39t-128.5 -107t-43.5 -153t43.5 -153t128.5 -107t203 -39t203 39z
M511 781h-60l124 162h96z" />
    <glyph glyph-name="Ocircumflex" unicode="&#xd4;" horiz-adv-x="1026" 
d="M271 36q-101 47 -153 129t-52 185t52 185t153 129t242 47t242 -47t153.5 -129t52.5 -185t-52.5 -185t-153.5 -129t-242 -47t-242 47zM716 90q85 39 129 107t44 153t-44 153t-129 107t-203 39t-203 -39t-128.5 -107t-43.5 -153t43.5 -153t128.5 -107t203 -39t203 39z
M546 943l203 -162h-84l-152 127l-153 -127h-83l203 162h66z" />
    <glyph glyph-name="Otilde" unicode="&#xd5;" horiz-adv-x="1026" 
d="M271 36q-101 47 -153 129t-52 185t52 185t153 129t242 47t242 -47t153.5 -129t52.5 -185t-52.5 -185t-153.5 -129t-242 -47t-242 47zM716 90q85 39 129 107t44 153t-44 153t-129 107t-203 39t-203 -39t-128.5 -107t-43.5 -153t43.5 -153t128.5 -107t203 -39t203 39z
M328 782q-33 43 -33 89q0 39 25.5 63t69.5 24q39 0 70 -18t72 -53q30 -28 51.5 -41.5t45.5 -13.5q22 0 34 12.5t12 34.5q0 39 -32 79h55q15 -19 24 -42t9 -46q0 -40 -26 -64t-70 -24q-39 0 -68.5 18t-72.5 54q-30 28 -51.5 41.5t-45.5 13.5q-22 0 -34 -12.5t-12 -34.5
q0 -40 32 -80h-55z" />
    <glyph glyph-name="Odieresis" unicode="&#xd6;" horiz-adv-x="1026" 
d="M271 36q-101 47 -153 129t-52 185t52 185t153 129t242 47t242 -47t153.5 -129t52.5 -185t-52.5 -185t-153.5 -129t-242 -47t-242 47zM716 90q85 39 129 107t44 153t-44 153t-129 107t-203 39t-203 -39t-128.5 -107t-43.5 -153t43.5 -153t128.5 -107t203 -39t203 39z
M335.5 818.5q-14.5 12.5 -14.5 32.5q0 19 14.5 32t39.5 13t39.5 -12.5t14.5 -32.5t-14 -32.5t-40 -12.5q-25 0 -39.5 12.5zM612 818.5q-14 12.5 -14 32.5t14.5 32.5t39.5 12.5t39.5 -12.5t14.5 -32.5t-14 -32.5t-40 -12.5t-40 12.5z" />
    <glyph glyph-name="multiply" unicode="&#xd7;" horiz-adv-x="540" 
d="M431 551l40 -40l-161 -160l161 -161l-40 -40l-161 161l-161 -161l-40 40l161 161l-161 160l40 40l161 -161z" />
    <glyph glyph-name="Oslash" unicode="&#xd8;" horiz-adv-x="1026" 
d="M863 591q48 -47 73 -108.5t25 -132.5q0 -103 -52.5 -185t-153.5 -129t-242 -47q-185 0 -304 82l-102 -82l-41 41l98 79q-48 47 -73 108.5t-25 132.5q0 103 52 185t153 129t242 47q94 0 171 -21.5t134 -61.5l102 83l41 -41zM157 240q21 -51 61 -91l549 436
q-101 66 -254 66q-119 0 -204.5 -39.5t-129 -107.5t-43.5 -154q0 -59 21 -110zM718 88.5q85 39.5 129 107.5t44 154q0 59 -21 110t-61 91l-549 -436q100 -66 253 -66q120 0 205 39.5z" />
    <glyph glyph-name="Ugrave" unicode="&#xd9;" horiz-adv-x="940" 
d="M189 74.5q-95 85.5 -95 240.5v385h72v-383q0 -126 76 -194.5t228 -68.5t228 68.5t76 194.5v383h72v-385q0 -155 -95 -240.5t-281 -85.5t-281 85.5zM532 781h-60l-160 162h96z" />
    <glyph glyph-name="Uacute" unicode="&#xda;" horiz-adv-x="940" 
d="M189 74.5q-95 85.5 -95 240.5v385h72v-383q0 -126 76 -194.5t228 -68.5t228 68.5t76 194.5v383h72v-385q0 -155 -95 -240.5t-281 -85.5t-281 85.5zM468 781h-60l124 162h96z" />
    <glyph glyph-name="Ucircumflex" unicode="&#xdb;" horiz-adv-x="940" 
d="M189 74.5q-95 85.5 -95 240.5v385h72v-383q0 -126 76 -194.5t228 -68.5t228 68.5t76 194.5v383h72v-385q0 -155 -95 -240.5t-281 -85.5t-281 85.5zM503 943l203 -162h-84l-152 127l-153 -127h-83l203 162h66z" />
    <glyph glyph-name="Udieresis" unicode="&#xdc;" horiz-adv-x="940" 
d="M189 74.5q-95 85.5 -95 240.5v385h72v-383q0 -126 76 -194.5t228 -68.5t228 68.5t76 194.5v383h72v-385q0 -155 -95 -240.5t-281 -85.5t-281 85.5zM291.5 818.5q-14.5 12.5 -14.5 32.5q0 19 14.5 32t39.5 13t39.5 -12.5t14.5 -32.5t-14 -32.5t-40 -12.5q-25 0 -39.5 12.5
zM568 818.5q-14 12.5 -14 32.5t14.5 32.5t39.5 12.5t39.5 -12.5t14.5 -32.5t-14 -32.5t-40 -12.5t-40 12.5z" />
    <glyph glyph-name="Yacute" unicode="&#xdd;" horiz-adv-x="833" 
d="M381 0v238l-354 462h85l267 -353q16 -23 24 -38t8 -26v-4h11v4q0 11 8 26.5t25 37.5l266 353h85l-353 -462v-238h-72zM415 781h-60l124 162h96z" />
    <glyph glyph-name="Thorn" unicode="&#xde;" horiz-adv-x="887" 
d="M554 574q132 0 200.5 -59t68.5 -160t-68.5 -160t-200.5 -59h-378v-136h-72v700h72v-126h378zM554 199q97 0 147 42t50 114t-50 114t-147 42h-380v-312h380z" />
    <glyph glyph-name="germandbls" unicode="&#xdf;" horiz-adv-x="803" 
d="M551 360q99 -3 153.5 -49.5t54.5 -123.5q0 -86 -68 -136.5t-211 -50.5h-225v56h222q217 0 217 138q0 137 -217 137h-192v53h135q244 0 244 136q0 64 -57 100t-190 36q-135 0 -199 -51t-64 -144v-461h-65v461q0 118 81 184t247 66q165 0 238.5 -49t73.5 -132
q0 -69 -49 -112t-129 -48v-10z" />
    <glyph glyph-name="agrave" unicode="&#xe0;" horiz-adv-x="773" 
d="M130.5 29.5q-56.5 40.5 -56.5 110.5q0 68 57 109t177 41q99 0 168.5 -21.5t132.5 -59.5v57q0 90 -60.5 141.5t-182.5 51.5q-77 0 -129.5 -20t-80 -51t-32.5 -66h-65q4 52 39 95.5t102.5 70t166.5 26.5q154 0 230.5 -66t76.5 -184v-166q0 -54 50 -54q14 0 34 5v-53
q-20 -7 -45 -7q-45 0 -70.5 23.5t-25.5 65.5v11h-10v-1q-6 -22 -45 -45t-105 -38.5t-149 -15.5q-121 0 -177.5 40.5zM490 63.5q71 22.5 119 58.5v45q-60 34 -126 53.5t-156 19.5q-188 0 -188 -99q0 -100 188 -100q92 0 163 22.5zM434 591h-54l-133 152h83z" />
    <glyph glyph-name="aacute" unicode="&#xe1;" horiz-adv-x="773" 
d="M130.5 29.5q-56.5 40.5 -56.5 110.5q0 68 57 109t177 41q99 0 168.5 -21.5t132.5 -59.5v57q0 90 -60.5 141.5t-182.5 51.5q-77 0 -129.5 -20t-80 -51t-32.5 -66h-65q4 52 39 95.5t102.5 70t166.5 26.5q154 0 230.5 -66t76.5 -184v-166q0 -54 50 -54q14 0 34 5v-53
q-20 -7 -45 -7q-45 0 -70.5 23.5t-25.5 65.5v11h-10v-1q-6 -22 -45 -45t-105 -38.5t-149 -15.5q-121 0 -177.5 40.5zM490 63.5q71 22.5 119 58.5v45q-60 34 -126 53.5t-156 19.5q-188 0 -188 -99q0 -100 188 -100q92 0 163 22.5zM377 591h-54l104 152h83z" />
    <glyph glyph-name="acircumflex" unicode="&#xe2;" horiz-adv-x="773" 
d="M130.5 29.5q-56.5 40.5 -56.5 110.5q0 68 57 109t177 41q99 0 168.5 -21.5t132.5 -59.5v57q0 90 -60.5 141.5t-182.5 51.5q-77 0 -129.5 -20t-80 -51t-32.5 -66h-65q4 52 39 95.5t102.5 70t166.5 26.5q154 0 230.5 -66t76.5 -184v-166q0 -54 50 -54q14 0 34 5v-53
q-20 -7 -45 -7q-45 0 -70.5 23.5t-25.5 65.5v11h-10v-1q-6 -22 -45 -45t-105 -38.5t-149 -15.5q-121 0 -177.5 40.5zM490 63.5q71 22.5 119 58.5v45q-60 34 -126 53.5t-156 19.5q-188 0 -188 -99q0 -100 188 -100q92 0 163 22.5zM405 743l179 -152h-75l-131 116l-131 -116
h-75l179 152h54z" />
    <glyph glyph-name="atilde" unicode="&#xe3;" horiz-adv-x="773" 
d="M130.5 29.5q-56.5 40.5 -56.5 110.5q0 68 57 109t177 41q99 0 168.5 -21.5t132.5 -59.5v57q0 90 -60.5 141.5t-182.5 51.5q-77 0 -129.5 -20t-80 -51t-32.5 -66h-65q4 52 39 95.5t102.5 70t166.5 26.5q154 0 230.5 -66t76.5 -184v-166q0 -54 50 -54q14 0 34 5v-53
q-20 -7 -45 -7q-45 0 -70.5 23.5t-25.5 65.5v11h-10v-1q-6 -22 -45 -45t-105 -38.5t-149 -15.5q-121 0 -177.5 40.5zM490 63.5q71 22.5 119 58.5v45q-60 34 -126 53.5t-156 19.5q-188 0 -188 -99q0 -100 188 -100q92 0 163 22.5zM209 586q-15 16 -24 38.5t-9 43.5
q0 37 25.5 61t67.5 24q38 0 66 -18t61 -51q26 -26 45 -39t41 -13t34 12t12 34q0 18 -8.5 38t-22.5 37h51q15 -17 24 -39t9 -43q0 -38 -25.5 -61.5t-67.5 -23.5q-38 0 -66 18t-61 51q-26 26 -45 39t-41 13t-34 -12.5t-12 -34.5q0 -19 8.5 -38.5t22.5 -35.5h-51z" />
    <glyph glyph-name="adieresis" unicode="&#xe4;" horiz-adv-x="773" 
d="M130.5 29.5q-56.5 40.5 -56.5 110.5q0 68 57 109t177 41q99 0 168.5 -21.5t132.5 -59.5v57q0 90 -60.5 141.5t-182.5 51.5q-77 0 -129.5 -20t-80 -51t-32.5 -66h-65q4 52 39 95.5t102.5 70t166.5 26.5q154 0 230.5 -66t76.5 -184v-166q0 -54 50 -54q14 0 34 5v-53
q-20 -7 -45 -7q-45 0 -70.5 23.5t-25.5 65.5v11h-10v-1q-6 -22 -45 -45t-105 -38.5t-149 -15.5q-121 0 -177.5 40.5zM490 63.5q71 22.5 119 58.5v45q-60 34 -126 53.5t-156 19.5q-188 0 -188 -99q0 -100 188 -100q92 0 163 22.5zM227 633q-12 11 -12 28q0 16 12 27t32 11
t32.5 -11t12.5 -27q0 -17 -12 -28t-33 -11q-20 0 -32 11zM465 633q-12 11 -12 28q0 16 12 27t32 11t32 -11t12 -27q0 -17 -12 -28t-32 -11t-32 11z" />
    <glyph glyph-name="aring" unicode="&#xe5;" horiz-adv-x="773" 
d="M130.5 29.5q-56.5 40.5 -56.5 110.5q0 68 57 109t177 41q99 0 168.5 -21.5t132.5 -59.5v57q0 90 -60.5 141.5t-182.5 51.5q-77 0 -129.5 -20t-80 -51t-32.5 -66h-65q4 52 39 95.5t102.5 70t166.5 26.5q154 0 230.5 -66t76.5 -184v-166q0 -54 50 -54q14 0 34 5v-53
q-20 -7 -45 -7q-45 0 -70.5 23.5t-25.5 65.5v11h-10v-1q-6 -22 -45 -45t-105 -38.5t-149 -15.5q-121 0 -177.5 40.5zM490 63.5q71 22.5 119 58.5v45q-60 34 -126 53.5t-156 19.5q-188 0 -188 -99q0 -100 188 -100q92 0 163 22.5zM275.5 601q-37.5 32 -37.5 80q0 49 37.5 81
t102.5 32t102 -32t37 -81q0 -48 -37 -80t-102 -32t-102.5 32zM444.5 634q23.5 19 23.5 47q0 29 -23.5 48t-66.5 19t-67 -19t-24 -48q0 -28 24 -47t67 -19t66.5 19z" />
    <glyph glyph-name="ae" unicode="&#xe6;" horiz-adv-x="1290" 
d="M1233 223h-574q10 -80 77.5 -131t178.5 -51q99 0 156.5 34.5t82.5 80.5h65q-25 -67 -100 -117t-204 -50q-103 0 -173.5 37.5t-102.5 98.5q-42 -64 -124.5 -100t-209.5 -36q-119 0 -175 41t-56 110q0 68 56.5 109t174.5 41q96 0 165.5 -21.5t128.5 -58.5v56q0 89 -60 141
t-178 52q-75 0 -127 -20t-78.5 -51t-31.5 -66h-65q4 52 38 95.5t100 70t162 26.5q114 0 181 -42.5t92 -109.5q31 72 104 112t181 40q98 0 169.5 -34.5t109.5 -94.5t38 -134q0 -19 -1 -28zM735.5 409.5q-67.5 -52.5 -76.5 -136.5h511q-9 84 -76 136.5t-179 52.5t-179.5 -52.5
zM599 171q-55 32 -120.5 50.5t-154.5 18.5q-185 0 -185 -99q0 -100 185 -100q97 0 168 27.5t107 73.5v29z" />
    <glyph glyph-name="ccedilla" unicode="&#xe7;" horiz-adv-x="751" 
d="M560.5 89.5q66.5 45.5 80.5 116.5h65q-9 -61 -47.5 -109t-105.5 -77t-158 -31l-29 -46h23q163 0 163 -85q0 -86 -155 -86q-80 0 -137 27v50q60 -27 137 -27q56 0 77.5 10.5t21.5 29.5q0 20 -22.5 30.5t-84.5 10.5h-72v36l31 51q-92 5 -158 40.5t-100 93t-34 127.5
q0 75 38 134.5t111.5 94t175.5 34.5q95 0 165 -28t110.5 -77t49.5 -112h-65q-14 71 -80.5 116.5t-179.5 45.5q-82 0 -140.5 -27.5t-89 -74.5t-30.5 -106q0 -58 30.5 -105t89 -74.5t140.5 -27.5q113 0 179.5 45.5z" />
    <glyph glyph-name="egrave" unicode="&#xe8;" horiz-adv-x="771" 
d="M713 223h-592q10 -81 79 -131.5t186 -50.5q105 0 164.5 34.5t83.5 80.5h66q-25 -67 -102 -117t-213 -50q-104 0 -178.5 34t-112.5 93.5t-38 133.5q0 76 38.5 135.5t112.5 94t179 34.5q103 0 177.5 -34.5t113 -94t38.5 -134.5q0 -10 -2 -28zM198 410q-69 -52 -78 -137h531
q-6 54 -38.5 97t-90 67.5t-136.5 24.5q-119 0 -188 -52zM441 591h-54l-133 152h83z" />
    <glyph glyph-name="eacute" unicode="&#xe9;" horiz-adv-x="771" 
d="M713 223h-592q10 -81 79 -131.5t186 -50.5q105 0 164.5 34.5t83.5 80.5h66q-25 -67 -102 -117t-213 -50q-104 0 -178.5 34t-112.5 93.5t-38 133.5q0 76 38.5 135.5t112.5 94t179 34.5q103 0 177.5 -34.5t113 -94t38.5 -134.5q0 -10 -2 -28zM198 410q-69 -52 -78 -137h531
q-6 54 -38.5 97t-90 67.5t-136.5 24.5q-119 0 -188 -52zM384 591h-54l104 152h83z" />
    <glyph glyph-name="ecircumflex" unicode="&#xea;" horiz-adv-x="771" 
d="M713 223h-592q10 -81 79 -131.5t186 -50.5q105 0 164.5 34.5t83.5 80.5h66q-25 -67 -102 -117t-213 -50q-104 0 -178.5 34t-112.5 93.5t-38 133.5q0 76 38.5 135.5t112.5 94t179 34.5q103 0 177.5 -34.5t113 -94t38.5 -134.5q0 -10 -2 -28zM198 410q-69 -52 -78 -137h531
q-6 54 -38.5 97t-90 67.5t-136.5 24.5q-119 0 -188 -52zM412 743l179 -152h-75l-131 116l-131 -116h-75l179 152h54z" />
    <glyph glyph-name="edieresis" unicode="&#xeb;" horiz-adv-x="771" 
d="M713 223h-592q10 -81 79 -131.5t186 -50.5q105 0 164.5 34.5t83.5 80.5h66q-25 -67 -102 -117t-213 -50q-104 0 -178.5 34t-112.5 93.5t-38 133.5q0 76 38.5 135.5t112.5 94t179 34.5q103 0 177.5 -34.5t113 -94t38.5 -134.5q0 -10 -2 -28zM198 410q-69 -52 -78 -137h531
q-6 54 -38.5 97t-90 67.5t-136.5 24.5q-119 0 -188 -52zM234 633q-12 11 -12 28q0 16 12 27t32 11t32.5 -11t12.5 -27q0 -17 -12 -28t-33 -11q-20 0 -32 11zM472 633q-12 11 -12 28q0 16 12 27t32 11t32 -11t12 -27q0 -17 -12 -28t-32 -11t-32 11z" />
    <glyph glyph-name="igrave" unicode="&#xec;" horiz-adv-x="537" 
d="M320 56h184v-56h-457v56h210v319q0 43 -18.5 62t-61.5 19q-20 0 -35.5 -3.5t-37.5 -11.5v57q42 16 90 16q66 0 96 -29t30 -91v-338zM331 591h-54l-133 152h83z" />
    <glyph glyph-name="iacute" unicode="&#xed;" horiz-adv-x="537" 
d="M320 56h184v-56h-457v56h210v319q0 43 -18.5 62t-61.5 19q-20 0 -35.5 -3.5t-37.5 -11.5v57q42 16 90 16q66 0 96 -29t30 -91v-338zM273 591h-54l104 152h83z" />
    <glyph glyph-name="icircumflex" unicode="&#xee;" horiz-adv-x="537" 
d="M320 56h184v-56h-457v56h210v319q0 43 -18.5 62t-61.5 19q-20 0 -35.5 -3.5t-37.5 -11.5v57q42 16 90 16q66 0 96 -29t30 -91v-338zM302 743l179 -152h-75l-131 116l-131 -116h-75l179 152h54z" />
    <glyph glyph-name="idieresis" unicode="&#xef;" horiz-adv-x="537" 
d="M320 56h184v-56h-457v56h210v319q0 43 -18.5 62t-61.5 19q-20 0 -35.5 -3.5t-37.5 -11.5v57q42 16 90 16q66 0 96 -29t30 -91v-338zM124 633q-12 11 -12 28q0 16 12 27t32 11t32.5 -11t12.5 -27q0 -17 -12 -28t-33 -11q-20 0 -32 11zM362 633q-12 11 -12 28q0 16 12 27
t32 11t32 -11t12 -27q0 -17 -12 -28t-32 -11t-32 11z" />
    <glyph glyph-name="eth" unicode="&#xf0;" horiz-adv-x="771" 
d="M554 624q78 -55 117.5 -133t39.5 -165q0 -165 -86 -251t-251 -86q-103 0 -174.5 31.5t-107.5 86t-36 124.5q0 71 34.5 125t102 85t164.5 31q130 0 201.5 -49.5t87.5 -132.5h9v43q0 73 -35.5 140t-105.5 114l-85 -75l-34 29l81 70q-101 53 -240 60l6 50q161 -9 274 -73
l83 73l34 -28zM515 69q57 25 85.5 67.5t28.5 95.5q0 54 -28.5 96.5t-85.5 67t-140 24.5t-140 -24.5t-85.5 -67t-28.5 -96.5q0 -53 28.5 -95.5t85.5 -67.5t140 -25t140 25z" />
    <glyph glyph-name="ntilde" unicode="&#xf1;" horiz-adv-x="797" 
d="M89 0v503h67l-14 -167h11q19 77 87.5 127.5t179.5 50.5q137 0 215 -79t78 -219v-216h-66v204q0 122 -64.5 188.5t-181.5 66.5q-116 0 -181.5 -66.5t-65.5 -188.5v-204h-65zM231 586q-15 16 -24 38.5t-9 43.5q0 37 25.5 61t67.5 24q38 0 66 -18t61 -51q26 -26 45 -39
t41 -13t34 12t12 34q0 18 -8.5 38t-22.5 37h51q15 -17 24 -39t9 -43q0 -38 -25.5 -61.5t-67.5 -23.5q-38 0 -66 18t-61 51q-26 26 -45 39t-41 13t-34 -12.5t-12 -34.5q0 -19 8.5 -38.5t22.5 -35.5h-51z" />
    <glyph glyph-name="ograve" unicode="&#xf2;" horiz-adv-x="779" 
d="M208 23q-75 34 -113.5 93.5t-38.5 134.5t38.5 134.5t113.5 94t181 34.5t181.5 -34.5t114 -94t38.5 -134.5t-38.5 -134.5t-114 -93.5t-181.5 -34t-181 34zM535.5 71q60.5 27 91.5 74t31 106t-31 106t-91.5 74.5t-146.5 27.5q-85 0 -145.5 -27.5t-91.5 -74.5t-31 -106
t31 -105.5t91.5 -74t145.5 -27.5q86 0 146.5 27zM445 591h-54l-133 152h83z" />
    <glyph glyph-name="oacute" unicode="&#xf3;" horiz-adv-x="779" 
d="M208 23q-75 34 -113.5 93.5t-38.5 134.5t38.5 134.5t113.5 94t181 34.5t181.5 -34.5t114 -94t38.5 -134.5t-38.5 -134.5t-114 -93.5t-181.5 -34t-181 34zM535.5 71q60.5 27 91.5 74t31 106t-31 106t-91.5 74.5t-146.5 27.5q-85 0 -145.5 -27.5t-91.5 -74.5t-31 -106
t31 -105.5t91.5 -74t145.5 -27.5q86 0 146.5 27zM388 591h-54l104 152h83z" />
    <glyph glyph-name="ocircumflex" unicode="&#xf4;" horiz-adv-x="779" 
d="M208 23q-75 34 -113.5 93.5t-38.5 134.5t38.5 134.5t113.5 94t181 34.5t181.5 -34.5t114 -94t38.5 -134.5t-38.5 -134.5t-114 -93.5t-181.5 -34t-181 34zM535.5 71q60.5 27 91.5 74t31 106t-31 106t-91.5 74.5t-146.5 27.5q-85 0 -145.5 -27.5t-91.5 -74.5t-31 -106
t31 -105.5t91.5 -74t145.5 -27.5q86 0 146.5 27zM416 743l179 -152h-75l-131 116l-131 -116h-75l179 152h54z" />
    <glyph glyph-name="otilde" unicode="&#xf5;" horiz-adv-x="779" 
d="M208 23q-75 34 -113.5 93.5t-38.5 134.5t38.5 134.5t113.5 94t181 34.5t181.5 -34.5t114 -94t38.5 -134.5t-38.5 -134.5t-114 -93.5t-181.5 -34t-181 34zM535.5 71q60.5 27 91.5 74t31 106t-31 106t-91.5 74.5t-146.5 27.5q-85 0 -145.5 -27.5t-91.5 -74.5t-31 -106
t31 -105.5t91.5 -74t145.5 -27.5q86 0 146.5 27zM220 586q-15 16 -24 38.5t-9 43.5q0 37 25.5 61t67.5 24q38 0 66 -18t61 -51q26 -26 45 -39t41 -13t34 12t12 34q0 18 -8.5 38t-22.5 37h51q15 -17 24 -39t9 -43q0 -38 -25.5 -61.5t-67.5 -23.5q-38 0 -66 18t-61 51
q-26 26 -45 39t-41 13t-34 -12.5t-12 -34.5q0 -19 8.5 -38.5t22.5 -35.5h-51z" />
    <glyph glyph-name="odieresis" unicode="&#xf6;" horiz-adv-x="779" 
d="M208 23q-75 34 -113.5 93.5t-38.5 134.5t38.5 134.5t113.5 94t181 34.5t181.5 -34.5t114 -94t38.5 -134.5t-38.5 -134.5t-114 -93.5t-181.5 -34t-181 34zM535.5 71q60.5 27 91.5 74t31 106t-31 106t-91.5 74.5t-146.5 27.5q-85 0 -145.5 -27.5t-91.5 -74.5t-31 -106
t31 -105.5t91.5 -74t145.5 -27.5q86 0 146.5 27zM238 633q-12 11 -12 28q0 16 12 27t32 11t32.5 -11t12.5 -27q0 -17 -12 -28t-33 -11q-20 0 -32 11zM476 633q-12 11 -12 28q0 16 12 27t32 11t32 -11t12 -27q0 -17 -12 -28t-32 -11t-32 11z" />
    <glyph glyph-name="divide" unicode="&#xf7;" horiz-adv-x="610" 
d="M261 481.5q-16 14.5 -16 36.5t16 37t44 15t44.5 -15t16.5 -37t-16.5 -36.5t-44.5 -14.5t-44 14.5zM531 326h-452v49h452v-49zM261 146q-16 15 -16 37t16 36.5t44 14.5t44.5 -14.5t16.5 -36.5t-16.5 -37t-44.5 -15t-44 15z" />
    <glyph glyph-name="oslash" unicode="&#xf8;" horiz-adv-x="779" 
d="M724 478l-70 -55q34 -33 51.5 -77t17.5 -95q0 -75 -38.5 -134.5t-114 -93.5t-181.5 -34q-136 0 -223 57l-74 -57l-36 36l69 54q-34 34 -51.5 78t-17.5 94q0 75 38.5 134.5t113.5 94t181 34.5q137 0 224 -57l75 57zM175 114l392 304q-70 43 -178 43q-86 0 -147 -27.5
t-92 -75t-31 -107.5q0 -81 56 -137zM537 70q61 27 92 74t31 107q0 40 -14 75t-41 62l-392 -303q69 -42 176 -42q87 0 148 27z" />
    <glyph glyph-name="ugrave" unicode="&#xf9;" horiz-adv-x="782" 
d="M160 66.5q-76 77.5 -76 214.5v222h65v-210q0 -119 63.5 -184t175.5 -65t175.5 65t63.5 184v210h66v-503h-67l14 167h-11q-19 -78 -85.5 -128t-174.5 -50q-133 0 -209 77.5zM444 591h-54l-133 152h83z" />
    <glyph glyph-name="uacute" unicode="&#xfa;" horiz-adv-x="782" 
d="M160 66.5q-76 77.5 -76 214.5v222h65v-210q0 -119 63.5 -184t175.5 -65t175.5 65t63.5 184v210h66v-503h-67l14 167h-11q-19 -78 -85.5 -128t-174.5 -50q-133 0 -209 77.5zM387 591h-54l104 152h83z" />
    <glyph glyph-name="ucircumflex" unicode="&#xfb;" horiz-adv-x="782" 
d="M160 66.5q-76 77.5 -76 214.5v222h65v-210q0 -119 63.5 -184t175.5 -65t175.5 65t63.5 184v210h66v-503h-67l14 167h-11q-19 -78 -85.5 -128t-174.5 -50q-133 0 -209 77.5zM415 743l179 -152h-75l-131 116l-131 -116h-75l179 152h54z" />
    <glyph glyph-name="udieresis" unicode="&#xfc;" horiz-adv-x="782" 
d="M160 66.5q-76 77.5 -76 214.5v222h65v-210q0 -119 63.5 -184t175.5 -65t175.5 65t63.5 184v210h66v-503h-67l14 167h-11q-19 -78 -85.5 -128t-174.5 -50q-133 0 -209 77.5zM237 633q-12 11 -12 28q0 16 12 27t32 11t32.5 -11t12.5 -27q0 -17 -12 -28t-33 -11
q-20 0 -32 11zM475 633q-12 11 -12 28q0 16 12 27t32 11t32 -11t12 -27q0 -17 -12 -28t-32 -11t-32 11z" />
    <glyph glyph-name="yacute" unicode="&#xfd;" horiz-adv-x="697" 
d="M593 503h76l-308 -550q-52 -93 -99 -131.5t-120 -38.5q-37 0 -75 13v56q36 -13 69 -13q54 0 87 26t69 89l21 36l-286 513h77l219 -405q19 -37 19 -58h11q0 23 18 58zM346 591h-54l104 152h83z" />
    <glyph glyph-name="thorn" unicode="&#xfe;" horiz-adv-x="796" 
d="M94 -197v897h65v-174q0 -75 -12 -173h11q24 71 94 116t183 45q93 0 161 -33.5t104 -93.5t36 -136t-36 -135.5t-104.5 -93t-160.5 -33.5q-113 0 -183 45t-94 117h-11q7 -54 9.5 -91.5t2.5 -82.5v-174h-65zM553 71q58 27 88 74t30 106t-30 106.5t-88 74.5t-138 27t-138 -27
t-88 -74.5t-30 -106.5t30 -106t88 -74t138 -27t138 27z" />
    <glyph glyph-name="ydieresis" unicode="&#xff;" horiz-adv-x="697" 
d="M593 503h76l-308 -550q-52 -93 -99 -131.5t-120 -38.5q-37 0 -75 13v56q36 -13 69 -13q54 0 87 26t69 89l21 36l-286 513h77l219 -405q19 -37 19 -58h11q0 23 18 58zM197 633q-12 11 -12 28q0 16 12 27t32 11t32.5 -11t12.5 -27q0 -17 -12 -28t-33 -11q-20 0 -32 11z
M435 633q-12 11 -12 28q0 16 12 27t32 11t32 -11t12 -27q0 -17 -12 -28t-32 -11t-32 11z" />
    <glyph glyph-name="Amacron" unicode="&#x100;" horiz-adv-x="893" 
d="M861 0h-78l-80 153h-513l-80 -153h-78l373 700h83zM221 212h451l-194 368q-26 52 -26 77v1h-11v-1q0 -25 -26 -77zM646 840h-399v54h399v-54z" />
    <glyph glyph-name="amacron" unicode="&#x101;" horiz-adv-x="773" 
d="M130.5 29.5q-56.5 40.5 -56.5 110.5q0 68 57 109t177 41q99 0 168.5 -21.5t132.5 -59.5v57q0 90 -60.5 141.5t-182.5 51.5q-77 0 -129.5 -20t-80 -51t-32.5 -66h-65q4 52 39 95.5t102.5 70t166.5 26.5q154 0 230.5 -66t76.5 -184v-166q0 -54 50 -54q14 0 34 5v-53
q-20 -7 -45 -7q-45 0 -70.5 23.5t-25.5 65.5v11h-10v-1q-6 -22 -45 -45t-105 -38.5t-149 -15.5q-121 0 -177.5 40.5zM490 63.5q71 22.5 119 58.5v45q-60 34 -126 53.5t-156 19.5q-188 0 -188 -99q0 -100 188 -100q92 0 163 22.5zM565 652h-374v49h374v-49z" />
    <glyph glyph-name="Abreve" unicode="&#x102;" horiz-adv-x="893" 
d="M861 0h-78l-80 153h-513l-80 -153h-78l373 700h83zM221 212h451l-194 368q-26 52 -26 77v1h-11v-1q0 -25 -26 -77zM272.5 822q-59.5 46 -66.5 126h61q6 -57 51 -88.5t129 -31.5t129 31.5t51 88.5h61q-7 -80 -66.5 -126t-174.5 -46t-174.5 46z" />
    <glyph glyph-name="abreve" unicode="&#x103;" horiz-adv-x="773" 
d="M130.5 29.5q-56.5 40.5 -56.5 110.5q0 68 57 109t177 41q99 0 168.5 -21.5t132.5 -59.5v57q0 90 -60.5 141.5t-182.5 51.5q-77 0 -129.5 -20t-80 -51t-32.5 -66h-65q4 52 39 95.5t102.5 70t166.5 26.5q154 0 230.5 -66t76.5 -184v-166q0 -54 50 -54q14 0 34 5v-53
q-20 -7 -45 -7q-45 0 -70.5 23.5t-25.5 65.5v11h-10v-1q-6 -22 -45 -45t-105 -38.5t-149 -15.5q-121 0 -177.5 40.5zM490 63.5q71 22.5 119 58.5v45q-60 34 -126 53.5t-156 19.5q-188 0 -188 -99q0 -100 188 -100q92 0 163 22.5zM227.5 630.5q-54.5 44.5 -60.5 117.5h56
q5 -54 45 -84t110 -30q69 0 109 30t45 84h56q-5 -73 -59 -117.5t-151 -44.5q-96 0 -150.5 44.5z" />
    <glyph glyph-name="Aogonek" unicode="&#x104;" horiz-adv-x="893" 
d="M860 0q-146 -36 -146 -111q0 -27 20 -44t58 -17q32 0 68 14v-54q-35 -16 -82 -16q-61 0 -93.5 27.5t-32.5 72.5q0 43 31.5 78.5t96.5 54.5l-77 148h-513l-80 -153h-78l373 700h83l373 -700h-1zM221 212h451l-194 368q-26 52 -26 77v1h-11v-1q0 -25 -26 -77z" />
    <glyph glyph-name="aogonek" unicode="&#x105;" horiz-adv-x="773" 
d="M758 49v-53q-20 -7 -38 -7q-108 -35 -108 -100q0 -27 20 -44t58 -17q32 0 68 14v-54q-35 -16 -82 -16q-61 0 -93.5 27.5t-32.5 72.5q0 39 27.5 73t84.5 55q-45 22 -45 78v11h-10v-1q-6 -22 -45 -45t-105 -38.5t-149 -15.5q-121 0 -177.5 40.5t-56.5 110.5q0 68 57 109
t177 41q99 0 168.5 -21.5t132.5 -59.5v57q0 90 -60.5 141.5t-182.5 51.5q-77 0 -129.5 -20t-80 -51t-32.5 -66h-65q4 52 39 95.5t102.5 70t166.5 26.5q154 0 230.5 -66t76.5 -184v-166q0 -54 50 -54q14 0 34 5zM609 167q-60 34 -126 53.5t-156 19.5q-188 0 -188 -99
q0 -100 188 -100q92 0 163 22.5t119 58.5v45z" />
    <glyph glyph-name="Cacute" unicode="&#x106;" horiz-adv-x="1005" 
d="M269.5 36q-99.5 47 -151.5 129t-52 185t52 185t151.5 129t238.5 47q194 0 304 -78t137 -204h-72q-24 97 -115 158.5t-254 61.5q-116 0 -199.5 -39.5t-127 -107t-43.5 -152.5t43.5 -152.5t127 -107t199.5 -39.5q163 0 254 61.5t115 158.5h72q-26 -128 -135.5 -205
t-305.5 -77q-139 0 -238.5 47zM506 781h-60l124 162h96z" />
    <glyph glyph-name="cacute" unicode="&#x107;" horiz-adv-x="751" 
d="M205.5 23.5q-73.5 34.5 -111.5 94t-38 133.5q0 75 38 134.5t111.5 94t175.5 34.5q95 0 165 -28t110.5 -77t49.5 -112h-65q-14 71 -80.5 116.5t-179.5 45.5q-82 0 -140.5 -27.5t-89 -74.5t-30.5 -106q0 -58 30.5 -105t89 -74.5t140.5 -27.5q113 0 179.5 45.5t80.5 116.5
h65q-9 -62 -49.5 -111t-110.5 -77.5t-165 -28.5q-102 0 -175.5 34.5zM380 591h-54l104 152h83z" />
    <glyph glyph-name="Ccircumflex" unicode="&#x108;" horiz-adv-x="1005" 
d="M269.5 36q-99.5 47 -151.5 129t-52 185t52 185t151.5 129t238.5 47q194 0 304 -78t137 -204h-72q-24 97 -115 158.5t-254 61.5q-116 0 -199.5 -39.5t-127 -107t-43.5 -152.5t43.5 -152.5t127 -107t199.5 -39.5q163 0 254 61.5t115 158.5h72q-26 -128 -135.5 -205
t-305.5 -77q-139 0 -238.5 47zM540 943l203 -162h-84l-152 127l-153 -127h-83l203 162h66z" />
    <glyph glyph-name="ccircumflex" unicode="&#x109;" horiz-adv-x="751" 
d="M205.5 23.5q-73.5 34.5 -111.5 94t-38 133.5q0 75 38 134.5t111.5 94t175.5 34.5q95 0 165 -28t110.5 -77t49.5 -112h-65q-14 71 -80.5 116.5t-179.5 45.5q-82 0 -140.5 -27.5t-89 -74.5t-30.5 -106q0 -58 30.5 -105t89 -74.5t140.5 -27.5q113 0 179.5 45.5t80.5 116.5
h65q-9 -62 -49.5 -111t-110.5 -77.5t-165 -28.5q-102 0 -175.5 34.5zM408 743l179 -152h-75l-131 116l-131 -116h-75l179 152h54z" />
    <glyph glyph-name="Cdotaccent" unicode="&#x10a;" horiz-adv-x="1005" 
d="M269.5 36q-99.5 47 -151.5 129t-52 185t52 185t151.5 129t238.5 47q194 0 304 -78t137 -204h-72q-24 97 -115 158.5t-254 61.5q-116 0 -199.5 -39.5t-127 -107t-43.5 -152.5t43.5 -152.5t127 -107t199.5 -39.5q163 0 254 61.5t115 158.5h72q-26 -128 -135.5 -205
t-305.5 -77q-139 0 -238.5 47zM462.5 816.5q-16.5 14.5 -16.5 36.5t16.5 36.5t45.5 14.5q28 0 44.5 -14.5t16.5 -36.5t-16.5 -36.5t-44.5 -14.5q-29 0 -45.5 14.5z" />
    <glyph glyph-name="cdotaccent" unicode="&#x10b;" horiz-adv-x="751" 
d="M205.5 23.5q-73.5 34.5 -111.5 94t-38 133.5q0 75 38 134.5t111.5 94t175.5 34.5q95 0 165 -28t110.5 -77t49.5 -112h-65q-14 71 -80.5 116.5t-179.5 45.5q-82 0 -140.5 -27.5t-89 -74.5t-30.5 -106q0 -58 30.5 -105t89 -74.5t140.5 -27.5q113 0 179.5 45.5t80.5 116.5
h65q-9 -62 -49.5 -111t-110.5 -77.5t-165 -28.5q-102 0 -175.5 34.5zM344.5 628.5q-13.5 12.5 -13.5 32.5q0 19 14 31.5t37 12.5t36.5 -12.5t13.5 -31.5q0 -20 -13.5 -32.5t-36.5 -12.5q-24 0 -37.5 12.5z" />
    <glyph glyph-name="Ccaron" unicode="&#x10c;" horiz-adv-x="1005" 
d="M269.5 36q-99.5 47 -151.5 129t-52 185t52 185t151.5 129t238.5 47q194 0 304 -78t137 -204h-72q-24 97 -115 158.5t-254 61.5q-116 0 -199.5 -39.5t-127 -107t-43.5 -152.5t43.5 -152.5t127 -107t199.5 -39.5q163 0 254 61.5t115 158.5h72q-26 -128 -135.5 -205
t-305.5 -77q-139 0 -238.5 47zM507 816l152 127h84l-203 -162h-66l-203 162h83z" />
    <glyph glyph-name="ccaron" unicode="&#x10d;" horiz-adv-x="751" 
d="M205.5 23.5q-73.5 34.5 -111.5 94t-38 133.5q0 75 38 134.5t111.5 94t175.5 34.5q95 0 165 -28t110.5 -77t49.5 -112h-65q-14 71 -80.5 116.5t-179.5 45.5q-82 0 -140.5 -27.5t-89 -74.5t-30.5 -106q0 -58 30.5 -105t89 -74.5t140.5 -27.5q113 0 179.5 45.5t80.5 116.5
h65q-9 -62 -49.5 -111t-110.5 -77.5t-165 -28.5q-102 0 -175.5 34.5zM381 627l131 116h75l-179 -152h-54l-179 152h75z" />
    <glyph glyph-name="Dcaron" unicode="&#x10e;" horiz-adv-x="909" 
d="M104 0v700h322q129 0 223 -46t144 -125.5t50 -178.5t-50 -178.5t-144 -125.5t-223 -46h-322zM426 63q106 0 184 38t119.5 103t41.5 146t-41.5 146t-119.5 103t-184 38h-250v-574h250zM463 816l152 127h84l-203 -162h-66l-203 162h83z" />
    <glyph glyph-name="dcaron" unicode="&#x10f;" horiz-adv-x="796" 
d="M201 22.5q-68 33.5 -104 93t-36 135.5t36 136t103.5 93.5t160.5 33.5q113 0 183.5 -45t94.5 -116h10q-12 98 -12 173v174h65v-700h-67l14 151h-10q-24 -72 -94.5 -117t-183.5 -45q-92 0 -160 33.5zM519 71q58 27 88 74t30 106t-30 106.5t-88 74.5t-138 27t-137.5 -27
t-87.5 -74.5t-30 -106.5t30 -106t87.5 -74t137.5 -27t138 27zM824 527h-43l19 173h65z" />
    <glyph glyph-name="Dcroat" unicode="&#x110;" horiz-adv-x="939" 
d="M456 700q129 0 223 -46t144 -125.5t50 -178.5t-50 -178.5t-144 -125.5t-223 -46h-322v323h-130v53h130v324h322zM456 63q106 0 184 38t119.5 103t41.5 146t-41.5 146t-119.5 103t-184 38h-250v-261h253v-53h-253v-260h250z" />
    <glyph glyph-name="dcroat" unicode="&#x111;" horiz-adv-x="832" 
d="M809 627v-50h-110v-577h-67l14 151h-10q-24 -74 -93 -118t-185 -44q-94 0 -162 32.5t-103.5 90t-35.5 130.5t35.5 130.5t103.5 90.5t162 33q116 0 185 -44.5t93 -117.5h10q-12 98 -12 173v70h-271v50h271v73h65v-73h110zM517 70q58 26 87.5 71t29.5 101t-29.5 101
t-87.5 71t-139 26t-138.5 -26t-87 -71t-29.5 -101t29.5 -101t87 -71t138.5 -26t139 26z" />
    <glyph glyph-name="Emacron" unicode="&#x112;" horiz-adv-x="839" 
d="M761 700v-63h-585v-252h515v-59h-515v-263h585v-63h-657v700h657zM633 840h-399v54h399v-54z" />
    <glyph glyph-name="emacron" unicode="&#x113;" horiz-adv-x="771" 
d="M713 223h-592q10 -81 79 -131.5t186 -50.5q105 0 164.5 34.5t83.5 80.5h66q-25 -67 -102 -117t-213 -50q-104 0 -178.5 34t-112.5 93.5t-38 133.5q0 76 38.5 135.5t112.5 94t179 34.5q103 0 177.5 -34.5t113 -94t38.5 -134.5q0 -10 -2 -28zM198 410q-69 -52 -78 -137h531
q-6 54 -38.5 97t-90 67.5t-136.5 24.5q-119 0 -188 -52zM573 652h-374v49h374v-49z" />
    <glyph glyph-name="Ebreve" unicode="&#x114;" horiz-adv-x="839" 
d="M761 700v-63h-585v-252h515v-59h-515v-263h585v-63h-657v700h657zM258.5 822q-59.5 46 -66.5 126h61q6 -57 51 -88.5t129 -31.5t129 31.5t51 88.5h61q-7 -80 -66.5 -126t-174.5 -46t-174.5 46z" />
    <glyph glyph-name="ebreve" unicode="&#x115;" horiz-adv-x="771" 
d="M713 223h-592q10 -81 79 -131.5t186 -50.5q105 0 164.5 34.5t83.5 80.5h66q-25 -67 -102 -117t-213 -50q-104 0 -178.5 34t-112.5 93.5t-38 133.5q0 76 38.5 135.5t112.5 94t179 34.5q103 0 177.5 -34.5t113 -94t38.5 -134.5q0 -10 -2 -28zM198 410q-69 -52 -78 -137h531
q-6 54 -38.5 97t-90 67.5t-136.5 24.5q-119 0 -188 -52zM235.5 630.5q-54.5 44.5 -60.5 117.5h56q5 -54 45 -84t110 -30q69 0 109 30t45 84h56q-5 -73 -59 -117.5t-151 -44.5q-96 0 -150.5 44.5z" />
    <glyph glyph-name="Edotaccent" unicode="&#x116;" horiz-adv-x="839" 
d="M761 700v-63h-585v-252h515v-59h-515v-263h585v-63h-657v700h657zM387.5 816.5q-16.5 14.5 -16.5 36.5t16.5 36.5t45.5 14.5q28 0 44.5 -14.5t16.5 -36.5t-16.5 -36.5t-44.5 -14.5q-29 0 -45.5 14.5z" />
    <glyph glyph-name="edotaccent" unicode="&#x117;" horiz-adv-x="771" 
d="M713 223h-592q10 -81 79 -131.5t186 -50.5q105 0 164.5 34.5t83.5 80.5h66q-25 -67 -102 -117t-213 -50q-104 0 -178.5 34t-112.5 93.5t-38 133.5q0 76 38.5 135.5t112.5 94t179 34.5q103 0 177.5 -34.5t113 -94t38.5 -134.5q0 -10 -2 -28zM198 410q-69 -52 -78 -137h531
q-6 54 -38.5 97t-90 67.5t-136.5 24.5q-119 0 -188 -52zM348.5 628.5q-13.5 12.5 -13.5 32.5q0 19 14 31.5t37 12.5t36.5 -12.5t13.5 -31.5q0 -20 -13.5 -32.5t-36.5 -12.5q-24 0 -37.5 12.5z" />
    <glyph glyph-name="Eogonek" unicode="&#x118;" horiz-adv-x="839" 
d="M761 637h-585v-252h515v-59h-515v-263h585v-63q-146 -36 -146 -111q0 -27 20 -44t58 -17q32 0 68 14v-54q-35 -16 -82 -16q-61 0 -93.5 27.5t-32.5 72.5q0 40 28 74t85 54h-562v700h657v-63z" />
    <glyph glyph-name="eogonek" unicode="&#x119;" horiz-adv-x="771" 
d="M713 223h-592q10 -81 79 -131.5t186 -50.5q105 0 164.5 34.5t83.5 80.5h66q-15 -38 -43 -68.5t-73 -57.5q-82 -47 -114 -78.5t-32 -62.5q0 -27 20 -44t58 -17q32 0 68 14v-54q-35 -16 -82 -16q-61 0 -93.5 27.5t-32.5 72.5q0 36 23 68t69 55q-32 -6 -83 -6
q-104 0 -178.5 34t-112.5 93.5t-38 133.5q0 76 38.5 135.5t112.5 94t179 34.5q103 0 177.5 -34.5t113 -94t38.5 -134.5q0 -10 -2 -28zM198 410q-69 -52 -78 -137h531q-6 54 -38.5 97t-90 67.5t-136.5 24.5q-119 0 -188 -52z" />
    <glyph glyph-name="Ecaron" unicode="&#x11a;" horiz-adv-x="839" 
d="M761 700v-63h-585v-252h515v-59h-515v-263h585v-63h-657v700h657zM433 816l152 127h84l-203 -162h-66l-203 162h83z" />
    <glyph glyph-name="ecaron" unicode="&#x11b;" horiz-adv-x="771" 
d="M713 223h-592q10 -81 79 -131.5t186 -50.5q105 0 164.5 34.5t83.5 80.5h66q-25 -67 -102 -117t-213 -50q-104 0 -178.5 34t-112.5 93.5t-38 133.5q0 76 38.5 135.5t112.5 94t179 34.5q103 0 177.5 -34.5t113 -94t38.5 -134.5q0 -10 -2 -28zM198 410q-69 -52 -78 -137h531
q-6 54 -38.5 97t-90 67.5t-136.5 24.5q-119 0 -188 -52zM385 627l131 116h75l-179 -152h-54l-179 152h75z" />
    <glyph glyph-name="Gcircumflex" unicode="&#x11c;" horiz-adv-x="1005" 
d="M433 284v56h491v-340h-67l16 195h-11q-18 -46 -61 -93t-121 -80t-190 -33q-130 0 -226 47t-147 129t-51 185t51.5 185t150.5 129t236 47q193 0 302.5 -78t137.5 -204h-72q-27 98 -118.5 159t-249.5 61q-114 0 -197 -39.5t-126 -107t-43 -152.5q0 -86 43 -154.5
t125.5 -108t195.5 -39.5q108 0 184 36.5t117 90t52 109.5h-422zM537 943l203 -162h-84l-152 127l-153 -127h-83l203 162h66z" />
    <glyph glyph-name="gcircumflex" unicode="&#x11d;" horiz-adv-x="769" 
d="M174.5 -206.5q-75.5 20.5 -105.5 56t-30 87.5q0 58 33.5 90t94.5 46v9h-16q-35 0 -53.5 16t-18.5 42t19 42t53 16h42v9q-51 14 -82.5 48t-31.5 88q0 82 72 126.5t240 44.5h210q23 0 34.5 9t11.5 24q0 12 -7 23.5t-24 27.5h66q28 -22 28 -52q0 -25 -18 -40t-54 -15h-56v-8
q56 -15 87 -51t31 -89q0 -77 -71 -120.5t-235 -43.5h-211q-22 0 -35 -11.5t-13 -28.5q0 -16 13 -27t35 -11h222q177 0 248.5 -42.5t71.5 -120.5q0 -52 -30 -88t-105.5 -56.5t-207.5 -20.5t-207.5 20.5zM581.5 256.5q55.5 31.5 55.5 86.5q0 56 -55 87.5t-192 31.5t-192 -31.5
t-55 -87.5q0 -55 55 -86.5t192 -31.5q136 0 191.5 31.5zM554.5 -160q61.5 14 84.5 39t23 61t-23 61t-84.5 39t-172.5 14t-172 -14t-84 -39t-23 -61t23 -61t84 -39t172 -14t172.5 14zM413 743l174 -134h-75l-126 100l-127 -100h-75l174 134h55z" />
    <glyph glyph-name="Gbreve" unicode="&#x11e;" horiz-adv-x="1005" 
d="M433 284v56h491v-340h-67l16 195h-11q-18 -46 -61 -93t-121 -80t-190 -33q-130 0 -226 47t-147 129t-51 185t51.5 185t150.5 129t236 47q193 0 302.5 -78t137.5 -204h-72q-27 98 -118.5 159t-249.5 61q-114 0 -197 -39.5t-126 -107t-43 -152.5q0 -86 43 -154.5
t125.5 -108t195.5 -39.5q108 0 184 36.5t117 90t52 109.5h-422zM329.5 822q-59.5 46 -66.5 126h61q6 -57 51 -88.5t129 -31.5t129 31.5t51 88.5h61q-7 -80 -66.5 -126t-174.5 -46t-174.5 46z" />
    <glyph glyph-name="gbreve" unicode="&#x11f;" horiz-adv-x="769" 
d="M174.5 -206.5q-75.5 20.5 -105.5 56t-30 87.5q0 58 33.5 90t94.5 46v9h-16q-35 0 -53.5 16t-18.5 42t19 42t53 16h42v9q-51 14 -82.5 48t-31.5 88q0 82 72 126.5t240 44.5h210q23 0 34.5 9t11.5 24q0 12 -7 23.5t-24 27.5h66q28 -22 28 -52q0 -25 -18 -40t-54 -15h-56v-8
q56 -15 87 -51t31 -89q0 -77 -71 -120.5t-235 -43.5h-211q-22 0 -35 -11.5t-13 -28.5q0 -16 13 -27t35 -11h222q177 0 248.5 -42.5t71.5 -120.5q0 -52 -30 -88t-105.5 -56.5t-207.5 -20.5t-207.5 20.5zM581.5 256.5q55.5 31.5 55.5 86.5q0 56 -55 87.5t-192 31.5t-192 -31.5
t-55 -87.5q0 -55 55 -86.5t192 -31.5q136 0 191.5 31.5zM554.5 -160q61.5 14 84.5 39t23 61t-23 61t-84.5 39t-172.5 14t-172 -14t-84 -39t-23 -61t23 -61t84 -39t172 -14t172.5 14zM236.5 630.5q-53.5 44.5 -58.5 117.5h56q4 -54 43.5 -84t108.5 -30t108 30t43 84h56
q-5 -73 -58.5 -117.5t-148.5 -44.5q-96 0 -149.5 44.5z" />
    <glyph glyph-name="Gdotaccent" unicode="&#x120;" horiz-adv-x="1005" 
d="M433 284v56h491v-340h-67l16 195h-11q-18 -46 -61 -93t-121 -80t-190 -33q-130 0 -226 47t-147 129t-51 185t51.5 185t150.5 129t236 47q193 0 302.5 -78t137.5 -204h-72q-27 98 -118.5 159t-249.5 61q-114 0 -197 -39.5t-126 -107t-43 -152.5q0 -86 43 -154.5
t125.5 -108t195.5 -39.5q108 0 184 36.5t117 90t52 109.5h-422zM458.5 816.5q-16.5 14.5 -16.5 36.5t16.5 36.5t45.5 14.5q28 0 44.5 -14.5t16.5 -36.5t-16.5 -36.5t-44.5 -14.5q-29 0 -45.5 14.5z" />
    <glyph glyph-name="gdotaccent" unicode="&#x121;" horiz-adv-x="769" 
d="M174.5 -206.5q-75.5 20.5 -105.5 56t-30 87.5q0 58 33.5 90t94.5 46v9h-16q-35 0 -53.5 16t-18.5 42t19 42t53 16h42v9q-51 14 -82.5 48t-31.5 88q0 82 72 126.5t240 44.5h210q23 0 34.5 9t11.5 24q0 12 -7 23.5t-24 27.5h66q28 -22 28 -52q0 -25 -18 -40t-54 -15h-56v-8
q56 -15 87 -51t31 -89q0 -77 -71 -120.5t-235 -43.5h-211q-22 0 -35 -11.5t-13 -28.5q0 -16 13 -27t35 -11h222q177 0 248.5 -42.5t71.5 -120.5q0 -52 -30 -88t-105.5 -56.5t-207.5 -20.5t-207.5 20.5zM581.5 256.5q55.5 31.5 55.5 86.5q0 56 -55 87.5t-192 31.5t-192 -31.5
t-55 -87.5q0 -55 55 -86.5t192 -31.5q136 0 191.5 31.5zM554.5 -160q61.5 14 84.5 39t23 61t-23 61t-84.5 39t-172.5 14t-172 -14t-84 -39t-23 -61t23 -61t84 -39t172 -14t172.5 14zM350.5 628.5q-13.5 12.5 -13.5 32.5q0 19 14 31.5t37 12.5t36.5 -12.5t13.5 -31.5
q0 -20 -13.5 -32.5t-36.5 -12.5q-24 0 -37.5 12.5z" />
    <glyph glyph-name="uni0122" unicode="&#x122;" horiz-adv-x="1005" 
d="M433 284v56h491v-340h-67l16 195h-11q-18 -46 -61 -93t-121 -80t-190 -33q-130 0 -226 47t-147 129t-51 185t51.5 185t150.5 129t236 47q193 0 302.5 -78t137.5 -204h-72q-27 98 -118.5 159t-249.5 61q-114 0 -197 -39.5t-126 -107t-43 -152.5q0 -86 43 -154.5
t125.5 -108t195.5 -39.5q108 0 184 36.5t117 90t52 109.5h-422zM559 -110q0 -44 -16.5 -81t-44.5 -59t-61 -22v51h5q38 0 63.5 26t29.5 68q-8 -4 -20 -4q-20 0 -32 11t-12 29q0 17 11.5 28.5t28.5 11.5q48 0 48 -59z" />
    <glyph glyph-name="uni0123" unicode="&#x123;" horiz-adv-x="769" 
d="M174.5 -206.5q-75.5 20.5 -105.5 56t-30 87.5q0 58 33.5 90t94.5 46v9h-16q-35 0 -53.5 16t-18.5 42t19 42t53 16h42v9q-51 14 -82.5 48t-31.5 88q0 82 72 126.5t240 44.5h210q23 0 34.5 9t11.5 24q0 12 -7 23.5t-24 27.5h66q28 -22 28 -52q0 -25 -18 -40t-54 -15h-56v-8
q56 -15 87 -51t31 -89q0 -77 -71 -120.5t-235 -43.5h-211q-22 0 -35 -11.5t-13 -28.5q0 -16 13 -27t35 -11h222q177 0 248.5 -42.5t71.5 -120.5q0 -52 -30 -88t-105.5 -56.5t-207.5 -20.5t-207.5 20.5zM581.5 256.5q55.5 31.5 55.5 86.5q0 56 -55 87.5t-192 31.5t-192 -31.5
t-55 -87.5q0 -55 55 -86.5t192 -31.5q136 0 191.5 31.5zM554.5 -160q61.5 14 84.5 39t23 61t-23 61t-84.5 39t-172.5 14t-172 -14t-84 -39t-23 -61t23 -61t84 -39t172 -14t172.5 14zM360.5 742q16.5 37 44.5 58.5t61 21.5v-51h-5q-38 0 -63.5 -25.5t-29.5 -67.5q8 4 20 4
q20 0 32 -11.5t12 -28.5t-11.5 -28.5t-28.5 -11.5q-48 0 -48 59q0 44 16.5 81z" />
    <glyph glyph-name="Hcircumflex" unicode="&#x124;" horiz-adv-x="967" 
d="M791 392v308h72v-700h-72v329h-615v-329h-72v700h72v-308h615zM510 940l179 -152h-75l-131 116l-131 -116h-75l179 152h54z" />
    <glyph glyph-name="hcircumflex" unicode="&#x125;" horiz-adv-x="802" 
d="M94 0v700h65v-185q0 -44 -2.5 -82t-9.5 -97h11q19 77 87.5 127.5t179.5 50.5q137 0 215 -79t78 -219v-216h-66v204q0 122 -64.5 188.5t-181.5 66.5q-116 0 -181.5 -66.5t-65.5 -188.5v-204h-65zM439 943l203 -162h-84l-152 127l-153 -127h-83l203 162h66z" />
    <glyph glyph-name="Hbar" unicode="&#x126;" horiz-adv-x="1027" 
d="M893 579h131v-53h-131v-526h-72v329h-615v-329h-72v526h-130v53h130v121h72v-122h615v122h72v-121zM206 527v-135h615v135h-615z" />
    <glyph glyph-name="hbar" unicode="&#x127;" horiz-adv-x="841" 
d="M678.5 417q77.5 -79 77.5 -220v-197h-65v186q0 121 -65 187.5t-182 66.5q-116 0 -181 -66.5t-65 -187.5v-186h-65v577h-111v50h111v73h65v-73h271v-50h-271v-81q0 -44 -2.5 -82t-9.5 -97h10q20 77 88.5 128t179.5 51q137 0 214.5 -79z" />
    <glyph glyph-name="Itilde" unicode="&#x128;" horiz-adv-x="731" 
d="M653 0h-576v63h252v574h-252v63h576v-63h-252v-574h252v-63zM180 782q-33 43 -33 89q0 39 25.5 63t69.5 24q39 0 70 -18t72 -53q30 -28 51.5 -41.5t45.5 -13.5q22 0 34 12.5t12 34.5q0 39 -32 79h55q15 -19 24 -42t9 -46q0 -40 -26 -64t-70 -24q-39 0 -68.5 18t-72.5 54
q-30 28 -51.5 41.5t-45.5 13.5q-22 0 -34 -12.5t-12 -34.5q0 -40 32 -80h-55z" />
    <glyph glyph-name="itilde" unicode="&#x129;" horiz-adv-x="537" 
d="M320 56h184v-56h-457v56h210v319q0 43 -18.5 62t-61.5 19q-20 0 -35.5 -3.5t-37.5 -11.5v57q42 16 90 16q66 0 96 -29t30 -91v-338zM105 586q-15 16 -24 38.5t-9 43.5q0 37 25.5 61t67.5 24q38 0 66 -18t61 -51q26 -26 45 -39t41 -13t34 12t12 34q0 18 -8.5 38t-22.5 37
h51q15 -17 24 -39t9 -43q0 -38 -25.5 -61.5t-67.5 -23.5q-38 0 -66 18t-61 51q-26 26 -45 39t-41 13t-34 -12.5t-12 -34.5q0 -19 8.5 -38.5t22.5 -35.5h-51z" />
    <glyph glyph-name="Imacron" unicode="&#x12a;" horiz-adv-x="731" 
d="M653 0h-576v63h252v574h-252v63h576v-63h-252v-574h252v-63zM565 840h-399v54h399v-54z" />
    <glyph glyph-name="imacron" unicode="&#x12b;" horiz-adv-x="537" 
d="M320 56h184v-56h-457v56h210v319q0 43 -18.5 62t-61.5 19q-20 0 -35.5 -3.5t-37.5 -11.5v57q42 16 90 16q66 0 96 -29t30 -91v-338zM462 652h-374v49h374v-49z" />
    <glyph glyph-name="Ibreve" unicode="&#x12c;" horiz-adv-x="731" 
d="M653 0h-576v63h252v574h-252v63h576v-63h-252v-574h252v-63zM190.5 822q-59.5 46 -66.5 126h61q6 -57 51 -88.5t129 -31.5t129 31.5t51 88.5h61q-7 -80 -66.5 -126t-174.5 -46t-174.5 46z" />
    <glyph glyph-name="ibreve" unicode="&#x12d;" horiz-adv-x="537" 
d="M320 56h184v-56h-457v56h210v319q0 43 -18.5 62t-61.5 19q-20 0 -35.5 -3.5t-37.5 -11.5v57q42 16 90 16q66 0 96 -29t30 -91v-338zM124.5 630.5q-54.5 44.5 -60.5 117.5h56q5 -54 45 -84t110 -30q69 0 109 30t45 84h56q-5 -73 -59 -117.5t-151 -44.5q-96 0 -150.5 44.5z
" />
    <glyph glyph-name="Iogonek" unicode="&#x12e;" horiz-adv-x="731" 
d="M653 637h-252v-574h252v-63h-232q-146 -36 -146 -111q0 -27 20 -44t58 -17q32 0 68 14v-54q-35 -16 -82 -16q-61 0 -93.5 27.5t-32.5 72.5q0 40 28 74t85 54h-249v63h252v574h-252v63h576v-63z" />
    <glyph glyph-name="iogonek" unicode="&#x12f;" horiz-adv-x="537" 
d="M237.5 628.5q-13.5 12.5 -13.5 32.5q0 19 14 31.5t37 12.5t36.5 -12.5t13.5 -31.5q0 -20 -13.5 -32.5t-36.5 -12.5q-24 0 -37.5 12.5zM320 56h184v-56h-164q-146 -36 -146 -111q0 -27 20 -44t58 -17q32 0 68 14v-54q-35 -16 -82 -16q-61 0 -93.5 27.5t-32.5 72.5
q0 40 28 74t85 54h-198v56h210v319q0 43 -18.5 62t-61.5 19q-20 0 -35.5 -3.5t-37.5 -11.5v57q42 16 90 16q66 0 96 -29t30 -91v-338z" />
    <glyph glyph-name="Idotaccent" unicode="&#x130;" horiz-adv-x="731" 
d="M653 0h-576v63h252v574h-252v63h576v-63h-252v-574h252v-63zM320.5 816.5q-16.5 14.5 -16.5 36.5t16.5 36.5t45.5 14.5q28 0 44.5 -14.5t16.5 -36.5t-16.5 -36.5t-44.5 -14.5q-29 0 -45.5 14.5z" />
    <glyph glyph-name="dotlessi" unicode="&#x131;" horiz-adv-x="537" 
d="M320 56h184v-56h-457v56h210v319q0 43 -18.5 62t-61.5 19q-20 0 -35.5 -3.5t-37.5 -11.5v57q42 16 90 16q66 0 96 -29t30 -91v-338z" />
    <glyph glyph-name="IJ" unicode="&#x132;" horiz-adv-x="1504" 
d="M653 0h-576v63h252v574h-252v63h576v-63h-252v-574h252v-63zM833 63q-83 74 -83 208v25h72v-23q0 -107 64 -164.5t194 -57.5t194 57.5t64 164.5v364h-488v63h560v-429q0 -134 -83 -208t-247 -74t-247 74z" />
    <glyph glyph-name="ij" unicode="&#x133;" horiz-adv-x="865" 
d="M320 56h184v-56h-457v56h210v319q0 43 -18.5 62t-61.5 19q-20 0 -35.5 -3.5t-37.5 -11.5v57q42 16 90 16q66 0 96 -29t30 -91v-338zM237.5 628.5q-13.5 12.5 -13.5 32.5q0 19 14 31.5t37 12.5t36.5 -12.5t13.5 -31.5q0 -20 -13.5 -32.5t-36.5 -12.5q-24 0 -37.5 12.5z
M511.5 -214q-20.5 3 -44.5 10v56q39 -13 84 -13q87 0 126.5 34.5t39.5 104.5v397q0 43 -18.5 62t-61.5 19q-20 0 -35.5 -3.5t-37.5 -11.5v57q42 16 91 16q65 0 95 -29t30 -91v-417q0 -194 -220 -194q-28 0 -48.5 3zM698.5 628.5q-13.5 12.5 -13.5 32.5q0 19 14 31.5t37 12.5
t36.5 -12.5t13.5 -31.5q0 -20 -13.5 -32.5t-36.5 -12.5q-24 0 -37.5 12.5z" />
    <glyph glyph-name="Jcircumflex" unicode="&#x134;" horiz-adv-x="814" 
d="M142 63q-83 74 -83 208v25h72v-23q0 -107 64 -164.5t194 -57.5t194 57.5t64 164.5v364h-488v63h560v-429q0 -134 -83 -208t-247 -74t-247 74zM472 943l203 -162h-84l-152 127l-153 -127h-83l203 162h66z" />
    <glyph glyph-name="jcircumflex" unicode="&#x135;" horiz-adv-x="328" 
d="M-25.5 -214q-20.5 3 -44.5 10v56q39 -13 84 -13q87 0 126.5 34.5t39.5 104.5v397q0 43 -18.5 62t-61.5 19q-20 0 -35.5 -3.5t-37.5 -11.5v57q42 16 91 16q65 0 95 -29t30 -91v-417q0 -194 -220 -194q-28 0 -48.5 3zM225 743l179 -152h-75l-131 116l-131 -116h-75l179 152
h54z" />
    <glyph glyph-name="uni0136" unicode="&#x136;" horiz-adv-x="826" 
d="M275 361l536 -361h-114l-521 353v-353h-72v700h72v-333l504 333h111zM483 -110q0 -44 -16.5 -81t-44.5 -59t-61 -22v51h5q38 0 63.5 26t29.5 68q-8 -4 -20 -4q-20 0 -32 11t-12 29q0 17 11.5 28.5t28.5 11.5q48 0 48 -59z" />
    <glyph glyph-name="uni0137" unicode="&#x137;" horiz-adv-x="665" 
d="M252 261l402 -261h-104l-391 257v-257h-65v700h65v-435l382 238h103zM402 -110q0 -44 -16.5 -81t-44.5 -59t-61 -22v51h5q38 0 63.5 26t29.5 68q-8 -4 -20 -4q-20 0 -32 11t-12 29q0 17 11.5 28.5t28.5 11.5q48 0 48 -59z" />
    <glyph glyph-name="Lacute" unicode="&#x139;" horiz-adv-x="779" 
d="M718 0h-614v700h72v-637h542v-63zM139 781h-60l124 162h96z" />
    <glyph glyph-name="lacute" unicode="&#x13a;" horiz-adv-x="575" 
d="M338 56h205v-56h-501v56h230v515q0 45 -19.5 63t-68.5 18q-24 0 -41.5 -3.5t-41.5 -12.5v57q46 18 100 18q73 0 105 -29t32 -91v-535zM291 781h-60l124 162h96z" />
    <glyph glyph-name="uni013B" unicode="&#x13b;" horiz-adv-x="779" 
d="M718 0h-614v700h72v-637h542v-63zM456 -110q0 -44 -16.5 -81t-44.5 -59t-61 -22v51h5q38 0 63.5 26t29.5 68q-8 -4 -20 -4q-20 0 -32 11t-12 29q0 17 11.5 28.5t28.5 11.5q48 0 48 -59z" />
    <glyph glyph-name="uni013C" unicode="&#x13c;" horiz-adv-x="575" 
d="M338 56h205v-56h-501v56h230v515q0 45 -19.5 63t-68.5 18q-24 0 -41.5 -3.5t-41.5 -12.5v57q46 18 100 18q73 0 105 -29t32 -91v-535zM351 -110q0 -44 -16.5 -81t-44.5 -59t-61 -22v51h5q38 0 63.5 26t29.5 68q-8 -4 -20 -4q-20 0 -32 11t-12 29q0 17 11.5 28.5
t28.5 11.5q48 0 48 -59z" />
    <glyph glyph-name="Lcaron" unicode="&#x13d;" horiz-adv-x="779" 
d="M718 0h-614v700h72v-637h542v-63zM298 527h-43l19 173h65z" />
    <glyph glyph-name="lcaron" unicode="&#x13e;" horiz-adv-x="575" 
d="M338 56h205v-56h-501v56h230v515q0 45 -19.5 63t-68.5 18q-24 0 -41.5 -3.5t-41.5 -12.5v57q46 18 100 18q73 0 105 -29t32 -91v-535zM459 527h-43l19 173h65z" />
    <glyph glyph-name="Ldot" unicode="&#x13f;" horiz-adv-x="779" 
d="M718 0h-614v700h72v-637h542v-63zM493.5 355q-14.5 13 -14.5 33t14.5 33.5t36.5 13.5q23 0 37 -13t14 -34q0 -20 -14 -33t-37 -13q-22 0 -36.5 13z" />
    <glyph glyph-name="ldot" unicode="&#x140;" horiz-adv-x="517" 
d="M338 56h205v-56h-501v56h230v515q0 45 -19.5 63t-68.5 18q-24 0 -41.5 -3.5t-41.5 -12.5v57q46 18 100 18q73 0 105 -29t32 -91v-535zM527.5 330q-14.5 13 -14.5 33t14.5 33.5t36.5 13.5q23 0 37 -13t14 -34q0 -20 -14 -33t-37 -13q-22 0 -36.5 13z" />
    <glyph glyph-name="Lslash" unicode="&#x141;" horiz-adv-x="809" 
d="M206 319v-256h542v-63h-614v287l-130 -57v58l130 57v355h72v-323l272 120v-59z" />
    <glyph glyph-name="lslash" unicode="&#x142;" horiz-adv-x="575" 
d="M338 56h205v-56h-501v56h230v268l-125 -60v51l125 60v196q0 45 -19.5 63t-68.5 18q-24 0 -41.5 -3.5t-41.5 -12.5v57q46 18 100 18q73 0 105 -29t32 -91v-184l130 62v-51l-130 -62v-300z" />
    <glyph glyph-name="Nacute" unicode="&#x143;" horiz-adv-x="977" 
d="M104 0v700h116l585 -658h11q-7 34 -10 61.5t-3 68.5v528h70v-700h-116l-585 658h-10q7 -35 9.5 -62t2.5 -68v-528h-70zM496 781h-60l124 162h96z" />
    <glyph glyph-name="nacute" unicode="&#x144;" horiz-adv-x="797" 
d="M89 0v503h67l-14 -167h11q19 77 87.5 127.5t179.5 50.5q137 0 215 -79t78 -219v-216h-66v204q0 122 -64.5 188.5t-181.5 66.5q-116 0 -181.5 -66.5t-65.5 -188.5v-204h-65zM399 591h-54l104 152h83z" />
    <glyph glyph-name="uni0145" unicode="&#x145;" horiz-adv-x="977" 
d="M104 0v700h116l585 -658h11q-7 34 -10 61.5t-3 68.5v528h70v-700h-116l-585 658h-10q7 -35 9.5 -62t2.5 -68v-528h-70zM543 -110q0 -44 -16.5 -81t-44.5 -59t-61 -22v51h5q38 0 63.5 26t29.5 68q-8 -4 -20 -4q-20 0 -32 11t-12 29q0 17 11.5 28.5t28.5 11.5q48 0 48 -59z
" />
    <glyph glyph-name="uni0146" unicode="&#x146;" horiz-adv-x="797" 
d="M89 0v503h67l-14 -167h11q19 77 87.5 127.5t179.5 50.5q137 0 215 -79t78 -219v-216h-66v204q0 122 -64.5 188.5t-181.5 66.5q-116 0 -181.5 -66.5t-65.5 -188.5v-204h-65zM447 -110q0 -44 -16.5 -81t-44.5 -59t-61 -22v51h5q38 0 63.5 26t29.5 68q-8 -4 -20 -4
q-20 0 -32 11t-12 29q0 17 11.5 28.5t28.5 11.5q48 0 48 -59z" />
    <glyph glyph-name="Ncaron" unicode="&#x147;" horiz-adv-x="977" 
d="M104 0v700h116l585 -658h11q-7 34 -10 61.5t-3 68.5v528h70v-700h-116l-585 658h-10q7 -35 9.5 -62t2.5 -68v-528h-70zM498 816l152 127h84l-203 -162h-66l-203 162h83z" />
    <glyph glyph-name="ncaron" unicode="&#x148;" horiz-adv-x="797" 
d="M89 0v503h67l-14 -167h11q19 77 87.5 127.5t179.5 50.5q137 0 215 -79t78 -219v-216h-66v204q0 122 -64.5 188.5t-181.5 66.5q-116 0 -181.5 -66.5t-65.5 -188.5v-204h-65zM400 627l131 116h75l-179 -152h-54l-179 152h75z" />
    <glyph glyph-name="Eng" unicode="&#x14a;" horiz-adv-x="977" 
d="M803 700h70v-742q0 -102 -65 -158t-195 -56q-62 0 -115 14v59q56 -14 108 -14q110 0 158.5 39t48.5 116v42h-56l-585 658h-10q7 -35 9.5 -62t2.5 -68v-528h-70v700h116l585 -658h11q-7 34 -10 61.5t-3 68.5v528z" />
    <glyph glyph-name="eng" unicode="&#x14b;" horiz-adv-x="797" 
d="M386 -210v55q41 -12 94 -12q83 0 125 40t42 116v215q0 122 -64.5 188.5t-181.5 66.5q-116 0 -181.5 -66.5t-65.5 -188.5v-204h-65v503h67l-14 -167h11q19 77 87.5 127.5t179.5 50.5q137 0 215 -79t78 -219v-230q0 -97 -58.5 -153t-164.5 -56q-60 0 -104 13z" />
    <glyph glyph-name="Omacron" unicode="&#x14c;" horiz-adv-x="1026" 
d="M271 36q-101 47 -153 129t-52 185t52 185t153 129t242 47t242 -47t153.5 -129t52.5 -185t-52.5 -185t-153.5 -129t-242 -47t-242 47zM716 90q85 39 129 107t44 153t-44 153t-129 107t-203 39t-203 -39t-128.5 -107t-43.5 -153t43.5 -153t128.5 -107t203 -39t203 39z
M713 840h-399v54h399v-54z" />
    <glyph glyph-name="omacron" unicode="&#x14d;" horiz-adv-x="779" 
d="M208 23q-75 34 -113.5 93.5t-38.5 134.5t38.5 134.5t113.5 94t181 34.5t181.5 -34.5t114 -94t38.5 -134.5t-38.5 -134.5t-114 -93.5t-181.5 -34t-181 34zM535.5 71q60.5 27 91.5 74t31 106t-31 106t-91.5 74.5t-146.5 27.5q-85 0 -145.5 -27.5t-91.5 -74.5t-31 -106
t31 -105.5t91.5 -74t145.5 -27.5q86 0 146.5 27zM576 652h-374v49h374v-49z" />
    <glyph glyph-name="Obreve" unicode="&#x14e;" horiz-adv-x="1026" 
d="M271 36q-101 47 -153 129t-52 185t52 185t153 129t242 47t242 -47t153.5 -129t52.5 -185t-52.5 -185t-153.5 -129t-242 -47t-242 47zM716 90q85 39 129 107t44 153t-44 153t-129 107t-203 39t-203 -39t-128.5 -107t-43.5 -153t43.5 -153t128.5 -107t203 -39t203 39z
M338.5 822q-59.5 46 -66.5 126h61q6 -57 51 -88.5t129 -31.5t129 31.5t51 88.5h61q-7 -80 -66.5 -126t-174.5 -46t-174.5 46z" />
    <glyph glyph-name="obreve" unicode="&#x14f;" horiz-adv-x="779" 
d="M208 23q-75 34 -113.5 93.5t-38.5 134.5t38.5 134.5t113.5 94t181 34.5t181.5 -34.5t114 -94t38.5 -134.5t-38.5 -134.5t-114 -93.5t-181.5 -34t-181 34zM535.5 71q60.5 27 91.5 74t31 106t-31 106t-91.5 74.5t-146.5 27.5q-85 0 -145.5 -27.5t-91.5 -74.5t-31 -106
t31 -105.5t91.5 -74t145.5 -27.5q86 0 146.5 27zM239.5 630.5q-54.5 44.5 -60.5 117.5h56q5 -54 45 -84t110 -30q69 0 109 30t45 84h56q-5 -73 -59 -117.5t-151 -44.5q-96 0 -150.5 44.5z" />
    <glyph glyph-name="Ohungarumlaut" unicode="&#x150;" horiz-adv-x="1026" 
d="M271 36q-101 47 -153 129t-52 185t52 185t153 129t242 47t242 -47t153.5 -129t52.5 -185t-52.5 -185t-153.5 -129t-242 -47t-242 47zM716 90q85 39 129 107t44 153t-44 153t-129 107t-203 39t-203 -39t-128.5 -107t-43.5 -153t43.5 -153t128.5 -107t203 -39t203 39z
M426 781h-51l104 162h85zM650 781h-51l104 162h85z" />
    <glyph glyph-name="ohungarumlaut" unicode="&#x151;" horiz-adv-x="779" 
d="M208 23q-75 34 -113.5 93.5t-38.5 134.5t38.5 134.5t113.5 94t181 34.5t181.5 -34.5t114 -94t38.5 -134.5t-38.5 -134.5t-114 -93.5t-181.5 -34t-181 34zM535.5 71q60.5 27 91.5 74t31 106t-31 106t-91.5 74.5t-146.5 27.5q-85 0 -145.5 -27.5t-91.5 -74.5t-31 -106
t31 -105.5t91.5 -74t145.5 -27.5q86 0 146.5 27zM312 591h-44l84 152h74zM511 591h-45l84 152h74z" />
    <glyph glyph-name="OE" unicode="&#x152;" horiz-adv-x="1405" 
d="M1327 637h-554v-252h484v-59h-484v-263h554v-63h-846q-128 0 -222 46t-143.5 125.5t-49.5 178.5t49.5 178.5t143.5 125.5t222 46h846v-63zM702 63v574h-221q-105 0 -183 -38t-119 -103t-41 -146t41 -146t119 -103t183 -38h221z" />
    <glyph glyph-name="oe" unicode="&#x153;" horiz-adv-x="1329" 
d="M1271 223h-573q10 -80 77.5 -131t178.5 -51q98 0 156 34.5t83 80.5h65q-25 -67 -100 -117t-204 -50q-108 0 -182 42t-105 115q-32 -74 -106 -115.5t-185 -41.5q-100 0 -172 34.5t-110 94t-38 133.5q0 75 38 134.5t110 94t172 34.5q112 0 186 -42.5t106 -118.5
q31 76 104.5 118.5t182.5 42.5q98 0 170 -34.5t110 -94.5t38 -134q0 -10 -2 -28zM774.5 409.5q-67.5 -52.5 -76.5 -136.5h511q-6 54 -37.5 97t-87.5 67.5t-130 24.5q-112 0 -179.5 -52.5zM518.5 71.5q58.5 27.5 89 74.5t30.5 105q0 59 -30.5 106t-89 74.5t-139.5 27.5
t-139 -27.5t-88.5 -74.5t-30.5 -106q0 -58 30.5 -105t88.5 -74.5t139 -27.5t139.5 27.5z" />
    <glyph glyph-name="Racute" unicode="&#x154;" horiz-adv-x="894" 
d="M846 0h-84l-81 180q-17 39 -35.5 57.5t-46.5 25t-80 6.5h-343v-269h-72v700h442q84 0 143 -27t89 -74.5t30 -108.5q0 -80 -45.5 -133.5t-118.5 -64.5v-11q45 -4 70 -26.5t52 -82.5zM174 329h372q93 0 141.5 41.5t48.5 112.5t-48.5 112.5t-141.5 41.5h-372v-308zM451 788
h-54l104 152h83z" />
    <glyph glyph-name="racute" unicode="&#x155;" horiz-adv-x="703" 
d="M89 0v503h67l-13 -150h11q18 69 80 115t162 46q127 0 196 -65.5t69 -179.5v-12h-65v8q0 87 -58 139.5t-163 52.5t-163 -58.5t-58 -170.5v-228h-65zM369 591h-54l104 152h83z" />
    <glyph glyph-name="uni0156" unicode="&#x156;" horiz-adv-x="894" 
d="M846 0h-84l-81 180q-17 39 -35.5 57.5t-46.5 25t-80 6.5h-343v-269h-72v700h442q84 0 143 -27t89 -74.5t30 -108.5q0 -80 -45.5 -133.5t-118.5 -64.5v-11q45 -4 70 -26.5t52 -82.5zM174 329h372q93 0 141.5 41.5t48.5 112.5t-48.5 112.5t-141.5 41.5h-372v-308zM516 -110
q0 -44 -16.5 -81t-44.5 -59t-61 -22v51h5q38 0 63.5 26t29.5 68q-8 -4 -20 -4q-20 0 -32 11t-12 29q0 17 11.5 28.5t28.5 11.5q48 0 48 -59z" />
    <glyph glyph-name="uni0157" unicode="&#x157;" horiz-adv-x="703" 
d="M89 0v503h67l-13 -150h11q18 69 80 115t162 46q127 0 196 -65.5t69 -179.5v-12h-65v8q0 87 -58 139.5t-163 52.5t-163 -58.5t-58 -170.5v-228h-65zM168 -110q0 -44 -16.5 -81t-44.5 -59t-61 -22v51h5q38 0 63.5 26t29.5 68q-8 -4 -20 -4q-20 0 -32 11t-12 29
q0 17 11.5 28.5t28.5 11.5q48 0 48 -59z" />
    <glyph glyph-name="Rcaron" unicode="&#x158;" horiz-adv-x="894" 
d="M846 0h-84l-81 180q-17 39 -35.5 57.5t-46.5 25t-80 6.5h-343v-269h-72v700h442q84 0 143 -27t89 -74.5t30 -108.5q0 -80 -45.5 -133.5t-118.5 -64.5v-11q45 -4 70 -26.5t52 -82.5zM174 329h372q93 0 141.5 41.5t48.5 112.5t-48.5 112.5t-141.5 41.5h-372v-308zM453 824
l131 116h75l-179 -152h-54l-179 152h75z" />
    <glyph glyph-name="rcaron" unicode="&#x159;" horiz-adv-x="703" 
d="M89 0v503h67l-13 -150h11q18 69 80 115t162 46q127 0 196 -65.5t69 -179.5v-12h-65v8q0 87 -58 139.5t-163 52.5t-163 -58.5t-58 -170.5v-228h-65zM370 627l131 116h75l-179 -152h-54l-179 152h75z" />
    <glyph glyph-name="Sacute" unicode="&#x15a;" horiz-adv-x="945" 
d="M172 56.5q-95 67.5 -95 184.5v15h72v-14q0 -194 326 -194q184 0 255 37.5t71 104.5q0 58 -45 87.5t-110.5 39t-179.5 15.5q-125 6 -201.5 18t-129.5 50.5t-53 115.5q0 195 393 195q206 0 299.5 -65.5t93.5 -179.5v-7h-72v7q0 86 -75 136t-246 50q-321 0 -321 -138
q0 -52 42 -78.5t104.5 -35t171.5 -13.5q130 -6 209.5 -18.5t135.5 -54t56 -124.5q0 -95 -89.5 -148t-308.5 -53q-208 0 -303 67.5zM473 781h-60l124 162h96z" />
    <glyph glyph-name="sacute" unicode="&#x15b;" horiz-adv-x="732" 
d="M134 36.5q-72 47.5 -72 128.5v11h66v-10q0 -57 56 -91t185 -34q135 0 187.5 26.5t52.5 71.5q0 38 -32.5 57t-81 25.5t-129.5 9.5q-99 5 -157.5 13.5t-100 37t-41.5 86.5q0 146 302 146q155 0 226.5 -48.5t73.5 -129.5h-65q-2 57 -56.5 91.5t-178.5 34.5
q-132 0 -184 -26.5t-52 -70.5q0 -35 30.5 -52.5t77 -23t124.5 -8.5q99 -4 160.5 -13t105 -40t43.5 -92q0 -69 -68.5 -108t-236.5 -39q-163 0 -235 47.5zM367 591h-54l104 152h83z" />
    <glyph glyph-name="Scircumflex" unicode="&#x15c;" horiz-adv-x="945" 
d="M172 56.5q-95 67.5 -95 184.5v15h72v-14q0 -194 326 -194q184 0 255 37.5t71 104.5q0 58 -45 87.5t-110.5 39t-179.5 15.5q-125 6 -201.5 18t-129.5 50.5t-53 115.5q0 195 393 195q206 0 299.5 -65.5t93.5 -179.5v-7h-72v7q0 86 -75 136t-246 50q-321 0 -321 -138
q0 -52 42 -78.5t104.5 -35t171.5 -13.5q130 -6 209.5 -18.5t135.5 -54t56 -124.5q0 -95 -89.5 -148t-308.5 -53q-208 0 -303 67.5zM508 943l203 -162h-84l-152 127l-153 -127h-83l203 162h66z" />
    <glyph glyph-name="scircumflex" unicode="&#x15d;" horiz-adv-x="732" 
d="M134 36.5q-72 47.5 -72 128.5v11h66v-10q0 -57 56 -91t185 -34q135 0 187.5 26.5t52.5 71.5q0 38 -32.5 57t-81 25.5t-129.5 9.5q-99 5 -157.5 13.5t-100 37t-41.5 86.5q0 146 302 146q155 0 226.5 -48.5t73.5 -129.5h-65q-2 57 -56.5 91.5t-178.5 34.5
q-132 0 -184 -26.5t-52 -70.5q0 -35 30.5 -52.5t77 -23t124.5 -8.5q99 -4 160.5 -13t105 -40t43.5 -92q0 -69 -68.5 -108t-236.5 -39q-163 0 -235 47.5zM395 743l179 -152h-75l-131 116l-131 -116h-75l179 152h54z" />
    <glyph glyph-name="Scedilla" unicode="&#x15e;" horiz-adv-x="945" 
d="M786.5 44q-86.5 -53 -296.5 -55l-29 -46h23q163 0 163 -85q0 -86 -155 -86q-80 0 -137 27v50q60 -27 137 -27q56 0 77.5 10.5t21.5 29.5q0 20 -22.5 30.5t-84.5 10.5h-72v36l31 50q-191 6 -278.5 72.5t-87.5 179.5v15h72v-14q0 -194 326 -194q184 0 255 37.5t71 104.5
q0 58 -45 87.5t-110.5 39t-179.5 15.5q-125 6 -201.5 18t-129.5 50.5t-53 115.5q0 195 393 195q206 0 299.5 -65.5t93.5 -179.5v-7h-72v7q0 86 -75 136t-246 50q-321 0 -321 -138q0 -52 42 -78.5t104.5 -35t171.5 -13.5q130 -6 209.5 -18.5t135.5 -54t56 -124.5
q0 -93 -86.5 -146z" />
    <glyph glyph-name="scedilla" unicode="&#x15f;" horiz-adv-x="732" 
d="M608.5 29.5q-65.5 -39.5 -226.5 -40.5l-29 -46h23q163 0 163 -85q0 -86 -155 -86q-80 0 -137 27v50q60 -27 137 -27q56 0 77.5 10.5t21.5 29.5q0 20 -22.5 30.5t-84.5 10.5h-72v36l31 51q-273 9 -273 175v11h66v-10q0 -57 56 -91t185 -34q135 0 187.5 26.5t52.5 71.5
q0 38 -32.5 57t-81 25.5t-129.5 9.5q-99 5 -157.5 13.5t-100 37t-41.5 86.5q0 146 302 146q155 0 226.5 -48.5t73.5 -129.5h-65q-2 57 -56.5 91.5t-178.5 34.5q-132 0 -184 -26.5t-52 -70.5q0 -35 30.5 -52.5t77 -23t124.5 -8.5q99 -4 160.5 -13t105 -40t43.5 -92
q0 -67 -65.5 -106.5z" />
    <glyph glyph-name="Scaron" unicode="&#x160;" horiz-adv-x="945" 
d="M172 56.5q-95 67.5 -95 184.5v15h72v-14q0 -194 326 -194q184 0 255 37.5t71 104.5q0 58 -45 87.5t-110.5 39t-179.5 15.5q-125 6 -201.5 18t-129.5 50.5t-53 115.5q0 195 393 195q206 0 299.5 -65.5t93.5 -179.5v-7h-72v7q0 86 -75 136t-246 50q-321 0 -321 -138
q0 -52 42 -78.5t104.5 -35t171.5 -13.5q130 -6 209.5 -18.5t135.5 -54t56 -124.5q0 -95 -89.5 -148t-308.5 -53q-208 0 -303 67.5zM475 816l152 127h84l-203 -162h-66l-203 162h83z" />
    <glyph glyph-name="scaron" unicode="&#x161;" horiz-adv-x="732" 
d="M134 36.5q-72 47.5 -72 128.5v11h66v-10q0 -57 56 -91t185 -34q135 0 187.5 26.5t52.5 71.5q0 38 -32.5 57t-81 25.5t-129.5 9.5q-99 5 -157.5 13.5t-100 37t-41.5 86.5q0 146 302 146q155 0 226.5 -48.5t73.5 -129.5h-65q-2 57 -56.5 91.5t-178.5 34.5
q-132 0 -184 -26.5t-52 -70.5q0 -35 30.5 -52.5t77 -23t124.5 -8.5q99 -4 160.5 -13t105 -40t43.5 -92q0 -69 -68.5 -108t-236.5 -39q-163 0 -235 47.5zM368 627l131 116h75l-179 -152h-54l-179 152h75z" />
    <glyph glyph-name="uni0162" unicode="&#x162;" horiz-adv-x="796" 
d="M434 0h-18l-36 -57h23q163 0 163 -85q0 -86 -155 -86q-80 0 -137 27v50q60 -27 137 -27q56 0 77.5 10.5t21.5 29.5q0 20 -22.5 30.5t-84.5 10.5h-72v36l37 61h-6v637h-330v63h731v-63h-329v-637z" />
    <glyph glyph-name="uni0163" unicode="&#x163;" horiz-adv-x="694" 
d="M590 227h65v-8q0 -108 -67.5 -167.5t-207.5 -62.5l-29 -46h23q163 0 163 -85q0 -86 -155 -86q-80 0 -137 27v50q60 -27 137 -27q56 0 77.5 10.5t21.5 29.5q0 20 -22.5 30.5t-84.5 10.5h-72v36l31 51q-123 7 -186 65.5t-63 149.5q0 81 49 140t118 85v9h-232v52h190
q26 0 35.5 10t9.5 36v86h56v-132h307v-52h-313q-155 -69 -155 -213q0 -85 55.5 -133.5t163.5 -48.5q222 0 222 176v7z" />
    <glyph glyph-name="Tcaron" unicode="&#x164;" horiz-adv-x="796" 
d="M434 0h-72v637h-330v63h731v-63h-329v-637zM398 816l152 127h84l-203 -162h-66l-203 162h83z" />
    <glyph glyph-name="tcaron" unicode="&#x165;" horiz-adv-x="694" 
d="M156 48q-72 59 -72 157q0 81 49 140t118 85v9h-232v52h190q26 0 35.5 10t9.5 36v86h56v-132h307v-52h-313q-155 -69 -155 -213q0 -85 55.5 -133.5t163.5 -48.5q222 0 222 176v7h65v-8q0 -110 -70.5 -170t-216.5 -60q-140 0 -212 59zM432 587h-43l19 173h65z" />
    <glyph glyph-name="Tbar" unicode="&#x166;" horiz-adv-x="796" 
d="M763 700v-63h-329v-276h160v-56h-160v-305h-72v305h-161v56h161v276h-330v63h731z" />
    <glyph glyph-name="tbar" unicode="&#x167;" horiz-adv-x="714" 
d="M602 196h63v-5q0 -95 -63 -148.5t-189 -53.5q-122 0 -187 57t-65 155v71h-119v39h125v135h-138v49h94q26 0 36 10t10 36v82h55v-128h403v-49h-403v-135h380v-39h-380v-66q0 -76 48.5 -120.5t138.5 -44.5q97 0 144 39.5t47 111.5v4z" />
    <glyph glyph-name="Utilde" unicode="&#x168;" horiz-adv-x="940" 
d="M189 74.5q-95 85.5 -95 240.5v385h72v-383q0 -126 76 -194.5t228 -68.5t228 68.5t76 194.5v383h72v-385q0 -155 -95 -240.5t-281 -85.5t-281 85.5zM285 782q-33 43 -33 89q0 39 25.5 63t69.5 24q39 0 70 -18t72 -53q30 -28 51.5 -41.5t45.5 -13.5q22 0 34 12.5t12 34.5
q0 39 -32 79h55q15 -19 24 -42t9 -46q0 -40 -26 -64t-70 -24q-39 0 -68.5 18t-72.5 54q-30 28 -51.5 41.5t-45.5 13.5q-22 0 -34 -12.5t-12 -34.5q0 -40 32 -80h-55z" />
    <glyph glyph-name="utilde" unicode="&#x169;" horiz-adv-x="782" 
d="M160 66.5q-76 77.5 -76 214.5v222h65v-210q0 -119 63.5 -184t175.5 -65t175.5 65t63.5 184v210h66v-503h-67l14 167h-11q-19 -78 -85.5 -128t-174.5 -50q-133 0 -209 77.5zM219 586q-15 16 -24 38.5t-9 43.5q0 37 25.5 61t67.5 24q38 0 66 -18t61 -51q26 -26 45 -39
t41 -13t34 12t12 34q0 18 -8.5 38t-22.5 37h51q15 -17 24 -39t9 -43q0 -38 -25.5 -61.5t-67.5 -23.5q-38 0 -66 18t-61 51q-26 26 -45 39t-41 13t-34 -12.5t-12 -34.5q0 -19 8.5 -38.5t22.5 -35.5h-51z" />
    <glyph glyph-name="Umacron" unicode="&#x16a;" horiz-adv-x="940" 
d="M189 74.5q-95 85.5 -95 240.5v385h72v-383q0 -126 76 -194.5t228 -68.5t228 68.5t76 194.5v383h72v-385q0 -155 -95 -240.5t-281 -85.5t-281 85.5zM670 840h-399v54h399v-54z" />
    <glyph glyph-name="umacron" unicode="&#x16b;" horiz-adv-x="782" 
d="M160 66.5q-76 77.5 -76 214.5v222h65v-210q0 -119 63.5 -184t175.5 -65t175.5 65t63.5 184v210h66v-503h-67l14 167h-11q-19 -78 -85.5 -128t-174.5 -50q-133 0 -209 77.5zM576 652h-374v49h374v-49z" />
    <glyph glyph-name="Ubreve" unicode="&#x16c;" horiz-adv-x="940" 
d="M189 74.5q-95 85.5 -95 240.5v385h72v-383q0 -126 76 -194.5t228 -68.5t228 68.5t76 194.5v383h72v-385q0 -155 -95 -240.5t-281 -85.5t-281 85.5zM295.5 822q-59.5 46 -66.5 126h61q6 -57 51 -88.5t129 -31.5t129 31.5t51 88.5h61q-7 -80 -66.5 -126t-174.5 -46
t-174.5 46z" />
    <glyph glyph-name="ubreve" unicode="&#x16d;" horiz-adv-x="782" 
d="M160 66.5q-76 77.5 -76 214.5v222h65v-210q0 -119 63.5 -184t175.5 -65t175.5 65t63.5 184v210h66v-503h-67l14 167h-11q-19 -78 -85.5 -128t-174.5 -50q-133 0 -209 77.5zM238.5 630.5q-54.5 44.5 -60.5 117.5h56q5 -54 45 -84t110 -30q69 0 109 30t45 84h56
q-5 -73 -59 -117.5t-151 -44.5q-96 0 -150.5 44.5z" />
    <glyph glyph-name="Uring" unicode="&#x16e;" horiz-adv-x="940" 
d="M189 74.5q-95 85.5 -95 240.5v385h72v-383q0 -126 76 -194.5t228 -68.5t228 68.5t76 194.5v383h72v-385q0 -155 -95 -240.5t-281 -85.5t-281 85.5zM355.5 787q-40.5 33 -40.5 84q0 52 40.5 85t114.5 33t114 -33t40 -85q0 -51 -40 -84t-114 -33t-114.5 33zM546.5 821.5
q25.5 19.5 25.5 49.5q0 31 -25.5 50.5t-76.5 19.5t-76.5 -19.5t-25.5 -50.5q0 -30 25.5 -49.5t76.5 -19.5t76.5 19.5z" />
    <glyph glyph-name="uring" unicode="&#x16f;" horiz-adv-x="782" 
d="M160 66.5q-76 77.5 -76 214.5v222h65v-210q0 -119 63.5 -184t175.5 -65t175.5 65t63.5 184v210h66v-503h-67l14 167h-11q-19 -78 -85.5 -128t-174.5 -50q-133 0 -209 77.5zM286.5 601q-37.5 32 -37.5 80q0 49 37.5 81t102.5 32t102 -32t37 -81q0 -48 -37 -80t-102 -32
t-102.5 32zM455.5 634q23.5 19 23.5 47q0 29 -23.5 48t-66.5 19t-67 -19t-24 -48q0 -28 24 -47t67 -19t66.5 19z" />
    <glyph glyph-name="Uhungarumlaut" unicode="&#x170;" horiz-adv-x="940" 
d="M189 74.5q-95 85.5 -95 240.5v385h72v-383q0 -126 76 -194.5t228 -68.5t228 68.5t76 194.5v383h72v-385q0 -155 -95 -240.5t-281 -85.5t-281 85.5zM383 781h-51l104 162h85zM607 781h-51l104 162h85z" />
    <glyph glyph-name="uhungarumlaut" unicode="&#x171;" horiz-adv-x="782" 
d="M160 66.5q-76 77.5 -76 214.5v222h65v-210q0 -119 63.5 -184t175.5 -65t175.5 65t63.5 184v210h66v-503h-67l14 167h-11q-19 -78 -85.5 -128t-174.5 -50q-133 0 -209 77.5zM311 591h-44l84 152h74zM510 591h-45l84 152h74z" />
    <glyph glyph-name="Uogonek" unicode="&#x172;" horiz-adv-x="940" 
d="M774 700h72v-385q0 -108 -45.5 -180.5t-128.5 -109.5q-86 -37 -117.5 -69t-31.5 -65q0 -29 20 -46t58 -17q32 0 68 14v-54q-36 -16 -82 -16q-61 0 -93.5 27.5t-32.5 72.5q0 36 22 67.5t70 54.5q-32 -5 -83 -5q-186 0 -281 85.5t-95 240.5v385h72v-383q0 -126 76 -194.5
t228 -68.5t228 68.5t76 194.5v383z" />
    <glyph glyph-name="uogonek" unicode="&#x173;" horiz-adv-x="782" 
d="M627 503h66v-503h-1q-156 -36 -156 -111q0 -28 21 -44.5t63 -16.5q36 0 72 14v-54q-35 -16 -85 -16q-66 0 -99.5 27.5t-33.5 72.5q0 43 37 80t116 58l13 157h-11q-19 -78 -85.5 -128t-174.5 -50q-133 0 -209 77.5t-76 214.5v222h65v-210q0 -119 63.5 -184t175.5 -65
t175.5 65t63.5 184v210z" />
    <glyph glyph-name="Wcircumflex" unicode="&#x174;" horiz-adv-x="1192" 
d="M301 0l-254 700h78l206 -580q17 -48 17 -76v-2h10v2q0 32 17 76l178 443h85l179 -443q17 -44 17 -76v-2h10v2q0 28 17 76l206 580h77l-253 -700h-93l-177 432q-20 53 -20 87v2h-10v-2q0 -36 -21 -87l-176 -432h-93zM629 943l203 -162h-84l-152 127l-153 -127h-83l203 162
h66z" />
    <glyph glyph-name="wcircumflex" unicode="&#x175;" horiz-adv-x="1026" 
d="M244 0l-212 503h71l167 -404q13 -30 13 -60v-4h11v4q0 37 11 60l174 404h68l174 -404q11 -26 11 -60v-4h10v4q0 27 14 60l167 404h70l-211 -503h-80l-172 393q-12 28 -12 71v4h-10v-4q0 -44 -13 -71l-171 -393h-80zM540 743l179 -152h-75l-131 116l-131 -116h-75l179 152
h54z" />
    <glyph glyph-name="Ycircumflex" unicode="&#x176;" horiz-adv-x="833" 
d="M381 0v238l-354 462h85l267 -353q16 -23 24 -38t8 -26v-4h11v4q0 11 8 26.5t25 37.5l266 353h85l-353 -462v-238h-72zM450 943l203 -162h-84l-152 127l-153 -127h-83l203 162h66z" />
    <glyph glyph-name="ycircumflex" unicode="&#x177;" horiz-adv-x="697" 
d="M593 503h76l-308 -550q-52 -93 -99 -131.5t-120 -38.5q-37 0 -75 13v56q36 -13 69 -13q54 0 87 26t69 89l21 36l-286 513h77l219 -405q19 -37 19 -58h11q0 23 18 58zM374 743l179 -152h-75l-131 116l-131 -116h-75l179 152h54z" />
    <glyph glyph-name="Ydieresis" unicode="&#x178;" horiz-adv-x="833" 
d="M381 0v238l-354 462h85l267 -353q16 -23 24 -38t8 -26v-4h11v4q0 11 8 26.5t25 37.5l266 353h85l-353 -462v-238h-72zM238.5 818.5q-14.5 12.5 -14.5 32.5q0 19 14.5 32t39.5 13t39.5 -12.5t14.5 -32.5t-14 -32.5t-40 -12.5q-25 0 -39.5 12.5zM515 818.5
q-14 12.5 -14 32.5t14.5 32.5t39.5 12.5t39.5 -12.5t14.5 -32.5t-14 -32.5t-40 -12.5t-40 12.5z" />
    <glyph glyph-name="Zacute" unicode="&#x179;" horiz-adv-x="865" 
d="M788 0h-706v58l591 569v10h-581v63h686v-58l-591 -569v-10h601v-63zM433 781h-60l124 162h96z" />
    <glyph glyph-name="zacute" unicode="&#x17a;" horiz-adv-x="708" 
d="M644 0h-575v51l461 386v10h-451v56h555v-51l-461 -386v-10h471v-56zM355 591h-54l104 152h83z" />
    <glyph glyph-name="Zdotaccent" unicode="&#x17b;" horiz-adv-x="865" 
d="M788 0h-706v58l591 569v10h-581v63h686v-58l-591 -569v-10h601v-63zM389.5 816.5q-16.5 14.5 -16.5 36.5t16.5 36.5t45.5 14.5q28 0 44.5 -14.5t16.5 -36.5t-16.5 -36.5t-44.5 -14.5q-29 0 -45.5 14.5z" />
    <glyph glyph-name="zdotaccent" unicode="&#x17c;" horiz-adv-x="708" 
d="M644 0h-575v51l461 386v10h-451v56h555v-51l-461 -386v-10h471v-56zM319.5 628.5q-13.5 12.5 -13.5 32.5q0 19 14 31.5t37 12.5t36.5 -12.5t13.5 -31.5q0 -20 -13.5 -32.5t-36.5 -12.5q-24 0 -37.5 12.5z" />
    <glyph glyph-name="Zcaron" unicode="&#x17d;" horiz-adv-x="865" 
d="M788 0h-706v58l591 569v10h-581v63h686v-58l-591 -569v-10h601v-63zM435 816l152 127h84l-203 -162h-66l-203 162h83z" />
    <glyph glyph-name="zcaron" unicode="&#x17e;" horiz-adv-x="708" 
d="M644 0h-575v51l461 386v10h-451v56h555v-51l-461 -386v-10h471v-56zM356 627l131 116h75l-179 -152h-54l-179 152h75z" />
    <glyph glyph-name="uni018F" unicode="&#x18f;" horiz-adv-x="1026" 
d="M755 664q101 -47 153.5 -129t52.5 -185t-52.5 -185t-153.5 -129t-242 -47t-242 47t-153 128.5t-52 183.5q0 20 2 30h822q-7 79 -53 141t-129 97.5t-195 35.5q-107 0 -183 -30t-119 -77t-60 -101h-73q18 69 69.5 129.5t143 99t222.5 38.5q141 0 242 -47zM708 83.5
q83 35.5 129 97.5t53 141h-753q7 -79 53 -141t128.5 -97.5t194.5 -35.5t195 35.5z" />
    <glyph glyph-name="florin" unicode="&#x192;" horiz-adv-x="820" 
d="M544 607q-51 -42 -69 -128l-23 -111h243l-13 -62h-243l-57 -269q-47 -218 -257 -218q-66 0 -118 21l13 58q42 -17 98 -17q165 0 201 170l53 255h-190l14 62h189l26 125q47 218 257 218q66 0 118 -21l-12 -58q-43 17 -99 17q-80 0 -131 -42z" />
    <glyph glyph-name="uni01F4" unicode="&#x1f4;" horiz-adv-x="1005" 
d="M433 284v56h491v-340h-67l16 195h-11q-18 -46 -61 -93t-121 -80t-190 -33q-130 0 -226 47t-147 129t-51 185t51.5 185t150.5 129t236 47q193 0 302.5 -78t137.5 -204h-72q-27 98 -118.5 159t-249.5 61q-114 0 -197 -39.5t-126 -107t-43 -152.5q0 -86 43 -154.5
t125.5 -108t195.5 -39.5q108 0 184 36.5t117 90t52 109.5h-422zM502 781h-60l124 162h96z" />
    <glyph glyph-name="uni01F5" unicode="&#x1f5;" horiz-adv-x="769" 
d="M174.5 -206.5q-75.5 20.5 -105.5 56t-30 87.5q0 58 33.5 90t94.5 46v9h-16q-35 0 -53.5 16t-18.5 42t19 42t53 16h42v9q-51 14 -82.5 48t-31.5 88q0 82 72 126.5t240 44.5h210q23 0 34.5 9t11.5 24q0 12 -7 23.5t-24 27.5h66q28 -22 28 -52q0 -25 -18 -40t-54 -15h-56v-8
q56 -15 87 -51t31 -89q0 -77 -71 -120.5t-235 -43.5h-211q-22 0 -35 -11.5t-13 -28.5q0 -16 13 -27t35 -11h222q177 0 248.5 -42.5t71.5 -120.5q0 -52 -30 -88t-105.5 -56.5t-207.5 -20.5t-207.5 20.5zM581.5 256.5q55.5 31.5 55.5 86.5q0 56 -55 87.5t-192 31.5t-192 -31.5
t-55 -87.5q0 -55 55 -86.5t192 -31.5q136 0 191.5 31.5zM554.5 -160q61.5 14 84.5 39t23 61t-23 61t-84.5 39t-172.5 14t-172 -14t-84 -39t-23 -61t23 -61t84 -39t172 -14t172.5 14zM386 591h-54l104 152h83z" />
    <glyph glyph-name="uni0218" unicode="&#x218;" horiz-adv-x="945" 
d="M172 56.5q-95 67.5 -95 184.5v15h72v-14q0 -194 326 -194q184 0 255 37.5t71 104.5q0 58 -45 87.5t-110.5 39t-179.5 15.5q-125 6 -201.5 18t-129.5 50.5t-53 115.5q0 195 393 195q206 0 299.5 -65.5t93.5 -179.5v-7h-72v7q0 86 -75 136t-246 50q-321 0 -321 -138
q0 -52 42 -78.5t104.5 -35t171.5 -13.5q130 -6 209.5 -18.5t135.5 -54t56 -124.5q0 -95 -89.5 -148t-308.5 -53q-208 0 -303 67.5zM525 -110q0 -44 -16.5 -81t-44.5 -59t-61 -22v51h5q38 0 63.5 26t29.5 68q-8 -4 -20 -4q-20 0 -32 11t-12 29q0 17 11.5 28.5t28.5 11.5
q48 0 48 -59z" />
    <glyph glyph-name="uni0219" unicode="&#x219;" horiz-adv-x="732" 
d="M134 36.5q-72 47.5 -72 128.5v11h66v-10q0 -57 56 -91t185 -34q135 0 187.5 26.5t52.5 71.5q0 38 -32.5 57t-81 25.5t-129.5 9.5q-99 5 -157.5 13.5t-100 37t-41.5 86.5q0 146 302 146q155 0 226.5 -48.5t73.5 -129.5h-65q-2 57 -56.5 91.5t-178.5 34.5
q-132 0 -184 -26.5t-52 -70.5q0 -35 30.5 -52.5t77 -23t124.5 -8.5q99 -4 160.5 -13t105 -40t43.5 -92q0 -69 -68.5 -108t-236.5 -39q-163 0 -235 47.5zM417 -110q0 -44 -16.5 -81t-44.5 -59t-61 -22v51h5q38 0 63.5 26t29.5 68q-8 -4 -20 -4q-20 0 -32 11t-12 29
q0 17 11.5 28.5t28.5 11.5q48 0 48 -59z" />
    <glyph glyph-name="uni021A" unicode="&#x21a;" horiz-adv-x="796" 
d="M434 0h-72v637h-330v63h731v-63h-329v-637zM445 -110q0 -44 -16.5 -81t-44.5 -59t-61 -22v51h5q38 0 63.5 26t29.5 68q-8 -4 -20 -4q-20 0 -32 11t-12 29q0 17 11.5 28.5t28.5 11.5q48 0 48 -59z" />
    <glyph glyph-name="uni021B" unicode="&#x21b;" horiz-adv-x="694" 
d="M156 48q-72 59 -72 157q0 81 49 140t118 85v9h-232v52h190q26 0 35.5 10t9.5 36v86h56v-132h307v-52h-313q-155 -69 -155 -213q0 -85 55.5 -133.5t163.5 -48.5q222 0 222 176v7h65v-8q0 -110 -70.5 -170t-216.5 -60q-140 0 -212 59zM416 -110q0 -44 -16.5 -81t-44.5 -59
t-61 -22v51h5q38 0 63.5 26t29.5 68q-8 -4 -20 -4q-20 0 -32 11t-12 29q0 17 11.5 28.5t28.5 11.5q48 0 48 -59z" />
    <glyph glyph-name="uni0232" unicode="&#x232;" horiz-adv-x="833" 
d="M381 0v238l-354 462h85l267 -353q16 -23 24 -38t8 -26v-4h11v4q0 11 8 26.5t25 37.5l266 353h85l-353 -462v-238h-72zM616 840h-399v54h399v-54z" />
    <glyph glyph-name="uni0233" unicode="&#x233;" horiz-adv-x="697" 
d="M593 503h76l-308 -550q-52 -93 -99 -131.5t-120 -38.5q-37 0 -75 13v56q36 -13 69 -13q54 0 87 26t69 89l21 36l-286 513h77l219 -405q19 -37 19 -58h11q0 23 18 58zM535 652h-374v49h374v-49z" />
    <glyph glyph-name="uni0237" unicode="&#x237;" horiz-adv-x="328" 
d="M-25.5 -214q-20.5 3 -44.5 10v56q39 -13 84 -13q87 0 126.5 34.5t39.5 104.5v397q0 43 -18.5 62t-61.5 19q-20 0 -35.5 -3.5t-37.5 -11.5v57q42 16 91 16q65 0 95 -29t30 -91v-417q0 -194 -220 -194q-28 0 -48.5 3z" />
    <glyph glyph-name="uni0244" unicode="&#x244;" horiz-adv-x="1000" 
d="M1006 443v-56h-130v-72q0 -155 -95 -240.5t-281 -85.5t-281 85.5t-95 240.5v72h-130v56h130v257h72v-257h608v257h72v-257h130zM804 387h-608v-70q0 -126 76 -194.5t228 -68.5t228 68.5t76 194.5v70z" />
    <glyph glyph-name="uni0259" unicode="&#x259;" horiz-adv-x="771" 
d="M564.5 480q74.5 -34 112.5 -93.5t38 -133.5q0 -76 -38.5 -135.5t-112.5 -94t-179 -34.5q-103 0 -177.5 34.5t-113 94t-38.5 134.5q0 19 1 28h593q-10 81 -79 131.5t-186 50.5q-106 0 -164.5 -34.5t-84.5 -80.5h-65q25 67 102 117t213 50q104 0 178.5 -34zM573 93
q69 52 78 137h-531q9 -84 78 -136.5t187 -52.5q119 0 188 52z" />
    <glyph glyph-name="uni0289" unicode="&#x289;" horiz-adv-x="832" 
d="M828 333v-46h-110v-287h-67l14 167h-11q-19 -78 -85.5 -128t-174.5 -50q-133 0 -209 77.5t-76 214.5v6h-110v46h110v170h65v-170h478v170h66v-170h110zM587.5 107.5q63.5 63.5 64.5 179.5h-478q1 -116 64.5 -179.5t174.5 -63.5t174.5 63.5z" />
    <glyph glyph-name="uni02BC" unicode="&#x2bc;" horiz-adv-x="182" 
d="M152 652q0 -50 -16.5 -90.5t-44.5 -63t-61 -22.5v51h5q40 0 65 28t29 80q-8 -4 -21 -4q-20 0 -32 11.5t-12 28.5t11.5 28.5t28.5 11.5q48 0 48 -59z" />
    <glyph glyph-name="circumflex" unicode="&#x2c6;" horiz-adv-x="472" 
d="M263 743l179 -152h-75l-131 116l-131 -116h-75l179 152h54z" />
    <glyph glyph-name="caron" unicode="&#x2c7;" horiz-adv-x="472" 
d="M236 627l131 116h75l-179 -152h-54l-179 152h75z" />
    <glyph glyph-name="breve" unicode="&#x2d8;" horiz-adv-x="481" 
d="M90.5 630.5q-54.5 44.5 -60.5 117.5h56q5 -54 45 -84t110 -30q69 0 109 30t45 84h56q-5 -73 -59 -117.5t-151 -44.5q-96 0 -150.5 44.5z" />
    <glyph glyph-name="dotaccent" unicode="&#x2d9;" horiz-adv-x="161" 
d="M43.5 628.5q-13.5 12.5 -13.5 32.5q0 19 14 31.5t37 12.5t36.5 -12.5t13.5 -31.5q0 -20 -13.5 -32.5t-36.5 -12.5q-24 0 -37.5 12.5z" />
    <glyph glyph-name="ring" unicode="&#x2da;" horiz-adv-x="339" 
d="M67.5 601q-37.5 32 -37.5 80q0 49 37.5 81t102.5 32t102 -32t37 -81q0 -48 -37 -80t-102 -32t-102.5 32zM236.5 634q23.5 19 23.5 47q0 29 -23.5 48t-66.5 19t-67 -19t-24 -48q0 -28 24 -47t67 -19t66.5 19z" />
    <glyph glyph-name="ogonek" unicode="&#x2db;" horiz-adv-x="268" 
d="M62.5 -200.5q-32.5 27.5 -32.5 72.5q0 46 37.5 84t114.5 55l56 -11q-146 -36 -146 -111q0 -27 20 -44t58 -17q32 0 68 14v-54q-35 -16 -82 -16q-61 0 -93.5 27.5z" />
    <glyph glyph-name="tilde" unicode="&#x2dc;" horiz-adv-x="465" 
d="M63 586q-15 16 -24 38.5t-9 43.5q0 37 25.5 61t67.5 24q38 0 66 -18t61 -51q26 -26 45 -39t41 -13t34 12t12 34q0 18 -8.5 38t-22.5 37h51q15 -17 24 -39t9 -43q0 -38 -25.5 -61.5t-67.5 -23.5q-38 0 -66 18t-61 51q-26 26 -45 39t-41 13t-34 -12.5t-12 -34.5
q0 -19 8.5 -38.5t22.5 -35.5h-51z" />
    <glyph glyph-name="hungarumlaut" unicode="&#x2dd;" horiz-adv-x="416" 
d="M74 591h-44l84 152h74zM273 591h-45l84 152h74z" />
    <glyph glyph-name="gravecomb" unicode="&#x300;" 
d="M-30 591h-54l-133 152h83z" />
    <glyph glyph-name="acutecomb" unicode="&#x301;" 
d="M-163 591h-54l104 152h83z" />
    <glyph glyph-name="uni0302" unicode="&#x302;" 
d="M-209 743l179 -152h-75l-131 116l-131 -116h-75l179 152h54z" />
    <glyph glyph-name="tildecomb" unicode="&#x303;" 
d="M-402 586q-15 16 -24 38.5t-9 43.5q0 37 25.5 61t67.5 24q38 0 66 -18t61 -51q26 -26 45 -39t41 -13t34 12t12 34q0 18 -8.5 38t-22.5 37h51q15 -17 24 -39t9 -43q0 -38 -25.5 -61.5t-67.5 -23.5q-38 0 -66 18t-61 51q-26 26 -45 39t-41 13t-34 -12.5t-12 -34.5
q0 -19 8.5 -38.5t22.5 -35.5h-51z" />
    <glyph glyph-name="uni0304" unicode="&#x304;" 
d="M-30 652h-374v49h374v-49z" />
    <glyph glyph-name="uni0306" unicode="&#x306;" 
d="M-390.5 630.5q-54.5 44.5 -60.5 117.5h56q5 -54 45 -84t110 -30q69 0 109 30t45 84h56q-5 -73 -59 -117.5t-151 -44.5q-96 0 -150.5 44.5z" />
    <glyph glyph-name="uni0307" unicode="&#x307;" 
d="M-117.5 628.5q-13.5 12.5 -13.5 32.5q0 19 14 31.5t37 12.5t36.5 -12.5t13.5 -31.5q0 -20 -13.5 -32.5t-36.5 -12.5q-24 0 -37.5 12.5z" />
    <glyph glyph-name="uni0308" unicode="&#x308;" 
d="M-344 633q-12 11 -12 28q0 16 12 27t32 11t32.5 -11t12.5 -27q0 -17 -12 -28t-33 -11q-20 0 -32 11zM-106 633q-12 11 -12 28q0 16 12 27t32 11t32 -11t12 -27q0 -17 -12 -28t-32 -11t-32 11z" />
    <glyph glyph-name="uni030A" unicode="&#x30a;" 
d="M-271.5 601q-37.5 32 -37.5 80q0 49 37.5 81t102.5 32t102 -32t37 -81q0 -48 -37 -80t-102 -32t-102.5 32zM-102.5 634q23.5 19 23.5 47q0 29 -23.5 48t-66.5 19t-67 -19t-24 -48q0 -28 24 -47t67 -19t66.5 19z" />
    <glyph glyph-name="uni030B" unicode="&#x30b;" 
d="M-342 591h-44l84 152h74zM-143 591h-45l84 152h74z" />
    <glyph glyph-name="uni030C" unicode="&#x30c;" 
d="M-236 627l131 116h75l-179 -152h-54l-179 152h75z" />
    <glyph glyph-name="uni0312" unicode="&#x312;" 
d="M-135.5 742q16.5 37 44.5 58.5t61 21.5v-51h-5q-38 0 -63.5 -25.5t-29.5 -67.5q8 4 20 4q20 0 32 -11.5t12 -28.5t-11.5 -28.5t-28.5 -11.5q-48 0 -48 59q0 44 16.5 81z" />
    <glyph glyph-name="uni0326" unicode="&#x326;" 
d="M-30 -110q0 -44 -16.5 -81t-44.5 -59t-61 -22v51h5q38 0 63.5 26t29.5 68q-8 -4 -20 -4q-20 0 -32 11t-12 29q0 17 11.5 28.5t28.5 11.5q48 0 48 -59z" />
    <glyph glyph-name="uni0327" unicode="&#x327;" 
d="M-193 -57q163 0 163 -85q0 -86 -155 -86q-80 0 -137 27v50q60 -27 137 -27q56 0 77.5 10.5t21.5 29.5q0 20 -22.5 30.5t-84.5 10.5h-72v36l43 70h48l-42 -66h23z" />
    <glyph glyph-name="uni0328" unicode="&#x328;" 
d="M-205.5 -200.5q-32.5 27.5 -32.5 72.5q0 46 37.5 84t114.5 55l56 -11q-146 -36 -146 -111q0 -27 20 -44t58 -17q32 0 68 14v-54q-35 -16 -82 -16q-61 0 -93.5 27.5z" />
    <glyph glyph-name="uni0401" unicode="&#x401;" horiz-adv-x="839" 
d="M761 700v-63h-585v-252h515v-59h-515v-263h585v-63h-657v700h657zM254.5 818.5q-14.5 12.5 -14.5 32.5q0 19 14.5 32t39.5 13t39.5 -12.5t14.5 -32.5t-14 -32.5t-40 -12.5q-25 0 -39.5 12.5zM531 818.5q-14 12.5 -14 32.5t14.5 32.5t39.5 12.5t39.5 -12.5t14.5 -32.5
t-14 -32.5t-40 -12.5t-40 12.5z" />
    <glyph glyph-name="uni0402" unicode="&#x402;" horiz-adv-x="1119" 
d="M903 411.5q80 -37.5 121 -105.5t41 -159q0 -92 -41 -160t-122.5 -106t-199.5 -38q-51 0 -88.5 3t-76.5 12v61q65 -13 156 -13q150 0 225 63.5t75 177.5q0 113 -75 176.5t-225 63.5q-97 0 -167.5 -22t-121.5 -64v-301h-72v637h-290v63h731v-63h-369v-267q55 38 129 58.5
t175 20.5q115 0 195 -37.5z" />
    <glyph glyph-name="uni0403" unicode="&#x403;" horiz-adv-x="771" 
d="M176 0h-72v700h600v-63h-528v-637zM403 788h-54l104 152h83z" />
    <glyph glyph-name="uni0404" unicode="&#x404;" horiz-adv-x="1010" 
d="M761.5 110.5q91.5 59.5 115.5 150.5h72q-17 -77 -70.5 -138.5t-147 -97.5t-223.5 -36q-139 0 -238.5 47t-151.5 129t-52 185t52 185t151.5 129t238.5 47q130 0 223.5 -36t147 -97.5t70.5 -138.5h-72q-24 91 -115.5 150.5t-253.5 59.5q-109 0 -189.5 -35t-126 -95.5
t-53.5 -138.5h489v-59h-489q8 -78 53 -139t126 -96t190 -35q162 0 253.5 59.5z" />
    <glyph glyph-name="uni0405" unicode="&#x405;" horiz-adv-x="945" 
d="M172 56.5q-95 67.5 -95 184.5v15h72v-14q0 -194 326 -194q184 0 255 37.5t71 104.5q0 58 -45 87.5t-110.5 39t-179.5 15.5q-125 6 -201.5 18t-129.5 50.5t-53 115.5q0 195 393 195q206 0 299.5 -65.5t93.5 -179.5v-7h-72v7q0 86 -75 136t-246 50q-321 0 -321 -138
q0 -52 42 -78.5t104.5 -35t171.5 -13.5q130 -6 209.5 -18.5t135.5 -54t56 -124.5q0 -95 -89.5 -148t-308.5 -53q-208 0 -303 67.5z" />
    <glyph glyph-name="uni0406" unicode="&#x406;" horiz-adv-x="731" 
d="M653 0h-576v63h252v574h-252v63h576v-63h-252v-574h252v-63z" />
    <glyph glyph-name="uni0407" unicode="&#x407;" horiz-adv-x="731" 
d="M653 0h-576v63h252v574h-252v63h576v-63h-252v-574h252v-63zM214 830q-12 11 -12 28q0 16 12 27t32 11t32.5 -11t12.5 -27q0 -17 -12 -28t-33 -11q-20 0 -32 11zM452 830q-12 11 -12 28q0 16 12 27t32 11t32 -11t12 -27q0 -17 -12 -28t-32 -11t-32 11z" />
    <glyph glyph-name="uni0408" unicode="&#x408;" horiz-adv-x="814" 
d="M142 63q-83 74 -83 208v25h72v-23q0 -107 64 -164.5t194 -57.5t194 57.5t64 164.5v364h-488v63h560v-429q0 -134 -83 -208t-247 -74t-247 74z" />
    <glyph glyph-name="uni0409" unicode="&#x409;" horiz-adv-x="1522" 
d="M1204 424q128 0 193.5 -56.5t65.5 -155.5t-65.5 -155.5t-193.5 -56.5h-420v637h-474l-51 -466q-10 -91 -53 -136.5t-116 -45.5q-37 0 -61 9v64q24 -8 48 -8q50 0 77 29t35 98l57 519h610v-276h348zM1204 59q92 0 139.5 41t47.5 112t-47.5 112t-139.5 41h-350v-306h350z
" />
    <glyph glyph-name="uni040A" unicode="&#x40a;" horiz-adv-x="1504" 
d="M1186 424q128 0 193.5 -56.5t65.5 -155.5t-65.5 -155.5t-193.5 -56.5h-420v362h-590v-362h-72v700h72v-276h590v276h72v-276h348zM1186 59q92 0 139.5 41t47.5 112t-47.5 112t-139.5 41h-350v-306h350z" />
    <glyph glyph-name="uni040B" unicode="&#x40b;" horiz-adv-x="1119" 
d="M971 374q84 -75 84 -224v-150h-72v150q0 121 -67.5 179t-222.5 58q-97 0 -167.5 -22t-121.5 -64v-301h-72v637h-290v63h731v-63h-369v-267q55 38 129 58.5t175 20.5q179 0 263 -75z" />
    <glyph glyph-name="uni040C" unicode="&#x40c;" horiz-adv-x="826" 
d="M275 361l536 -361h-114l-521 353v-353h-72v700h72v-333l504 333h111zM429 788h-54l104 152h83z" />
    <glyph glyph-name="uni040E" unicode="&#x40e;" horiz-adv-x="818" 
d="M712 700h84l-365 -567q-48 -74 -96 -109t-124 -35q-46 0 -81 12v63q37 -10 73 -10q56 0 92.5 22t67.5 70l25 38l-361 516h86l276 -401q16 -25 24 -41.5t8 -28.5v-3h10v3q0 22 29 70zM247.5 822q-60.5 46 -67.5 126h61q6 -58 52 -89.5t133 -31.5t133 31.5t52 89.5h61
q-7 -80 -67.5 -126t-178.5 -46t-178.5 46z" />
    <glyph glyph-name="uni040F" unicode="&#x40f;" horiz-adv-x="957" 
d="M781 700h72v-700h-339v-179h-70v179h-340v700h72v-637h605v637z" />
    <glyph glyph-name="uni0410" unicode="&#x410;" horiz-adv-x="893" 
d="M861 0h-78l-80 153h-513l-80 -153h-78l373 700h83zM221 212h451l-194 368q-26 52 -26 77v1h-11v-1q0 -25 -26 -77z" />
    <glyph glyph-name="uni0411" unicode="&#x411;" horiz-adv-x="894" 
d="M582 409q122 0 184.5 -54.5t62.5 -150.5q0 -95 -63 -149.5t-184 -54.5h-478v700h685v-63h-615v-228h408zM582 63q86 0 130.5 38.5t44.5 104.5q0 67 -44.5 105.5t-130.5 38.5h-406v-287h406z" />
    <glyph glyph-name="uni0412" unicode="&#x412;" horiz-adv-x="919" 
d="M700 354q74 -6 117 -50.5t43 -117.5q0 -89 -60 -137.5t-188 -48.5h-508v700h507q110 0 167 -48t57 -129q0 -65 -38 -107t-97 -50v-12zM176 637v-253h432q76 0 115.5 34.5t39.5 92.5t-39.5 92t-115.5 34h-432zM616 63q88 0 130 34t42 96q0 63 -42 97.5t-130 34.5h-440
v-262h440z" />
    <glyph glyph-name="uni0413" unicode="&#x413;" horiz-adv-x="771" 
d="M176 0h-72v700h600v-63h-528v-637z" />
    <glyph glyph-name="uni0414" unicode="&#x414;" horiz-adv-x="980" 
d="M834 63h112v-242h-70v179h-780v-179h-70v242h45q42 0 67.5 29t33.5 98l57 510h605v-637zM764 63v574h-471l-49 -441q-11 -104 -56 -133h576z" />
    <glyph glyph-name="uni0415" unicode="&#x415;" horiz-adv-x="839" 
d="M761 700v-63h-585v-252h515v-59h-515v-263h585v-63h-657v700h657z" />
    <glyph glyph-name="uni0416" unicode="&#x416;" horiz-adv-x="1188" 
d="M716 361l447 -361h-103l-431 351v-351h-70v351l-432 -351h-103l448 361l-428 339h101l414 -331v331h70v-331l414 331h100z" />
    <glyph glyph-name="uni0417" unicode="&#x417;" horiz-adv-x="864" 
d="M629 352q83 -7 129 -52.5t46 -112.5q0 -91 -86.5 -144.5t-286.5 -53.5q-193 0 -284 62t-91 161v19h72v-19q0 -43 30.5 -79.5t98.5 -59t174 -22.5q301 0 301 141q0 60 -58 96.5t-189 36.5h-194v59h195q123 0 179.5 36t56.5 93q0 59 -67.5 97.5t-223.5 38.5
q-101 0 -166.5 -22.5t-96 -59.5t-30.5 -80v-13h-72v15q0 62 38 112.5t120 80t207 29.5q191 0 277 -53t86 -135q0 -63 -44 -107t-121 -51v-13z" />
    <glyph glyph-name="uni0418" unicode="&#x418;" horiz-adv-x="977" 
d="M104 0v700h70v-528q0 -41 -2.5 -68t-9.5 -62h10l585 658h116v-700h-70v528q0 41 3 68.5t10 61.5h-11l-585 -658h-116z" />
    <glyph glyph-name="uni0419" unicode="&#x419;" horiz-adv-x="977" 
d="M104 0v700h70v-528q0 -41 -2.5 -68t-9.5 -62h10l585 658h116v-700h-70v528q0 41 3 68.5t10 61.5h-11l-585 -658h-116zM319.5 822q-60.5 46 -67.5 126h61q6 -58 52 -89.5t133 -31.5t133 31.5t52 89.5h61q-7 -80 -67.5 -126t-178.5 -46t-178.5 46z" />
    <glyph glyph-name="uni041A" unicode="&#x41a;" horiz-adv-x="826" 
d="M275 361l536 -361h-114l-521 353v-353h-72v700h72v-333l504 333h111z" />
    <glyph glyph-name="uni041B" unicode="&#x41b;" horiz-adv-x="986" 
d="M29 -2v64q24 -8 48 -8q50 0 77 29t35 98l57 519h635v-700h-72v637h-499l-51 -466q-10 -91 -53 -136.5t-116 -45.5q-37 0 -61 9z" />
    <glyph glyph-name="uni041C" unicode="&#x41c;" horiz-adv-x="1119" 
d="M104 0v700h118l311 -469q21 -34 21 -48v-4h11v4q0 15 21 48l311 469h118v-700h-70v523q0 42 2.5 69.5t8.5 65.5h-10l-346 -521h-80l-346 521h-11q6 -34 8.5 -62.5t2.5 -72.5v-523h-70z" />
    <glyph glyph-name="uni041D" unicode="&#x41d;" horiz-adv-x="967" 
d="M791 392v308h72v-700h-72v329h-615v-329h-72v700h72v-308h615z" />
    <glyph glyph-name="uni041E" unicode="&#x41e;" horiz-adv-x="1026" 
d="M271 36q-101 47 -153 129t-52 185t52 185t153 129t242 47t242 -47t153.5 -129t52.5 -185t-52.5 -185t-153.5 -129t-242 -47t-242 47zM716 90q85 39 129 107t44 153t-44 153t-129 107t-203 39t-203 -39t-128.5 -107t-43.5 -153t43.5 -153t128.5 -107t203 -39t203 39z" />
    <glyph glyph-name="uni041F" unicode="&#x41f;" horiz-adv-x="952" 
d="M176 0h-72v700h744v-700h-72v637h-600v-637z" />
    <glyph glyph-name="uni0420" unicode="&#x420;" horiz-adv-x="872" 
d="M533 700q132 0 201 -60t69 -164t-69 -164t-201 -60h-357v-252h-72v700h429zM533 315q98 0 148 43.5t50 117.5q0 75 -50 118t-148 43h-359v-322h359z" />
    <glyph glyph-name="uni0421" unicode="&#x421;" horiz-adv-x="1005" 
d="M269.5 36q-99.5 47 -151.5 129t-52 185t52 185t151.5 129t238.5 47q194 0 304 -78t137 -204h-72q-24 97 -115 158.5t-254 61.5q-116 0 -199.5 -39.5t-127 -107t-43.5 -152.5t43.5 -152.5t127 -107t199.5 -39.5q163 0 254 61.5t115 158.5h72q-26 -128 -135.5 -205
t-305.5 -77q-139 0 -238.5 47z" />
    <glyph glyph-name="uni0422" unicode="&#x422;" horiz-adv-x="796" 
d="M434 0h-72v637h-330v63h731v-63h-329v-637z" />
    <glyph glyph-name="uni0423" unicode="&#x423;" horiz-adv-x="818" 
d="M712 700h84l-365 -567q-48 -74 -96 -109t-124 -35q-46 0 -81 12v63q37 -10 73 -10q56 0 92.5 22t67.5 70l25 38l-361 516h86l276 -401q16 -25 24 -41.5t8 -28.5v-3h10v3q0 22 29 70z" />
    <glyph glyph-name="uni0424" unicode="&#x424;" horiz-adv-x="1108" 
d="M601 658q152 0 252 -39.5t147.5 -109t47.5 -159.5t-47.5 -159.5t-147.5 -109t-252 -39.5h-11v-86h-72v86h-11q-152 0 -251.5 39.5t-147 108.5t-47.5 160t47.5 160t147 108.5t251.5 39.5h11v86h72v-86h11zM519 102v496h-14q-189 0 -280.5 -67.5t-91.5 -180.5t91.5 -180.5
t280.5 -67.5h14zM603 102q190 0 281.5 67.5t91.5 180.5t-91.5 180.5t-281.5 67.5h-14v-496h14z" />
    <glyph glyph-name="uni0425" unicode="&#x425;" horiz-adv-x="887" 
d="M32 0l361 355l-351 345h94l263 -263q19 -19 29 -32t10 -24v-3h11v3q0 11 9.5 23.5t28.5 32.5l264 263h93l-350 -345l360 -355h-95l-274 272q-18 18 -27 30t-9 22v3h-11v-3q0 -10 -9 -22t-27 -30l-274 -272h-96z" />
    <glyph glyph-name="uni0426" unicode="&#x426;" horiz-adv-x="984" 
d="M950 -179h-70v179h-776v700h72v-637h590v637h72v-637h112v-242z" />
    <glyph glyph-name="uni0427" unicode="&#x427;" horiz-adv-x="902" 
d="M726 700h72v-700h-72v299q-117 -80 -305 -80q-178 0 -262.5 75.5t-84.5 224.5v181h72v-181q0 -121 67.5 -179t222.5 -58q99 0 169 22t121 65v331z" />
    <glyph glyph-name="uni0428" unicode="&#x428;" horiz-adv-x="1227" 
d="M1051 63v637h72v-700h-1019v700h72v-637h403v637h70v-637h402z" />
    <glyph glyph-name="uni0429" unicode="&#x429;" horiz-adv-x="1269" 
d="M1123 700v-637h112v-242h-70v179h-1061v700h72v-637h403v637h70v-637h402v637h72z" />
    <glyph glyph-name="uni042A" unicode="&#x42a;" horiz-adv-x="1003" 
d="M672 453q133 0 202.5 -61t69.5 -166q0 -104 -70 -165t-202 -61h-427v637h-221v63h293v-247h355zM672 63q98 0 149 43.5t51 119.5t-51 120t-149 44h-357v-327h357z" />
    <glyph glyph-name="uni042B" unicode="&#x42b;" horiz-adv-x="1126" 
d="M519 453q133 0 202.5 -61t69.5 -166q0 -104 -70 -165t-202 -61h-415v700h72v-247h343zM950 0v700h72v-700h-72zM519 63q98 0 149 43.5t51 119.5t-51 120t-149 44h-345v-327h345z" />
    <glyph glyph-name="uni042C" unicode="&#x42c;" horiz-adv-x="862" 
d="M532 453q132 0 201.5 -61t69.5 -166q0 -104 -69.5 -165t-201.5 -61h-428v700h72v-247h356zM532 63q97 0 148 43.5t51 119.5t-51 120t-148 44h-358v-327h358z" />
    <glyph glyph-name="uni042D" unicode="&#x42d;" horiz-adv-x="1010" 
d="M741 664q100 -47 151.5 -129t51.5 -185t-51.5 -185t-151.5 -129t-238 -47q-131 0 -224.5 36t-147 97.5t-70.5 138.5h72q24 -91 115.5 -150.5t254.5 -59.5q109 0 189.5 35t125.5 96t53 139h-489v59h489q-8 78 -53 138.5t-125.5 95.5t-189.5 35q-163 0 -254.5 -59.5
t-115.5 -150.5h-72q17 77 70.5 138.5t147 97.5t224.5 36q138 0 238 -47z" />
    <glyph glyph-name="uni042E" unicode="&#x42e;" horiz-adv-x="1260" 
d="M991.5 664.5q96.5 -46.5 147 -128.5t50.5 -186t-50.5 -186t-147 -128.5t-228.5 -46.5q-126 0 -219.5 42.5t-146 118t-59.5 171.5h-162v-321h-72v700h72v-320h162q8 96 60 171t145.5 117.5t219.5 42.5q132 0 228.5 -46.5zM952.5 90q80.5 39 122.5 107t42 153t-42 153
t-122.5 107t-190.5 39t-190 -39t-122.5 -107t-42.5 -153t42.5 -153t122.5 -107t190 -39t190.5 39z" />
    <glyph glyph-name="uni042F" unicode="&#x42f;" horiz-adv-x="879" 
d="M774 700v-700h-72v269h-332q-52 0 -80.5 -6.5t-46.5 -25t-35 -57.5l-81 -180h-85l80 172q27 60 52.5 82.5t70.5 26.5v11q-73 11 -118.5 64.5t-45.5 133.5q0 61 30 108.5t89 74.5t143 27h431zM704 329v308h-361q-93 0 -141.5 -41.5t-48.5 -112.5t48.5 -112.5t141.5 -41.5
h361z" />
    <glyph glyph-name="uni0430" unicode="&#x430;" horiz-adv-x="773" 
d="M130.5 29.5q-56.5 40.5 -56.5 110.5q0 68 57 109t177 41q99 0 168.5 -21.5t132.5 -59.5v57q0 90 -60.5 141.5t-182.5 51.5q-77 0 -129.5 -20t-80 -51t-32.5 -66h-65q4 52 39 95.5t102.5 70t166.5 26.5q154 0 230.5 -66t76.5 -184v-166q0 -54 50 -54q14 0 34 5v-53
q-20 -7 -45 -7q-45 0 -70.5 23.5t-25.5 65.5v11h-10v-1q-6 -22 -45 -45t-105 -38.5t-149 -15.5q-121 0 -177.5 40.5zM490 63.5q71 22.5 119 58.5v45q-60 34 -126 53.5t-156 19.5q-188 0 -188 -99q0 -100 188 -100q92 0 163 22.5z" />
    <glyph glyph-name="uni0431" unicode="&#x431;" horiz-adv-x="774" 
d="M147 70q-86 81 -86 234q0 164 90 243.5t288 79.5q102 0 152 8.5t66 26t16 49.5h65q0 -53 -21.5 -82t-83 -43.5t-182.5 -14.5t-194 -28.5t-105.5 -85.5t-32.5 -146v-22h9q16 78 86.5 125.5t203.5 47.5q100 0 169.5 -30t103.5 -83.5t34 -121.5q0 -108 -81 -173t-241 -65
q-170 0 -256 81zM594.5 94.5q65.5 50.5 65.5 132.5q0 81 -65.5 131.5t-193.5 50.5q-129 0 -194.5 -50.5t-65.5 -131.5q0 -82 65.5 -132.5t194.5 -50.5q128 0 193.5 50.5z" />
    <glyph glyph-name="uni0432" unicode="&#x432;" horiz-adv-x="733" 
d="M572 254q53 -2 85 -35.5t32 -85.5q0 -61 -43.5 -97t-129.5 -36h-427v503h418q77 0 119.5 -35t42.5 -90q0 -47 -27.5 -78.5t-69.5 -35.5v-10zM154 447v-167h352q45 0 71.5 23.5t26.5 60.5t-26 60t-72 23h-352zM516 56q53 0 80.5 23t27.5 63t-27.5 63t-80.5 23h-362v-172
h362z" />
    <glyph glyph-name="uni0433" unicode="&#x433;" horiz-adv-x="732" 
d="M120 25q-63 36 -63 101q0 59 42.5 90.5t102.5 43t158 20.5q80 7 124.5 14.5t74.5 26t30 52.5q0 41 -50.5 65t-182.5 24q-120 0 -175.5 -34.5t-57.5 -91.5h-66q3 83 77.5 130.5t221.5 47.5q158 0 228 -35.5t70 -100.5q0 -55 -41 -85t-99.5 -42t-154.5 -21q-81 -8 -127 -16
t-77.5 -27.5t-31.5 -55.5q0 -43 46.5 -66.5t172.5 -23.5q142 0 202 34t60 89v7h65v-7q0 -78 -75.5 -126.5t-254.5 -48.5q-156 0 -219 36z" />
    <glyph glyph-name="uni0434" unicode="&#x434;" horiz-adv-x="793" 
d="M206.5 21q-73.5 32 -109.5 88.5t-36 129.5t35.5 129t105.5 88t170 32q131 0 204 -50t88 -130h9v28q0 153 -88 236.5t-258 83.5q-149 0 -256 -51v56q97 50 258 50q194 0 298.5 -102t104.5 -289q0 -92 -29 -159q-35 -84 -115 -128t-202 -44q-106 0 -179.5 32zM534 69.5
q59 25.5 88.5 70t29.5 100.5t-29.5 100.5t-88.5 70t-145 25.5t-145 -25.5t-88.5 -70t-29.5 -100.5t29.5 -100.5t88.5 -70t145 -25.5t145 25.5z" />
    <glyph glyph-name="uni0435" unicode="&#x435;" horiz-adv-x="771" 
d="M713 223h-592q10 -81 79 -131.5t186 -50.5q105 0 164.5 34.5t83.5 80.5h66q-25 -67 -102 -117t-213 -50q-104 0 -178.5 34t-112.5 93.5t-38 133.5q0 76 38.5 135.5t112.5 94t179 34.5q103 0 177.5 -34.5t113 -94t38.5 -134.5q0 -10 -2 -28zM198 410q-69 -52 -78 -137h531
q-6 54 -38.5 97t-90 67.5t-136.5 24.5q-119 0 -188 -52z" />
    <glyph glyph-name="uni0436" unicode="&#x436;" horiz-adv-x="934" 
d="M580 261l339 -261h-94l-326 256v-256h-63v256l-327 -256h-93l338 261l-328 242h92l318 -238v238h63v-237l318 237h92z" />
    <glyph glyph-name="uni0437" unicode="&#x437;" horiz-adv-x="676" 
d="M493 254q66 -5 102.5 -38.5t36.5 -81.5q0 -145 -294 -145t-294 167v10h65v-9q0 -51 52.5 -82t176.5 -31q130 0 179.5 24.5t49.5 68.5t-48 68.5t-175 24.5h-113v53h113q119 0 166 23.5t47 64.5q0 40 -48 64t-171 24q-115 0 -167 -31t-52 -78v-6h-65v8q0 73 68 117.5
t216 44.5q152 0 218 -37.5t66 -97.5q0 -45 -33.5 -76.5t-95.5 -36.5v-12z" />
    <glyph glyph-name="uni0438" unicode="&#x438;" horiz-adv-x="796" 
d="M89 0v503h64v-342q0 -37 -3 -62.5t-9 -63.5h11l449 468h106v-503h-63v342q0 38 2.5 65t8.5 61h-10l-450 -468h-106z" />
    <glyph glyph-name="uni0439" unicode="&#x439;" horiz-adv-x="796" 
d="M89 0v503h64v-342q0 -37 -3 -62.5t-9 -63.5h11l449 468h106v-503h-63v342q0 38 2.5 65t8.5 61h-10l-450 -468h-106zM250 630q-55 44 -61 118h56q5 -55 46 -85t114 -30t113.5 30t45.5 85h56q-5 -74 -60 -118t-155 -44t-155 44z" />
    <glyph glyph-name="uni043A" unicode="&#x43a;" horiz-adv-x="660" 
d="M247 261l402 -261h-104l-391 257v-257h-65v503h65v-238l382 238h103z" />
    <glyph glyph-name="uni043B" unicode="&#x43b;" horiz-adv-x="764" 
d="M17 -2v57q22 -7 41 -7q46 0 67 30t28 85l38 340h483v-503h-65v447h-361l-33 -296q-17 -162 -144 -162q-28 0 -54 9z" />
    <glyph glyph-name="uni043C" unicode="&#x43c;" horiz-adv-x="919" 
d="M89 0v503h107l233 -322q25 -36 25 -53v-1h11v1q0 16 26 53l232 322h107v-503h-63v353q0 58 9 115h-10l-272 -376h-68l-272 376h-11q10 -54 10 -115v-353h-64z" />
    <glyph glyph-name="uni043D" unicode="&#x43d;" horiz-adv-x="791" 
d="M637 284v219h65v-503h-65v229h-483v-229h-65v503h65v-219h483z" />
    <glyph glyph-name="uni043E" unicode="&#x43e;" horiz-adv-x="779" 
d="M208 23q-75 34 -113.5 93.5t-38.5 134.5t38.5 134.5t113.5 94t181 34.5t181.5 -34.5t114 -94t38.5 -134.5t-38.5 -134.5t-114 -93.5t-181.5 -34t-181 34zM535.5 71q60.5 27 91.5 74t31 106t-31 106t-91.5 74.5t-146.5 27.5q-85 0 -145.5 -27.5t-91.5 -74.5t-31 -106
t31 -105.5t91.5 -74t145.5 -27.5q86 0 146.5 27z" />
    <glyph glyph-name="uni043F" unicode="&#x43f;" horiz-adv-x="776" 
d="M154 0h-65v503h598v-503h-65v447h-468v-447z" />
    <glyph glyph-name="uni0440" unicode="&#x440;" horiz-adv-x="791" 
d="M89 -197v700h67l-14 -150h11q24 71 94 116t183 45q93 0 161 -33.5t104 -93.5t36 -136t-36 -135.5t-104.5 -93t-160.5 -33.5q-113 0 -183 45t-94 117h-11q7 -54 9.5 -91.5t2.5 -82.5v-174h-65zM548 71q58 27 88 74t30 106t-30 106.5t-88 74.5t-138 27t-138 -27t-88 -74.5
t-30 -106.5t30 -106t88 -74t138 -27t138 27z" />
    <glyph glyph-name="uni0441" unicode="&#x441;" horiz-adv-x="751" 
d="M205.5 23.5q-73.5 34.5 -111.5 94t-38 133.5q0 75 38 134.5t111.5 94t175.5 34.5q95 0 165 -28t110.5 -77t49.5 -112h-65q-14 71 -80.5 116.5t-179.5 45.5q-82 0 -140.5 -27.5t-89 -74.5t-30.5 -106q0 -58 30.5 -105t89 -74.5t140.5 -27.5q113 0 179.5 45.5t80.5 116.5
h65q-9 -62 -49.5 -111t-110.5 -77.5t-165 -28.5q-102 0 -175.5 34.5z" />
    <glyph glyph-name="uni0442" unicode="&#x442;" horiz-adv-x="631" 
d="M348 0h-65v447h-256v56h577v-56h-256v-447z" />
    <glyph glyph-name="uni0443" unicode="&#x443;" horiz-adv-x="697" 
d="M593 503h76l-308 -550q-52 -93 -99 -131.5t-120 -38.5q-37 0 -75 13v56q36 -13 69 -13q54 0 87 26t69 89l21 36l-286 513h77l219 -405q19 -37 19 -58h11q0 23 18 58z" />
    <glyph glyph-name="uni0444" unicode="&#x444;" horiz-adv-x="1104" 
d="M518 -14q0 35 2.5 67.5t6.5 66.5h-11q-21 -58 -75 -94.5t-138 -36.5q-73 0 -127.5 31t-84.5 90t-30 141t30 141t84.5 90.5t127.5 31.5q84 0 138 -36.5t75 -94.5h11q-4 33 -6.5 65.5t-2.5 67.5v184h68v-184q0 -59 -8 -133h10q22 58 76 94.5t137 36.5q73 0 127.5 -31.5
t85 -90.5t30.5 -141t-30.5 -141t-85 -90t-127.5 -31q-83 0 -137 36.5t-76 94.5h-10q8 -77 8 -134v-183h-68v183zM467 99.5q54 55.5 54 151.5t-53.5 152t-144.5 56q-90 0 -143.5 -56t-53.5 -152q0 -95 53.5 -151t143.5 -56t144 55.5zM925 99.5q54 55.5 54 151.5t-53.5 152
t-144.5 56q-90 0 -143.5 -56t-53.5 -152t53.5 -151.5t143.5 -55.5t144 55.5z" />
    <glyph glyph-name="uni0445" unicode="&#x445;" horiz-adv-x="701" 
d="M22 0l282 256l-272 247h88l191 -175q34 -32 34 -50v-2h11v2q0 18 34 50l191 175h87l-272 -247l282 -256h-88l-203 187q-12 11 -21.5 23t-9.5 20v2h-11v-2q0 -8 -9.5 -20t-21.5 -23l-203 -187h-89z" />
    <glyph glyph-name="uni0446" unicode="&#x446;" horiz-adv-x="798" 
d="M774 -149h-63v149h-622v503h65v-447h458v447h65v-447h97v-205z" />
    <glyph glyph-name="uni0447" unicode="&#x447;" horiz-adv-x="731" 
d="M577 503h65v-503h-65v207q-44 -32 -101 -48t-137 -16q-150 0 -215 59.5t-65 188.5v112h65v-109q0 -104 52 -150t175 -46q75 0 130 18t96 53v234z" />
    <glyph glyph-name="uni0448" unicode="&#x448;" horiz-adv-x="999" 
d="M845 56v447h65v-503h-821v503h65v-447h314v447h63v-447h314z" />
    <glyph glyph-name="uni0449" unicode="&#x449;" horiz-adv-x="1031" 
d="M910 503v-447h97v-205h-63v149h-855v503h65v-447h314v447h63v-447h314v447h65z" />
    <glyph glyph-name="uni044A" unicode="&#x44a;" horiz-adv-x="795" 
d="M549 336q100 0 151 -44.5t51 -123.5t-51 -123.5t-151 -44.5h-345v447h-185v56h250v-167h280zM549 56q67 0 102 30t35 82t-35 82.5t-102 30.5h-281v-225h281z" />
    <glyph glyph-name="uni044B" unicode="&#x44b;" horiz-adv-x="909" 
d="M421 336q100 0 151 -44.5t51 -123.5t-51 -123.5t-151 -44.5h-332v503h65v-167h267zM754 0v503h65v-503h-65zM421 56q67 0 102 30t35 82t-35 82.5t-102 30.5h-268v-225h268z" />
    <glyph glyph-name="uni044C" unicode="&#x44c;" horiz-adv-x="680" 
d="M434 336q100 0 151 -44.5t51 -123.5t-51 -123.5t-151 -44.5h-345v503h65v-167h280zM434 56q67 0 102 30t35 82t-35 82.5t-102 30.5h-281v-225h281z" />
    <glyph glyph-name="uni044D" unicode="&#x44d;" horiz-adv-x="756" 
d="M550.5 479.5q73.5 -34.5 112 -94t38.5 -134.5q0 -74 -38.5 -133.5t-112 -94t-175.5 -34.5q-95 0 -165 28t-110 76.5t-49 109.5h65q13 -69 79.5 -114t179.5 -45t181 50.5t78 130.5h-337v53h337q-10 80 -78 130.5t-181 50.5t-179.5 -45t-79.5 -114h-65q9 61 49 109.5
t110 76.5t165 28q102 0 175.5 -34.5z" />
    <glyph glyph-name="uni044E" unicode="&#x44e;" horiz-adv-x="990" 
d="M783.5 480q71.5 -34 108.5 -93.5t37 -135.5q0 -75 -37 -134.5t-108.5 -93.5t-170.5 -34q-94 0 -163 30.5t-107.5 84.5t-44.5 123h-144v-227h-65v503h65v-223h144q7 68 46 121t107.5 83t161.5 30q99 0 170.5 -34zM748 71q57 27 86.5 74t29.5 106t-29.5 106.5t-86.5 74.5
t-136 27t-136 -27t-86.5 -74.5t-29.5 -106.5t29.5 -106t86.5 -74t136 -27t136 27z" />
    <glyph glyph-name="uni044F" unicode="&#x44f;" horiz-adv-x="717" 
d="M628 503v-503h-66v182h-271q-52 0 -78.5 -13.5t-45.5 -56.5l-49 -112h-79l47 104q22 49 44 68t61 23v10q-57 5 -92.5 43.5t-35.5 97.5q0 74 49 115.5t147 41.5h369zM564 234v213h-305q-65 0 -98 -28t-33 -78t33.5 -78.5t97.5 -28.5h305z" />
    <glyph glyph-name="uni0451" unicode="&#x451;" horiz-adv-x="771" 
d="M713 223h-592q10 -81 79 -131.5t186 -50.5q105 0 164.5 34.5t83.5 80.5h66q-25 -67 -102 -117t-213 -50q-104 0 -178.5 34t-112.5 93.5t-38 133.5q0 76 38.5 135.5t112.5 94t179 34.5q103 0 177.5 -34.5t113 -94t38.5 -134.5q0 -10 -2 -28zM198 410q-69 -52 -78 -137h531
q-6 54 -38.5 97t-90 67.5t-136.5 24.5q-119 0 -188 -52zM234 633q-12 11 -12 28q0 16 12 27t32 11t32.5 -11t12.5 -27q0 -17 -12 -28t-33 -11q-20 0 -32 11zM472 633q-12 11 -12 28q0 16 12 27t32 11t32 -11t12 -27q0 -17 -12 -28t-32 -11t-32 11z" />
    <glyph glyph-name="uni0452" unicode="&#x452;" horiz-adv-x="841" 
d="M626 459.5q68 -36.5 104 -106t36 -164.5q0 -144 -81.5 -225t-228.5 -81q-47 0 -77 3.5t-61 11.5v56q29 -8 56.5 -11.5t71.5 -3.5q121 0 188 66t67 184q0 119 -67 185t-188 66q-117 0 -182.5 -66.5t-65.5 -187.5v-186h-65v577h-111v50h111v73h65v-73h271v-50h-271v-81
q0 -44 -2.5 -82t-9.5 -97h10q20 77 89 128t181 51q92 0 160 -36.5z" />
    <glyph glyph-name="uni0453" unicode="&#x453;" horiz-adv-x="732" 
d="M120 25q-63 36 -63 101q0 59 42.5 90.5t102.5 43t158 20.5q80 7 124.5 14.5t74.5 26t30 52.5q0 41 -50.5 65t-182.5 24q-120 0 -175.5 -34.5t-57.5 -91.5h-66q3 83 77.5 130.5t221.5 47.5q158 0 228 -35.5t70 -100.5q0 -55 -41 -85t-99.5 -42t-154.5 -21q-81 -8 -127 -16
t-77.5 -27.5t-31.5 -55.5q0 -43 46.5 -66.5t172.5 -23.5q142 0 202 34t60 89v7h65v-7q0 -78 -75.5 -126.5t-254.5 -48.5q-156 0 -219 36zM354 591h-54l104 152h83z" />
    <glyph glyph-name="uni0454" unicode="&#x454;" horiz-adv-x="756" 
d="M560.5 89q66.5 45 80.5 114h65q-9 -61 -49.5 -109.5t-110.5 -76.5t-165 -28q-102 0 -175.5 34.5t-111.5 94t-38 133.5q0 75 38 134.5t111.5 94t175.5 34.5q95 0 165 -28t110.5 -76.5t49.5 -109.5h-65q-14 69 -80.5 114t-179.5 45t-180.5 -50.5t-77.5 -130.5h336v-53h-336
q10 -80 77.5 -130.5t180.5 -50.5t179.5 45z" />
    <glyph glyph-name="uni0455" unicode="&#x455;" horiz-adv-x="732" 
d="M134 36.5q-72 47.5 -72 128.5v11h66v-10q0 -57 56 -91t185 -34q135 0 187.5 26.5t52.5 71.5q0 38 -32.5 57t-81 25.5t-129.5 9.5q-99 5 -157.5 13.5t-100 37t-41.5 86.5q0 146 302 146q155 0 226.5 -48.5t73.5 -129.5h-65q-2 57 -56.5 91.5t-178.5 34.5
q-132 0 -184 -26.5t-52 -70.5q0 -35 30.5 -52.5t77 -23t124.5 -8.5q99 -4 160.5 -13t105 -40t43.5 -92q0 -69 -68.5 -108t-236.5 -39q-163 0 -235 47.5z" />
    <glyph glyph-name="uni0456" unicode="&#x456;" horiz-adv-x="537" 
d="M320 56h184v-56h-457v56h210v319q0 43 -18.5 62t-61.5 19q-20 0 -35.5 -3.5t-37.5 -11.5v57q42 16 90 16q66 0 96 -29t30 -91v-338zM237.5 628.5q-13.5 12.5 -13.5 32.5q0 19 14 31.5t37 12.5t36.5 -12.5t13.5 -31.5q0 -20 -13.5 -32.5t-36.5 -12.5q-24 0 -37.5 12.5z
" />
    <glyph glyph-name="uni0457" unicode="&#x457;" horiz-adv-x="537" 
d="M320 56h184v-56h-457v56h210v319q0 43 -18.5 62t-61.5 19q-20 0 -35.5 -3.5t-37.5 -11.5v57q42 16 90 16q66 0 96 -29t30 -91v-338zM124 633q-12 11 -12 28q0 16 12 27t32 11t32.5 -11t12.5 -27q0 -17 -12 -28t-33 -11q-20 0 -32 11zM362 633q-12 11 -12 28q0 16 12 27
t32 11t32 -11t12 -27q0 -17 -12 -28t-32 -11t-32 11z" />
    <glyph glyph-name="uni0458" unicode="&#x458;" horiz-adv-x="328" 
d="M-25.5 -214q-20.5 3 -44.5 10v56q39 -13 84 -13q87 0 126.5 34.5t39.5 104.5v397q0 43 -18.5 62t-61.5 19q-20 0 -35.5 -3.5t-37.5 -11.5v57q42 16 91 16q65 0 95 -29t30 -91v-417q0 -194 -220 -194q-28 0 -48.5 3zM161.5 628.5q-13.5 12.5 -13.5 32.5q0 19 14 31.5
t37 12.5t36.5 -12.5t13.5 -31.5q0 -20 -13.5 -32.5t-36.5 -12.5q-24 0 -37.5 12.5z" />
    <glyph glyph-name="uni0459" unicode="&#x459;" horiz-adv-x="1155" 
d="M921 309q95 0 142.5 -41t47.5 -114t-47.5 -113.5t-142.5 -40.5h-337v447h-336l-33 -296q-17 -162 -144 -162q-28 0 -54 9v57q22 -7 41 -7q46 0 67 30t28 85l38 340h458v-194h272zM921 53q61 0 93 27t32 74q0 48 -32 75.5t-93 27.5h-273v-204h273z" />
    <glyph glyph-name="uni045A" unicode="&#x45a;" horiz-adv-x="1182" 
d="M949 309q94 0 141.5 -41t47.5 -114t-47.5 -113.5t-141.5 -40.5h-337v254h-458v-254h-65v503h65v-194h458v194h65v-194h272zM949 53q61 0 92.5 27t31.5 74q0 48 -31.5 75.5t-92.5 27.5h-274v-204h274z" />
    <glyph glyph-name="uni045B" unicode="&#x45b;" horiz-adv-x="841" 
d="M678.5 417q77.5 -79 77.5 -220v-197h-65v186q0 121 -65 187.5t-182 66.5q-116 0 -181 -66.5t-65 -187.5v-186h-65v577h-111v50h111v73h65v-73h271v-50h-271v-81q0 -44 -2.5 -82t-9.5 -97h10q20 77 88.5 128t179.5 51q137 0 214.5 -79z" />
    <glyph glyph-name="uni045C" unicode="&#x45c;" horiz-adv-x="660" 
d="M247 261l402 -261h-104l-391 257v-257h-65v503h65v-238l382 238h103zM346 591h-54l104 152h83z" />
    <glyph glyph-name="uni045E" unicode="&#x45e;" horiz-adv-x="697" 
d="M593 503h76l-308 -550q-52 -93 -99 -131.5t-120 -38.5q-37 0 -75 13v56q36 -13 69 -13q54 0 87 26t69 89l21 36l-286 513h77l219 -405q19 -37 19 -58h11q0 23 18 58zM193 630q-55 44 -61 118h56q5 -55 46 -85t114 -30t113.5 30t45.5 85h56q-5 -74 -60 -118t-155 -44
t-155 44z" />
    <glyph glyph-name="uni045F" unicode="&#x45f;" horiz-adv-x="781" 
d="M627 503h65v-503h-270v-149h-63v149h-270v503h65v-447h473v447z" />
    <glyph glyph-name="uni0490" unicode="&#x490;" horiz-adv-x="771" 
d="M635 700v171h69v-234h-528v-637h-72v700h531z" />
    <glyph glyph-name="uni0491" unicode="&#x491;" horiz-adv-x="614" 
d="M502 503v134h62v-190h-410v-447h-65v503h413z" />
    <glyph glyph-name="Wgrave" unicode="&#x1e80;" horiz-adv-x="1192" 
d="M301 0l-254 700h78l206 -580q17 -48 17 -76v-2h10v2q0 32 17 76l178 443h85l179 -443q17 -44 17 -76v-2h10v2q0 28 17 76l206 580h77l-253 -700h-93l-177 432q-20 53 -20 87v2h-10v-2q0 -36 -21 -87l-176 -432h-93zM658 781h-60l-160 162h96z" />
    <glyph glyph-name="wgrave" unicode="&#x1e81;" horiz-adv-x="1026" 
d="M244 0l-212 503h71l167 -404q13 -30 13 -60v-4h11v4q0 37 11 60l174 404h68l174 -404q11 -26 11 -60v-4h10v4q0 27 14 60l167 404h70l-211 -503h-80l-172 393q-12 28 -12 71v4h-10v-4q0 -44 -13 -71l-171 -393h-80zM569 591h-54l-133 152h83z" />
    <glyph glyph-name="Wacute" unicode="&#x1e82;" horiz-adv-x="1192" 
d="M301 0l-254 700h78l206 -580q17 -48 17 -76v-2h10v2q0 32 17 76l178 443h85l179 -443q17 -44 17 -76v-2h10v2q0 28 17 76l206 580h77l-253 -700h-93l-177 432q-20 53 -20 87v2h-10v-2q0 -36 -21 -87l-176 -432h-93zM594 781h-60l124 162h96z" />
    <glyph glyph-name="wacute" unicode="&#x1e83;" horiz-adv-x="1026" 
d="M244 0l-212 503h71l167 -404q13 -30 13 -60v-4h11v4q0 37 11 60l174 404h68l174 -404q11 -26 11 -60v-4h10v4q0 27 14 60l167 404h70l-211 -503h-80l-172 393q-12 28 -12 71v4h-10v-4q0 -44 -13 -71l-171 -393h-80zM512 591h-54l104 152h83z" />
    <glyph glyph-name="Wdieresis" unicode="&#x1e84;" horiz-adv-x="1192" 
d="M301 0l-254 700h78l206 -580q17 -48 17 -76v-2h10v2q0 32 17 76l178 443h85l179 -443q17 -44 17 -76v-2h10v2q0 28 17 76l206 580h77l-253 -700h-93l-177 432q-20 53 -20 87v2h-10v-2q0 -36 -21 -87l-176 -432h-93zM418.5 818.5q-14.5 12.5 -14.5 32.5q0 19 14.5 32
t39.5 13t39.5 -12.5t14.5 -32.5t-14 -32.5t-40 -12.5q-25 0 -39.5 12.5zM695 818.5q-14 12.5 -14 32.5t14.5 32.5t39.5 12.5t39.5 -12.5t14.5 -32.5t-14 -32.5t-40 -12.5t-40 12.5z" />
    <glyph glyph-name="wdieresis" unicode="&#x1e85;" horiz-adv-x="1026" 
d="M244 0l-212 503h71l167 -404q13 -30 13 -60v-4h11v4q0 37 11 60l174 404h68l174 -404q11 -26 11 -60v-4h10v4q0 27 14 60l167 404h70l-211 -503h-80l-172 393q-12 28 -12 71v4h-10v-4q0 -44 -13 -71l-171 -393h-80zM362 633q-12 11 -12 28q0 16 12 27t32 11t32.5 -11
t12.5 -27q0 -17 -12 -28t-33 -11q-20 0 -32 11zM600 633q-12 11 -12 28q0 16 12 27t32 11t32 -11t12 -27q0 -17 -12 -28t-32 -11t-32 11z" />
    <glyph glyph-name="uni1E9E" unicode="&#x1e9e;" horiz-adv-x="981" 
d="M454 18q-70 29 -104.5 79t-34.5 114v5h72v-4q0 -72 61 -118t181 -46q239 0 239 122q0 48 -29 72.5t-71.5 33.5t-115.5 16q-82 7 -132 18.5t-85 45t-35 98.5q0 74 66.5 113.5t192.5 59.5v10h-295q-103 0 -150.5 -47.5t-47.5 -149.5v-440h-72v440q0 132 66 196t204 64h467
v-64q-139 -26 -216.5 -50t-111.5 -52.5t-34 -69.5q0 -44 27.5 -66.5t67.5 -31.5t111 -16q85 -8 138 -21t90 -50t37 -109q0 -84 -73 -132.5t-238 -48.5q-105 0 -175 29z" />
    <glyph glyph-name="uni1EBC" unicode="&#x1ebc;" horiz-adv-x="839" 
d="M761 700v-63h-585v-252h515v-59h-515v-263h585v-63h-657v700h657zM248 782q-33 43 -33 89q0 39 25.5 63t69.5 24q39 0 70 -18t72 -53q30 -28 51.5 -41.5t45.5 -13.5q22 0 34 12.5t12 34.5q0 39 -32 79h55q15 -19 24 -42t9 -46q0 -40 -26 -64t-70 -24q-39 0 -68.5 18
t-72.5 54q-30 28 -51.5 41.5t-45.5 13.5q-22 0 -34 -12.5t-12 -34.5q0 -40 32 -80h-55z" />
    <glyph glyph-name="uni1EBD" unicode="&#x1ebd;" horiz-adv-x="771" 
d="M713 223h-592q10 -81 79 -131.5t186 -50.5q105 0 164.5 34.5t83.5 80.5h66q-25 -67 -102 -117t-213 -50q-104 0 -178.5 34t-112.5 93.5t-38 133.5q0 76 38.5 135.5t112.5 94t179 34.5q103 0 177.5 -34.5t113 -94t38.5 -134.5q0 -10 -2 -28zM198 410q-69 -52 -78 -137h531
q-6 54 -38.5 97t-90 67.5t-136.5 24.5q-119 0 -188 -52zM216 586q-15 16 -24 38.5t-9 43.5q0 37 25.5 61t67.5 24q38 0 66 -18t61 -51q26 -26 45 -39t41 -13t34 12t12 34q0 18 -8.5 38t-22.5 37h51q15 -17 24 -39t9 -43q0 -38 -25.5 -61.5t-67.5 -23.5q-38 0 -66 18t-61 51
q-26 26 -45 39t-41 13t-34 -12.5t-12 -34.5q0 -19 8.5 -38.5t22.5 -35.5h-51z" />
    <glyph glyph-name="Ygrave" unicode="&#x1ef2;" horiz-adv-x="833" 
d="M381 0v238l-354 462h85l267 -353q16 -23 24 -38t8 -26v-4h11v4q0 11 8 26.5t25 37.5l266 353h85l-353 -462v-238h-72zM479 781h-60l-160 162h96z" />
    <glyph glyph-name="ygrave" unicode="&#x1ef3;" horiz-adv-x="697" 
d="M593 503h76l-308 -550q-52 -93 -99 -131.5t-120 -38.5q-37 0 -75 13v56q36 -13 69 -13q54 0 87 26t69 89l21 36l-286 513h77l219 -405q19 -37 19 -58h11q0 23 18 58zM403 591h-54l-133 152h83z" />
    <glyph glyph-name="uni1EF8" unicode="&#x1ef8;" horiz-adv-x="833" 
d="M381 0v238l-354 462h85l267 -353q16 -23 24 -38t8 -26v-4h11v4q0 11 8 26.5t25 37.5l266 353h85l-353 -462v-238h-72zM232 782q-33 43 -33 89q0 39 25.5 63t69.5 24q39 0 70 -18t72 -53q30 -28 51.5 -41.5t45.5 -13.5q22 0 34 12.5t12 34.5q0 39 -32 79h55q15 -19 24 -42
t9 -46q0 -40 -26 -64t-70 -24q-39 0 -68.5 18t-72.5 54q-30 28 -51.5 41.5t-45.5 13.5q-22 0 -34 -12.5t-12 -34.5q0 -40 32 -80h-55z" />
    <glyph glyph-name="uni1EF9" unicode="&#x1ef9;" horiz-adv-x="697" 
d="M593 503h76l-308 -550q-52 -93 -99 -131.5t-120 -38.5q-37 0 -75 13v56q36 -13 69 -13q54 0 87 26t69 89l21 36l-286 513h77l219 -405q19 -37 19 -58h11q0 23 18 58zM178 586q-15 16 -24 38.5t-9 43.5q0 37 25.5 61t67.5 24q38 0 66 -18t61 -51q26 -26 45 -39t41 -13
t34 12t12 34q0 18 -8.5 38t-22.5 37h51q15 -17 24 -39t9 -43q0 -38 -25.5 -61.5t-67.5 -23.5q-38 0 -66 18t-61 51q-26 26 -45 39t-41 13t-34 -12.5t-12 -34.5q0 -19 8.5 -38.5t22.5 -35.5h-51z" />
    <glyph glyph-name="endash" unicode="&#x2013;" horiz-adv-x="730" 
d="M661 225h-592v53h592v-53z" />
    <glyph glyph-name="emdash" unicode="&#x2014;" horiz-adv-x="970" 
d="M901 225h-832v53h832v-53z" />
    <glyph glyph-name="quoteleft" unicode="&#x2018;" horiz-adv-x="206" 
d="M70 618.5q18 44.5 49 68.5t69 24v-60h-5q-44 0 -71.5 -30t-31.5 -84q12 5 23 5q23 0 37 -13t14 -33t-13.5 -33.5t-34.5 -13.5q-26 0 -40 16.5t-14 49.5q0 59 18 103.5z" />
    <glyph glyph-name="quoteright" unicode="&#x2019;" horiz-adv-x="206" 
d="M154 645q0 -58 -17.5 -102.5t-48.5 -69t-69 -24.5v61h5q43 0 70.5 30t31.5 82q-9 -4 -23 -4q-22 0 -36.5 13t-14.5 33t14 33.5t34 13.5q54 0 54 -66z" />
    <glyph glyph-name="quotesinglbase" unicode="&#x201a;" horiz-adv-x="206" 
d="M154 16q0 -58 -17.5 -102.5t-48.5 -69t-69 -24.5v61h5q43 0 70.5 30t31.5 82q-9 -4 -23 -4q-22 0 -36.5 13t-14.5 33t14 33.5t34 13.5q54 0 54 -66z" />
    <glyph glyph-name="quotedblleft" unicode="&#x201c;" horiz-adv-x="385" 
d="M70 618.5q18 44.5 49 68.5t69 24v-60h-5q-44 0 -71.5 -30t-31.5 -84q12 5 23 5q23 0 37 -13t14 -33t-13.5 -33.5t-34.5 -13.5q-26 0 -40 16.5t-14 49.5q0 59 18 103.5zM249 618.5q18 44.5 49 68.5t69 24v-60h-5q-44 0 -71.5 -30t-31.5 -84q12 5 23 5q23 0 37 -13t14 -33
t-13.5 -33.5t-34.5 -13.5q-26 0 -40 16.5t-14 49.5q0 59 18 103.5z" />
    <glyph glyph-name="quotedblright" unicode="&#x201d;" horiz-adv-x="385" 
d="M154 645q0 -58 -17.5 -102.5t-48.5 -69t-69 -24.5v61h5q43 0 70.5 30t31.5 82q-9 -4 -23 -4q-22 0 -36.5 13t-14.5 33t14 33.5t34 13.5q54 0 54 -66zM333 645q0 -58 -17.5 -102.5t-48.5 -69t-69 -24.5v61h5q43 0 70.5 30t31.5 82q-9 -4 -23 -4q-22 0 -36.5 13t-14.5 33
t14 33.5t34 13.5q54 0 54 -66z" />
    <glyph glyph-name="quotedblbase" unicode="&#x201e;" horiz-adv-x="385" 
d="M154 16q0 -58 -17.5 -102.5t-48.5 -69t-69 -24.5v61h5q43 0 70.5 30t31.5 82q-9 -4 -23 -4q-22 0 -36.5 13t-14.5 33t14 33.5t34 13.5q54 0 54 -66zM333 16q0 -58 -17.5 -102.5t-48.5 -69t-69 -24.5v61h5q43 0 70.5 30t31.5 82q-9 -4 -23 -4q-22 0 -36.5 13t-14.5 33
t14 33.5t34 13.5q54 0 54 -66z" />
    <glyph glyph-name="dagger" unicode="&#x2020;" horiz-adv-x="584" 
d="M324 538h189v-58h-189v-590h-64v590h-189v58h189v202h64v-202z" />
    <glyph glyph-name="daggerdbl" unicode="&#x2021;" horiz-adv-x="604" 
d="M523 538v-55h-189v-240h189v-55h-189v-298h-64v298h-189v55h189v240h-189v55h189v202h64v-202h189z" />
    <glyph glyph-name="bullet" unicode="&#x2022;" horiz-adv-x="364" 
d="M128 206q-21 20 -21 48q0 29 21 48.5t53 19.5q33 0 54 -19.5t21 -48.5q0 -28 -21 -48t-54 -20q-32 0 -53 20z" />
    <glyph glyph-name="ellipsis" unicode="&#x2026;" horiz-adv-x="719" 
d="M66.5 2q-14.5 13 -14.5 33t14.5 33.5t36.5 13.5q23 0 37 -13t14 -34q0 -20 -14 -33t-37 -13q-22 0 -36.5 13zM322.5 2q-14.5 13 -14.5 33t14.5 33.5t36.5 13.5q23 0 37 -13t14 -34q0 -20 -14 -33t-37 -13q-22 0 -36.5 13zM579.5 2q-14.5 13 -14.5 33t14.5 33.5t36.5 13.5
q23 0 37 -13t14 -34q0 -20 -14 -33t-37 -13q-22 0 -36.5 13z" />
    <glyph glyph-name="perthousand" unicode="&#x2030;" horiz-adv-x="1363" 
d="M109.5 406.5q-52.5 49.5 -52.5 127.5t52.5 127.5t141.5 49.5q88 0 140.5 -49.5t52.5 -127.5t-52.5 -127.5t-140.5 -49.5q-89 0 -141.5 49.5zM242 0h-66l520 700h66zM355 439.5q39 36.5 39 94.5t-39 94.5t-104 36.5q-66 0 -105 -36.5t-39 -94.5t39 -94.5t105 -36.5
q65 0 104 36.5zM546.5 38.5q-52.5 49.5 -52.5 127.5t52.5 127.5t140.5 49.5t140.5 -49.5t52.5 -127.5t-52.5 -127.5t-140.5 -49.5t-140.5 49.5zM976.5 38.5q-52.5 49.5 -52.5 127.5t52.5 127.5t140.5 49.5t140.5 -49.5t52.5 -127.5t-52.5 -127.5t-140.5 -49.5t-140.5 49.5z
M792 71.5q39 36.5 39 94.5t-39 94.5t-105 36.5q-65 0 -104 -36.5t-39 -94.5t39 -94.5t104 -36.5q66 0 105 36.5zM1222 71.5q39 36.5 39 94.5t-39 94.5t-105 36.5q-65 0 -104 -36.5t-39 -94.5t39 -94.5t104 -36.5q66 0 105 36.5z" />
    <glyph glyph-name="guilsinglleft" unicode="&#x2039;" horiz-adv-x="343" 
d="M293 64h-73l-183 188l183 188h73l-184 -188z" />
    <glyph glyph-name="guilsinglright" unicode="&#x203a;" horiz-adv-x="343" 
d="M122 64h-73l185 188l-185 188h73l183 -188z" />
    <glyph glyph-name="fraction" unicode="&#x2044;" horiz-adv-x="234" 
d="M-110 0h-66l520 700h66z" />
    <glyph glyph-name="uni2070" unicode="&#x2070;" horiz-adv-x="506" 
d="M102 467q-56 54 -56 143t56 143t151 54t151.5 -54t56.5 -143t-56.5 -143t-151.5 -54t-151 54zM366 500q42 41 42 110t-42 110t-113 41t-113 -41t-42 -110t42 -110t113 -41t113 41z" />
    <glyph glyph-name="uni2074" unicode="&#x2074;" horiz-adv-x="460" 
d="M356 545h78v-43h-78v-78h-53v78h-267v43l248 251h72v-251zM103 552v-7h203v132q0 27 2.5 45.5t10.5 50.5h-8q-26 -40 -50 -64z" />
    <glyph glyph-name="uni2075" unicode="&#x2075;" horiz-adv-x="464" 
d="M89.5 444.5q-47.5 31.5 -47.5 79.5v4h52v-3q0 -29 34 -49t109 -20q144 0 144 85q0 83 -145 83q-64 0 -95.5 -11t-49.5 -31h-50l25 214h352v-43h-311l-18 -135h7q19 21 53 33.5t98 12.5q95 0 140.5 -34t45.5 -91q0 -58 -47 -92t-149 -34q-100 0 -147.5 31.5z" />
    <glyph glyph-name="uni2076" unicode="&#x2076;" horiz-adv-x="494" 
d="M97.5 459.5q-51.5 46.5 -51.5 150.5q0 197 213 197q95 0 142.5 -32.5t47.5 -78.5v-2h-53v2q0 15 -15 31t-45.5 26.5t-75.5 10.5q-82 0 -123.5 -38.5t-41.5 -112.5q0 -21 1 -33h8q8 28 46 50.5t117 22.5q95 0 141 -32.5t46 -85.5q0 -56 -47.5 -89t-150.5 -33
q-107 0 -158.5 46.5zM366.5 477.5q34.5 21.5 34.5 57.5q0 35 -34.5 56.5t-111.5 21.5q-78 0 -112.5 -21.5t-34.5 -56.5q0 -36 34.5 -57.5t112.5 -21.5q77 0 111.5 21.5z" />
    <glyph glyph-name="uni2077" unicode="&#x2077;" horiz-adv-x="431" 
d="M142 424q0 218 211 317v7h-307v48h352v-60q-109 -55 -154.5 -134t-45.5 -178h-56z" />
    <glyph glyph-name="uni2078" unicode="&#x2078;" horiz-adv-x="496" 
d="M351 612q45 -4 73.5 -28.5t28.5 -62.5q0 -108 -205 -108q-204 0 -204 108q0 38 28 62.5t73 28.5v7q-42 4 -66.5 27.5t-24.5 59.5q0 46 45 73.5t149 27.5t149.5 -27.5t45.5 -73.5q0 -36 -25 -60t-67 -27v-7zM138 650.5q32 -17.5 110 -17.5t110 17.5t32 48.5
q0 30 -31.5 47.5t-110.5 17.5t-110.5 -17.5t-31.5 -47.5q0 -31 32 -48.5zM366.5 474q33.5 18 33.5 51q0 31 -34 49.5t-118 18.5t-118 -18.5t-34 -49.5q0 -33 33.5 -51t118.5 -18t118.5 18z" />
    <glyph glyph-name="uni2079" unicode="&#x2079;" horiz-adv-x="494" 
d="M128.5 428.5q-42.5 15.5 -62.5 39.5t-20 51v2h52v-2q0 -13 15 -27.5t45.5 -25t75.5 -10.5q83 0 124 38t41 110q0 19 -1 31h-7q-9 -28 -47 -50.5t-117 -22.5q-96 0 -141 33t-45 88q0 58 47 91t151 33q107 0 158.5 -46.5t51.5 -150.5q0 -197 -214 -197q-64 0 -106.5 15.5z
M352 624q34 22 34 59t-34 59t-112 22t-112.5 -22t-34.5 -59t34.5 -59t112.5 -22t112 22z" />
    <glyph glyph-name="uni2080" unicode="&#x2080;" horiz-adv-x="506" 
d="M102 -53q-56 54 -56 143t56 143t151 54t151.5 -54t56.5 -143t-56.5 -143t-151.5 -54t-151 54zM366 -20q42 41 42 110t-42 110t-113 41t-113 -41t-42 -110t42 -110t113 -41t113 41z" />
    <glyph glyph-name="uni2081" unicode="&#x2081;" horiz-adv-x="415" 
d="M258 -53h143v-43h-350v43h158v136q0 32 3.5 55t13.5 62h-7q-27 -91 -143 -91v43h16q61 0 90.5 30t29.5 82v12h46v-329z" />
    <glyph glyph-name="uni2082" unicode="&#x2082;" horiz-adv-x="487" 
d="M108 -53h335v-43h-387v52q0 54 28 82.5t67.5 39.5t104.5 20q47 6 74.5 12t45.5 20.5t18 40.5q0 33 -34 53t-112 20q-79 0 -112 -22t-33 -62v-9h-52v10q0 60 46 93t151 33q104 0 151 -31t47 -81q0 -41 -24 -64t-58.5 -32.5t-93.5 -19.5q-55 -9 -86.5 -17.5t-53.5 -28.5
t-22 -55v-11z" />
    <glyph glyph-name="uni2083" unicode="&#x2083;" horiz-adv-x="472" 
d="M246 126q103 0 149.5 -31t46.5 -85q0 -53 -48 -85t-153 -32t-152.5 32.5t-47.5 87.5v9h52v-9q0 -34 35.5 -55.5t112.5 -21.5q148 0 148 76q0 74 -147 74h-81v42l206 112v7q-32 -7 -55.5 -10.5t-57.5 -3.5h-198v43h366v-50l-188 -100h12z" />
    <glyph glyph-name="uni2084" unicode="&#x2084;" horiz-adv-x="460" 
d="M356 25h78v-43h-78v-78h-53v78h-267v43l248 251h72v-251zM103 32v-7h203v132q0 27 2.5 45.5t10.5 50.5h-8q-26 -40 -50 -64z" />
    <glyph glyph-name="uni2085" unicode="&#x2085;" horiz-adv-x="464" 
d="M89.5 -75.5q-47.5 31.5 -47.5 79.5v4h52v-3q0 -29 34 -49t109 -20q144 0 144 85q0 83 -145 83q-64 0 -95.5 -11t-49.5 -31h-50l25 214h352v-43h-311l-18 -135h7q19 21 53 33.5t98 12.5q95 0 140.5 -34t45.5 -91q0 -58 -47 -92t-149 -34q-100 0 -147.5 31.5z" />
    <glyph glyph-name="uni2086" unicode="&#x2086;" horiz-adv-x="494" 
d="M97.5 -60.5q-51.5 46.5 -51.5 150.5q0 197 213 197q95 0 142.5 -32.5t47.5 -78.5v-2h-53v2q0 15 -15 31t-45.5 26.5t-75.5 10.5q-82 0 -123.5 -38.5t-41.5 -112.5q0 -21 1 -33h8q8 28 46 50.5t117 22.5q95 0 141 -32.5t46 -85.5q0 -56 -47.5 -89t-150.5 -33
q-107 0 -158.5 46.5zM366.5 -42.5q34.5 21.5 34.5 57.5q0 35 -34.5 56.5t-111.5 21.5q-78 0 -112.5 -21.5t-34.5 -56.5q0 -36 34.5 -57.5t112.5 -21.5q77 0 111.5 21.5z" />
    <glyph glyph-name="uni2087" unicode="&#x2087;" horiz-adv-x="431" 
d="M142 -96q0 218 211 317v7h-307v48h352v-60q-109 -55 -154.5 -134t-45.5 -178h-56z" />
    <glyph glyph-name="uni2088" unicode="&#x2088;" horiz-adv-x="496" 
d="M351 92q45 -4 73.5 -28.5t28.5 -62.5q0 -108 -205 -108q-204 0 -204 108q0 38 28 62.5t73 28.5v7q-42 4 -66.5 27.5t-24.5 59.5q0 46 45 73.5t149 27.5t149.5 -27.5t45.5 -73.5q0 -36 -25 -60t-67 -27v-7zM138 130.5q32 -17.5 110 -17.5t110 17.5t32 48.5
q0 30 -31.5 47.5t-110.5 17.5t-110.5 -17.5t-31.5 -47.5q0 -31 32 -48.5zM366.5 -46q33.5 18 33.5 51q0 31 -34 49.5t-118 18.5t-118 -18.5t-34 -49.5q0 -33 33.5 -51t118.5 -18t118.5 18z" />
    <glyph glyph-name="uni2089" unicode="&#x2089;" horiz-adv-x="494" 
d="M128.5 -91.5q-42.5 15.5 -62.5 39.5t-20 51v2h52v-2q0 -13 15 -27.5t45.5 -25t75.5 -10.5q83 0 124 38t41 110q0 19 -1 31h-7q-9 -28 -47 -50.5t-117 -22.5q-96 0 -141 33t-45 88q0 58 47 91t151 33q107 0 158.5 -46.5t51.5 -150.5q0 -197 -214 -197q-64 0 -106.5 15.5z
M352 104q34 22 34 59t-34 59t-112 22t-112.5 -22t-34.5 -59t34.5 -59t112.5 -22t112 22z" />
    <glyph glyph-name="uni20A9" unicode="&#x20a9;" horiz-adv-x="1171" 
d="M1143 416h-158l-39 -122h197v-52h-214l-79 -242h-90l-154 432q-16 46 -16 87v2h-10v-2q0 -39 -15 -87l-155 -432h-89l-79 242h-215v52h198l-39 122h-159v52h142l-76 232h74l184 -580q14 -43 14 -76v-2h10v2q0 37 14 76l155 443h83l154 -443q14 -39 14 -76v-2h11v2
q0 33 14 76l184 580h74l-76 -232h141v-52z" />
    <glyph glyph-name="Euro" unicode="&#x20ac;" horiz-adv-x="989" 
d="M400.5 599.5q-95.5 -52.5 -131.5 -143.5h422v-48h-436q-5 -32 -5 -58t5 -58h436v-48h-422q36 -91 131.5 -143.5t243.5 -52.5q82 0 145.5 12.5t119.5 35.5v-58q-113 -49 -265 -49q-182 0 -297 69t-151 186h-154v48h142q-4 25 -4 58t4 58h-142v48h154q36 117 151 186
t297 69q146 0 265 -50v-57q-56 23 -119.5 35.5t-145.5 12.5q-148 0 -243.5 -52.5z" />
    <glyph glyph-name="uni20B4" unicode="&#x20b4;" horiz-adv-x="1017" 
d="M943 441v-49h-869v49h680q55 38 55 91t-68 88t-232 35q-109 0 -176.5 -18.5t-96 -47.5t-28.5 -61v-14h-72v15q0 49 36.5 90t120 66.5t216.5 25.5q201 0 286.5 -47t85.5 -121q0 -62 -49 -102h111zM74 259v49h869v-49h-680q-55 -38 -55 -91t68.5 -88t232.5 -35
q109 0 176 18.5t95.5 47.5t28.5 61v14h72v-15q0 -49 -36.5 -90t-119.5 -66.5t-216 -25.5q-201 0 -287 47t-86 121q0 62 49 102h-111z" />
    <glyph glyph-name="uni20B8" unicode="&#x20b8;" horiz-adv-x="816" 
d="M773 644h-731v56h731v-56zM444 0h-72v459h-330v56h731v-56h-329v-459z" />
    <glyph glyph-name="uni20B9" unicode="&#x20b9;" horiz-adv-x="884" 
d="M826 700v-59h-220q75 -58 82 -147h138v-48h-139q-8 -68 -54.5 -119t-112.5 -64v-13q41 -4 66.5 -26t58.5 -79l82 -145h-87l-80 143q-23 42 -45.5 62t-54.5 27t-91 7h-295v60h340q93 0 144.5 39.5t59.5 107.5h-544v48h544q-8 68 -60 107.5t-144 39.5h-340v59h752z" />
    <glyph glyph-name="uni20BA" unicode="&#x20ba;" horiz-adv-x="890" 
d="M762 286h72v-19q0 -134 -78 -200.5t-252 -66.5h-287v227l-171 -66v52l171 66v128l-171 -66v53l171 66v240h72v-212l303 117v-53l-303 -117v-128l303 117v-52l-303 -117v-192h201q147 0 209.5 50.5t62.5 156.5v16z" />
    <glyph glyph-name="uni20BD" unicode="&#x20bd;" horiz-adv-x="979" 
d="M642 700q132 0 199.5 -58t67.5 -159q0 -99 -67.5 -156.5t-199.5 -57.5h-359v-105h277v-52h-277v-112h-72v112h-172v52h172v105h-172v60h172v371h431zM642 329q98 0 146.5 41t48.5 113t-48.5 113t-146.5 41h-361v-308h361z" />
    <glyph glyph-name="uni20BF" unicode="&#x20bf;" horiz-adv-x="919" 
d="M700 354q74 -6 117 -50.5t43 -117.5q0 -89 -60 -137.5t-188 -48.5h-1v-131h-56v131h-205v-131h-56v131h-190v700h190v131h56v-131h205v131h56v-131q110 0 167 -48t57 -129q0 -65 -38 -107t-97 -50v-12zM176 637v-253h432q76 0 115.5 34.5t39.5 92.5t-39.5 92t-115.5 34
h-432zM616 63q88 0 130 34t42 96q0 63 -42 97.5t-130 34.5h-440v-262h440z" />
    <glyph glyph-name="uni2116" unicode="&#x2116;" horiz-adv-x="1397" 
d="M104 0v700h116l585 -658h11q-7 34 -10 61.5t-3 68.5v528h70v-700h-116l-585 658h-10q7 -35 9.5 -62t2.5 -68v-528h-70zM1006 163q-52 49 -52 128t52 128t141 49t141 -49t52 -128t-52 -128t-141 -49t-141 49zM1252 196.5q39 36.5 39 94.5t-39 94.5t-105 36.5t-105 -36.5
t-39 -94.5t39 -94.5t105 -36.5t105 36.5zM1330 0h-366v46h366v-46z" />
    <glyph glyph-name="trademark" unicode="&#x2122;" horiz-adv-x="887" 
d="M219 380h-49v274h-128v46h305v-46h-128v-274zM396 380v320h84l109 -173q13 -22 16 -44h8q3 22 16 44l109 173h84v-320h-49v188q0 66 8 106h-7l-137 -216h-56l-137 216h-7q8 -40 8 -106v-188h-49z" />
    <glyph glyph-name="uni2150" unicode="&#x2150;" horiz-adv-x="1170" 
d="M258 371h143v-43h-350v43h158v136q0 32 3.5 55t13.5 62h-7q-27 -91 -143 -91v43h16q61 0 90.5 30t29.5 82v12h46v-329zM365 0h-66l520 700h66zM881 0q0 218 211 317v7h-307v48h352v-60q-109 -55 -154.5 -134t-45.5 -178h-56z" />
    <glyph glyph-name="uni2151" unicode="&#x2151;" horiz-adv-x="1203" 
d="M258 371h143v-43h-350v43h158v136q0 32 3.5 55t13.5 62h-7q-27 -91 -143 -91v43h16q61 0 90.5 30t29.5 82v12h46v-329zM365 0h-66l520 700h66zM837.5 4.5q-42.5 15.5 -62.5 39.5t-20 51v2h52v-2q0 -13 15 -27.5t45.5 -25t75.5 -10.5q83 0 124 38t41 110q0 19 -1 31h-7
q-9 -28 -47 -50.5t-117 -22.5q-96 0 -141 33t-45 88q0 58 47 91t151 33q107 0 158.5 -46.5t51.5 -150.5q0 -197 -214 -197q-64 0 -106.5 15.5zM1061 200q34 22 34 59t-34 59t-112 22t-112.5 -22t-34.5 -59t34.5 -59t112.5 -22t112 22z" />
    <glyph glyph-name="uni2153" unicode="&#x2153;" horiz-adv-x="1151" 
d="M258 371h143v-43h-350v43h158v136q0 32 3.5 55t13.5 62h-7q-27 -91 -143 -91v43h16q61 0 90.5 30t29.5 82v12h46v-329zM365 0h-66l520 700h66zM925 222q103 0 149.5 -31t46.5 -85q0 -53 -48 -85t-153 -32t-152.5 32.5t-47.5 87.5v9h52v-9q0 -34 35.5 -55.5t112.5 -21.5
q148 0 148 76q0 74 -147 74h-81v42l206 112v7q-32 -7 -55.5 -10.5t-57.5 -3.5h-198v43h366v-50l-188 -100h12z" />
    <glyph glyph-name="uni2154" unicode="&#x2154;" horiz-adv-x="1193" 
d="M108 371h335v-43h-387v52q0 54 28 82.5t67.5 39.5t104.5 20q47 6 74.5 12t45.5 20.5t18 40.5q0 33 -34 53t-112 20q-79 0 -112 -22t-33 -62v-9h-52v10q0 60 46 93t151 33q104 0 151 -31t47 -81q0 -41 -24 -64t-58.5 -32.5t-93.5 -19.5q-55 -9 -86.5 -17.5t-53.5 -28.5
t-22 -55v-11zM407 0h-66l520 700h66zM967 222q103 0 149.5 -31t46.5 -85q0 -53 -48 -85t-153 -32t-152.5 32.5t-47.5 87.5v9h52v-9q0 -34 35.5 -55.5t112.5 -21.5q148 0 148 76q0 74 -147 74h-81v42l206 112v7q-32 -7 -55.5 -10.5t-57.5 -3.5h-198v43h366v-50l-188 -100h12z
" />
    <glyph glyph-name="uni2155" unicode="&#x2155;" horiz-adv-x="1173" 
d="M258 371h143v-43h-350v43h158v136q0 32 3.5 55t13.5 62h-7q-27 -91 -143 -91v43h16q61 0 90.5 30t29.5 82v12h46v-329zM365 0h-66l520 700h66zM798.5 20.5q-47.5 31.5 -47.5 79.5v4h52v-3q0 -29 34 -49t109 -20q144 0 144 85q0 83 -145 83q-64 0 -95.5 -11t-49.5 -31h-50
l25 214h352v-43h-311l-18 -135h7q19 21 53 33.5t98 12.5q95 0 140.5 -34t45.5 -91q0 -58 -47 -92t-149 -34q-100 0 -147.5 31.5z" />
    <glyph glyph-name="uni2156" unicode="&#x2156;" horiz-adv-x="1215" 
d="M108 371h335v-43h-387v52q0 54 28 82.5t67.5 39.5t104.5 20q47 6 74.5 12t45.5 20.5t18 40.5q0 33 -34 53t-112 20q-79 0 -112 -22t-33 -62v-9h-52v10q0 60 46 93t151 33q104 0 151 -31t47 -81q0 -41 -24 -64t-58.5 -32.5t-93.5 -19.5q-55 -9 -86.5 -17.5t-53.5 -28.5
t-22 -55v-11zM407 0h-66l520 700h66zM840.5 20.5q-47.5 31.5 -47.5 79.5v4h52v-3q0 -29 34 -49t109 -20q144 0 144 85q0 83 -145 83q-64 0 -95.5 -11t-49.5 -31h-50l25 214h352v-43h-311l-18 -135h7q19 21 53 33.5t98 12.5q95 0 140.5 -34t45.5 -91q0 -58 -47 -92t-149 -34
q-100 0 -147.5 31.5z" />
    <glyph glyph-name="uni2157" unicode="&#x2157;" horiz-adv-x="1170" 
d="M246 550q103 0 149.5 -31t46.5 -85q0 -53 -48 -85t-153 -32t-152.5 32.5t-47.5 87.5v9h52v-9q0 -34 35.5 -55.5t112.5 -21.5q148 0 148 76q0 74 -147 74h-81v42l206 112v7q-32 -7 -55.5 -10.5t-57.5 -3.5h-198v43h366v-50l-188 -100h12zM362 0h-66l520 700h66z
M795.5 20.5q-47.5 31.5 -47.5 79.5v4h52v-3q0 -29 34 -49t109 -20q144 0 144 85q0 83 -145 83q-64 0 -95.5 -11t-49.5 -31h-50l25 214h352v-43h-311l-18 -135h7q19 21 53 33.5t98 12.5q95 0 140.5 -34t45.5 -91q0 -58 -47 -92t-149 -34q-100 0 -147.5 31.5z" />
    <glyph glyph-name="uni2158" unicode="&#x2158;" horiz-adv-x="1198" 
d="M356 449h78v-43h-78v-78h-53v78h-267v43l248 251h72v-251zM103 456v-7h203v132q0 27 2.5 45.5t10.5 50.5h-8q-26 -40 -50 -64zM390 0h-66l520 700h66zM823.5 20.5q-47.5 31.5 -47.5 79.5v4h52v-3q0 -29 34 -49t109 -20q144 0 144 85q0 83 -145 83q-64 0 -95.5 -11
t-49.5 -31h-50l25 214h352v-43h-311l-18 -135h7q19 21 53 33.5t98 12.5q95 0 140.5 -34t45.5 -91q0 -58 -47 -92t-149 -34q-100 0 -147.5 31.5z" />
    <glyph glyph-name="uni2159" unicode="&#x2159;" horiz-adv-x="1203" 
d="M258 371h143v-43h-350v43h158v136q0 32 3.5 55t13.5 62h-7q-27 -91 -143 -91v43h16q61 0 90.5 30t29.5 82v12h46v-329zM365 0h-66l520 700h66zM806.5 35.5q-51.5 46.5 -51.5 150.5q0 197 213 197q95 0 142.5 -32.5t47.5 -78.5v-2h-53v2q0 15 -15 31t-45.5 26.5
t-75.5 10.5q-82 0 -123.5 -38.5t-41.5 -112.5q0 -21 1 -33h8q8 28 46 50.5t117 22.5q95 0 141 -32.5t46 -85.5q0 -56 -47.5 -89t-150.5 -33q-107 0 -158.5 46.5zM1075.5 53.5q34.5 21.5 34.5 57.5q0 35 -34.5 56.5t-111.5 21.5q-78 0 -112.5 -21.5t-34.5 -56.5
q0 -36 34.5 -57.5t112.5 -21.5q77 0 111.5 21.5z" />
    <glyph glyph-name="uni215A" unicode="&#x215a;" horiz-adv-x="1192" 
d="M89.5 348.5q-47.5 31.5 -47.5 79.5v4h52v-3q0 -29 34 -49t109 -20q144 0 144 85q0 83 -145 83q-64 0 -95.5 -11t-49.5 -31h-50l25 214h352v-43h-311l-18 -135h7q19 21 53 33.5t98 12.5q95 0 140.5 -34t45.5 -91q0 -58 -47 -92t-149 -34q-100 0 -147.5 31.5zM354 0h-66
l520 700h66zM795.5 35.5q-51.5 46.5 -51.5 150.5q0 197 213 197q95 0 142.5 -32.5t47.5 -78.5v-2h-53v2q0 15 -15 31t-45.5 26.5t-75.5 10.5q-82 0 -123.5 -38.5t-41.5 -112.5q0 -21 1 -33h8q8 28 46 50.5t117 22.5q95 0 141 -32.5t46 -85.5q0 -56 -47.5 -89t-150.5 -33
q-107 0 -158.5 46.5zM1064.5 53.5q34.5 21.5 34.5 57.5q0 35 -34.5 56.5t-111.5 21.5q-78 0 -112.5 -21.5t-34.5 -56.5q0 -36 34.5 -57.5t112.5 -21.5q77 0 111.5 21.5z" />
    <glyph glyph-name="oneeighth" unicode="&#x215b;" horiz-adv-x="1205" 
d="M258 371h143v-43h-350v43h158v136q0 32 3.5 55t13.5 62h-7q-27 -91 -143 -91v43h16q61 0 90.5 30t29.5 82v12h46v-329zM365 0h-66l520 700h66zM1060 188q45 -4 73.5 -28.5t28.5 -62.5q0 -108 -205 -108q-204 0 -204 108q0 38 28 62.5t73 28.5v7q-42 4 -66.5 27.5
t-24.5 59.5q0 46 45 73.5t149 27.5t149.5 -27.5t45.5 -73.5q0 -36 -25 -60t-67 -27v-7zM847 226.5q32 -17.5 110 -17.5t110 17.5t32 48.5q0 30 -31.5 47.5t-110.5 17.5t-110.5 -17.5t-31.5 -47.5q0 -31 32 -48.5zM1075.5 50q33.5 18 33.5 51q0 31 -34 49.5t-118 18.5
t-118 -18.5t-34 -49.5q0 -33 33.5 -51t118.5 -18t118.5 18z" />
    <glyph glyph-name="threeeighths" unicode="&#x215c;" horiz-adv-x="1202" 
d="M246 550q103 0 149.5 -31t46.5 -85q0 -53 -48 -85t-153 -32t-152.5 32.5t-47.5 87.5v9h52v-9q0 -34 35.5 -55.5t112.5 -21.5q148 0 148 76q0 74 -147 74h-81v42l206 112v7q-32 -7 -55.5 -10.5t-57.5 -3.5h-198v43h366v-50l-188 -100h12zM362 0h-66l520 700h66zM1057 188
q45 -4 73.5 -28.5t28.5 -62.5q0 -108 -205 -108q-204 0 -204 108q0 38 28 62.5t73 28.5v7q-42 4 -66.5 27.5t-24.5 59.5q0 46 45 73.5t149 27.5t149.5 -27.5t45.5 -73.5q0 -36 -25 -60t-67 -27v-7zM844 226.5q32 -17.5 110 -17.5t110 17.5t32 48.5q0 30 -31.5 47.5
t-110.5 17.5t-110.5 -17.5t-31.5 -47.5q0 -31 32 -48.5zM1072.5 50q33.5 18 33.5 51q0 31 -34 49.5t-118 18.5t-118 -18.5t-34 -49.5q0 -33 33.5 -51t118.5 -18t118.5 18z" />
    <glyph glyph-name="fiveeighths" unicode="&#x215d;" horiz-adv-x="1194" 
d="M89.5 348.5q-47.5 31.5 -47.5 79.5v4h52v-3q0 -29 34 -49t109 -20q144 0 144 85q0 83 -145 83q-64 0 -95.5 -11t-49.5 -31h-50l25 214h352v-43h-311l-18 -135h7q19 21 53 33.5t98 12.5q95 0 140.5 -34t45.5 -91q0 -58 -47 -92t-149 -34q-100 0 -147.5 31.5zM354 0h-66
l520 700h66zM1049 188q45 -4 73.5 -28.5t28.5 -62.5q0 -108 -205 -108q-204 0 -204 108q0 38 28 62.5t73 28.5v7q-42 4 -66.5 27.5t-24.5 59.5q0 46 45 73.5t149 27.5t149.5 -27.5t45.5 -73.5q0 -36 -25 -60t-67 -27v-7zM836 226.5q32 -17.5 110 -17.5t110 17.5t32 48.5
q0 30 -31.5 47.5t-110.5 17.5t-110.5 -17.5t-31.5 -47.5q0 -31 32 -48.5zM1064.5 50q33.5 18 33.5 51q0 31 -34 49.5t-118 18.5t-118 -18.5t-34 -49.5q0 -33 33.5 -51t118.5 -18t118.5 18z" />
    <glyph glyph-name="seveneighths" unicode="&#x215e;" horiz-adv-x="1131" 
d="M142 328q0 218 211 317v7h-307v48h352v-60q-109 -55 -154.5 -134t-45.5 -178h-56zM291 0h-66l520 700h66zM986 188q45 -4 73.5 -28.5t28.5 -62.5q0 -108 -205 -108q-204 0 -204 108q0 38 28 62.5t73 28.5v7q-42 4 -66.5 27.5t-24.5 59.5q0 46 45 73.5t149 27.5
t149.5 -27.5t45.5 -73.5q0 -36 -25 -60t-67 -27v-7zM773 226.5q32 -17.5 110 -17.5t110 17.5t32 48.5q0 30 -31.5 47.5t-110.5 17.5t-110.5 -17.5t-31.5 -47.5q0 -31 32 -48.5zM1001.5 50q33.5 18 33.5 51q0 31 -34 49.5t-118 18.5t-118 -18.5t-34 -49.5q0 -33 33.5 -51
t118.5 -18t118.5 18z" />
    <glyph glyph-name="uni215F" unicode="&#x215f;" horiz-adv-x="709" 
d="M258 371h143v-43h-350v43h158v136q0 32 3.5 55t13.5 62h-7q-27 -91 -143 -91v43h16q61 0 90.5 30t29.5 82v12h46v-329zM365 0h-66l520 700h66z" />
    <glyph glyph-name="arrowleft" unicode="&#x2190;" horiz-adv-x="1031" 
d="M353 93q0 68 -30 121t-89 82.5t-142 29.5h-11v48h11q83 0 142 29.5t89 82t30 120.5v14h62v-18q0 -88 -41.5 -142.5t-118.5 -76.5v-11q82 11 183 11h523v-66h-523q-101 0 -183 11v-11q77 -22 118.5 -76.5t41.5 -142.5v-18h-62v13z" />
    <glyph glyph-name="arrowup" unicode="&#x2191;" horiz-adv-x="1031" 
d="M483 442q0 101 11 184h-11q-22 -77 -76.5 -118.5t-142.5 -41.5h-18v62h13q69 0 122 30t82.5 88.5t29.5 141.5v12h46v-12q0 -83 29.5 -141.5t82.5 -88.5t121 -30h14v-62h-19q-87 0 -141.5 41.5t-76.5 118.5h-11q11 -83 11 -184v-542h-66v542z" />
    <glyph glyph-name="arrowright" unicode="&#x2192;" horiz-adv-x="1031" 
d="M616 98q0 87 42 141.5t119 77.5v11q-83 -11 -184 -11h-522v66h522q101 0 184 -11v11q-77 23 -119 77.5t-42 141.5v18h63v-14q0 -68 30 -120.5t88.5 -82t141.5 -29.5h12v-48h-12q-83 0 -141.5 -29.5t-88.5 -82.5t-30 -121v-13h-63v18z" />
    <glyph glyph-name="arrowdown" unicode="&#x2193;" horiz-adv-x="1031" 
d="M493 -88q0 83 -29.5 141.5t-82.5 88.5t-122 30h-13v62h18q88 0 142.5 -41.5t76.5 -118.5h11q-11 83 -11 184v542h66v-542q0 -101 -11 -184h11q22 77 76.5 118.5t141.5 41.5h19v-62h-14q-68 0 -121 -30t-82.5 -88.5t-29.5 -141.5v-12h-46v12z" />
    <glyph glyph-name="arrowboth" unicode="&#x2194;" horiz-adv-x="1031" 
d="M298 108q0 62 -29 112t-81.5 79t-120.5 29h-11v44h11q68 0 120.5 29t81.5 79t29 112v14h53v-19q0 -80 -39 -131.5t-112 -74.5v-10q88 10 184 10h263q96 0 184 -10v10q-73 23 -112 74.5t-39 131.5v19h53v-14q0 -62 29 -112t81.5 -79t120.5 -29h12v-44h-12
q-68 0 -120.5 -29t-81.5 -79t-29 -112v-14h-53v19q0 80 39 131.5t112 74.5v10q-88 -10 -184 -10h-263q-96 0 -184 10v-10q73 -23 112 -74.5t39 -131.5v-19h-53v14z" />
    <glyph glyph-name="arrowupdn" unicode="&#x2195;" horiz-adv-x="1031" 
d="M494 -98q0 68 -29 120.5t-79 81t-112 28.5h-14v54h19q80 0 131.5 -39t74.5 -113h10q-11 83 -11 184v264q0 101 11 184h-10q-23 -74 -74.5 -113t-131.5 -39h-19v54h14q62 0 112 28.5t79 81t29 120.5v12h43v-12q0 -68 29 -120.5t79.5 -81t111.5 -28.5h14v-54h-19
q-80 0 -131.5 39t-73.5 113h-11q11 -83 11 -184v-264q0 -101 -11 -184h11q22 74 73.5 113t131.5 39h19v-54h-14q-61 0 -111.5 -28.5t-79.5 -81t-29 -120.5v-12h-43v12z" />
    <glyph glyph-name="uni2196" unicode="&#x2196;" horiz-adv-x="1031" 
d="M427 421q-69 69 -122 138l-7 -8q31 -57 31 -112q0 -84 -72 -156l-14 -14l-45 45l11 9q36 35 54.5 76t18.5 86q0 48 -22.5 96t-69.5 91l-9 9l33 33l8 -9q90 -90 188 -90q88 0 161 71l10 10l44 -44l-13 -14q-72 -72 -156 -72q-55 0 -112 31l-8 -7q70 -55 137 -122l435 -434
l-47 -47z" />
    <glyph glyph-name="uni2197" unicode="&#x2197;" horiz-adv-x="1031" 
d="M170 -13l-46 47l434 434q67 67 137 122l-8 7q-57 -31 -112 -31q-84 0 -156 72l-13 14l45 44l9 -10q35 -35 76.5 -53t84.5 -18q98 0 188 90l9 9l32 -33l-8 -9q-93 -87 -93 -188q0 -44 19 -85t55 -76l10 -9l-45 -45l-13 14q-72 72 -72 156q0 55 31 112l-8 8
q-47 -63 -122 -138z" />
    <glyph glyph-name="uni2198" unicode="&#x2198;" horiz-adv-x="1031" 
d="M809 -4q-90 90 -188 90q-43 0 -84.5 -18t-76.5 -53l-9 -10l-45 44l13 14q72 72 156 72q55 0 112 -31l8 7q-70 55 -137 122l-434 434l46 47l434 -434q75 -75 122 -138l8 8q-31 57 -31 112q0 84 72 156l13 14l45 -45l-10 -9q-36 -35 -55 -76t-19 -85q0 -101 93 -188l8 -9
l-32 -33z" />
    <glyph glyph-name="uni2199" unicode="&#x2199;" horiz-adv-x="1031" 
d="M214 -13l-33 33l9 9q47 43 69.5 91t22.5 96q0 45 -18.5 86t-54.5 76l-11 9l45 45l14 -14q72 -72 72 -156q0 -55 -31 -112l7 -8q53 69 122 138l434 434l47 -47l-435 -434q-67 -67 -137 -122l8 -7q57 31 112 31q84 0 156 -72l13 -14l-44 -44l-10 10q-73 71 -161 71
q-98 0 -188 -90z" />
    <glyph glyph-name="minus" unicode="&#x2212;" horiz-adv-x="600" 
d="M526 323h-452v55h452v-55z" />
    <glyph glyph-name="approxequal" unicode="&#x2248;" horiz-adv-x="620" 
d="M365 378.5q-31 16.5 -70 48.5q-33 27 -56 40t-52 13q-27 0 -42.5 -14.5t-15.5 -37.5q0 -30 15 -56h-47q-18 29 -18 64q0 41 27 65.5t77 24.5q41 0 72 -16.5t70 -48.5q33 -27 56 -40t52 -13q27 0 42.5 14.5t15.5 36.5q0 31 -15 57h47q18 -29 18 -64q0 -42 -27 -66t-77 -24
q-41 0 -72 16.5zM365 190.5q-31 16.5 -70 48.5q-33 27 -56 40t-52 13q-27 0 -42.5 -14.5t-15.5 -37.5q0 -30 15 -56h-47q-18 29 -18 64q0 41 27 65.5t77 24.5q41 0 72 -16.5t70 -48.5q33 -27 56 -40t52 -13q27 0 42.5 14t15.5 37q0 29 -15 57h47q18 -30 18 -64
q0 -42 -27 -66t-77 -24q-41 0 -72 16.5z" />
    <glyph glyph-name="notequal" unicode="&#x2260;" horiz-adv-x="610" 
d="M531 485v-52h-152l-92 -165h244v-53h-273l-60 -108h-57l60 108h-122v53h151l92 165h-243v52h272l60 108h57l-60 -108h123z" />
    <glyph glyph-name="lessequal" unicode="&#x2264;" horiz-adv-x="583" 
d="M67 432l432 175v-57l-366 -143l366 -143v-56l-432 175v49zM499 92h-432v49h432v-49z" />
    <glyph glyph-name="greaterequal" unicode="&#x2265;" horiz-adv-x="583" 
d="M84 550v57l432 -175v-49l-432 -175v56l367 143zM516 92h-432v49h432v-49z" />
    <glyph glyph-name="uni2460" unicode="&#x2460;" horiz-adv-x="1240" 
d="M921.5 797.5q130.5 -67.5 202 -185t71.5 -262.5t-71.5 -262.5t-202 -185t-301.5 -67.5t-301.5 67.5t-202 185t-71.5 262.5t71.5 262.5t202 185t301.5 67.5t301.5 -67.5zM894 -55.5q119 61.5 184 168t65 237.5t-65 237.5t-184 168t-274 61.5t-274 -61.5t-184 -168
t-65 -237.5t65 -237.5t184 -168t274 -61.5t274 61.5zM662 563v-380h168v-46h-403v46h182v145q0 39 4 68t16 81h-10q-11 -35 -27.5 -56.5t-50 -34t-89.5 -12.5v46h15q78 0 112 33t34 107v3h49z" />
    <glyph glyph-name="uni2461" unicode="&#x2461;" horiz-adv-x="1240" 
d="M921.5 797.5q130.5 -67.5 202 -185t71.5 -262.5t-71.5 -262.5t-202 -185t-301.5 -67.5t-301.5 67.5t-202 185t-71.5 262.5t71.5 262.5t202 185t301.5 67.5t301.5 -67.5zM894 -55.5q119 61.5 184 168t65 237.5t-65 237.5t-184 168t-274 61.5t-274 -61.5t-184 -168
t-65 -237.5t65 -237.5t184 -168t274 -61.5t274 61.5zM828.5 362.5q-30.5 -26.5 -74.5 -35.5t-118 -15q-65 -5 -103 -12.5t-63.5 -27.5t-25.5 -58v-31h405v-46h-461v73q0 59 34 89.5t82 40.5t125 15q60 4 94.5 9.5t57.5 22t23 48.5q0 93 -183 93q-95 0 -138.5 -27.5
t-43.5 -70.5v-9h-56v10q0 64 57.5 104t180.5 40q124 0 181 -37.5t57 -97.5q0 -51 -30.5 -77.5z" />
    <glyph glyph-name="uni2462" unicode="&#x2462;" horiz-adv-x="1240" 
d="M921.5 797.5q130.5 -67.5 202 -185t71.5 -262.5t-71.5 -262.5t-202 -185t-301.5 -67.5t-301.5 67.5t-202 185t-71.5 262.5t71.5 262.5t202 185t301.5 67.5t301.5 -67.5zM894 -55.5q119 61.5 184 168t65 237.5t-65 237.5t-184 168t-274 61.5t-274 -61.5t-184 -168
t-65 -237.5t65 -237.5t184 -168t274 -61.5t274 61.5zM641 395q115 0 167.5 -36.5t52.5 -98.5q0 -61 -56 -98t-181 -37q-124 0 -180 38.5t-56 103.5v8h56v-8q0 -42 42.5 -68.5t137.5 -26.5q181 0 181 91q0 41 -40 66.5t-131 25.5h-77v37l226 130v10q-54 -8 -90.5 -11.5
t-82.5 -3.5h-207v46h438v-52l-204 -116h4z" />
    <glyph glyph-name="uni2463" unicode="&#x2463;" horiz-adv-x="1240" 
d="M318.5 -97.5q-130.5 67.5 -202 185t-71.5 262.5t71.5 262.5t202 185t301.5 67.5t301.5 -67.5t202 -185t71.5 -262.5t-71.5 -262.5t-202 -185t-301.5 -67.5t-301.5 67.5zM894 -55.5q119 61.5 184 168t65 237.5t-65 237.5t-184 168t-274 61.5t-274 -61.5t-184 -168
t-65 -237.5t65 -237.5t184 -168t274 -61.5t274 61.5zM744 137h-56v90h-321v46l294 290h83v-290h104v-46h-104v-90zM440 273h251v154q0 61 11 115h-11q-25 -39 -59 -73l-192 -185v-11z" />
    <glyph glyph-name="uni2464" unicode="&#x2464;" horiz-adv-x="1240" 
d="M318.5 -97.5q-130.5 67.5 -202 185t-71.5 262.5t71.5 262.5t202 185t301.5 67.5t301.5 -67.5t202 -185t71.5 -262.5t-71.5 -262.5t-202 -185t-301.5 -67.5t-301.5 67.5zM894 -55.5q119 61.5 184 168t65 237.5t-65 237.5t-184 168t-274 61.5t-274 -61.5t-184 -168
t-65 -237.5t65 -237.5t184 -168t274 -61.5t274 61.5zM443 161.5q-57 36.5 -57 93.5v5h56v-5q0 -36 42 -59.5t139 -23.5q94 0 135.5 26.5t41.5 70.5q0 98 -179 98q-96 0 -133.5 -17t-50.5 -46h-52l31 259h424v-46h-384l-20 -162h10q36 52 188 52q116 0 168.5 -37.5
t52.5 -103.5q0 -65 -55 -103t-177 -38q-123 0 -180 36.5z" />
    <glyph glyph-name="uni2465" unicode="&#x2465;" horiz-adv-x="1240" 
d="M318.5 -97.5q-130.5 67.5 -202 185t-71.5 262.5t71.5 262.5t202 185t301.5 67.5t301.5 -67.5t202 -185t71.5 -262.5t-71.5 -262.5t-202 -185t-301.5 -67.5t-301.5 67.5zM894 -55.5q119 61.5 184 168t65 237.5t-65 237.5t-184 168t-274 61.5t-274 -61.5t-184 -168
t-65 -237.5t65 -237.5t184 -168t274 -61.5t274 61.5zM472.5 147.5q-56.5 22.5 -80.5 71t-24 131.5q0 113 61 169t190 56q84 0 138 -18t79 -47t25 -61v-4h-56v3q0 19 -19 38t-60.5 32t-105.5 13q-102 0 -150.5 -44t-48.5 -134v-38h10q19 36 64 56.5t142 20.5q229 0 229 -131
q0 -136 -238 -136q-99 0 -155.5 22.5zM768.5 193.5q41.5 24.5 41.5 66.5q0 43 -42 67.5t-145 24.5t-145 -24.5t-42 -67.5t42.5 -67t147.5 -24q101 0 142.5 24.5z" />
    <glyph glyph-name="uni2466" unicode="&#x2466;" horiz-adv-x="1240" 
d="M318.5 -97.5q-130.5 67.5 -202 185t-71.5 262.5t71.5 262.5t202 185t301.5 67.5t301.5 -67.5t202 -185t71.5 -262.5t-71.5 -262.5t-202 -185t-301.5 -67.5t-301.5 67.5zM894 -55.5q119 61.5 184 168t65 237.5t-65 237.5t-184 168t-274 61.5t-274 -61.5t-184 -168
t-65 -237.5t65 -237.5t184 -168t274 -61.5t274 61.5zM550 137q0 111 55.5 208.5t174.5 157.5v11h-366v49h422v-59q-123 -64 -176.5 -161t-53.5 -206h-56z" />
    <glyph glyph-name="uni2467" unicode="&#x2467;" horiz-adv-x="1240" 
d="M318.5 -97.5q-130.5 67.5 -202 185t-71.5 262.5t71.5 262.5t202 185t301.5 67.5t301.5 -67.5t202 -185t71.5 -262.5t-71.5 -262.5t-202 -185t-301.5 -67.5t-301.5 67.5zM894 -55.5q119 61.5 184 168t65 237.5t-65 237.5t-184 168t-274 61.5t-274 -61.5t-184 -168
t-65 -237.5t65 -237.5t184 -168t274 -61.5t274 61.5zM426 157q-55 32 -55 92q0 45 34 72t85 32v10q-48 4 -77.5 30.5t-29.5 66.5q0 54 53 84.5t184 30.5t184 -30.5t53 -84.5q0 -40 -29.5 -66.5t-77.5 -30.5v-10q51 -5 85 -32t34 -72q0 -60 -55 -92t-194 -32t-194 32z
M761.5 395q39.5 21 39.5 58t-39.5 57.5t-141.5 20.5t-141.5 -20.5t-39.5 -57.5t39.5 -58t141.5 -21t141.5 21zM771.5 190.5q41.5 21.5 41.5 61.5q0 39 -41.5 60.5t-151.5 21.5t-151.5 -21.5t-41.5 -60.5q0 -40 41.5 -61.5t151.5 -21.5t151.5 21.5z" />
    <glyph glyph-name="uni2468" unicode="&#x2468;" horiz-adv-x="1240" 
d="M318.5 -97.5q-130.5 67.5 -202 185t-71.5 262.5t71.5 262.5t202 185t301.5 67.5t301.5 -67.5t202 -185t71.5 -262.5t-71.5 -262.5t-202 -185t-301.5 -67.5t-301.5 67.5zM894 -55.5q119 61.5 184 168t65 237.5t-65 237.5t-184 168t-274 61.5t-274 -61.5t-184 -168
t-65 -237.5t65 -237.5t184 -168t274 -61.5t274 61.5zM484.5 143q-54.5 18 -79.5 45.5t-25 57.5v4h55v-3q0 -17 19 -35t61 -30.5t105 -12.5q103 0 151.5 44t48.5 132v35h-11q-18 -36 -63.5 -56.5t-141.5 -20.5q-123 0 -176 35.5t-53 98.5q0 65 55 101.5t183 36.5
q99 0 155 -22.5t80 -71.5t24 -133q0 -111 -60.5 -167t-189.5 -56q-83 0 -137.5 18zM763 368q42 25 42 70q0 44 -42.5 68.5t-148.5 24.5q-101 0 -142.5 -24.5t-41.5 -68.5q0 -45 42 -70t146 -25q103 0 145 25z" />
    <glyph glyph-name="uni24EA" unicode="&#x24ea;" horiz-adv-x="1240" 
d="M318.5 -97.5q-130.5 67.5 -202 185t-71.5 262.5t71.5 262.5t202 185t301.5 67.5t301.5 -67.5t202 -185t71.5 -262.5t-71.5 -262.5t-202 -185t-301.5 -67.5t-301.5 67.5zM894 -55.5q119 61.5 184 168t65 237.5t-65 237.5t-184 168t-274 61.5t-274 -61.5t-184 -168
t-65 -237.5t65 -237.5t184 -168t274 -61.5t274 61.5zM493.5 154q-54.5 29 -84.5 80t-30 116t30 116t84.5 80t126.5 29t126.5 -29t84.5 -80t30 -116t-30 -116t-85 -80t-126 -29q-72 0 -126.5 29zM716 198q42 23 65.5 62.5t23.5 89.5t-23.5 89.5t-65.5 62.5t-96 23t-96 -23
t-65.5 -62.5t-23.5 -89.5t23.5 -89.5t65.5 -62.5t96 -23t96 23z" />
    <glyph glyph-name="uni24FF" unicode="&#x24ff;" horiz-adv-x="1240" 
d="M318.5 -97.5q-130.5 67.5 -202 185t-71.5 262.5t71.5 262.5t202 185t301.5 67.5t301.5 -67.5t202 -185t71.5 -262.5t-71.5 -262.5t-202 -185t-301.5 -67.5t-301.5 67.5zM746 154q55 29 85 80t30 116t-30 116t-84.5 80t-126.5 29t-126.5 -29t-84.5 -80t-30 -116t30 -116
t84.5 -80t126.5 -29q71 0 126 29zM524 198q-42 23 -65.5 62.5t-23.5 89.5t23.5 89.5t65.5 62.5t96 23t96 -23t65.5 -62.5t23.5 -89.5t-23.5 -89.5t-65.5 -62.5t-96 -23t-96 23z" />
    <glyph glyph-name="uni2776" unicode="&#x2776;" horiz-adv-x="1240" 
d="M318.5 -97.5q-130.5 67.5 -202 185t-71.5 262.5t71.5 262.5t202 185t301.5 67.5t301.5 -67.5t202 -185t71.5 -262.5t-71.5 -262.5t-202 -185t-301.5 -67.5t-301.5 67.5zM427 137h403v46h-168v380h-49v-3q0 -74 -34 -107t-112 -33h-15v-46q56 0 89.5 12.5t50 34t27.5 56.5
h10q-12 -52 -16 -81t-4 -68v-145h-182v-46z" />
    <glyph glyph-name="uni2777" unicode="&#x2777;" horiz-adv-x="1240" 
d="M318.5 -97.5q-130.5 67.5 -202 185t-71.5 262.5t71.5 262.5t202 185t301.5 67.5t301.5 -67.5t202 -185t71.5 -262.5t-71.5 -262.5t-202 -185t-301.5 -67.5t-301.5 67.5zM388 137h461v46h-405v31q0 38 25.5 58t64 27.5t101.5 11.5q73 6 117.5 15.5t75.5 36t31 77.5
q0 60 -57 97.5t-181 37.5q-123 0 -180.5 -40t-57.5 -104v-10h56v9q0 43 43.5 70.5t138.5 27.5q183 0 183 -93q0 -32 -23 -48.5t-57.5 -22t-94.5 -9.5q-77 -5 -125 -15t-82 -40.5t-34 -89.5v-73z" />
    <glyph glyph-name="uni2778" unicode="&#x2778;" horiz-adv-x="1240" 
d="M318.5 -97.5q-130.5 67.5 -202 185t-71.5 262.5t71.5 262.5t202 185t301.5 67.5t301.5 -67.5t202 -185t71.5 -262.5t-71.5 -262.5t-202 -185t-301.5 -67.5t-301.5 67.5zM805 162q56 37 56 98q0 55 -39 88q-27 24 -74 35.5t-96 11.5h-14l203 116v52h-438v-46h207
q46 0 82.5 3.5t90.5 11.5v-10l-226 -130v-37h77q91 0 131 -25.5t40 -66.5q0 -91 -181 -91q-95 0 -137.5 26.5t-42.5 68.5v8h-56v-8q0 -65 56 -103.5t180 -38.5q125 0 181 37z" />
    <glyph glyph-name="uni2779" unicode="&#x2779;" horiz-adv-x="1240" 
d="M318.5 -97.5q-130.5 67.5 -202 185t-71.5 262.5t71.5 262.5t202 185t301.5 67.5t301.5 -67.5t202 -185t71.5 -262.5t-71.5 -262.5t-202 -185t-301.5 -67.5t-301.5 67.5zM688 227v-90h56v90h104v46h-104v290h-83l-294 -290v-46h321zM440 273v11l192 185q34 34 59 73h11
q-11 -54 -11 -115v-154h-251z" />
    <glyph glyph-name="uni277A" unicode="&#x277a;" horiz-adv-x="1240" 
d="M318.5 -97.5q-130.5 67.5 -202 185t-71.5 262.5t71.5 262.5t202 185t301.5 67.5t301.5 -67.5t202 -185t71.5 -262.5t-71.5 -262.5t-202 -185t-301.5 -67.5t-301.5 67.5zM800 163q55 38 55 103q0 66 -52.5 103.5t-168.5 37.5q-152 0 -188 -52h-10l20 162h384v46h-424
l-31 -259h52q13 29 50.5 46t133.5 17q179 0 179 -98q0 -44 -41.5 -70.5t-135.5 -26.5q-97 0 -139 23.5t-42 59.5v5h-56v-5q0 -57 57 -93.5t180 -36.5q122 0 177 38z" />
    <glyph glyph-name="uni277B" unicode="&#x277b;" horiz-adv-x="1240" 
d="M318.5 -97.5q-130.5 67.5 -202 185t-71.5 262.5t71.5 262.5t202 185t301.5 67.5t301.5 -67.5t202 -185t71.5 -262.5t-71.5 -262.5t-202 -185t-301.5 -67.5t-301.5 67.5zM866 261q0 131 -229 131q-97 0 -142 -20.5t-64 -56.5h-10v38q0 90 48.5 134t150.5 44
q64 0 105.5 -13t60.5 -32t19 -38v-3h56v4q0 32 -25 61t-79 47t-138 18q-129 0 -190 -56t-61 -169q0 -83 24 -131.5t80.5 -71t155.5 -22.5q238 0 238 136zM478.5 193q-42.5 24 -42.5 67t42 67.5t145 24.5t145 -24.5t42 -67.5q0 -42 -41.5 -66.5t-142.5 -24.5
q-105 0 -147.5 24z" />
    <glyph glyph-name="uni277C" unicode="&#x277c;" horiz-adv-x="1240" 
d="M318.5 -97.5q-130.5 67.5 -202 185t-71.5 262.5t71.5 262.5t202 185t301.5 67.5t301.5 -67.5t202 -185t71.5 -262.5t-71.5 -262.5t-202 -185t-301.5 -67.5t-301.5 67.5zM606 137q0 109 53.5 206t176.5 161v59h-422v-49h366v-11q-119 -60 -174.5 -157.5t-55.5 -208.5h56z
" />
    <glyph glyph-name="uni277D" unicode="&#x277d;" horiz-adv-x="1240" 
d="M318.5 -97.5q-130.5 67.5 -202 185t-71.5 262.5t71.5 262.5t202 185t301.5 67.5t301.5 -67.5t202 -185t71.5 -262.5t-71.5 -262.5t-202 -185t-301.5 -67.5t-301.5 67.5zM814 157q55 32 55 92q0 45 -34 72t-85 32v10q48 4 77.5 30.5t29.5 66.5q0 54 -53 84.5t-184 30.5
t-184 -30.5t-53 -84.5q0 -40 29.5 -66.5t77.5 -30.5v-10q-51 -5 -85 -32t-34 -72q0 -60 55 -92t194 -32t194 32zM478.5 395q-39.5 21 -39.5 58t39.5 57.5t141.5 20.5t141.5 -20.5t39.5 -57.5t-39.5 -58t-141.5 -21t-141.5 21zM468.5 190.5q-41.5 21.5 -41.5 61.5
q0 39 41.5 60.5t151.5 21.5t151.5 -21.5t41.5 -60.5q0 -40 -41.5 -61.5t-151.5 -21.5t-151.5 21.5z" />
    <glyph glyph-name="uni277E" unicode="&#x277e;" horiz-adv-x="1240" 
d="M318.5 -97.5q-130.5 67.5 -202 185t-71.5 262.5t71.5 262.5t202 185t301.5 67.5t301.5 -67.5t202 -185t71.5 -262.5t-71.5 -262.5t-202 -185t-301.5 -67.5t-301.5 67.5zM811.5 181q60.5 56 60.5 167q0 84 -24 133t-80 71.5t-155 22.5q-128 0 -183 -36.5t-55 -101.5
q0 -63 53 -98.5t176 -35.5q96 0 141.5 20.5t63.5 56.5h11v-35q0 -88 -48.5 -132t-151.5 -44q-63 0 -105 12.5t-61 30.5t-19 35v3h-55v-4q0 -30 25 -57.5t79.5 -45.5t137.5 -18q129 0 189.5 56zM472 368q-42 25 -42 70q0 44 41.5 68.5t142.5 24.5q106 0 148.5 -24.5
t42.5 -68.5q0 -45 -42 -70t-145 -25q-104 0 -146 25z" />
    <glyph glyph-name="Iacute_J.loclNLD" horiz-adv-x="1504" 
d="M653 0h-576v63h252v574h-252v63h576v-63h-252v-574h252v-63zM364 788h-54l104 152h83zM833 63q-83 74 -83 208v25h72v-23q0 -107 64 -164.5t194 -57.5t194 57.5t64 164.5v364h-488v63h560v-429q0 -134 -83 -208t-247 -74t-247 74zM1128 788h-54l104 152h83z" />
    <glyph glyph-name="i.loclTRK" horiz-adv-x="537" 
d="M320 56h184v-56h-457v56h210v319q0 43 -18.5 62t-61.5 19q-20 0 -35.5 -3.5t-37.5 -11.5v57q42 16 90 16q66 0 96 -29t30 -91v-338zM237.5 628.5q-13.5 12.5 -13.5 32.5q0 19 14 31.5t37 12.5t36.5 -12.5t13.5 -31.5q0 -20 -13.5 -32.5t-36.5 -12.5q-24 0 -37.5 12.5z
" />
    <glyph glyph-name="iacute_j.loclNLD" horiz-adv-x="864" 
d="M320 56h184v-56h-457v56h210v319q0 43 -18.5 62t-61.5 19q-20 0 -35.5 -3.5t-37.5 -11.5v57q42 16 90 16q66 0 96 -29t30 -91v-338zM273 591h-54l104 152h83zM511.5 -214q-20.5 3 -44.5 10v56q39 -13 84 -13q87 0 126.5 34.5t39.5 104.5v397q0 43 -18.5 62t-61.5 19
q-20 0 -35.5 -3.5t-37.5 -11.5v57q42 16 91 16q65 0 95 -29t30 -91v-417q0 -194 -220 -194q-28 0 -48.5 3zM733 591h-54l104 152h83z" />
    <glyph glyph-name="f_f_j" horiz-adv-x="1414" 
d="M1251 470q39 -10 56.5 -37.5t17.5 -76.5v-379q0 -194 -220 -194q-51 0 -93 13v56q39 -13 84 -13q85 0 124.5 34.5t39.5 104.5v365q0 44 -19 62.5t-63 18.5h-374v-424h-65v424h-456v-424h-66v424h-186v52h196v9q-53 6 -87.5 35t-34.5 74q0 54 56.5 88t183.5 34
q103 0 174.5 -28t116.5 -70q8 44 62.5 71t166.5 27q143 0 237 -55.5t149 -136.5v-54zM712 476q-76 99 -161.5 143.5t-200.5 44.5q-97 0 -138.5 -24t-41.5 -62q0 -37 29 -59.5t77 -42.5h436zM1199 476q16 0 23 -1q-46 79 -133 134t-219 55q-181 0 -181 -86q0 -31 23.5 -54.5
t65.5 -47.5h421z" />
    <glyph glyph-name="f_j" horiz-adv-x="1058" 
d="M661 -204v56q39 -13 83 -13q86 0 125.5 34.5t39.5 104.5v365q0 44 -19 62.5t-63 18.5h-544v-424h-66v424h-186v52h196v9q-49 5 -85.5 33t-36.5 74q0 55 65.5 89.5t221.5 34.5q151 0 218.5 -45.5t67.5 -124.5v-2h-65v4q0 54 -50.5 85t-170.5 31q-222 0 -222 -88
q0 -36 29.5 -58t76.5 -42h570q67 0 97.5 -29t30.5 -91v-379q0 -194 -220 -194q-51 0 -93 13zM892 625.5q-14 12.5 -14 31.5q0 20 13.5 32.5t37.5 12.5q23 0 36.5 -12.5t13.5 -32.5q0 -19 -13.5 -31.5t-36.5 -12.5t-37 12.5z" />
    <glyph glyph-name="f_f_i.ss01" horiz-adv-x="1414" 
d="M1251 470q39 -10 56.5 -37.5t17.5 -76.5v-356h-65v343q0 44 -19 62.5t-63 18.5h-374v-424h-65v424h-456v-424h-66v424h-186v52h196v9q-53 6 -87.5 35t-34.5 74q0 54 56.5 88t183.5 34q103 0 174.5 -28t116.5 -70q8 44 62.5 71t166.5 27q143 0 237 -55.5t149 -136.5v-54z
M712 476q-76 99 -161.5 143.5t-200.5 44.5q-97 0 -138.5 -24t-41.5 -62q0 -37 29 -59.5t77 -42.5h436zM1199 476q16 0 23 -1q-46 79 -133 134t-219 55q-181 0 -181 -86q0 -31 23.5 -54.5t65.5 -47.5h421z" />
    <glyph glyph-name="fi.ss01" horiz-adv-x="893" 
d="M217 0v424h-186v52h196v9q-49 5 -85.5 33t-36.5 74q0 55 65.5 89.5t221.5 34.5q151 0 218.5 -45.5t67.5 -124.5v-2h-65v4q0 54 -50.5 85t-170.5 31q-222 0 -222 -88q0 -36 29.5 -58t76.5 -42h400q67 0 97.5 -29t30.5 -91v-356h-65v343q0 44 -19 62.5t-63 18.5h-374v-424
h-66z" />
    <glyph glyph-name="f_j.ss01" horiz-adv-x="893" 
d="M491 -204v56q39 -13 83 -13q86 0 125.5 34.5t39.5 104.5v365q0 44 -19 62.5t-63 18.5h-374v-424h-66v424h-186v52h196v9q-49 5 -85.5 33t-36.5 74q0 55 65.5 89.5t221.5 34.5q151 0 218.5 -45.5t67.5 -124.5v-2h-65v4q0 54 -50.5 85t-170.5 31q-222 0 -222 -88
q0 -36 29.5 -58t76.5 -42h400q67 0 97.5 -29t30.5 -91v-379q0 -194 -220 -194q-51 0 -93 13z" />
    <glyph glyph-name="I.ss01" horiz-adv-x="281" 
d="M176 0h-72v700h72v-700z" />
    <glyph glyph-name="Ibreve.ss01" horiz-adv-x="281" 
d="M176 0h-72v700h72v-700zM-34.5 822q-59.5 46 -66.5 126h61q6 -57 51 -88.5t129 -31.5t129 31.5t51 88.5h61q-7 -80 -66.5 -126t-174.5 -46t-174.5 46z" />
    <glyph glyph-name="Icircumflex.ss01" horiz-adv-x="281" 
d="M176 0h-72v700h72v-700zM173 943l203 -162h-84l-152 127l-153 -127h-83l203 162h66z" />
    <glyph glyph-name="Idieresis.ss01" horiz-adv-x="281" 
d="M176 0h-72v700h72v-700zM-37.5 818.5q-14.5 12.5 -14.5 32.5q0 19 14.5 32t39.5 13t39.5 -12.5t14.5 -32.5t-14 -32.5t-40 -12.5q-25 0 -39.5 12.5zM239 818.5q-14 12.5 -14 32.5t14.5 32.5t39.5 12.5t39.5 -12.5t14.5 -32.5t-14 -32.5t-40 -12.5t-40 12.5z" />
    <glyph glyph-name="Idotaccent.ss01" horiz-adv-x="281" 
d="M176 0h-72v700h72v-700zM95.5 816.5q-16.5 14.5 -16.5 36.5t16.5 36.5t45.5 14.5q28 0 44.5 -14.5t16.5 -36.5t-16.5 -36.5t-44.5 -14.5q-29 0 -45.5 14.5z" />
    <glyph glyph-name="Igrave.ss01" horiz-adv-x="281" 
d="M176 0h-72v700h72v-700zM202 781h-60l-160 162h96z" />
    <glyph glyph-name="Imacron.ss01" horiz-adv-x="281" 
d="M176 0h-72v700h72v-700zM340 840h-399v54h399v-54z" />
    <glyph glyph-name="Iogonek.ss01" horiz-adv-x="281" 
d="M70.5 -155.5q17.5 -16.5 49.5 -16.5q29 0 57 14v-54q-31 -16 -71 -16q-54 0 -84.5 27.5t-30.5 71.5q0 42 29 77.5t84 57.5v694h72v-700h1q-63 -19 -93.5 -49t-30.5 -63q0 -27 17.5 -43.5z" />
    <glyph glyph-name="Itilde.ss01" horiz-adv-x="281" 
d="M176 0h-72v700h72v-700zM-45 782q-33 43 -33 89q0 39 25.5 63t69.5 24q39 0 70 -18t72 -53q30 -28 51.5 -41.5t45.5 -13.5q22 0 34 12.5t12 34.5q0 39 -32 79h55q15 -19 24 -42t9 -46q0 -40 -26 -64t-70 -24q-39 0 -68.5 18t-72.5 54q-30 28 -51.5 41.5t-45.5 13.5
q-22 0 -34 -12.5t-12 -34.5q0 -40 32 -80h-55z" />
    <glyph glyph-name="Iacute.ss01" horiz-adv-x="281" 
d="M176 0h-72v700h72v-700zM139 781h-60l124 162h96z" />
    <glyph glyph-name="IJ.ss01" horiz-adv-x="1094" 
d="M176 0h-72v700h72v-700zM423 63q-83 74 -83 208v25h72v-23q0 -107 64 -164.5t194 -57.5t194 57.5t64 164.5v364h-488v63h560v-429q0 -134 -83 -208t-247 -74t-247 74z" />
    <glyph glyph-name="Iacute_J.loclNLD.ss01" horiz-adv-x="1094" 
d="M176 0h-72v700h72v-700zM139 781h-60l124 162h96zM423 63q-83 74 -83 208v25h72v-23q0 -107 64 -164.5t194 -57.5t194 57.5t64 164.5v364h-488v63h560v-429q0 -134 -83 -208t-247 -74t-247 74zM718 781h-60l124 162h96z" />
    <glyph glyph-name="R.ss01" horiz-adv-x="896" 
d="M848 0h-84l-192 272h-16h-380v-272h-72v700h452q128 0 195 -58t67 -156q0 -78 -43 -131.5t-127 -72.5zM174 332h382q93 0 141.5 41t48.5 112q0 70 -48.5 111t-141.5 41h-382v-305z" />
    <glyph glyph-name="Racute.ss01" horiz-adv-x="896" 
d="M848 0h-84l-192 272h-16h-380v-272h-72v700h452q128 0 195 -58t67 -156q0 -78 -43 -131.5t-127 -72.5zM174 332h382q93 0 141.5 41t48.5 112q0 70 -48.5 111t-141.5 41h-382v-305zM456 781h-60l124 162h96z" />
    <glyph glyph-name="Rcaron.ss01" horiz-adv-x="896" 
d="M848 0h-84l-192 272h-16h-380v-272h-72v700h452q128 0 195 -58t67 -156q0 -78 -43 -131.5t-127 -72.5zM174 332h382q93 0 141.5 41t48.5 112q0 70 -48.5 111t-141.5 41h-382v-305zM458 816l152 127h84l-203 -162h-66l-203 162h83z" />
    <glyph glyph-name="uni0156.ss01" horiz-adv-x="896" 
d="M848 0h-84l-192 272h-16h-380v-272h-72v700h452q128 0 195 -58t67 -156q0 -78 -43 -131.5t-127 -72.5zM174 332h382q93 0 141.5 41t48.5 112q0 70 -48.5 111t-141.5 41h-382v-305zM517 -110q0 -44 -16.5 -81t-44.5 -59t-61 -22v51h5q38 0 63.5 26t29.5 68q-8 -4 -20 -4
q-20 0 -32 11t-12 29q0 17 11.5 28.5t28.5 11.5q48 0 48 -59z" />
    <glyph glyph-name="a.ss01" horiz-adv-x="791" 
d="M201 22.5q-68 33.5 -104 93t-36 135.5t36 136t103.5 93.5t160.5 33.5q113 0 183.5 -45t94.5 -116h10l-14 150h67v-503h-67l14 151h-10q-24 -72 -94.5 -117t-183.5 -45q-92 0 -160 33.5zM519 71q58 27 88 74t30 106t-30 106.5t-88 74.5t-138 27t-137.5 -27t-87.5 -74.5
t-30 -106.5t30 -106t87.5 -74t137.5 -27t138 27z" />
    <glyph glyph-name="aacute.ss01" horiz-adv-x="791" 
d="M201 22.5q-68 33.5 -104 93t-36 135.5t36 136t103.5 93.5t160.5 33.5q113 0 183.5 -45t94.5 -116h10l-14 150h67v-503h-67l14 151h-10q-24 -72 -94.5 -117t-183.5 -45q-92 0 -160 33.5zM519 71q58 27 88 74t30 106t-30 106.5t-88 74.5t-138 27t-137.5 -27t-87.5 -74.5
t-30 -106.5t30 -106t87.5 -74t137.5 -27t138 27zM382 591h-54l104 152h83z" />
    <glyph glyph-name="abreve.ss01" horiz-adv-x="791" 
d="M201 22.5q-68 33.5 -104 93t-36 135.5t36 136t103.5 93.5t160.5 33.5q113 0 183.5 -45t94.5 -116h10l-14 150h67v-503h-67l14 151h-10q-24 -72 -94.5 -117t-183.5 -45q-92 0 -160 33.5zM519 71q58 27 88 74t30 106t-30 106.5t-88 74.5t-138 27t-137.5 -27t-87.5 -74.5
t-30 -106.5t30 -106t87.5 -74t137.5 -27t138 27zM233.5 630.5q-54.5 44.5 -60.5 117.5h56q5 -54 45 -84t110 -30q69 0 109 30t45 84h56q-5 -73 -59 -117.5t-151 -44.5q-96 0 -150.5 44.5z" />
    <glyph glyph-name="acircumflex.ss01" horiz-adv-x="791" 
d="M201 22.5q-68 33.5 -104 93t-36 135.5t36 136t103.5 93.5t160.5 33.5q113 0 183.5 -45t94.5 -116h10l-14 150h67v-503h-67l14 151h-10q-24 -72 -94.5 -117t-183.5 -45q-92 0 -160 33.5zM519 71q58 27 88 74t30 106t-30 106.5t-88 74.5t-138 27t-137.5 -27t-87.5 -74.5
t-30 -106.5t30 -106t87.5 -74t137.5 -27t138 27zM410 743l179 -152h-75l-131 116l-131 -116h-75l179 152h54z" />
    <glyph glyph-name="adieresis.ss01" horiz-adv-x="791" 
d="M201 22.5q-68 33.5 -104 93t-36 135.5t36 136t103.5 93.5t160.5 33.5q113 0 183.5 -45t94.5 -116h10l-14 150h67v-503h-67l14 151h-10q-24 -72 -94.5 -117t-183.5 -45q-92 0 -160 33.5zM519 71q58 27 88 74t30 106t-30 106.5t-88 74.5t-138 27t-137.5 -27t-87.5 -74.5
t-30 -106.5t30 -106t87.5 -74t137.5 -27t138 27zM233 633q-12 11 -12 28q0 16 12 27t32 11t32.5 -11t12.5 -27q0 -17 -12 -28t-33 -11q-20 0 -32 11zM471 633q-12 11 -12 28q0 16 12 27t32 11t32 -11t12 -27q0 -17 -12 -28t-32 -11t-32 11z" />
    <glyph glyph-name="agrave.ss01" horiz-adv-x="791" 
d="M201 22.5q-68 33.5 -104 93t-36 135.5t36 136t103.5 93.5t160.5 33.5q113 0 183.5 -45t94.5 -116h10l-14 150h67v-503h-67l14 151h-10q-24 -72 -94.5 -117t-183.5 -45q-92 0 -160 33.5zM519 71q58 27 88 74t30 106t-30 106.5t-88 74.5t-138 27t-137.5 -27t-87.5 -74.5
t-30 -106.5t30 -106t87.5 -74t137.5 -27t138 27zM439 591h-54l-133 152h83z" />
    <glyph glyph-name="amacron.ss01" horiz-adv-x="791" 
d="M201 22.5q-68 33.5 -104 93t-36 135.5t36 136t103.5 93.5t160.5 33.5q113 0 183.5 -45t94.5 -116h10l-14 150h67v-503h-67l14 151h-10q-24 -72 -94.5 -117t-183.5 -45q-92 0 -160 33.5zM519 71q58 27 88 74t30 106t-30 106.5t-88 74.5t-138 27t-137.5 -27t-87.5 -74.5
t-30 -106.5t30 -106t87.5 -74t137.5 -27t138 27zM571 652h-374v49h374v-49z" />
    <glyph glyph-name="aogonek.ss01" horiz-adv-x="791" 
d="M702 0q-156 -36 -156 -111q0 -28 21 -44.5t63 -16.5q36 0 72 14v-54q-35 -16 -85 -16q-66 0 -99.5 27.5t-33.5 72.5q0 43 37 80t115 58l13 141h-10q-24 -72 -94.5 -117t-183.5 -45q-92 0 -160 33.5t-104 93t-36 135.5t36 136t103.5 93.5t160.5 33.5q113 0 183.5 -45
t94.5 -116h10l-14 150h67v-503zM519 71q58 27 88 74t30 106t-30 106.5t-88 74.5t-138 27t-137.5 -27t-87.5 -74.5t-30 -106.5t30 -106t87.5 -74t137.5 -27t138 27z" />
    <glyph glyph-name="aring.ss01" horiz-adv-x="791" 
d="M201 22.5q-68 33.5 -104 93t-36 135.5t36 136t103.5 93.5t160.5 33.5q113 0 183.5 -45t94.5 -116h10l-14 150h67v-503h-67l14 151h-10q-24 -72 -94.5 -117t-183.5 -45q-92 0 -160 33.5zM519 71q58 27 88 74t30 106t-30 106.5t-88 74.5t-138 27t-137.5 -27t-87.5 -74.5
t-30 -106.5t30 -106t87.5 -74t137.5 -27t138 27zM281.5 601q-37.5 32 -37.5 80q0 49 37.5 81t102.5 32t102 -32t37 -81q0 -48 -37 -80t-102 -32t-102.5 32zM450.5 634q23.5 19 23.5 47q0 29 -23.5 48t-66.5 19t-67 -19t-24 -48q0 -28 24 -47t67 -19t66.5 19z" />
    <glyph glyph-name="atilde.ss01" horiz-adv-x="791" 
d="M201 22.5q-68 33.5 -104 93t-36 135.5t36 136t103.5 93.5t160.5 33.5q113 0 183.5 -45t94.5 -116h10l-14 150h67v-503h-67l14 151h-10q-24 -72 -94.5 -117t-183.5 -45q-92 0 -160 33.5zM519 71q58 27 88 74t30 106t-30 106.5t-88 74.5t-138 27t-137.5 -27t-87.5 -74.5
t-30 -106.5t30 -106t87.5 -74t137.5 -27t138 27zM214 586q-15 16 -24 38.5t-9 43.5q0 37 25.5 61t67.5 24q38 0 66 -18t61 -51q26 -26 45 -39t41 -13t34 12t12 34q0 18 -8.5 38t-22.5 37h51q15 -17 24 -39t9 -43q0 -38 -25.5 -61.5t-67.5 -23.5q-38 0 -66 18t-61 51
q-26 26 -45 39t-41 13t-34 -12.5t-12 -34.5q0 -19 8.5 -38.5t22.5 -35.5h-51z" />
    <glyph glyph-name="g.ss01" horiz-adv-x="791" 
d="M210 -207.5q-52 9.5 -104 30.5v56q58 -21 108.5 -30.5t121.5 -9.5q158 0 232.5 68t74.5 206v46h-10q-23 -61 -90.5 -103t-180.5 -42q-94 0 -162 32.5t-103.5 89t-35.5 128.5t35.5 128.5t103 89t161.5 32.5q114 0 182.5 -44t93.5 -113h11l-13 146h67v-375
q0 -174 -88.5 -259.5t-274.5 -85.5q-77 0 -129 9.5zM520 92q58 26 87.5 70.5t29.5 100.5q0 55 -29.5 99.5t-87.5 70.5t-139 26t-138.5 -26t-87 -70.5t-29.5 -99.5q0 -56 29.5 -100.5t87 -70.5t138.5 -26t139 26z" />
    <glyph glyph-name="uni01F5.ss01" horiz-adv-x="791" 
d="M210 -207.5q-52 9.5 -104 30.5v56q58 -21 108.5 -30.5t121.5 -9.5q158 0 232.5 68t74.5 206v46h-10q-23 -61 -90.5 -103t-180.5 -42q-94 0 -162 32.5t-103.5 89t-35.5 128.5t35.5 128.5t103 89t161.5 32.5q114 0 182.5 -44t93.5 -113h11l-13 146h67v-375
q0 -174 -88.5 -259.5t-274.5 -85.5q-77 0 -129 9.5zM520 92q58 26 87.5 70.5t29.5 100.5q0 55 -29.5 99.5t-87.5 70.5t-139 26t-138.5 -26t-87 -70.5t-29.5 -99.5q0 -56 29.5 -100.5t87 -70.5t138.5 -26t139 26zM382 591h-54l104 152h83z" />
    <glyph glyph-name="gbreve.ss01" horiz-adv-x="791" 
d="M210 -207.5q-52 9.5 -104 30.5v56q58 -21 108.5 -30.5t121.5 -9.5q158 0 232.5 68t74.5 206v46h-10q-23 -61 -90.5 -103t-180.5 -42q-94 0 -162 32.5t-103.5 89t-35.5 128.5t35.5 128.5t103 89t161.5 32.5q114 0 182.5 -44t93.5 -113h11l-13 146h67v-375
q0 -174 -88.5 -259.5t-274.5 -85.5q-77 0 -129 9.5zM520 92q58 26 87.5 70.5t29.5 100.5q0 55 -29.5 99.5t-87.5 70.5t-139 26t-138.5 -26t-87 -70.5t-29.5 -99.5q0 -56 29.5 -100.5t87 -70.5t138.5 -26t139 26zM232.5 630.5q-54.5 44.5 -60.5 117.5h56q5 -54 45 -84
t110 -30q69 0 109 30t45 84h56q-5 -73 -59 -117.5t-151 -44.5q-96 0 -150.5 44.5z" />
    <glyph glyph-name="gcircumflex.ss01" horiz-adv-x="791" 
d="M210 -207.5q-52 9.5 -104 30.5v56q58 -21 108.5 -30.5t121.5 -9.5q158 0 232.5 68t74.5 206v46h-10q-23 -61 -90.5 -103t-180.5 -42q-94 0 -162 32.5t-103.5 89t-35.5 128.5t35.5 128.5t103 89t161.5 32.5q114 0 182.5 -44t93.5 -113h11l-13 146h67v-375
q0 -174 -88.5 -259.5t-274.5 -85.5q-77 0 -129 9.5zM520 92q58 26 87.5 70.5t29.5 100.5q0 55 -29.5 99.5t-87.5 70.5t-139 26t-138.5 -26t-87 -70.5t-29.5 -99.5q0 -56 29.5 -100.5t87 -70.5t138.5 -26t139 26zM410 743l179 -152h-75l-131 116l-131 -116h-75l179 152h54z
" />
    <glyph glyph-name="uni0123.ss01" horiz-adv-x="791" 
d="M210 -207.5q-52 9.5 -104 30.5v56q58 -21 108.5 -30.5t121.5 -9.5q158 0 232.5 68t74.5 206v46h-10q-23 -61 -90.5 -103t-180.5 -42q-94 0 -162 32.5t-103.5 89t-35.5 128.5t35.5 128.5t103 89t161.5 32.5q114 0 182.5 -44t93.5 -113h11l-13 146h67v-375
q0 -174 -88.5 -259.5t-274.5 -85.5q-77 0 -129 9.5zM520 92q58 26 87.5 70.5t29.5 100.5q0 55 -29.5 99.5t-87.5 70.5t-139 26t-138.5 -26t-87 -70.5t-29.5 -99.5q0 -56 29.5 -100.5t87 -70.5t138.5 -26t139 26zM355.5 742q16.5 37 44.5 58.5t61 21.5v-51h-5
q-38 0 -63.5 -25.5t-29.5 -67.5q8 4 20 4q20 0 32 -11.5t12 -28.5t-11.5 -28.5t-28.5 -11.5q-48 0 -48 59q0 44 16.5 81z" />
    </font>
</defs>
</svg>
