<?xml version="1.0" standalone="no"?>
<!DOCTYPE svg PUBLIC "-//W3C//DTD SVG 1.1//EN" "http://www.w3.org/Graphics/SVG/1.1/DTD/svg11.dtd" >
<svg xmlns="http://www.w3.org/2000/svg" xmlns:xlink="http://www.w3.org/1999/xlink" version="1.1">
<metadata>
Created by FontForge 20201107 at Mon Feb  6 14:54:44 2023
 By 
Copyright (c) 2021 by TypeType. All rights reserved. Special version for DaFont.
</metadata>
<defs>
<font id="TTTravelsNextTrl-Bd" horiz-adv-x="900" >
  <font-face 
    font-family="TT Travels Next Trl"
    font-weight="700"
    font-stretch="normal"
    units-per-em="1000"
    panose-1="2 11 0 3 4 0 0 1 2 4"
    ascent="800"
    descent="-200"
    x-height="508"
    cap-height="700"
    bbox="-581 -359 1620 1003"
    underline-thickness="90"
    underline-position="-200"
    unicode-range="U+0020-FB03"
  />
<missing-glyph 
d="M100 0v284h45v-139h33v139h50v31h-128v126l19 -61h23l34 106l33 -106h23l54 170h-32l-34 -110l-35 110h-19l-35 -110l-31 103v157h700v-150h-110v-170h110v-91q-6 13 -19.5 20t-30.5 7q-27 0 -43.5 -14.5t-16.5 -34.5q0 -22 14.5 -32.5t39.5 -17.5q17 -5 25.5 -9.5
t8.5 -13.5q0 -21 -28 -21q-14 0 -21 7t-7 18h-33q0 -24 17 -39.5t44 -15.5q17 0 30.5 6.5t19.5 13.5v-163h-700zM311 380h33v62h24l35 -62h37l-40 67q36 17 36 50q0 22 -16 37.5t-41 15.5h-68v-170zM469 550v-170h33v170h-33zM580 519v-139h32v139h50v31h-132v-31h50z
M344 473v46h35q10 0 17 -6.5t7 -16.5q0 -12 -7.5 -17.5t-16.5 -5.5h-35zM800 483h-78v36h78v-36zM800 411h-78v41h78v-41zM387.5 167.5q22.5 24.5 22.5 61.5t-23 62t-59 25t-59 -25t-23 -62t22.5 -61.5t59.5 -24.5t59.5 24.5zM633 162q19 19 19 47v106h-32v-106
q0 -15 -9.5 -25t-25.5 -10q-17 0 -26.5 10.5t-9.5 24.5v106h-32v-106q0 -28 19.5 -47t48.5 -19t48 19zM800 224q-15 14 -46 22q-16 5 -23 9t-7 12q0 9 7.5 14.5t18.5 5.5q10 0 18 -7t8 -18h24v-38zM291.5 190q-14.5 16 -14.5 39q0 25 14 40.5t37 15.5q24 0 37.5 -15.5
t13.5 -40.5q0 -23 -14.5 -39t-36.5 -16t-36.5 16z" />
    <glyph glyph-name="fi" unicode="fi" horiz-adv-x="1180" 
d="M848 598q-25 23 -25 58t25 58t68 23q42 0 67 -23t25 -58t-25 -58t-67 -23q-43 0 -68 23zM1004 130h159v-130h-495v130h184v175q0 33 -14 47t-48 14h-468v-366h-158v366h-149v117h183v15q-62 2 -96.5 28t-34.5 69q0 123 308 123q158 0 233 -50.5t75 -129.5v-3h-158v4
q0 29 -35 48t-118 19t-118 -17.5t-35 -44.5q0 -36 53 -59h572q87 0 123.5 -32.5t36.5 -106.5v-216z" />
    <glyph glyph-name="f_f_i" unicode="ffi" horiz-adv-x="1638" 
d="M1462 130h158v-130h-494v130h183v175q0 33 -13.5 47t-47.5 14h-409v-366h-157v366h-360v-366h-158v366h-149v117h183v15q-64 3 -97.5 29t-33.5 68q0 54 67.5 88.5t231.5 34.5q95 0 164 -17t107 -41q29 26 88 42t152 16q125 0 211.5 -33.5t157.5 -91.5v-108h57
q87 0 123 -32t36 -107v-216zM693 485q-100 121 -305 121q-169 0 -169 -62q0 -21 15 -34.5t38 -24.5h421zM1186 485q-42 51 -118.5 86t-180.5 35q-163 0 -163 -62q0 -21 15 -34.5t38 -24.5h409z" />
    <glyph glyph-name=".notdef" 
d="M100 0v284h45v-139h33v139h50v31h-128v126l19 -61h23l34 106l33 -106h23l54 170h-32l-34 -110l-35 110h-19l-35 -110l-31 103v157h700v-150h-110v-170h110v-91q-6 13 -19.5 20t-30.5 7q-27 0 -43.5 -14.5t-16.5 -34.5q0 -22 14.5 -32.5t39.5 -17.5q17 -5 25.5 -9.5
t8.5 -13.5q0 -21 -28 -21q-14 0 -21 7t-7 18h-33q0 -24 17 -39.5t44 -15.5q17 0 30.5 6.5t19.5 13.5v-163h-700zM311 380h33v62h24l35 -62h37l-40 67q36 17 36 50q0 22 -16 37.5t-41 15.5h-68v-170zM469 550v-170h33v170h-33zM580 519v-139h32v139h50v31h-132v-31h50z
M344 473v46h35q10 0 17 -6.5t7 -16.5q0 -12 -7.5 -17.5t-16.5 -5.5h-35zM800 483h-78v36h78v-36zM800 411h-78v41h78v-41zM387.5 167.5q22.5 24.5 22.5 61.5t-23 62t-59 25t-59 -25t-23 -62t22.5 -61.5t59.5 -24.5t59.5 24.5zM633 162q19 19 19 47v106h-32v-106
q0 -15 -9.5 -25t-25.5 -10q-17 0 -26.5 10.5t-9.5 24.5v106h-32v-106q0 -28 19.5 -47t48.5 -19t48 19zM800 224q-15 14 -46 22q-16 5 -23 9t-7 12q0 9 7.5 14.5t18.5 5.5q10 0 18 -7t8 -18h24v-38zM291.5 190q-14.5 16 -14.5 39q0 25 14 40.5t37 15.5q24 0 37.5 -15.5
t13.5 -40.5q0 -23 -14.5 -39t-36.5 -16t-36.5 16z" />
    <glyph glyph-name=".null" horiz-adv-x="0" 
 />
    <glyph glyph-name="nonmarkingreturn" horiz-adv-x="0" 
 />
    <glyph glyph-name="space" unicode=" " horiz-adv-x="270" 
 />
    <glyph glyph-name="exclam" unicode="!" horiz-adv-x="296" 
d="M203 221h-110l-30 180v299h171v-299zM80.5 11.5q-25.5 24.5 -25.5 62.5t25.5 62.5t67.5 24.5t68 -24.5t26 -62.5t-26 -62.5t-68 -24.5t-67.5 24.5z" />
    <glyph glyph-name="quotedbl" unicode="&#x22;" horiz-adv-x="445" 
d="M177 402h-119l-16 219v79h151v-79zM386 402h-119l-16 219v79h151v-79z" />
    <glyph glyph-name="numbersign" unicode="#" horiz-adv-x="883" 
d="M843 553v-113h-143l-44 -180h127v-113h-154l-36 -147h-124l36 147h-228l-36 -147h-124l36 147h-116v113h143l44 180h-127v113h154l36 147h124l-36 -147h228l36 147h124l-36 -147h116zM304 260h228l44 180h-228z" />
    <glyph glyph-name="dollar" unicode="$" horiz-adv-x="940" 
d="M810.5 61q-77.5 -59 -252.5 -71v-123h-170v123q-171 14 -251 83.5t-80 178.5v13h181v-9q0 -134 235 -134q133 0 183.5 24t50.5 65q0 37 -33 55.5t-84 24.5t-139 10q-124 6 -201 19t-132.5 55t-55.5 126q0 86 76 142t250 67v123h170v-123q167 -15 246 -82.5t79 -169.5v-8
h-181v8q0 53 -54.5 86.5t-175.5 33.5q-129 0 -179 -23.5t-50 -61.5q0 -31 31 -47t77.5 -21t131.5 -8q126 -5 207 -17.5t139.5 -56.5t58.5 -132q0 -91 -77.5 -150z" />
    <glyph glyph-name="percent" unicode="%" horiz-adv-x="922" 
d="M130 378q-45 23 -69 64t-24 92t24 92t69 64t105 23q59 0 104 -23t69 -64t24 -92t-24 -92t-69 -64t-104 -23q-60 0 -105 23zM265 0h-128l520 700h128zM300.5 473q25.5 24 25.5 61t-25.5 61t-65.5 24q-41 0 -66 -24t-25 -61t25 -61t66 -24q40 0 65.5 24zM583 10
q-45 23 -69 64t-24 92t24 92t69 64t105 23q59 0 104 -23t69 -64t24 -92t-24 -92t-69 -64t-104 -23q-60 0 -105 23zM753 105q25 24 25 61t-25 61t-65 24q-41 0 -66 -24t-25 -61t25 -61t66 -24q40 0 65 24z" />
    <glyph glyph-name="ampersand" unicode="&#x26;" horiz-adv-x="850" 
d="M861 86l-81 -99l-83 69q-44 -31 -118 -50t-177 -19q-185 0 -270 62t-85 171q0 169 204 209l-164 136v135h634v-125h-423v-17l323 -271v158h135v-271zM587 148l-232 194q-83 -8 -118 -36t-35 -73q0 -54 48.5 -84t164.5 -30t172 29z" />
    <glyph glyph-name="quotesingle" unicode="'" horiz-adv-x="236" 
d="M177 402h-119l-16 219v79h151v-79z" />
    <glyph glyph-name="parenleft" unicode="(" horiz-adv-x="478" 
d="M440 -290q-119 25 -205.5 97t-133 186t-46.5 262t46.5 262t133 186t205.5 97v-143q-110 -43 -169 -143.5t-59 -258.5t59 -258.5t169 -143.5v-143z" />
    <glyph glyph-name="parenright" unicode=")" horiz-adv-x="478" 
d="M37 -147q110 43 169 143.5t59 258.5t-59 258.5t-169 143.5v143q119 -25 206 -97t133.5 -186t46.5 -262t-46.5 -262t-133.5 -186t-206 -97v143z" />
    <glyph glyph-name="asterisk" unicode="*" horiz-adv-x="507" 
d="M242 523q-3 21 -10.5 36t-20.5 35q-13 18 -19.5 31.5t-6.5 31.5q0 26 17.5 41t51.5 15t51.5 -15t17.5 -41q0 -17 -6.5 -30t-19.5 -33q-14 -18 -21.5 -34t-9.5 -37h-24zM42 492.5q-10 13.5 -10 33.5q0 15 6 31q16 50 55 50q10 0 20 -3q17 -5 28 -15.5t24 -28.5
q15 -19 27 -30.5t31 -20.5l-8 -23q-13 3 -24 3q-20 0 -52 -10q-27 -9 -44 -9q-13 0 -25 4q-18 5 -28 18.5zM369 479q-32 10 -52 10q-12 0 -24 -3l-8 23q19 9 31 20.5t27 30.5q13 18 24 28.5t28 15.5q10 3 20 3q39 0 55 -50q5 -18 5 -30q0 -27 -17 -42t-46 -15q-18 0 -43 9z
M87 357q0 15 11 31q11 15 24 22t34 14q23 8 37.5 16t28.5 23l20 -13q-11 -19 -14 -36.5t-3 -40.5q-1 -24 -3.5 -37.5t-12.5 -27.5q-17 -23 -43 -23q-22 0 -46 18q-33 26 -33 54zM341 285q-25 0 -42 23q-11 15 -14 30t-3 37t-3 39.5t-13 35.5l19 13q15 -16 30.5 -24t36.5 -15
q22 -8 34.5 -15t23.5 -21q11 -16 11 -31q0 -30 -34 -54q-25 -18 -46 -18z" />
    <glyph glyph-name="plus" unicode="+" horiz-adv-x="600" 
d="M363 116h-126v174h-185v119h185v175h126v-175h185v-119h-185v-174z" />
    <glyph glyph-name="comma" unicode="," horiz-adv-x="256" 
d="M196 132.5q26 -28.5 26 -84.5q0 -113 -55.5 -177t-148.5 -64v115h12q57 0 86.5 17t37.5 51q-12 -3 -26 -3q-42 0 -67.5 24.5t-25.5 62.5t25 62.5t63 24.5q47 0 73 -28.5z" />
    <glyph glyph-name="hyphen" unicode="-" horiz-adv-x="533" 
d="M485 250l-438 -101v128l438 101v-128z" />
    <glyph glyph-name="period" unicode="." horiz-adv-x="256" 
d="M60.5 11.5q-25.5 24.5 -25.5 62.5t25.5 62.5t67.5 24.5t68 -24.5t26 -62.5t-26 -62.5t-68 -24.5t-67.5 24.5z" />
    <glyph glyph-name="slash" unicode="/" horiz-adv-x="544" 
d="M151 -120h-151l393 820h151z" />
    <glyph glyph-name="zero" unicode="0" horiz-adv-x="910" 
d="M244 34q-91 47 -140 130t-49 186t49 186t140 130t211 47t211 -47t140 -130t49 -186t-49 -186t-140 -130t-211 -47t-211 47zM571.5 159.5q50.5 27.5 78 77t27.5 113.5t-27.5 113.5t-78 77t-116.5 27.5t-116.5 -27.5t-78 -77t-27.5 -113.5t27.5 -113.5t78 -77t116.5 -27.5
t116.5 27.5z" />
    <glyph glyph-name="one" unicode="1" horiz-adv-x="757" 
d="M502 145h230v-145h-670v145h265v174q0 58 13 105.5t44 124.5h-17q-28 -70 -60 -110t-77 -59t-113 -19h-17v148h44q100 0 149 46.5t49 138.5v6h160v-555z" />
    <glyph glyph-name="two" unicode="2" horiz-adv-x="884" 
d="M239 132h582v-132h-754v129q0 103 52.5 155.5t126 68t188.5 22.5q79 5 123.5 12t74 27.5t29.5 60.5q0 103 -213 103q-110 0 -161.5 -36t-51.5 -96v-21h-178v24q0 121 95.5 192.5t295.5 71.5q203 0 297 -63.5t94 -167.5q0 -92 -48.5 -137.5t-116.5 -59.5t-179 -21
q-89 -6 -139 -14.5t-83.5 -34t-33.5 -76.5v-7z" />
    <glyph glyph-name="three" unicode="3" horiz-adv-x="875" 
d="M527 431q309 -8 309 -216q0 -104 -93.5 -166t-300.5 -62q-211 0 -301.5 63.5t-90.5 182.5v17h178v-14q0 -56 47 -85t167 -29q119 0 167.5 27t48.5 74q0 100 -201 100h-160v94l342 174v17q-118 -48 -245 -48h-314v140h720v-132z" />
    <glyph glyph-name="four" unicode="4" horiz-adv-x="873" 
d="M701 262h139v-138h-139v-124h-178v124h-478v135l385 441h271v-438zM258 278v-16h275v202q0 48 6.5 87t19.5 84h-16q-17 -43 -36.5 -75.5t-48.5 -66.5z" />
    <glyph glyph-name="five" unicode="5" horiz-adv-x="864" 
d="M151.5 48.5q-90.5 61.5 -90.5 165.5v11h178v-6q0 -43 46.5 -70t156.5 -27q108 0 156 31t48 82q0 113 -209 113q-98 0 -146.5 -18.5t-65.5 -44.5h-173l49 415h701v-132h-570l-26 -202h15q57 100 276 100q169 0 248 -61.5t79 -171.5q0 -117 -90 -181.5t-293 -64.5
q-199 0 -289.5 61.5z" />
    <glyph glyph-name="six" unicode="6" horiz-adv-x="896" 
d="M230 25.5q-92 38.5 -135 118.5t-43 206q0 183 96 273t301 90q136 0 223 -30.5t127 -82.5t40 -118v-9h-178v4q0 45 -49 74.5t-156 29.5q-123 0 -180.5 -53.5t-57.5 -160.5q0 -24 1 -39h15q43 110 289 110q164 0 245 -60t81 -158q0 -108 -90 -170.5t-289 -62.5
q-148 0 -240 38.5zM621.5 148q49.5 29 49.5 74q0 44 -50 72.5t-166 28.5t-166 -28.5t-50 -72.5q0 -45 50.5 -74t167.5 -29q115 0 164.5 29z" />
    <glyph glyph-name="seven" unicode="7" horiz-adv-x="777" 
d="M214 24q0 185 85.5 315.5t279.5 196.5v16h-537v148h701v-163q-185 -68 -264.5 -192.5t-79.5 -320.5v-24h-185v24z" />
    <glyph glyph-name="eight" unicode="8" horiz-adv-x="884" 
d="M651 356q86 -2 138.5 -46.5t52.5 -118.5q0 -96 -90.5 -150t-309.5 -54t-309.5 54t-90.5 150q0 74 52.5 118.5t138.5 46.5v17q-78 1 -124.5 43.5t-46.5 109.5q0 84 88 135.5t292 51.5t292 -51.5t88 -135.5q0 -67 -46.5 -109.5t-124.5 -43.5v-17zM284 556q-44 -22 -44 -60
q0 -39 44 -61t158 -22t158 22.5t44 60.5t-44 60t-158 22t-158 -22zM615.5 146q48.5 24 48.5 65q0 42 -48 66t-174 24t-174 -23.5t-48 -66.5q0 -41 48 -65t174 -24q125 0 173.5 24z" />
    <glyph glyph-name="nine" unicode="9" horiz-adv-x="896" 
d="M224.5 17q-87.5 30 -127.5 80t-40 111v9h178v-4q0 -24 20.5 -45t66.5 -35t118 -14q122 0 180 52t58 152q0 24 -1 39h-15q-43 -110 -289 -110q-165 0 -245.5 61t-80.5 162q0 111 90 174.5t288 63.5q148 0 240 -38.5t135.5 -118.5t43.5 -206q0 -183 -96 -273t-301 -90
q-135 0 -222.5 30zM607.5 396q49.5 29 49.5 77q0 49 -50 78.5t-168 29.5q-115 0 -164.5 -29.5t-49.5 -78.5q0 -48 50 -77t166 -29q117 0 166.5 29z" />
    <glyph glyph-name="colon" unicode=":" horiz-adv-x="256" 
d="M61 371q-26 25 -26 62q0 38 26 63t67 25q42 0 68 -25t26 -63q0 -37 -26.5 -62t-67.5 -25t-67 25zM60.5 11.5q-25.5 24.5 -25.5 62.5t25.5 62.5t67.5 24.5t68 -24.5t26 -62.5t-26 -62.5t-68 -24.5t-67.5 24.5z" />
    <glyph glyph-name="semicolon" unicode=";" horiz-adv-x="256" 
d="M61 371q-26 25 -26 62q0 38 26 63t67 25q42 0 68 -25t26 -63q0 -37 -26.5 -62t-67.5 -25t-67 25zM196 132.5q26 -28.5 26 -84.5q0 -113 -55.5 -177t-148.5 -64v115h12q57 0 86.5 17t37.5 51q-12 -3 -26 -3q-42 0 -67.5 24.5t-25.5 62.5t25 62.5t63 24.5q47 0 73 -28.5z
" />
    <glyph glyph-name="less" unicode="&#x3c;" horiz-adv-x="568" 
d="M40 419l475 171v-128l-330 -112l330 -112v-128l-475 171v138z" />
    <glyph glyph-name="equal" unicode="=" horiz-adv-x="610" 
d="M553 400h-496v112h496v-112zM553 187h-496v112h496v-112z" />
    <glyph glyph-name="greater" unicode="&#x3e;" horiz-adv-x="568" 
d="M52 462v128l476 -171v-138l-476 -171v128l330 112z" />
    <glyph glyph-name="question" unicode="?" horiz-adv-x="770" 
d="M285 244q0 57 24.5 91.5t58 51.5t87.5 34q53 16 77.5 31t24.5 45q0 37 -37 57.5t-129 20.5q-178 0 -178 -106v-12h-173v15q0 241 345 241q182 0 263.5 -53.5t81.5 -142.5q0 -58 -23 -94t-55 -54t-84 -37q-39 -15 -60 -25.5t-35.5 -28.5t-14.5 -45v-12h-173v23zM303 11.5
q-26 24.5 -26 62.5t26 62.5t68 24.5t67.5 -24.5t25.5 -62.5t-25.5 -62.5t-67.5 -24.5t-68 24.5z" />
    <glyph glyph-name="at" unicode="@" horiz-adv-x="1121" 
d="M287.5 -126q-113.5 57 -174.5 156.5t-61 224.5t61 224.5t177 156.5t273 57t272.5 -56t176.5 -152.5t61 -214.5q0 -114 -50 -172t-139 -58q-129 0 -160 97h-14q-21 -44 -67 -70.5t-120 -26.5q-102 0 -161.5 58.5t-59.5 156.5t59.5 156.5t159.5 58.5q68 0 112.5 -27
t61.5 -65h16l-23 82h113v-234q0 -37 18.5 -56.5t52.5 -19.5q38 0 57.5 27t19.5 93q0 88 -45.5 159.5t-133 112.5t-207.5 41q-121 0 -208 -42t-132.5 -116t-45.5 -170q0 -95 45 -169.5t130 -116.5t202 -42q70 0 123 11.5t100 32.5l50 -92q-90 -62 -273 -62q-153 0 -266.5 57z
M643.5 178.5q32.5 28.5 32.5 76.5t-32.5 76.5t-91.5 28.5q-60 0 -92.5 -28.5t-32.5 -76.5t32.5 -76.5t92.5 -28.5q59 0 91.5 28.5z" />
    <glyph glyph-name="A" unicode="A" 
d="M887 0h-188l-52 115h-394l-52 -115h-189l333 700h209zM316 253h268l-88 194q-21 50 -29.5 82.5t-8.5 61.5v3h-16v-3q0 -29 -8.5 -61.5t-29.5 -82.5z" />
    <glyph glyph-name="B" unicode="B" horiz-adv-x="908" 
d="M703 357q82 -7 126.5 -51.5t44.5 -116.5q0 -90 -62.5 -139.5t-196.5 -49.5h-535v700h538q116 0 173.5 -46t57.5 -124q0 -64 -38.5 -105.5t-107.5 -48.5v-19zM253 563v-147h326q45 0 68.5 20t23.5 53q0 34 -23.5 54t-68.5 20h-326zM596 137q50 0 75 20.5t25 57.5t-25 58
t-75 21h-343v-157h343z" />
    <glyph glyph-name="C" unicode="C" horiz-adv-x="1007" 
d="M259 34q-103 47 -156 129.5t-53 186.5t53 186.5t156 129.5t249 47q137 0 235.5 -38.5t154 -104.5t69.5 -150h-178q-15 62 -85 105t-196 43q-89 0 -152.5 -28.5t-95.5 -78t-32 -111.5t32 -111.5t95.5 -78t152.5 -28.5q126 0 196 43t85 105h178q-14 -85 -69 -151
t-153.5 -104t-236.5 -38q-146 0 -249 47z" />
    <glyph glyph-name="D" unicode="D" horiz-adv-x="913" 
d="M80 0v700h353q136 0 233 -45.5t147 -124.5t50 -180t-50 -180t-147 -124.5t-233 -45.5h-353zM433 145q80 0 137 26.5t86 73t29 105.5t-29 105.5t-86 73t-137 26.5h-175v-410h175z" />
    <glyph glyph-name="E" unicode="E" horiz-adv-x="832" 
d="M775 700v-140h-517v-142h447v-125h-447v-153h517v-140h-695v700h695z" />
    <glyph glyph-name="F" unicode="F" horiz-adv-x="802" 
d="M755 700v-143h-497v-183h427v-135h-427v-239h-178v700h675z" />
    <glyph glyph-name="G" unicode="G" horiz-adv-x="1006" 
d="M438 250v112h504v-362h-156l31 157h-16q-35 -72 -115.5 -121t-212.5 -49q-129 0 -225 47.5t-147 130.5t-51 185q0 103 53 185.5t155 130t245 47.5q203 0 317 -81t142 -212h-178q-24 67 -94 108.5t-187 41.5q-88 0 -151 -28.5t-95 -78.5t-32 -113q0 -65 32 -116t95 -80
t153 -29q106 0 172.5 35t93.5 90h-333z" />
    <glyph glyph-name="H" unicode="H" horiz-adv-x="963" 
d="M705 436v264h178v-700h-178v288h-447v-288h-178v700h178v-264h447z" />
    <glyph glyph-name="I" unicode="I" horiz-adv-x="730" 
d="M673 0h-616v143h219v414h-219v143h616v-143h-219v-414h219v-143z" />
    <glyph glyph-name="J" unicode="J" horiz-adv-x="809" 
d="M123.5 66q-88.5 79 -88.5 220v19h178v-13q0 -76 43.5 -116.5t130.5 -40.5t130.5 40.5t43.5 116.5v260h-426v148h604v-412q0 -143 -88.5 -222t-263.5 -79t-263.5 79z" />
    <glyph glyph-name="K" unicode="K" horiz-adv-x="845" 
d="M458 363l384 -363h-238l-346 340v-340h-178v700h178v-321l334 321h230z" />
    <glyph glyph-name="L" unicode="L" horiz-adv-x="770" 
d="M735 0h-655v700h178v-552h477v-148z" />
    <glyph glyph-name="M" unicode="M" horiz-adv-x="1114" 
d="M80 0v700h277l169 -377q23 -67 23 -88v-9h16v9q0 21 23 88l169 377h278v-700h-172v396q0 67 5.5 110t17.5 88h-17l-213 -474h-198l-213 474h-17q12 -45 17.5 -88t5.5 -110v-396h-171z" />
    <glyph glyph-name="N" unicode="N" horiz-adv-x="973" 
d="M80 0v700h277l374 -594h17q-13 43 -19.5 84t-6.5 100v410h171v-700h-277l-374 594h-17q13 -43 19.5 -84t6.5 -100v-410h-171z" />
    <glyph glyph-name="O" unicode="O" horiz-adv-x="1030" 
d="M261.5 34.5q-104.5 47.5 -158 129.5t-53.5 186t53.5 186t158 129.5t253.5 47.5t253.5 -47.5t158 -129.5t53.5 -186t-53.5 -186t-158 -129.5t-253.5 -47.5t-253.5 47.5zM672.5 160.5q64.5 28.5 97 78t32.5 111.5t-32.5 111.5t-97 78t-157.5 28.5t-157.5 -28.5t-97 -78
t-32.5 -111.5t32.5 -111.5t97 -78t157.5 -28.5t157.5 28.5z" />
    <glyph glyph-name="P" unicode="P" horiz-adv-x="868" 
d="M530 700q145 0 219 -64.5t74 -177.5t-74 -178t-219 -65h-272v-215h-178v700h450zM523 358q60 0 91 27t31 73t-31 72.5t-91 26.5h-274v-199h274z" />
    <glyph glyph-name="Q" unicode="Q" horiz-adv-x="1030" 
d="M574.5 -50q14.5 -11 50.5 -11h275v-140h-166q-84 0 -145 23.5t-94 66.5t-33 100q-132 8 -225 57t-140 128t-47 176q0 104 53.5 186t158 129.5t253.5 47.5t253.5 -47.5t158 -129.5t53.5 -186q0 -98 -48 -177.5t-143 -128.5t-230 -56q1 -27 15.5 -38zM260.5 238.5
q32.5 -49.5 97 -78t157.5 -28.5t157.5 28.5t97 78t32.5 111.5t-32.5 111.5t-97 78t-157.5 28.5t-157.5 -28.5t-97 -78t-32.5 -111.5t32.5 -111.5z" />
    <glyph glyph-name="R" unicode="R" horiz-adv-x="889" 
d="M864 0h-212l-76 180q-16 36 -41.5 49.5t-76.5 13.5h-200v-243h-178v700h463q139 0 212 -60.5t73 -159.5q0 -56 -24 -101.5t-65 -73.5t-91 -32v-17q55 -2 87.5 -26t61.5 -86zM526 355q61 0 92.5 28t31.5 75t-31.5 74.5t-92.5 27.5h-277v-205h277z" />
    <glyph glyph-name="S" unicode="S" horiz-adv-x="940" 
d="M157 58.5q-100 71.5 -100 193.5v13h181v-9q0 -134 235 -134q133 0 183.5 24t50.5 65q0 37 -33 55.5t-84 24.5t-139 10q-124 6 -201 19t-132.5 55t-55.5 126q0 96 95 154t315 58q212 0 311.5 -70t99.5 -185v-8h-181v8q0 53 -54.5 86.5t-175.5 33.5q-129 0 -179 -23.5
t-50 -61.5q0 -31 31 -47t77.5 -21t131.5 -8q126 -5 207 -17.5t139.5 -56.5t58.5 -132q0 -102 -97 -163t-318 -61q-216 0 -316 71.5z" />
    <glyph glyph-name="T" unicode="T" horiz-adv-x="778" 
d="M478 0h-178v552h-288v148h754v-148h-288v-552z" />
    <glyph glyph-name="U" unicode="U" horiz-adv-x="937" 
d="M171 77.5q-101 90.5 -101 253.5v369h178v-356q0 -97 55.5 -149.5t165.5 -52.5q109 0 165 52.5t56 149.5v356h178v-369q0 -162 -101.5 -253t-297.5 -91q-197 0 -298 90.5z" />
    <glyph glyph-name="V" unicode="V" 
d="M341 0l-324 700h200l190 -447q21 -54 28 -83t7 -61v-3h16v3q0 32 7 61t28 83l190 447h199l-324 -700h-217z" />
    <glyph glyph-name="W" unicode="W" horiz-adv-x="1173" 
d="M232 0l-205 700h192l120 -448q17 -72 17 -139v-7h16v7q0 77 16 139l100 328h198l99 -328q16 -62 16 -139v-7h17v7q0 65 16 139l120 448h192l-205 -700h-225l-99 305q-13 47 -17.5 78t-4.5 87v4h-17v-4q0 -56 -4.5 -87t-17.5 -78l-99 -305h-225z" />
    <glyph glyph-name="X" unicode="X" horiz-adv-x="901" 
d="M15 0l305 355l-295 345h220l151 -178q24 -33 35 -56t11 -43v-12h17v12q0 21 11 44t35 55l151 178h220l-295 -345l305 -355h-224l-163 192q-21 27 -30.5 47.5t-9.5 41.5v9h-17v-9q0 -20 -9.5 -40.5t-30.5 -48.5l-163 -192h-224z" />
    <glyph glyph-name="Y" unicode="Y" horiz-adv-x="839" 
d="M330 0v221l-323 479h204l159 -242q41 -67 41 -118v-14h17v14q0 53 41 118l159 242h203l-323 -479v-221h-178z" />
    <glyph glyph-name="Z" unicode="Z" horiz-adv-x="855" 
d="M800 0h-740v132l481 406v17h-471v145h720v-132l-481 -406v-17h491v-145z" />
    <glyph glyph-name="bracketleft" unicode="[" horiz-adv-x="473" 
d="M438 -275h-353v1060h353v-135h-201v-790h201v-135z" />
    <glyph glyph-name="backslash" unicode="\" horiz-adv-x="544" 
d="M544 -120h-151l-393 820h151z" />
    <glyph glyph-name="bracketright" unicode="]" horiz-adv-x="473" 
d="M388 -275h-353v135h200v790h-200v135h353v-1060z" />
    <glyph glyph-name="asciicircum" unicode="^" horiz-adv-x="575" 
d="M365 700l190 -340h-145l-122 226l-123 -226h-145l190 340h155z" />
    <glyph glyph-name="underscore" unicode="_" horiz-adv-x="525" 
d="M525 -177h-525v122h525v-122z" />
    <glyph glyph-name="grave" unicode="`" horiz-adv-x="337" 
d="M307 577h-139l-138 171h182z" />
    <glyph glyph-name="a" unicode="a" horiz-adv-x="771" 
d="M106.5 28.5q-56.5 41.5 -56.5 112.5q0 70 56.5 111t177.5 41q87 0 144 -15.5t113 -45.5v37q0 60 -45 96t-133 36q-77 0 -118.5 -24t-52.5 -60h-157q11 90 92.5 147t237.5 57q163 0 246.5 -69.5t83.5 -188.5v-108q0 -20 9 -29t27 -9q15 0 28 4v-123q-36 -11 -70 -11
q-60 0 -92 27.5t-32 71.5v4h-17v-3q0 -25 -29 -47.5t-88.5 -37.5t-146.5 -15q-121 0 -177.5 41.5zM541 135v28q-48 19 -93.5 29t-104.5 10q-76 0 -104.5 -14t-28.5 -40t28 -40t105 -14q109 0 198 41z" />
    <glyph glyph-name="b" unicode="b" horiz-adv-x="808" 
d="M311 26.5q-64 39.5 -88 110.5h-17l24 -137h-158v700h158v-147q0 -46 -6 -88.5t-18 -94.5h17q24 72 88 111.5t168 39.5q86 0 150 -34t99 -94.5t35 -138.5q0 -79 -35 -139.5t-99 -94t-150 -33.5q-104 0 -168 39.5zM557 151.5q49 40.5 49 102.5t-49 102t-138 40
q-90 0 -138.5 -40t-48.5 -102t49 -102.5t138 -40.5t138 40.5z" />
    <glyph glyph-name="c" unicode="c" horiz-adv-x="759" 
d="M198 22.5q-78 35.5 -118 96t-40 135.5t40 135.5t118 96t187 35.5q99 0 174 -29.5t118.5 -81.5t51.5 -118h-158q-10 44 -57.5 74t-128.5 30q-59 0 -101.5 -19t-64.5 -51.5t-22 -71.5t22 -71.5t64.5 -52t101.5 -19.5q81 0 128.5 30t57.5 74h158q-8 -66 -51.5 -118
t-118.5 -81t-174 -29q-109 0 -187 35.5z" />
    <glyph glyph-name="d" unicode="d" horiz-adv-x="808" 
d="M178.5 20.5q-64.5 33.5 -99 94t-34.5 139.5q0 78 34.5 138.5t99 94.5t150.5 34q104 0 168 -39.5t88 -111.5h16q-11 54 -17 96t-6 87v147h157v-700h-157l23 137h-16q-24 -71 -88 -110.5t-168 -39.5q-86 0 -150.5 33.5zM527 151.5q49 40.5 49 102.5t-49 102t-138 40
q-90 0 -138.5 -40t-48.5 -102t49 -102.5t138 -40.5t138 40.5z" />
    <glyph glyph-name="e" unicode="e" horiz-adv-x="777" 
d="M734 208h-542q16 -50 66 -78.5t132 -28.5q78 0 119 18.5t65 45.5h152q-15 -42 -54 -82.5t-110.5 -68t-174.5 -27.5q-110 0 -188.5 35.5t-118.5 96t-40 135.5t40.5 135.5t119 96t189.5 35.5q110 0 189 -35.5t119 -96.5t40 -137q0 -21 -3 -44zM256 377q-50 -29 -65 -80h395
q-15 51 -64.5 80t-132.5 29t-133 -29z" />
    <glyph glyph-name="f" unicode="f" horiz-adv-x="680" 
d="M164 0v366h-149v117h183v15q-62 2 -96.5 28t-34.5 69q0 123 308 123q160 0 234 -51.5t74 -138.5v-3h-158v4q0 72 -153 72t-153 -60q0 -33 53 -56h316v-119h-266v-366h-158z" />
    <glyph glyph-name="g" unicode="g" horiz-adv-x="768" 
d="M97.5 -177q-80.5 45 -80.5 125q0 101 130 127v14h-24q-33 0 -49.5 13.5t-16.5 36.5q0 24 16.5 37.5t49.5 13.5h32v14q-44 14 -71 49t-27 84q0 87 77 135.5t258 48.5h151q20 0 30 8t10 21q0 21 -24 45h145q15 -14 21 -26t6 -25q0 -24 -19.5 -38.5t-58.5 -14.5h-54v-14
q122 -36 122 -144q0 -79 -72.5 -123t-244.5 -44h-194q-15 0 -24 -8t-9 -20q0 -11 9 -18.5t24 -7.5h240q156 0 226 -45t70 -118q0 -81 -80.5 -126t-284.5 -45q-203 0 -283.5 45zM533.5 275.5q39.5 20.5 39.5 57.5t-39.5 57.5t-142.5 20.5q-104 0 -143.5 -20.5t-39.5 -57.5
t39.5 -57.5t143.5 -20.5q103 0 142.5 20.5zM514 -104.5q46 8.5 62 23t16 36.5t-16 36.5t-62 23t-133 8.5q-86 0 -132 -8.5t-62 -23.5t-16 -36q0 -22 16 -36.5t62 -23t132 -8.5q87 0 133 8.5z" />
    <glyph glyph-name="h" unicode="h" horiz-adv-x="806" 
d="M72 0v700h158v-163q0 -46 -6 -89t-18 -93h17q22 80 83.5 123t159.5 43q129 0 203 -75t74 -207v-239h-157v203q0 89 -47 137t-131 48t-131 -48t-47 -137v-203h-158z" />
    <glyph glyph-name="i" unicode="i" horiz-adv-x="543" 
d="M367 130h158v-130h-493v130h184v193q0 33 -13.5 46.5t-46.5 13.5q-29 0 -59 -11v130q47 19 111 19q87 0 123 -33t36 -107v-251zM202 608q-25 23 -25 58t25 58t68 23q42 0 67 -23t25 -58t-25 -58t-67 -23q-43 0 -68 23z" />
    <glyph glyph-name="j" unicode="j" horiz-adv-x="353" 
d="M-13 -208q-25 4 -52 14v127q44 -16 87 -16q61 0 89.5 24t28.5 71v311q0 33 -14 46.5t-46 13.5q-29 0 -59 -11v130q47 19 111 19q87 0 123 -33t36 -107v-371q0 -108 -61.5 -165t-182.5 -57q-35 0 -60 4zM126 608q-25 23 -25 58t25 58t68 23q42 0 67 -23t25 -58t-25 -58
t-67 -23q-43 0 -68 23z" />
    <glyph glyph-name="k" unicode="k" horiz-adv-x="688" 
d="M408 265l285 -265h-207l-256 251v-251h-158v700h158v-424l250 232h203z" />
    <glyph glyph-name="l" unicode="l" horiz-adv-x="585" 
d="M389 130h179v-130h-541v130h204v386q0 33 -14.5 46.5t-51.5 13.5q-34 0 -66 -16v130q47 23 122 23q93 0 130.5 -32t37.5 -107v-444z" />
    <glyph glyph-name="m" unicode="m" horiz-adv-x="1108" 
d="M67 0v508h158l-21 -127h17q43 140 197 140q84 0 135 -41t62 -104h14q43 145 202 145q99 0 157 -61.5t58 -171.5v-288h-158v252q0 65 -34 100.5t-92 35.5q-59 0 -93 -36t-34 -100v-252h-157v252q0 64 -34 100t-93 36q-58 0 -92 -35.5t-34 -100.5v-252h-158z" />
    <glyph glyph-name="n" unicode="n" horiz-adv-x="801" 
d="M67 0v508h158l-24 -153h17q22 80 83.5 123t159.5 43q129 0 203 -75t74 -207v-239h-157v203q0 89 -47 137t-131 48t-131 -48t-47 -137v-203h-158z" />
    <glyph glyph-name="o" unicode="o" horiz-adv-x="789" 
d="M201 22.5q-80 35.5 -120.5 96t-40.5 135.5t40.5 135.5t120.5 96t194 35.5q113 0 193 -35.5t120.5 -96t40.5 -135.5t-40.5 -135.5t-120.5 -96t-193 -35.5q-114 0 -194 35.5zM541 151.5q51 40.5 51 102.5q0 61 -51 101.5t-146 40.5t-146.5 -40.5t-51.5 -101.5
q0 -62 51.5 -102.5t146.5 -40.5t146 40.5z" />
    <glyph glyph-name="p" unicode="p" horiz-adv-x="803" 
d="M67 -192v700h158l-24 -138h17q24 72 88 111.5t168 39.5q86 0 150 -34t99 -94.5t35 -138.5q0 -79 -35 -139.5t-99 -94t-150 -33.5q-104 0 -168 39.5t-88 110.5h-17q12 -52 18 -94.5t6 -88.5v-146h-158zM552 151.5q49 40.5 49 102.5t-49 102t-138 40q-90 0 -138.5 -40
t-48.5 -102t49 -102.5t138 -40.5t138 40.5z" />
    <glyph glyph-name="q" unicode="q" horiz-adv-x="803" 
d="M578 -46q0 45 6 87t17 96h-16q-24 -71 -88 -110.5t-168 -39.5q-86 0 -150.5 33.5t-99 94t-34.5 139.5q0 78 34.5 138.5t99 94.5t150.5 34q104 0 168 -39.5t88 -111.5h16l-23 138h157v-700h-157v146zM527 151.5q49 40.5 49 102.5t-49 102t-138 40q-90 0 -138.5 -40
t-48.5 -102t49 -102.5t138 -40.5t138 40.5z" />
    <glyph glyph-name="r" unicode="r" horiz-adv-x="720" 
d="M67 0v508h158l-22 -140h17q21 73 77 113t141 40q120 0 183.5 -67.5t63.5 -198.5v-20h-160v7q0 67 -39.5 104.5t-111.5 37.5q-71 0 -110 -40.5t-39 -118.5v-225h-158z" />
    <glyph glyph-name="s" unicode="s" horiz-adv-x="738" 
d="M122.5 38.5q-77.5 51.5 -77.5 138.5v8h160v-6q0 -80 167 -80q95 0 130.5 16t35.5 42q0 23 -23.5 34t-58.5 14.5t-100 6.5q-96 4 -157 13.5t-105 40.5t-44 94q0 72 75 116.5t247 44.5q161 0 239 -53.5t82 -138.5h-160q-6 80 -161 80q-162 0 -162 -58q0 -30 42 -38.5
t134 -12.5q97 -3 159.5 -12.5t107.5 -41.5t45 -96q0 -163 -326 -163q-172 0 -249.5 51.5z" />
    <glyph glyph-name="t" unicode="t" horiz-adv-x="677" 
d="M143.5 41.5q-72.5 54.5 -72.5 143.5q0 72 44.5 120.5t108.5 59.5v16h-212v114h132q31 0 44 13t13 44v76h129v-128h288v-119h-315q-38 -18 -59 -50.5t-21 -83.5q0 -128 139 -128q71 0 106 28t35 77v12h157v-15q0 -110 -74 -172t-224 -62q-146 0 -218.5 54.5z" />
    <glyph glyph-name="u" unicode="u" horiz-adv-x="786" 
d="M134 60.5q-72 73.5 -72 202.5v245h158v-209q0 -86 45 -133t125 -47q81 0 126 47t45 133v209h157v-508h-157l23 152h-16q-22 -80 -82 -122.5t-155 -42.5q-125 0 -197 73.5z" />
    <glyph glyph-name="v" unicode="v" horiz-adv-x="708" 
d="M250 0l-243 508h183l134 -319q22 -60 22 -99v-4h16v4q0 39 22 99l133 319h183l-243 -508h-207z" />
    <glyph glyph-name="w" unicode="w" horiz-adv-x="987" 
d="M178 0l-166 508h171l90 -306q13 -51 13 -109v-7h17v7q0 62 12 109l95 306h167l95 -306q12 -47 12 -109v-7h17v7q0 58 13 109l90 306h171l-166 -508h-197l-96 277q-8 28 -11 59.5t-3 80.5v5h-17v-5q0 -49 -3 -80.5t-11 -59.5l-96 -277h-197z" />
    <glyph glyph-name="x" unicode="x" horiz-adv-x="724" 
d="M7 0l239 259l-229 249h197l102 -114q38 -49 38 -85v-4h16v4q0 20 10 40.5t28 44.5l101 114h197l-229 -249l239 -259h-200l-114 127q-32 39 -32 70v7h-16v-7q0 -30 -31 -70l-115 -127h-201z" />
    <glyph glyph-name="y" unicode="y" horiz-adv-x="708" 
d="M517 508h183l-259 -513q-55 -112 -123 -159.5t-167 -47.5q-31 0 -54.5 4t-49.5 14v130q41 -16 84 -16q51 0 83 17t55 58l-262 513h183l130 -293q25 -66 25 -107v-3h17v3q0 44 24 107z" />
    <glyph glyph-name="z" unicode="z" horiz-adv-x="689" 
d="M647 0h-600v113l352 251v17h-342v127h580v-114l-352 -250v-17h362v-127z" />
    <glyph glyph-name="braceleft" unicode="{" horiz-adv-x="507" 
d="M325 -275q-95 0 -145.5 50.5t-50.5 145.5v189q0 44 -22.5 65t-71.5 21v118q49 0 71.5 21t22.5 65v189q0 95 50.5 145.5t145.5 50.5h148v-135h-106q-44 0 -65.5 -21.5t-21.5 -65.5v-182q0 -52 -31.5 -84t-85.5 -33v-17q54 -1 85.5 -33t31.5 -85v-182q0 -44 21.5 -65.5
t65.5 -21.5h106v-135h-148z" />
    <glyph glyph-name="bar" unicode="|" horiz-adv-x="341" 
d="M251 -210h-161v950h161v-950z" />
    <glyph glyph-name="braceright" unicode="}" horiz-adv-x="507" 
d="M35 -275v135h106q44 0 65.5 21.5t21.5 65.5v182q0 53 31.5 85t85.5 33v17q-54 1 -85.5 33t-31.5 84v182q0 44 -21.5 65.5t-65.5 21.5h-106v135h147q95 0 145.5 -50.5t50.5 -145.5v-189q0 -44 22.5 -65t72.5 -21v-118q-50 0 -72.5 -21t-22.5 -65v-189q0 -95 -50.5 -145.5
t-145.5 -50.5h-147z" />
    <glyph glyph-name="asciitilde" unicode="~" horiz-adv-x="610" 
d="M352.5 257.5q-32.5 16.5 -70.5 46.5q-25 20 -40.5 29t-32.5 9q-18 0 -27.5 -10.5t-9.5 -30.5q0 -25 10 -50h-123q-17 42 -17 79q0 60 36 94.5t99 34.5q48 0 80.5 -16.5t70.5 -46.5q25 -20 40.5 -29t32.5 -9q18 0 27.5 10.5t9.5 30.5q0 25 -10 50h123q17 -42 17 -79
q0 -60 -36 -94.5t-99 -34.5q-48 0 -80.5 16.5z" />
    <glyph glyph-name="uni00A0" unicode="&#xa0;" horiz-adv-x="270" 
 />
    <glyph glyph-name="exclamdown" unicode="&#xa1;" horiz-adv-x="286" 
d="M76 371q-26 25 -26 62q0 38 26 63t67 25q42 0 68 -25t26 -63q0 -37 -26.5 -62t-67.5 -25t-67 25zM229 -192h-171v299l30 180h110l31 -180v-299z" />
    <glyph glyph-name="cent" unicode="&#xa2;" horiz-adv-x="759" 
d="M516 235.5q48 30.5 58 76.5h155q-11 -85 -79 -145t-180 -78v-108h-171v108q-82 13 -140.5 50.5t-88.5 92t-30 118.5t30 118.5t88.5 92t140.5 50.5v108h171v-108q112 -17 180 -76.5t79 -145.5h-155q-10 46 -58 76t-131 30q-90 0 -140 -41t-50 -104t50 -104t140 -41
q83 0 131 30.5z" />
    <glyph glyph-name="sterling" unicode="&#xa3;" horiz-adv-x="821" 
d="M776 480h-175v9q0 22 -17 42.5t-52.5 33.5t-86.5 13q-78 0 -116.5 -31.5t-38.5 -87.5v-59h309v-110h-309v-38q0 -82 -50 -109h536v-143h-739v143q41 0 59.5 18.5t18.5 61.5v67h-68v110h68v57q0 121 81.5 188.5t248.5 67.5q111 0 185 -29.5t110 -80t36 -114.5v-9z" />
    <glyph glyph-name="currency" unicode="&#xa4;" horiz-adv-x="743" 
d="M612 261l104 -104l-93 -76l-101 101q-62 -28 -150 -28q-89 0 -150 28l-101 -101l-94 76l105 104q-22 40 -22 89t22 89l-105 104l94 76l101 -101q61 28 150 28q88 0 150 -28l101 101l93 -76l-104 -104q22 -40 22 -89t-22 -89zM268 277q36 -29 104 -29q67 0 103 29t36 73
t-36 73t-103 29q-68 0 -104 -29t-36 -73t36 -73z" />
    <glyph glyph-name="yen" unicode="&#xa5;" horiz-adv-x="839" 
d="M831 700l-271 -368h133v-90h-185v-62h185v-91h-185v-89h-178v89h-184v91h184v62h-184v90h132l-271 368h204l162 -232q38 -60 38 -118v-14h17v14q0 58 38 118l162 232h203z" />
    <glyph glyph-name="brokenbar" unicode="&#xa6;" horiz-adv-x="341" 
d="M251 330h-161v410h161v-410zM251 -210h-161v410h161v-410z" />
    <glyph glyph-name="section" unicode="&#xa7;" horiz-adv-x="777" 
d="M160.5 -138q-73.5 55 -73.5 154v16h155v-12q0 -48 34.5 -73t117.5 -25q151 0 151 72q0 34 -37 53t-130 19q-176 0 -251 48.5t-75 135.5q0 70 43.5 111.5t122.5 49.5v17q-136 16 -136 125q0 73 71 116.5t236 43.5q160 0 233 -55t73 -154v-16h-155v12q0 48 -34.5 73
t-116.5 25q-83 0 -117.5 -19.5t-34.5 -52.5q0 -34 37 -53t130 -19q176 0 251 -48.5t75 -135.5q0 -70 -43.5 -111.5t-122.5 -49.5v-17q136 -16 136 -125q0 -73 -71 -116.5t-235 -43.5q-160 0 -233.5 55zM535.5 198q39.5 21 39.5 62t-39.5 62t-144.5 21t-144.5 -21t-39.5 -62
t40 -62t145 -21q104 0 143.5 21z" />
    <glyph glyph-name="dieresis" unicode="&#xa8;" horiz-adv-x="473" 
d="M52 616.5q-22 19.5 -22 49.5t22 50t59 20t59 -20t22 -50t-22 -49.5t-59 -19.5t-59 19.5zM303 616.5q-22 19.5 -22 49.5t22 50t59 20t59 -20t22 -50t-22 -49.5t-59 -19.5t-59 19.5z" />
    <glyph glyph-name="copyright" unicode="&#xa9;" horiz-adv-x="946" 
d="M249.5 34.5q-95.5 47.5 -146.5 130t-51 185.5t51 185.5t146.5 130t223.5 47.5t223 -47.5t146 -130t51 -185.5t-51 -185.5t-146 -130t-223 -47.5t-223.5 47.5zM644.5 115q72.5 36 111 97.5t38.5 137.5t-38.5 137.5t-111 97.5t-171.5 36t-171.5 -36t-111 -97.5
t-38.5 -137.5t38.5 -137.5t111 -97.5t171.5 -36t171.5 36zM362.5 204q-46.5 22 -71 60t-24.5 86t24.5 86t71 60t111.5 22q93 0 145 -40.5t60 -97.5h-107q-6 18 -29.5 32t-68.5 14q-47 0 -73.5 -22t-26.5 -54t26.5 -54t73.5 -22q45 0 68.5 14t29.5 32h107q-8 -57 -60 -97.5
t-145 -40.5q-65 0 -111.5 22z" />
    <glyph glyph-name="ordfeminine" unicode="&#xaa;" horiz-adv-x="558" 
d="M77.5 345.5q-42.5 30.5 -42.5 83.5q0 115 173 115q57 0 98 -11t78 -29v28q0 40 -31.5 66t-90.5 26q-50 0 -78.5 -17t-36.5 -41h-122q7 63 66.5 105t170.5 42q115 0 176 -51t61 -134v-89q0 -27 25 -27q10 0 22 4v-93q-27 -8 -55 -8q-43 0 -66 20t-23 53h-12v-1
q0 -19 -21.5 -35.5t-62 -26.5t-95.5 -10q-91 0 -133.5 30.5zM384 418v37q-69 20 -136 20q-52 0 -71.5 -10.5t-19.5 -29.5q0 -20 19.5 -30.5t71.5 -10.5q71 0 136 24z" />
    <glyph glyph-name="guillemotleft" unicode="&#xab;" horiz-adv-x="611" 
d="M337 61h-141l-176 194l176 192h141l-180 -192zM581 61h-141l-176 194l176 192h141l-179 -192z" />
    <glyph glyph-name="logicalnot" unicode="&#xac;" horiz-adv-x="625" 
d="M563 214h-137v108h-374v125h511v-233z" />
    <glyph glyph-name="uni00AD" unicode="&#xad;" horiz-adv-x="533" 
d="M485 250l-438 -101v128l438 101v-128z" />
    <glyph glyph-name="registered" unicode="&#xae;" horiz-adv-x="568" 
d="M415.5 685.5q55.5 -27.5 85 -76t29.5 -109.5t-29.5 -109.5t-85 -76t-131.5 -27.5t-132 27.5t-85.5 76t-29.5 109.5t29.5 109.5t85.5 76t132 27.5t131.5 -27.5zM418.5 386.5q48.5 43.5 48.5 113.5t-48.5 113.5t-134.5 43.5t-134.5 -43.5t-48.5 -113.5t48.5 -113.5
t134.5 -43.5t134.5 43.5zM383.5 493.5q-9.5 -15.5 -28.5 -23.5l43 -69h-71l-35 60h-45v-60h-64v198h122q44 0 66 -18.5t22 -51.5q0 -20 -9.5 -35.5zM243 548v-46h56q31 0 31 23q0 10 -8 16.5t-23 6.5h-56z" />
    <glyph glyph-name="macron" unicode="&#xaf;" horiz-adv-x="488" 
d="M458 615h-428v112h428v-112z" />
    <glyph glyph-name="degree" unicode="&#xb0;" horiz-adv-x="455" 
d="M124 387.5q-44 22.5 -68 62t-24 89.5t24 89.5t68 62t103 22.5t103 -22.5t68 -62t24 -89.5t-24 -89.5t-68 -62t-103 -22.5t-103 22.5zM291.5 481.5q24.5 22.5 24.5 57.5t-24.5 57.5t-64.5 22.5t-64 -22.5t-24 -57.5t24 -57.5t64 -22.5t64.5 22.5z" />
    <glyph glyph-name="plusminus" unicode="&#xb1;" horiz-adv-x="610" 
d="M553 444v-112h-189v-148h189v-112h-496v112h188v148h-188v112h188v161h119v-161h189z" />
    <glyph glyph-name="uni00B2" unicode="&#xb2;" horiz-adv-x="485" 
d="M431 620.5q-27 -25.5 -65 -36.5t-97 -21q-60 -11 -87.5 -21.5t-27.5 -33.5h296v-84h-408v76q0 50 28 77t66.5 37t97.5 17q58 7 83.5 15.5t25.5 31.5q0 44 -95 44q-53 0 -74.5 -13t-21.5 -39v-6h-115v9q0 136 211 136q110 0 160 -32.5t50 -85.5q0 -45 -27 -70.5z" />
    <glyph glyph-name="uni00B3" unicode="&#xb3;" horiz-adv-x="464" 
d="M301 649q144 -13 144 -115q0 -55 -50.5 -89t-158.5 -34q-209 0 -209 133v7h110v-5q0 -23 23 -37t76 -14q55 0 77 12t22 34q0 46 -96 46h-79v58l169 82v12q-34 -15 -69 -22.5t-81 -7.5h-137v87h383v-92z" />
    <glyph glyph-name="acute" unicode="&#xb4;" horiz-adv-x="337" 
d="M170 577h-140l95 171h182z" />
    <glyph glyph-name="uni00B5" unicode="&#xb5;" horiz-adv-x="786" 
d="M561 508h157v-508h-157l23 152h-16q-41 -165 -205 -165q-48 0 -87 14.5t-62 39.5v-233h-152v700h158v-209q0 -86 45 -133t126 -47q80 0 125 47t45 133v209z" />
    <glyph glyph-name="paragraph" unicode="&#xb6;" horiz-adv-x="712" 
d="M237 310q-95 0 -150 53t-55 142t54.5 142t149.5 53h449v-106h-89v-804h-121v804h-117v-804h-121v520z" />
    <glyph glyph-name="periodcentered" unicode="&#xb7;" horiz-adv-x="270" 
d="M67.5 210.5q-25.5 24.5 -25.5 62.5t25.5 62.5t67.5 24.5t68 -24.5t26 -62.5t-26 -62.5t-68 -24.5t-67.5 24.5z" />
    <glyph glyph-name="cedilla" unicode="&#xb8;" horiz-adv-x="383" 
d="M167 -50q186 0 186 -96q0 -46 -41 -72.5t-134 -26.5q-85 0 -148 29v84q64 -27 142 -27q43 0 58.5 6.5t15.5 18.5t-16.5 18.5t-64.5 6.5h-83v58l57 67h85z" />
    <glyph glyph-name="uni00B9" unicode="&#xb9;" horiz-adv-x="420" 
d="M286 511h127v-87h-376v87h142v57q0 37 8 66t29 77h-12q-20 -51 -53.5 -77.5t-88.5 -26.5v89h19q55 0 81.5 24.5t26.5 68.5v7h97v-285z" />
    <glyph glyph-name="ordmasculine" unicode="&#xba;" horiz-adv-x="554" 
d="M138.5 341q-57.5 26 -87 71.5t-29.5 101.5t29.5 101.5t87 71.5t138.5 26t138.5 -26t87 -71.5t29.5 -101.5t-29.5 -101.5t-87 -71.5t-138.5 -26t-138.5 26zM373 440.5q34 28.5 34 73.5t-34 73.5t-96 28.5t-96 -28.5t-34 -73.5t34 -73.5t96 -28.5t96 28.5z" />
    <glyph glyph-name="guillemotright" unicode="&#xbb;" horiz-adv-x="611" 
d="M171 61h-141l179 194l-179 192h141l176 -192zM415 61h-141l180 194l-180 192h141l176 -192z" />
    <glyph glyph-name="onequarter" unicode="&#xbc;" horiz-adv-x="1121" 
d="M286 415h127v-87h-376v87h142v57q0 37 8 66t29 77h-12q-20 -51 -53.5 -77.5t-88.5 -26.5v89h19q55 0 81.5 24.5t26.5 68.5v7h97v-285zM411 0h-129l520 700h129zM1038 144h70v-82h-70v-62h-109v62h-246v79l201 231h154v-228zM806 156v-12h131v80q0 33 5 56t17 53h-12
q-9 -23 -19.5 -40t-28.5 -37z" />
    <glyph glyph-name="onehalf" unicode="&#xbd;" horiz-adv-x="1188" 
d="M286 415h127v-87h-376v87h142v57q0 37 8 66t29 77h-12q-20 -51 -53.5 -77.5t-88.5 -26.5v89h19q55 0 81.5 24.5t26.5 68.5v7h97v-285zM411 0h-129l520 700h129zM1134 196.5q-27 -25.5 -65 -36.5t-97 -21q-60 -11 -87.5 -21.5t-27.5 -33.5h296v-84h-408v76q0 50 28 77
t66.5 37t97.5 17q58 7 83.5 15.5t25.5 31.5q0 44 -95 44q-53 0 -74.5 -13t-21.5 -39v-6h-115v9q0 136 211 136q110 0 160 -32.5t50 -85.5q0 -45 -27 -70.5z" />
    <glyph glyph-name="threequarters" unicode="&#xbe;" horiz-adv-x="1105" 
d="M301 553q144 -13 144 -115q0 -55 -50.5 -89t-158.5 -34q-209 0 -209 133v7h110v-5q0 -23 23 -37t76 -14q55 0 77 12t22 34q0 46 -96 46h-79v58l169 82v12q-34 -15 -69 -22.5t-81 -7.5h-137v87h383v-92zM395 0h-129l520 700h129zM1022 144h70v-82h-70v-62h-109v62h-246v79
l201 231h154v-228zM790 156v-12h131v80q0 33 5 56t17 53h-12q-9 -23 -19.5 -40t-28.5 -37z" />
    <glyph glyph-name="questiondown" unicode="&#xbf;" horiz-adv-x="745" 
d="M317 371q-26 25 -26 62q0 38 26 63t67 25q42 0 68 -25t26 -63q0 -37 -26.5 -62t-67.5 -25t-67 25zM106.5 -151.5q-81.5 53.5 -81.5 142.5q0 58 23 93.5t55 53.5t84 37q39 15 60 25.5t35.5 28.5t14.5 45v13h173v-23q0 -57 -24.5 -92t-58.5 -52t-87 -33
q-53 -17 -77.5 -32.5t-24.5 -44.5q0 -36 37 -57t129 -21q178 0 178 106v13h173v-16q0 -240 -345 -240q-182 0 -263.5 53.5z" />
    <glyph glyph-name="Agrave" unicode="&#xc0;" 
d="M887 0h-188l-52 115h-394l-52 -115h-189l333 700h209zM316 253h268l-88 194q-21 50 -29.5 82.5t-8.5 61.5v3h-16v-3q0 -29 -8.5 -61.5t-29.5 -82.5zM558 767h-154l-167 181h207z" />
    <glyph glyph-name="Aacute" unicode="&#xc1;" 
d="M887 0h-188l-52 115h-394l-52 -115h-189l333 700h209zM316 253h268l-88 194q-21 50 -29.5 82.5t-8.5 61.5v3h-16v-3q0 -29 -8.5 -61.5t-29.5 -82.5zM497 767h-155l115 181h206z" />
    <glyph glyph-name="Acircumflex" unicode="&#xc2;" 
d="M887 0h-188l-52 115h-394l-52 -115h-189l333 700h209zM316 253h268l-88 194q-21 50 -29.5 82.5t-8.5 61.5v3h-16v-3q0 -29 -8.5 -61.5t-29.5 -82.5zM523 948l192 -181h-170l-95 98l-96 -98h-170l192 181h147z" />
    <glyph glyph-name="Atilde" unicode="&#xc3;" 
d="M887 0h-188l-52 115h-394l-52 -115h-189l333 700h209zM316 253h268l-88 194q-21 50 -29.5 82.5t-8.5 61.5v3h-16v-3q0 -29 -8.5 -61.5t-29.5 -82.5zM229 765q-22 53 -22 90q0 50 29.5 79t81.5 29q41 0 73 -14t73 -40q27 -17 42 -24.5t29 -7.5q31 0 31 32q0 24 -16 54h121
q22 -55 22 -90q0 -50 -29 -79t-81 -29q-41 0 -73 13.5t-75 40.5q-25 16 -40.5 24t-29.5 8q-15 0 -23 -8.5t-8 -24.5q0 -23 16 -53h-121z" />
    <glyph glyph-name="Adieresis" unicode="&#xc4;" 
d="M887 0h-188l-52 115h-394l-52 -115h-189l333 700h209zM316 253h268l-88 194q-21 50 -29.5 82.5t-8.5 61.5v3h-16v-3q0 -29 -8.5 -61.5t-29.5 -82.5zM232 798.5q-25 21.5 -25 56.5q0 34 25 56t69 22t69 -22t25 -56q0 -35 -25 -56.5t-69 -21.5t-69 21.5zM529 798.5
q-25 21.5 -25 56.5q0 34 25 56t69 22t69 -22t25 -56q0 -35 -24.5 -56.5t-69.5 -21.5q-44 0 -69 21.5z" />
    <glyph glyph-name="Aring" unicode="&#xc5;" 
d="M887 0h-188l-52 115h-394l-52 -115h-189l333 700h209zM316 253h268l-88 194q-21 50 -29.5 82.5t-8.5 61.5v3h-16v-3q0 -29 -8.5 -61.5t-29.5 -82.5zM323.5 781q-44.5 36 -44.5 93t44.5 93t126.5 36t126 -36t44 -93t-44 -93t-126 -36t-126.5 36zM505 841q18 13 18 33
t-18 33t-55 13q-38 0 -56.5 -13t-18.5 -33t18.5 -33t56.5 -13q37 0 55 13z" />
    <glyph glyph-name="AE" unicode="&#xc6;" horiz-adv-x="1337" 
d="M1280 700v-140h-487v-142h417v-125h-417v-153h487v-140h-659v120h-338l-95 -120h-206l550 700h748zM388 252h233v308h-16q-13 -33 -28 -60t-40 -61z" />
    <glyph glyph-name="Ccedilla" unicode="&#xc7;" horiz-adv-x="1007" 
d="M704 175q70 43 85 105h178q-13 -81 -64 -145t-140.5 -103t-215.5 -44l-33 -38q186 0 186 -96q0 -46 -41 -72.5t-134 -26.5q-85 0 -148 29v84q64 -27 142 -27q43 0 58.5 6.5t15.5 18.5t-16.5 18.5t-64.5 6.5h-83v58l33 39q-132 8 -224.5 56.5t-140 128t-47.5 177.5
q0 104 53 186.5t156 129.5t249 47q137 0 235.5 -38.5t154 -104.5t69.5 -150h-178q-15 62 -85 105t-196 43q-89 0 -152.5 -28.5t-95.5 -78t-32 -111.5t32 -111.5t95.5 -78t152.5 -28.5q126 0 196 43z" />
    <glyph glyph-name="Egrave" unicode="&#xc8;" horiz-adv-x="832" 
d="M775 700v-140h-517v-142h447v-125h-447v-153h517v-140h-695v700h695zM535 767h-154l-167 181h207z" />
    <glyph glyph-name="Eacute" unicode="&#xc9;" horiz-adv-x="832" 
d="M775 700v-140h-517v-142h447v-125h-447v-153h517v-140h-695v700h695zM474 767h-155l115 181h206z" />
    <glyph glyph-name="Ecircumflex" unicode="&#xca;" horiz-adv-x="832" 
d="M775 700v-140h-517v-142h447v-125h-447v-153h517v-140h-695v700h695zM501 948l192 -181h-170l-95 98l-96 -98h-170l192 181h147z" />
    <glyph glyph-name="Edieresis" unicode="&#xcb;" horiz-adv-x="832" 
d="M775 700v-140h-517v-142h447v-125h-447v-153h517v-140h-695v700h695zM210 798.5q-25 21.5 -25 56.5q0 34 25 56t69 22t69 -22t25 -56q0 -35 -25 -56.5t-69 -21.5t-69 21.5zM507 798.5q-25 21.5 -25 56.5q0 34 25 56t69 22t69 -22t25 -56q0 -35 -24.5 -56.5t-69.5 -21.5
q-44 0 -69 21.5z" />
    <glyph glyph-name="Igrave" unicode="&#xcc;" horiz-adv-x="730" 
d="M673 0h-616v143h219v414h-219v143h616v-143h-219v-414h219v-143zM473 767h-154l-167 181h207z" />
    <glyph glyph-name="Iacute" unicode="&#xcd;" horiz-adv-x="730" 
d="M673 0h-616v143h219v414h-219v143h616v-143h-219v-414h219v-143zM412 767h-155l115 181h206z" />
    <glyph glyph-name="Icircumflex" unicode="&#xce;" horiz-adv-x="730" 
d="M673 0h-616v143h219v414h-219v143h616v-143h-219v-414h219v-143zM439 948l192 -181h-170l-95 98l-96 -98h-170l192 181h147z" />
    <glyph glyph-name="Idieresis" unicode="&#xcf;" horiz-adv-x="730" 
d="M673 0h-616v143h219v414h-219v143h616v-143h-219v-414h219v-143zM148 798.5q-25 21.5 -25 56.5q0 34 25 56t69 22t69 -22t25 -56q0 -35 -25 -56.5t-69 -21.5t-69 21.5zM445 798.5q-25 21.5 -25 56.5q0 34 25 56t69 22t69 -22t25 -56q0 -35 -24.5 -56.5t-69.5 -21.5
q-44 0 -69 21.5z" />
    <glyph glyph-name="Eth" unicode="&#xd0;" horiz-adv-x="943" 
d="M463 700q136 0 233 -45.5t147 -124.5t50 -180t-50 -180t-147 -124.5t-233 -45.5h-353v290h-118v119h118v291h353zM463 145q80 0 137 26.5t86 73t29 105.5t-29 105.5t-86 73t-137 26.5h-175v-146h186v-119h-186v-145h175z" />
    <glyph glyph-name="Ntilde" unicode="&#xd1;" horiz-adv-x="973" 
d="M80 0v700h277l374 -594h17q-13 43 -19.5 84t-6.5 100v410h171v-700h-277l-374 594h-17q13 -43 19.5 -84t6.5 -100v-410h-171zM281 765q-22 53 -22 90q0 50 29.5 79t81.5 29q41 0 73 -14t73 -40q27 -17 42 -24.5t29 -7.5q31 0 31 32q0 24 -16 54h121q22 -55 22 -90
q0 -50 -29 -79t-81 -29q-41 0 -73 13.5t-75 40.5q-25 16 -40.5 24t-29.5 8q-15 0 -23 -8.5t-8 -24.5q0 -23 16 -53h-121z" />
    <glyph glyph-name="Ograve" unicode="&#xd2;" horiz-adv-x="1030" 
d="M261.5 34.5q-104.5 47.5 -158 129.5t-53.5 186t53.5 186t158 129.5t253.5 47.5t253.5 -47.5t158 -129.5t53.5 -186t-53.5 -186t-158 -129.5t-253.5 -47.5t-253.5 47.5zM672.5 160.5q64.5 28.5 97 78t32.5 111.5t-32.5 111.5t-97 78t-157.5 28.5t-157.5 -28.5t-97 -78
t-32.5 -111.5t32.5 -111.5t97 -78t157.5 -28.5t157.5 28.5zM623 767h-154l-167 181h207z" />
    <glyph glyph-name="Oacute" unicode="&#xd3;" horiz-adv-x="1030" 
d="M261.5 34.5q-104.5 47.5 -158 129.5t-53.5 186t53.5 186t158 129.5t253.5 47.5t253.5 -47.5t158 -129.5t53.5 -186t-53.5 -186t-158 -129.5t-253.5 -47.5t-253.5 47.5zM672.5 160.5q64.5 28.5 97 78t32.5 111.5t-32.5 111.5t-97 78t-157.5 28.5t-157.5 -28.5t-97 -78
t-32.5 -111.5t32.5 -111.5t97 -78t157.5 -28.5t157.5 28.5zM562 767h-155l115 181h206z" />
    <glyph glyph-name="Ocircumflex" unicode="&#xd4;" horiz-adv-x="1030" 
d="M261.5 34.5q-104.5 47.5 -158 129.5t-53.5 186t53.5 186t158 129.5t253.5 47.5t253.5 -47.5t158 -129.5t53.5 -186t-53.5 -186t-158 -129.5t-253.5 -47.5t-253.5 47.5zM672.5 160.5q64.5 28.5 97 78t32.5 111.5t-32.5 111.5t-97 78t-157.5 28.5t-157.5 -28.5t-97 -78
t-32.5 -111.5t32.5 -111.5t97 -78t157.5 -28.5t157.5 28.5zM588 948l192 -181h-170l-95 98l-96 -98h-170l192 181h147z" />
    <glyph glyph-name="Otilde" unicode="&#xd5;" horiz-adv-x="1030" 
d="M261.5 34.5q-104.5 47.5 -158 129.5t-53.5 186t53.5 186t158 129.5t253.5 47.5t253.5 -47.5t158 -129.5t53.5 -186t-53.5 -186t-158 -129.5t-253.5 -47.5t-253.5 47.5zM672.5 160.5q64.5 28.5 97 78t32.5 111.5t-32.5 111.5t-97 78t-157.5 28.5t-157.5 -28.5t-97 -78
t-32.5 -111.5t32.5 -111.5t97 -78t157.5 -28.5t157.5 28.5zM294 765q-22 53 -22 90q0 50 29.5 79t81.5 29q41 0 73 -14t73 -40q27 -17 42 -24.5t29 -7.5q31 0 31 32q0 24 -16 54h121q22 -55 22 -90q0 -50 -29 -79t-81 -29q-41 0 -73 13.5t-75 40.5q-25 16 -40.5 24t-29.5 8
q-15 0 -23 -8.5t-8 -24.5q0 -23 16 -53h-121z" />
    <glyph glyph-name="Odieresis" unicode="&#xd6;" horiz-adv-x="1030" 
d="M261.5 34.5q-104.5 47.5 -158 129.5t-53.5 186t53.5 186t158 129.5t253.5 47.5t253.5 -47.5t158 -129.5t53.5 -186t-53.5 -186t-158 -129.5t-253.5 -47.5t-253.5 47.5zM672.5 160.5q64.5 28.5 97 78t32.5 111.5t-32.5 111.5t-97 78t-157.5 28.5t-157.5 -28.5t-97 -78
t-32.5 -111.5t32.5 -111.5t97 -78t157.5 -28.5t157.5 28.5zM297 798.5q-25 21.5 -25 56.5q0 34 25 56t69 22t69 -22t25 -56q0 -35 -25 -56.5t-69 -21.5t-69 21.5zM594 798.5q-25 21.5 -25 56.5q0 34 25 56t69 22t69 -22t25 -56q0 -35 -24.5 -56.5t-69.5 -21.5
q-44 0 -69 21.5z" />
    <glyph glyph-name="multiply" unicode="&#xd7;" horiz-adv-x="549" 
d="M418 577l83 -84l-143 -143l143 -144l-83 -83l-144 143l-143 -143l-84 83l144 144l-144 143l84 84l143 -144z" />
    <glyph glyph-name="Oslash" unicode="&#xd8;" horiz-adv-x="1030" 
d="M980 622l-74 -58q74 -91 74 -214q0 -104 -53.5 -186t-158 -129.5t-253.5 -47.5q-174 0 -290 66l-84 -66l-91 91l74 58q-74 91 -74 214q0 104 53.5 186t158 129.5t253.5 47.5q175 0 291 -66l83 66zM354 544.5q-66 -29.5 -99.5 -80t-33.5 -114.5q0 -69 39 -122l421 314
q-70 32 -166 32q-95 0 -161 -29.5zM676 155.5q66 29.5 99.5 80t33.5 114.5q0 69 -38 122l-422 -314q67 -32 166 -32q95 0 161 29.5z" />
    <glyph glyph-name="Ugrave" unicode="&#xd9;" horiz-adv-x="937" 
d="M171 77.5q-101 90.5 -101 253.5v369h178v-356q0 -97 55.5 -149.5t165.5 -52.5q109 0 165 52.5t56 149.5v356h178v-369q0 -162 -101.5 -253t-297.5 -91q-197 0 -298 90.5zM577 767h-154l-167 181h207z" />
    <glyph glyph-name="Uacute" unicode="&#xda;" horiz-adv-x="937" 
d="M171 77.5q-101 90.5 -101 253.5v369h178v-356q0 -97 55.5 -149.5t165.5 -52.5q109 0 165 52.5t56 149.5v356h178v-369q0 -162 -101.5 -253t-297.5 -91q-197 0 -298 90.5zM516 767h-155l115 181h206z" />
    <glyph glyph-name="Ucircumflex" unicode="&#xdb;" horiz-adv-x="937" 
d="M171 77.5q-101 90.5 -101 253.5v369h178v-356q0 -97 55.5 -149.5t165.5 -52.5q109 0 165 52.5t56 149.5v356h178v-369q0 -162 -101.5 -253t-297.5 -91q-197 0 -298 90.5zM542 948l192 -181h-170l-95 98l-96 -98h-170l192 181h147z" />
    <glyph glyph-name="Udieresis" unicode="&#xdc;" horiz-adv-x="937" 
d="M171 77.5q-101 90.5 -101 253.5v369h178v-356q0 -97 55.5 -149.5t165.5 -52.5q109 0 165 52.5t56 149.5v356h178v-369q0 -162 -101.5 -253t-297.5 -91q-197 0 -298 90.5zM251 798.5q-25 21.5 -25 56.5q0 34 25 56t69 22t69 -22t25 -56q0 -35 -25 -56.5t-69 -21.5
t-69 21.5zM548 798.5q-25 21.5 -25 56.5q0 34 25 56t69 22t69 -22t25 -56q0 -35 -24.5 -56.5t-69.5 -21.5q-44 0 -69 21.5z" />
    <glyph glyph-name="Yacute" unicode="&#xdd;" horiz-adv-x="839" 
d="M330 0v221l-323 479h204l159 -242q41 -67 41 -118v-14h17v14q0 53 41 118l159 242h203l-323 -479v-221h-178zM466 767h-155l115 181h206z" />
    <glyph glyph-name="Thorn" unicode="&#xde;" horiz-adv-x="883" 
d="M550 592q144 0 218.5 -63.5t74.5 -173.5t-74.5 -173.5t-218.5 -63.5h-292v-118h-178v700h178v-108h292zM542 260q62 0 92.5 25.5t30.5 69.5t-30.5 69.5t-92.5 25.5h-293v-190h293z" />
    <glyph glyph-name="germandbls" unicode="&#xdf;" horiz-adv-x="802" 
d="M567 365q102 -1 156 -47t54 -124q0 -88 -65.5 -141t-195.5 -53h-204v124h182q63 0 93 24t30 66q0 41 -30 65t-93 24h-152v111h79q166 0 166 87q0 41 -39.5 64.5t-134.5 23.5q-99 0 -143.5 -35.5t-44.5 -104.5v-449h-158v443q0 130 84.5 200t261.5 70q176 0 255 -50
t79 -132q0 -66 -47.5 -106.5t-132.5 -42.5v-17z" />
    <glyph glyph-name="agrave" unicode="&#xe0;" horiz-adv-x="771" 
d="M106.5 28.5q-56.5 41.5 -56.5 112.5q0 70 56.5 111t177.5 41q87 0 144 -15.5t113 -45.5v37q0 60 -45 96t-133 36q-77 0 -118.5 -24t-52.5 -60h-157q11 90 92.5 147t237.5 57q163 0 246.5 -69.5t83.5 -188.5v-108q0 -20 9 -29t27 -9q15 0 28 4v-123q-36 -11 -70 -11
q-60 0 -92 27.5t-32 71.5v4h-17v-3q0 -25 -29 -47.5t-88.5 -37.5t-146.5 -15q-121 0 -177.5 41.5zM541 135v28q-48 19 -93.5 29t-104.5 10q-76 0 -104.5 -14t-28.5 -40t28 -40t105 -14q109 0 198 41zM474 577h-139l-138 171h182z" />
    <glyph glyph-name="aacute" unicode="&#xe1;" horiz-adv-x="771" 
d="M106.5 28.5q-56.5 41.5 -56.5 112.5q0 70 56.5 111t177.5 41q87 0 144 -15.5t113 -45.5v37q0 60 -45 96t-133 36q-77 0 -118.5 -24t-52.5 -60h-157q11 90 92.5 147t237.5 57q163 0 246.5 -69.5t83.5 -188.5v-108q0 -20 9 -29t27 -9q15 0 28 4v-123q-36 -11 -70 -11
q-60 0 -92 27.5t-32 71.5v4h-17v-3q0 -25 -29 -47.5t-88.5 -37.5t-146.5 -15q-121 0 -177.5 41.5zM541 135v28q-48 19 -93.5 29t-104.5 10q-76 0 -104.5 -14t-28.5 -40t28 -40t105 -14q109 0 198 41zM422 577h-140l95 171h182z" />
    <glyph glyph-name="acircumflex" unicode="&#xe2;" horiz-adv-x="771" 
d="M106.5 28.5q-56.5 41.5 -56.5 112.5q0 70 56.5 111t177.5 41q87 0 144 -15.5t113 -45.5v37q0 60 -45 96t-133 36q-77 0 -118.5 -24t-52.5 -60h-157q11 90 92.5 147t237.5 57q163 0 246.5 -69.5t83.5 -188.5v-108q0 -20 9 -29t27 -9q15 0 28 4v-123q-36 -11 -70 -11
q-60 0 -92 27.5t-32 71.5v4h-17v-3q0 -25 -29 -47.5t-88.5 -37.5t-146.5 -15q-121 0 -177.5 41.5zM541 135v28q-48 19 -93.5 29t-104.5 10q-76 0 -104.5 -14t-28.5 -40t28 -40t105 -14q109 0 198 41zM440 748l174 -171h-151l-84 87l-85 -87h-151l174 171h123z" />
    <glyph glyph-name="atilde" unicode="&#xe3;" horiz-adv-x="771" 
d="M106.5 28.5q-56.5 41.5 -56.5 112.5q0 70 56.5 111t177.5 41q87 0 144 -15.5t113 -45.5v37q0 60 -45 96t-133 36q-77 0 -118.5 -24t-52.5 -60h-157q11 90 92.5 147t237.5 57q163 0 246.5 -69.5t83.5 -188.5v-108q0 -20 9 -29t27 -9q15 0 28 4v-123q-36 -11 -70 -11
q-60 0 -92 27.5t-32 71.5v4h-17v-3q0 -25 -29 -47.5t-88.5 -37.5t-146.5 -15q-121 0 -177.5 41.5zM541 135v28q-48 19 -93.5 29t-104.5 10q-76 0 -104.5 -14t-28.5 -40t28 -40t105 -14q109 0 198 41zM173 572q-22 42 -22 82q0 48 28.5 76t77.5 28q34 0 62 -13t65 -37
q27 -18 42.5 -26t30.5 -8t24 9t9 24q0 23 -16 51h110q23 -43 23 -82q0 -48 -28.5 -76t-77.5 -28q-35 0 -64 13.5t-63 37.5q-29 18 -43.5 25.5t-29.5 7.5q-16 0 -24.5 -9t-8.5 -24q0 -23 16 -51h-111z" />
    <glyph glyph-name="adieresis" unicode="&#xe4;" horiz-adv-x="771" 
d="M106.5 28.5q-56.5 41.5 -56.5 112.5q0 70 56.5 111t177.5 41q87 0 144 -15.5t113 -45.5v37q0 60 -45 96t-133 36q-77 0 -118.5 -24t-52.5 -60h-157q11 90 92.5 147t237.5 57q163 0 246.5 -69.5t83.5 -188.5v-108q0 -20 9 -29t27 -9q15 0 28 4v-123q-36 -11 -70 -11
q-60 0 -92 27.5t-32 71.5v4h-17v-3q0 -25 -29 -47.5t-88.5 -37.5t-146.5 -15q-121 0 -177.5 41.5zM541 135v28q-48 19 -93.5 29t-104.5 10q-76 0 -104.5 -14t-28.5 -40t28 -40t105 -14q109 0 198 41zM194 616.5q-22 19.5 -22 49.5t22 50t59 20t59 -20t22 -50t-22 -49.5
t-59 -19.5t-59 19.5zM445 616.5q-22 19.5 -22 49.5t22 50t59 20t59 -20t22 -50t-22 -49.5t-59 -19.5t-59 19.5z" />
    <glyph glyph-name="aring" unicode="&#xe5;" horiz-adv-x="771" 
d="M106.5 28.5q-56.5 41.5 -56.5 112.5q0 70 56.5 111t177.5 41q87 0 144 -15.5t113 -45.5v37q0 60 -45 96t-133 36q-77 0 -118.5 -24t-52.5 -60h-157q11 90 92.5 147t237.5 57q163 0 246.5 -69.5t83.5 -188.5v-108q0 -20 9 -29t27 -9q15 0 28 4v-123q-36 -11 -70 -11
q-60 0 -92 27.5t-32 71.5v4h-17v-3q0 -25 -29 -47.5t-88.5 -37.5t-146.5 -15q-121 0 -177.5 41.5zM541 135v28q-48 19 -93.5 29t-104.5 10q-76 0 -104.5 -14t-28.5 -40t28 -40t105 -14q109 0 198 41zM264.5 595q-41.5 35 -41.5 89t41.5 89t114.5 35t114 -35t41 -89t-41 -89
t-114 -35t-114.5 35zM428 652q17 13 17 32t-17 32t-49 13q-33 0 -50 -13t-17 -32t17 -32t50 -13q32 0 49 13z" />
    <glyph glyph-name="ae" unicode="&#xe6;" horiz-adv-x="1237" 
d="M1194 210h-521q14 -51 61.5 -81t124.5 -30q125 0 174 69h152q-14 -43 -52 -84t-105 -69t-161 -28q-88 0 -153.5 26.5t-105.5 75.5q-50 -51 -125 -76.5t-189 -25.5q-128 0 -186 41.5t-58 112.5q0 69 55.5 110.5t171.5 41.5q90 0 144 -15t110 -46v37q0 61 -44.5 98
t-128.5 37q-74 0 -114.5 -24.5t-51.5 -62.5h-157q7 57 43.5 103t105 73.5t166.5 27.5q166 0 250 -109q83 109 265 109q103 0 178 -35.5t114.5 -97t39.5 -136.5q0 -18 -3 -42zM733.5 378q-47.5 -31 -60.5 -84h373q-12 53 -60 84t-127 31q-78 0 -125.5 -31zM531 167
q-46 18 -91.5 27.5t-101.5 9.5q-72 0 -100 -14.5t-28 -40.5t28 -40.5t100 -14.5q60 0 109 12.5t84 35.5v25z" />
    <glyph glyph-name="ccedilla" unicode="&#xe7;" horiz-adv-x="759" 
d="M513.5 141q47.5 30 57.5 74h158q-8 -63 -48 -113t-109 -80t-161 -34l-32 -38q186 0 186 -96q0 -46 -41 -72.5t-134 -26.5q-85 0 -148 29v84q64 -27 142 -27q43 0 58.5 6.5t15.5 18.5t-16.5 18.5t-64.5 6.5h-83v58l35 41q-92 9 -157 46t-98.5 93.5t-33.5 124.5
q0 75 40 135.5t118 96t187 35.5q99 0 174 -29.5t118.5 -81.5t51.5 -118h-158q-10 44 -57.5 74t-128.5 30q-59 0 -101.5 -19t-64.5 -51.5t-22 -71.5t22 -71.5t64.5 -52t101.5 -19.5q81 0 128.5 30z" />
    <glyph glyph-name="egrave" unicode="&#xe8;" horiz-adv-x="777" 
d="M734 208h-542q16 -50 66 -78.5t132 -28.5q78 0 119 18.5t65 45.5h152q-15 -42 -54 -82.5t-110.5 -68t-174.5 -27.5q-110 0 -188.5 35.5t-118.5 96t-40 135.5t40.5 135.5t119 96t189.5 35.5q110 0 189 -35.5t119 -96.5t40 -137q0 -21 -3 -44zM256 377q-50 -29 -65 -80h395
q-15 51 -64.5 80t-132.5 29t-133 -29zM484 577h-139l-138 171h182z" />
    <glyph glyph-name="eacute" unicode="&#xe9;" horiz-adv-x="777" 
d="M734 208h-542q16 -50 66 -78.5t132 -28.5q78 0 119 18.5t65 45.5h152q-15 -42 -54 -82.5t-110.5 -68t-174.5 -27.5q-110 0 -188.5 35.5t-118.5 96t-40 135.5t40.5 135.5t119 96t189.5 35.5q110 0 189 -35.5t119 -96.5t40 -137q0 -21 -3 -44zM256 377q-50 -29 -65 -80h395
q-15 51 -64.5 80t-132.5 29t-133 -29zM432 577h-140l95 171h182z" />
    <glyph glyph-name="ecircumflex" unicode="&#xea;" horiz-adv-x="777" 
d="M734 208h-542q16 -50 66 -78.5t132 -28.5q78 0 119 18.5t65 45.5h152q-15 -42 -54 -82.5t-110.5 -68t-174.5 -27.5q-110 0 -188.5 35.5t-118.5 96t-40 135.5t40.5 135.5t119 96t189.5 35.5q110 0 189 -35.5t119 -96.5t40 -137q0 -21 -3 -44zM256 377q-50 -29 -65 -80h395
q-15 51 -64.5 80t-132.5 29t-133 -29zM450 748l174 -171h-151l-84 87l-85 -87h-151l174 171h123z" />
    <glyph glyph-name="edieresis" unicode="&#xeb;" horiz-adv-x="777" 
d="M734 208h-542q16 -50 66 -78.5t132 -28.5q78 0 119 18.5t65 45.5h152q-15 -42 -54 -82.5t-110.5 -68t-174.5 -27.5q-110 0 -188.5 35.5t-118.5 96t-40 135.5t40.5 135.5t119 96t189.5 35.5q110 0 189 -35.5t119 -96.5t40 -137q0 -21 -3 -44zM256 377q-50 -29 -65 -80h395
q-15 51 -64.5 80t-132.5 29t-133 -29zM204 616.5q-22 19.5 -22 49.5t22 50t59 20t59 -20t22 -50t-22 -49.5t-59 -19.5t-59 19.5zM455 616.5q-22 19.5 -22 49.5t22 50t59 20t59 -20t22 -50t-22 -49.5t-59 -19.5t-59 19.5z" />
    <glyph glyph-name="igrave" unicode="&#xec;" horiz-adv-x="543" 
d="M367 130h158v-130h-493v130h184v193q0 33 -13.5 46.5t-46.5 13.5q-29 0 -59 -11v130q47 19 111 19q87 0 123 -33t36 -107v-251zM366 577h-139l-138 171h182z" />
    <glyph glyph-name="iacute" unicode="&#xed;" horiz-adv-x="543" 
d="M367 130h158v-130h-493v130h184v193q0 33 -13.5 46.5t-46.5 13.5q-29 0 -59 -11v130q47 19 111 19q87 0 123 -33t36 -107v-251zM314 577h-140l95 171h182z" />
    <glyph glyph-name="icircumflex" unicode="&#xee;" horiz-adv-x="543" 
d="M367 130h158v-130h-493v130h184v193q0 33 -13.5 46.5t-46.5 13.5q-29 0 -59 -11v130q47 19 111 19q87 0 123 -33t36 -107v-251zM331 748l174 -171h-151l-84 87l-85 -87h-151l174 171h123z" />
    <glyph glyph-name="idieresis" unicode="&#xef;" horiz-adv-x="543" 
d="M367 130h158v-130h-493v130h184v193q0 33 -13.5 46.5t-46.5 13.5q-29 0 -59 -11v130q47 19 111 19q87 0 123 -33t36 -107v-251zM85 616.5q-22 19.5 -22 49.5t22 50t59 20t59 -20t22 -50t-22 -49.5t-59 -19.5t-59 19.5zM336 616.5q-22 19.5 -22 49.5t22 50t59 20t59 -20
t22 -50t-22 -49.5t-59 -19.5t-59 19.5z" />
    <glyph glyph-name="eth" unicode="&#xf0;" horiz-adv-x="777" 
d="M571 619q78 -58 119.5 -137t41.5 -165q0 -158 -90.5 -244t-262.5 -86q-114 0 -190 31t-112.5 84.5t-36.5 122.5q0 100 74 161.5t216 61.5q119 0 178.5 -32.5t82.5 -94.5h14v17q0 54 -31 107t-91 92l-74 -65l-55 47l62 53q-85 36 -196 39l14 112q155 -4 273 -65l75 65
l55 -47zM522 141.5q46 32.5 46 82.5t-46 82t-139 32q-94 0 -140 -32t-46 -82t46 -82.5t140 -32.5q93 0 139 32.5z" />
    <glyph glyph-name="ntilde" unicode="&#xf1;" horiz-adv-x="801" 
d="M67 0v508h158l-24 -153h17q22 80 83.5 123t159.5 43q129 0 203 -75t74 -207v-239h-157v203q0 89 -47 137t-131 48t-131 -48t-47 -137v-203h-158zM197 572q-22 42 -22 82q0 48 28.5 76t77.5 28q34 0 62 -13t65 -37q27 -18 42.5 -26t30.5 -8t24 9t9 24q0 23 -16 51h110
q23 -43 23 -82q0 -48 -28.5 -76t-77.5 -28q-35 0 -64 13.5t-63 37.5q-29 18 -43.5 25.5t-29.5 7.5q-16 0 -24.5 -9t-8.5 -24q0 -23 16 -51h-111z" />
    <glyph glyph-name="ograve" unicode="&#xf2;" horiz-adv-x="789" 
d="M201 22.5q-80 35.5 -120.5 96t-40.5 135.5t40.5 135.5t120.5 96t194 35.5q113 0 193 -35.5t120.5 -96t40.5 -135.5t-40.5 -135.5t-120.5 -96t-193 -35.5q-114 0 -194 35.5zM541 151.5q51 40.5 51 102.5q0 61 -51 101.5t-146 40.5t-146.5 -40.5t-51.5 -101.5
q0 -62 51.5 -102.5t146.5 -40.5t146 40.5zM490 577h-139l-138 171h182z" />
    <glyph glyph-name="oacute" unicode="&#xf3;" horiz-adv-x="789" 
d="M201 22.5q-80 35.5 -120.5 96t-40.5 135.5t40.5 135.5t120.5 96t194 35.5q113 0 193 -35.5t120.5 -96t40.5 -135.5t-40.5 -135.5t-120.5 -96t-193 -35.5q-114 0 -194 35.5zM541 151.5q51 40.5 51 102.5q0 61 -51 101.5t-146 40.5t-146.5 -40.5t-51.5 -101.5
q0 -62 51.5 -102.5t146.5 -40.5t146 40.5zM438 577h-140l95 171h182z" />
    <glyph glyph-name="ocircumflex" unicode="&#xf4;" horiz-adv-x="789" 
d="M201 22.5q-80 35.5 -120.5 96t-40.5 135.5t40.5 135.5t120.5 96t194 35.5q113 0 193 -35.5t120.5 -96t40.5 -135.5t-40.5 -135.5t-120.5 -96t-193 -35.5q-114 0 -194 35.5zM541 151.5q51 40.5 51 102.5q0 61 -51 101.5t-146 40.5t-146.5 -40.5t-51.5 -101.5
q0 -62 51.5 -102.5t146.5 -40.5t146 40.5zM456 748l174 -171h-151l-84 87l-85 -87h-151l174 171h123z" />
    <glyph glyph-name="otilde" unicode="&#xf5;" horiz-adv-x="789" 
d="M201 22.5q-80 35.5 -120.5 96t-40.5 135.5t40.5 135.5t120.5 96t194 35.5q113 0 193 -35.5t120.5 -96t40.5 -135.5t-40.5 -135.5t-120.5 -96t-193 -35.5q-114 0 -194 35.5zM541 151.5q51 40.5 51 102.5q0 61 -51 101.5t-146 40.5t-146.5 -40.5t-51.5 -101.5
q0 -62 51.5 -102.5t146.5 -40.5t146 40.5zM189 572q-22 42 -22 82q0 48 28.5 76t77.5 28q34 0 62 -13t65 -37q27 -18 42.5 -26t30.5 -8t24 9t9 24q0 23 -16 51h110q23 -43 23 -82q0 -48 -28.5 -76t-77.5 -28q-35 0 -64 13.5t-63 37.5q-29 18 -43.5 25.5t-29.5 7.5
q-16 0 -24.5 -9t-8.5 -24q0 -23 16 -51h-111z" />
    <glyph glyph-name="odieresis" unicode="&#xf6;" horiz-adv-x="789" 
d="M201 22.5q-80 35.5 -120.5 96t-40.5 135.5t40.5 135.5t120.5 96t194 35.5q113 0 193 -35.5t120.5 -96t40.5 -135.5t-40.5 -135.5t-120.5 -96t-193 -35.5q-114 0 -194 35.5zM541 151.5q51 40.5 51 102.5q0 61 -51 101.5t-146 40.5t-146.5 -40.5t-51.5 -101.5
q0 -62 51.5 -102.5t146.5 -40.5t146 40.5zM210 616.5q-22 19.5 -22 49.5t22 50t59 20t59 -20t22 -50t-22 -49.5t-59 -19.5t-59 19.5zM461 616.5q-22 19.5 -22 49.5t22 50t59 20t59 -20t22 -50t-22 -49.5t-59 -19.5t-59 19.5z" />
    <glyph glyph-name="divide" unicode="&#xf7;" horiz-adv-x="610" 
d="M241.5 483q-23.5 21 -23.5 53t23.5 53.5t63.5 21.5t63.5 -21.5t23.5 -53.5t-23.5 -53t-63.5 -21t-63.5 21zM553 298h-496v104h496v-104zM241.5 110q-23.5 21 -23.5 53t23.5 53.5t63.5 21.5t63.5 -21.5t23.5 -53.5t-23.5 -53t-63.5 -21t-63.5 21z" />
    <glyph glyph-name="oslash" unicode="&#xf8;" horiz-adv-x="789" 
d="M750 445l-54 -38q53 -67 53 -153q0 -75 -40.5 -135.5t-120.5 -96t-193 -35.5q-127 0 -216 46l-64 -46l-75 75l54 39q-54 65 -54 153q0 75 40.5 135.5t120.5 96t194 35.5q128 0 215 -46l64 46zM244 361q-53 -42 -53 -107q0 -45 25 -79l287 210q-47 18 -108 18
q-98 0 -151 -42zM546 147q53 42 53 107q0 46 -25 78l-288 -209q47 -18 109 -18q98 0 151 42z" />
    <glyph glyph-name="ugrave" unicode="&#xf9;" horiz-adv-x="786" 
d="M134 60.5q-72 73.5 -72 202.5v245h158v-209q0 -86 45 -133t125 -47q81 0 126 47t45 133v209h157v-508h-157l23 152h-16q-22 -80 -82 -122.5t-155 -42.5q-125 0 -197 73.5zM486 577h-139l-138 171h182z" />
    <glyph glyph-name="uacute" unicode="&#xfa;" horiz-adv-x="786" 
d="M134 60.5q-72 73.5 -72 202.5v245h158v-209q0 -86 45 -133t125 -47q81 0 126 47t45 133v209h157v-508h-157l23 152h-16q-22 -80 -82 -122.5t-155 -42.5q-125 0 -197 73.5zM434 577h-140l95 171h182z" />
    <glyph glyph-name="ucircumflex" unicode="&#xfb;" horiz-adv-x="786" 
d="M134 60.5q-72 73.5 -72 202.5v245h158v-209q0 -86 45 -133t125 -47q81 0 126 47t45 133v209h157v-508h-157l23 152h-16q-22 -80 -82 -122.5t-155 -42.5q-125 0 -197 73.5zM452 748l174 -171h-151l-84 87l-85 -87h-151l174 171h123z" />
    <glyph glyph-name="udieresis" unicode="&#xfc;" horiz-adv-x="786" 
d="M134 60.5q-72 73.5 -72 202.5v245h158v-209q0 -86 45 -133t125 -47q81 0 126 47t45 133v209h157v-508h-157l23 152h-16q-22 -80 -82 -122.5t-155 -42.5q-125 0 -197 73.5zM206 616.5q-22 19.5 -22 49.5t22 50t59 20t59 -20t22 -50t-22 -49.5t-59 -19.5t-59 19.5z
M457 616.5q-22 19.5 -22 49.5t22 50t59 20t59 -20t22 -50t-22 -49.5t-59 -19.5t-59 19.5z" />
    <glyph glyph-name="yacute" unicode="&#xfd;" horiz-adv-x="708" 
d="M517 508h183l-259 -513q-55 -112 -123 -159.5t-167 -47.5q-31 0 -54.5 4t-49.5 14v130q41 -16 84 -16q51 0 83 17t55 58l-262 513h183l130 -293q25 -66 25 -107v-3h17v3q0 44 24 107zM397 577h-140l95 171h182z" />
    <glyph glyph-name="thorn" unicode="&#xfe;" horiz-adv-x="808" 
d="M72 -192v892h158v-147q0 -46 -6 -88.5t-18 -94.5h17q24 72 88 111.5t168 39.5q86 0 150 -34t99 -94.5t35 -138.5q0 -79 -35 -139.5t-99 -94t-150 -33.5q-104 0 -168 39.5t-88 110.5h-17q12 -52 18 -94.5t6 -88.5v-146h-158zM557 151.5q49 40.5 49 102.5t-49 102t-138 40
q-90 0 -138.5 -40t-48.5 -102t49 -102.5t138 -40.5t138 40.5z" />
    <glyph glyph-name="ydieresis" unicode="&#xff;" horiz-adv-x="708" 
d="M517 508h183l-259 -513q-55 -112 -123 -159.5t-167 -47.5q-31 0 -54.5 4t-49.5 14v130q41 -16 84 -16q51 0 83 17t55 58l-262 513h183l130 -293q25 -66 25 -107v-3h17v3q0 44 24 107zM169 616.5q-22 19.5 -22 49.5t22 50t59 20t59 -20t22 -50t-22 -49.5t-59 -19.5
t-59 19.5zM420 616.5q-22 19.5 -22 49.5t22 50t59 20t59 -20t22 -50t-22 -49.5t-59 -19.5t-59 19.5z" />
    <glyph glyph-name="Amacron" unicode="&#x100;" 
d="M887 0h-188l-52 115h-394l-52 -115h-189l333 700h209zM316 253h268l-88 194q-21 50 -29.5 82.5t-8.5 61.5v3h-16v-3q0 -29 -8.5 -61.5t-29.5 -82.5zM677 801h-454v123h454v-123z" />
    <glyph glyph-name="amacron" unicode="&#x101;" horiz-adv-x="771" 
d="M106.5 28.5q-56.5 41.5 -56.5 112.5q0 70 56.5 111t177.5 41q87 0 144 -15.5t113 -45.5v37q0 60 -45 96t-133 36q-77 0 -118.5 -24t-52.5 -60h-157q11 90 92.5 147t237.5 57q163 0 246.5 -69.5t83.5 -188.5v-108q0 -20 9 -29t27 -9q15 0 28 4v-123q-36 -11 -70 -11
q-60 0 -92 27.5t-32 71.5v4h-17v-3q0 -25 -29 -47.5t-88.5 -37.5t-146.5 -15q-121 0 -177.5 41.5zM541 135v28q-48 19 -93.5 29t-104.5 10q-76 0 -104.5 -14t-28.5 -40t28 -40t105 -14q109 0 198 41zM593 615h-428v112h428v-112z" />
    <glyph glyph-name="Abreve" unicode="&#x102;" 
d="M887 0h-188l-52 115h-394l-52 -115h-189l333 700h209zM316 253h268l-88 194q-21 50 -29.5 82.5t-8.5 61.5v3h-16v-3q0 -29 -8.5 -61.5t-29.5 -82.5zM254.5 812.5q-66.5 50.5 -75.5 140.5h144q5 -35 36 -55.5t90 -20.5q61 0 91.5 20.5t36.5 55.5h143q-9 -90 -75.5 -140.5
t-195.5 -50.5q-128 0 -194.5 50.5z" />
    <glyph glyph-name="abreve" unicode="&#x103;" horiz-adv-x="771" 
d="M106.5 28.5q-56.5 41.5 -56.5 112.5q0 70 56.5 111t177.5 41q87 0 144 -15.5t113 -45.5v37q0 60 -45 96t-133 36q-77 0 -118.5 -24t-52.5 -60h-157q11 90 92.5 147t237.5 57q163 0 246.5 -69.5t83.5 -188.5v-108q0 -20 9 -29t27 -9q15 0 28 4v-123q-36 -11 -70 -11
q-60 0 -92 27.5t-32 71.5v4h-17v-3q0 -25 -29 -47.5t-88.5 -37.5t-146.5 -15q-121 0 -177.5 41.5zM541 135v28q-48 19 -93.5 29t-104.5 10q-76 0 -104.5 -14t-28.5 -40t28 -40t105 -14q109 0 198 41zM207.5 621.5q-61.5 49.5 -69.5 131.5h133q4 -36 31 -56.5t76 -20.5
q50 0 77 20.5t31 56.5h133q-8 -82 -69.5 -131.5t-171.5 -49.5q-109 0 -170.5 49.5z" />
    <glyph glyph-name="Aogonek" unicode="&#x104;" 
d="M780 -123q17 -13 52 -13q25 0 55 9v-102q-39 -16 -91 -16q-78 0 -117.5 32t-39.5 85q0 38 23 72.5t71 55.5h-34l-52 115h-394l-52 -115h-189l333 700h209l333 -700q-70 -19 -97 -40.5t-27 -47.5q0 -22 17 -35zM316 253h268l-88 194q-21 50 -29.5 82.5t-8.5 61.5v3h-16v-3
q0 -29 -8.5 -61.5t-29.5 -82.5z" />
    <glyph glyph-name="aogonek" unicode="&#x105;" horiz-adv-x="771" 
d="M759 121v-123q-22 -6 -34 -8q-50 -17 -70 -36.5t-20 -41.5t17 -35t52 -13q25 0 55 9v-102q-39 -16 -91 -16q-78 0 -117.5 32t-39.5 85q0 40 25 75t77 56q-24 13 -36 34.5t-12 48.5v4h-17v-3q0 -25 -29 -47.5t-88.5 -37.5t-146.5 -15q-121 0 -177.5 41.5t-56.5 112.5
q0 70 56.5 111t177.5 41q87 0 144 -15.5t113 -45.5v37q0 60 -45 96t-133 36q-77 0 -118.5 -24t-52.5 -60h-157q11 90 92.5 147t237.5 57q163 0 246.5 -69.5t83.5 -188.5v-108q0 -20 9 -29t27 -9q15 0 28 4zM541 163q-48 19 -93.5 29t-104.5 10q-76 0 -104.5 -14t-28.5 -40
t28 -40t105 -14q109 0 198 41v28z" />
    <glyph glyph-name="Cacute" unicode="&#x106;" horiz-adv-x="1007" 
d="M259 34q-103 47 -156 129.5t-53 186.5t53 186.5t156 129.5t249 47q137 0 235.5 -38.5t154 -104.5t69.5 -150h-178q-15 62 -85 105t-196 43q-89 0 -152.5 -28.5t-95.5 -78t-32 -111.5t32 -111.5t95.5 -78t152.5 -28.5q126 0 196 43t85 105h178q-14 -85 -69 -151
t-153.5 -104t-236.5 -38q-146 0 -249 47zM555 767h-155l115 181h206z" />
    <glyph glyph-name="cacute" unicode="&#x107;" horiz-adv-x="759" 
d="M198 22.5q-78 35.5 -118 96t-40 135.5t40 135.5t118 96t187 35.5q99 0 174 -29.5t118.5 -81.5t51.5 -118h-158q-10 44 -57.5 74t-128.5 30q-59 0 -101.5 -19t-64.5 -51.5t-22 -71.5t22 -71.5t64.5 -52t101.5 -19.5q81 0 128.5 30t57.5 74h158q-8 -66 -51.5 -118
t-118.5 -81t-174 -29q-109 0 -187 35.5zM428 577h-140l95 171h182z" />
    <glyph glyph-name="Ccircumflex" unicode="&#x108;" horiz-adv-x="1007" 
d="M259 34q-103 47 -156 129.5t-53 186.5t53 186.5t156 129.5t249 47q137 0 235.5 -38.5t154 -104.5t69.5 -150h-178q-15 62 -85 105t-196 43q-89 0 -152.5 -28.5t-95.5 -78t-32 -111.5t32 -111.5t95.5 -78t152.5 -28.5q126 0 196 43t85 105h178q-14 -85 -69 -151
t-153.5 -104t-236.5 -38q-146 0 -249 47zM582 948l192 -181h-170l-95 98l-96 -98h-170l192 181h147z" />
    <glyph glyph-name="ccircumflex" unicode="&#x109;" horiz-adv-x="759" 
d="M198 22.5q-78 35.5 -118 96t-40 135.5t40 135.5t118 96t187 35.5q99 0 174 -29.5t118.5 -81.5t51.5 -118h-158q-10 44 -57.5 74t-128.5 30q-59 0 -101.5 -19t-64.5 -51.5t-22 -71.5t22 -71.5t64.5 -52t101.5 -19.5q81 0 128.5 30t57.5 74h158q-8 -66 -51.5 -118
t-118.5 -81t-174 -29q-109 0 -187 35.5zM446 748l174 -171h-151l-84 87l-85 -87h-151l174 171h123z" />
    <glyph glyph-name="Cdotaccent" unicode="&#x10a;" horiz-adv-x="1007" 
d="M259 34q-103 47 -156 129.5t-53 186.5t53 186.5t156 129.5t249 47q137 0 235.5 -38.5t154 -104.5t69.5 -150h-178q-15 62 -85 105t-196 43q-89 0 -152.5 -28.5t-95.5 -78t-32 -111.5t32 -111.5t95.5 -78t152.5 -28.5q126 0 196 43t85 105h178q-14 -85 -69 -151
t-153.5 -104t-236.5 -38q-146 0 -249 47zM428.5 797.5q-29.5 25.5 -29.5 64.5q0 38 29.5 63.5t79.5 25.5q51 0 80.5 -25.5t29.5 -63.5q0 -39 -29.5 -64.5t-80.5 -25.5q-50 0 -79.5 25.5z" />
    <glyph glyph-name="cdotaccent" unicode="&#x10b;" horiz-adv-x="759" 
d="M198 22.5q-78 35.5 -118 96t-40 135.5t40 135.5t118 96t187 35.5q99 0 174 -29.5t118.5 -81.5t51.5 -118h-158q-10 44 -57.5 74t-128.5 30q-59 0 -101.5 -19t-64.5 -51.5t-22 -71.5t22 -71.5t64.5 -52t101.5 -19.5q81 0 128.5 30t57.5 74h158q-8 -66 -51.5 -118
t-118.5 -81t-174 -29q-109 0 -187 35.5zM317 608q-25 23 -25 58t25 58t68 23q42 0 67 -23t25 -58t-25 -58t-67 -23q-43 0 -68 23z" />
    <glyph glyph-name="Ccaron" unicode="&#x10c;" horiz-adv-x="1007" 
d="M259 34q-103 47 -156 129.5t-53 186.5t53 186.5t156 129.5t249 47q137 0 235.5 -38.5t154 -104.5t69.5 -150h-178q-15 62 -85 105t-196 43q-89 0 -152.5 -28.5t-95.5 -78t-32 -111.5t32 -111.5t95.5 -78t152.5 -28.5q126 0 196 43t85 105h178q-14 -85 -69 -151
t-153.5 -104t-236.5 -38q-146 0 -249 47zM509 850l95 98h170l-192 -181h-147l-192 181h170z" />
    <glyph glyph-name="ccaron" unicode="&#x10d;" horiz-adv-x="759" 
d="M198 22.5q-78 35.5 -118 96t-40 135.5t40 135.5t118 96t187 35.5q99 0 174 -29.5t118.5 -81.5t51.5 -118h-158q-10 44 -57.5 74t-128.5 30q-59 0 -101.5 -19t-64.5 -51.5t-22 -71.5t22 -71.5t64.5 -52t101.5 -19.5q81 0 128.5 30t57.5 74h158q-8 -66 -51.5 -118
t-118.5 -81t-174 -29q-109 0 -187 35.5zM385 661l84 87h151l-174 -171h-123l-174 171h151z" />
    <glyph glyph-name="Dcaron" unicode="&#x10e;" horiz-adv-x="913" 
d="M80 0v700h353q136 0 233 -45.5t147 -124.5t50 -180t-50 -180t-147 -124.5t-233 -45.5h-353zM433 145q80 0 137 26.5t86 73t29 105.5t-29 105.5t-86 73t-137 26.5h-175v-410h175zM455 850l95 98h170l-192 -181h-147l-192 181h170z" />
    <glyph glyph-name="dcaron" unicode="&#x10f;" horiz-adv-x="808" 
d="M178.5 20.5q-64.5 33.5 -99 94t-34.5 139.5q0 78 34.5 138.5t99 94.5t150.5 34q104 0 168 -39.5t88 -111.5h16q-11 54 -17 96t-6 87v147h157v-700h-157l23 137h-16q-24 -71 -88 -110.5t-168 -39.5q-86 0 -150.5 33.5zM527 151.5q49 40.5 49 102.5t-49 102t-138 40
q-90 0 -138.5 -40t-48.5 -102t49 -102.5t138 -40.5t138 40.5zM908 510h-112l20 190h139z" />
    <glyph glyph-name="Dcroat" unicode="&#x110;" horiz-adv-x="943" 
d="M463 700q136 0 233 -45.5t147 -124.5t50 -180t-50 -180t-147 -124.5t-233 -45.5h-353v290h-118v119h118v291h353zM463 145q80 0 137 26.5t86 73t29 105.5t-29 105.5t-86 73t-137 26.5h-175v-146h186v-119h-186v-145h175z" />
    <glyph glyph-name="dcroat" unicode="&#x111;" horiz-adv-x="830" 
d="M825 636v-100h-97v-536h-157l23 137h-17q-49 -150 -256 -150q-86 0 -150.5 32t-99 88t-34.5 126t34.5 126.5t99 88.5t150.5 32q207 0 256 -150h17q-23 103 -23 183v23h-258v100h258v64h157v-64h97zM521 141.5q47 35.5 47 91.5q0 57 -47 92.5t-139 35.5q-93 0 -140 -35.5
t-47 -92.5q0 -56 47 -91.5t140 -35.5q92 0 139 35.5z" />
    <glyph glyph-name="Emacron" unicode="&#x112;" horiz-adv-x="832" 
d="M775 700v-140h-517v-142h447v-125h-447v-153h517v-140h-695v700h695zM655 801h-454v123h454v-123z" />
    <glyph glyph-name="emacron" unicode="&#x113;" horiz-adv-x="777" 
d="M734 208h-542q16 -50 66 -78.5t132 -28.5q78 0 119 18.5t65 45.5h152q-15 -42 -54 -82.5t-110.5 -68t-174.5 -27.5q-110 0 -188.5 35.5t-118.5 96t-40 135.5t40.5 135.5t119 96t189.5 35.5q110 0 189 -35.5t119 -96.5t40 -137q0 -21 -3 -44zM256 377q-50 -29 -65 -80h395
q-15 51 -64.5 80t-132.5 29t-133 -29zM603 615h-428v112h428v-112z" />
    <glyph glyph-name="Ebreve" unicode="&#x114;" horiz-adv-x="832" 
d="M775 700v-140h-517v-142h447v-125h-447v-153h517v-140h-695v700h695zM232.5 812.5q-66.5 50.5 -75.5 140.5h144q5 -35 36 -55.5t90 -20.5q61 0 91.5 20.5t36.5 55.5h143q-9 -90 -75.5 -140.5t-195.5 -50.5q-128 0 -194.5 50.5z" />
    <glyph glyph-name="ebreve" unicode="&#x115;" horiz-adv-x="777" 
d="M734 208h-542q16 -50 66 -78.5t132 -28.5q78 0 119 18.5t65 45.5h152q-15 -42 -54 -82.5t-110.5 -68t-174.5 -27.5q-110 0 -188.5 35.5t-118.5 96t-40 135.5t40.5 135.5t119 96t189.5 35.5q110 0 189 -35.5t119 -96.5t40 -137q0 -21 -3 -44zM256 377q-50 -29 -65 -80h395
q-15 51 -64.5 80t-132.5 29t-133 -29zM217.5 621.5q-61.5 49.5 -69.5 131.5h133q4 -36 31 -56.5t76 -20.5q50 0 77 20.5t31 56.5h133q-8 -82 -69.5 -131.5t-171.5 -49.5q-109 0 -170.5 49.5z" />
    <glyph glyph-name="Edotaccent" unicode="&#x116;" horiz-adv-x="832" 
d="M775 700v-140h-517v-142h447v-125h-447v-153h517v-140h-695v700h695zM347.5 797.5q-29.5 25.5 -29.5 64.5q0 38 29.5 63.5t79.5 25.5q51 0 80.5 -25.5t29.5 -63.5q0 -39 -29.5 -64.5t-80.5 -25.5q-50 0 -79.5 25.5z" />
    <glyph glyph-name="edotaccent" unicode="&#x117;" horiz-adv-x="777" 
d="M734 208h-542q16 -50 66 -78.5t132 -28.5q78 0 119 18.5t65 45.5h152q-15 -42 -54 -82.5t-110.5 -68t-174.5 -27.5q-110 0 -188.5 35.5t-118.5 96t-40 135.5t40.5 135.5t119 96t189.5 35.5q110 0 189 -35.5t119 -96.5t40 -137q0 -21 -3 -44zM256 377q-50 -29 -65 -80h395
q-15 51 -64.5 80t-132.5 29t-133 -29zM321 608q-25 23 -25 58t25 58t68 23q42 0 67 -23t25 -58t-25 -58t-67 -23q-43 0 -68 23z" />
    <glyph glyph-name="Eogonek" unicode="&#x118;" horiz-adv-x="832" 
d="M775 560h-517v-142h447v-125h-447v-153h517v-140q-70 -19 -97 -40.5t-27 -47.5q0 -22 17 -35t52 -13q25 0 55 9v-102q-39 -16 -91 -16q-78 0 -117.5 32t-39.5 85q0 38 23 72.5t71 55.5h-541v700h695v-140z" />
    <glyph glyph-name="eogonek" unicode="&#x119;" horiz-adv-x="777" 
d="M734 208h-542q16 -50 66 -78.5t132 -28.5q78 0 119 18.5t65 45.5h152q-12 -32 -36 -61t-68 -61q-72 -50 -98.5 -77.5t-26.5 -53.5q0 -22 16.5 -35t51.5 -13q25 0 55 9v-102q-39 -16 -90 -16q-79 0 -118.5 32t-39.5 85q0 34 17.5 65t53.5 52q-34 -2 -56 -2
q-110 0 -188.5 35.5t-118.5 96t-40 135.5t40.5 135.5t119 96t189.5 35.5q110 0 189 -35.5t119 -96.5t40 -137q0 -21 -3 -44zM256 377q-50 -29 -65 -80h395q-15 51 -64.5 80t-132.5 29t-133 -29z" />
    <glyph glyph-name="Ecaron" unicode="&#x11a;" horiz-adv-x="832" 
d="M775 700v-140h-517v-142h447v-125h-447v-153h517v-140h-695v700h695zM428 850l95 98h170l-192 -181h-147l-192 181h170z" />
    <glyph glyph-name="ecaron" unicode="&#x11b;" horiz-adv-x="777" 
d="M734 208h-542q16 -50 66 -78.5t132 -28.5q78 0 119 18.5t65 45.5h152q-15 -42 -54 -82.5t-110.5 -68t-174.5 -27.5q-110 0 -188.5 35.5t-118.5 96t-40 135.5t40.5 135.5t119 96t189.5 35.5q110 0 189 -35.5t119 -96.5t40 -137q0 -21 -3 -44zM256 377q-50 -29 -65 -80h395
q-15 51 -64.5 80t-132.5 29t-133 -29zM389 661l84 87h151l-174 -171h-123l-174 171h151z" />
    <glyph glyph-name="Gcircumflex" unicode="&#x11c;" horiz-adv-x="1006" 
d="M438 250v112h504v-362h-156l31 157h-16q-35 -72 -115.5 -121t-212.5 -49q-129 0 -225 47.5t-147 130.5t-51 185q0 103 53 185.5t155 130t245 47.5q203 0 317 -81t142 -212h-178q-24 67 -94 108.5t-187 41.5q-88 0 -151 -28.5t-95 -78.5t-32 -113q0 -65 32 -116t95 -80
t153 -29q106 0 172.5 35t93.5 90h-333zM576 948l192 -181h-170l-95 98l-96 -98h-170l192 181h147z" />
    <glyph glyph-name="gcircumflex" unicode="&#x11d;" horiz-adv-x="768" 
d="M97.5 -177q-80.5 45 -80.5 125q0 101 130 127v14h-24q-33 0 -49.5 13.5t-16.5 36.5q0 24 16.5 37.5t49.5 13.5h32v14q-44 14 -71 49t-27 84q0 87 77 135.5t258 48.5h151q20 0 30 8t10 21q0 21 -24 45h145q15 -14 21 -26t6 -25q0 -24 -19.5 -38.5t-58.5 -14.5h-54v-14
q122 -36 122 -144q0 -79 -72.5 -123t-244.5 -44h-194q-15 0 -24 -8t-9 -20q0 -11 9 -18.5t24 -7.5h240q156 0 226 -45t70 -118q0 -81 -80.5 -126t-284.5 -45q-203 0 -283.5 45zM533.5 275.5q39.5 20.5 39.5 57.5t-39.5 57.5t-142.5 20.5q-104 0 -143.5 -20.5t-39.5 -57.5
t39.5 -57.5t143.5 -20.5q103 0 142.5 20.5zM514 -104.5q46 8.5 62 23t16 36.5t-16 36.5t-62 23t-133 8.5q-86 0 -132 -8.5t-62 -23.5t-16 -36q0 -22 16 -36.5t62 -23t132 -8.5q87 0 133 8.5zM444 748l158 -136h-146l-76 66l-76 -66h-146l158 136h128z" />
    <glyph glyph-name="Gbreve" unicode="&#x11e;" horiz-adv-x="1006" 
d="M438 250v112h504v-362h-156l31 157h-16q-35 -72 -115.5 -121t-212.5 -49q-129 0 -225 47.5t-147 130.5t-51 185q0 103 53 185.5t155 130t245 47.5q203 0 317 -81t142 -212h-178q-24 67 -94 108.5t-187 41.5q-88 0 -151 -28.5t-95 -78.5t-32 -113q0 -65 32 -116t95 -80
t153 -29q106 0 172.5 35t93.5 90h-333zM307.5 812.5q-66.5 50.5 -75.5 140.5h144q5 -35 36 -55.5t90 -20.5q61 0 91.5 20.5t36.5 55.5h143q-9 -90 -75.5 -140.5t-195.5 -50.5q-128 0 -194.5 50.5z" />
    <glyph glyph-name="gbreve" unicode="&#x11f;" horiz-adv-x="768" 
d="M97.5 -177q-80.5 45 -80.5 125q0 101 130 127v14h-24q-33 0 -49.5 13.5t-16.5 36.5q0 24 16.5 37.5t49.5 13.5h32v14q-44 14 -71 49t-27 84q0 87 77 135.5t258 48.5h151q20 0 30 8t10 21q0 21 -24 45h145q15 -14 21 -26t6 -25q0 -24 -19.5 -38.5t-58.5 -14.5h-54v-14
q122 -36 122 -144q0 -79 -72.5 -123t-244.5 -44h-194q-15 0 -24 -8t-9 -20q0 -11 9 -18.5t24 -7.5h240q156 0 226 -45t70 -118q0 -81 -80.5 -126t-284.5 -45q-203 0 -283.5 45zM533.5 275.5q39.5 20.5 39.5 57.5t-39.5 57.5t-142.5 20.5q-104 0 -143.5 -20.5t-39.5 -57.5
t39.5 -57.5t143.5 -20.5q103 0 142.5 20.5zM514 -104.5q46 8.5 62 23t16 36.5t-16 36.5t-62 23t-133 8.5q-86 0 -132 -8.5t-62 -23.5t-16 -36q0 -22 16 -36.5t62 -23t132 -8.5q87 0 133 8.5zM219.5 623.5q-57.5 48.5 -64.5 129.5h130q2 -37 26 -57t67 -20t66.5 20t25.5 57
h130q-7 -82 -64 -130t-158 -48t-158.5 48.5z" />
    <glyph glyph-name="Gdotaccent" unicode="&#x120;" horiz-adv-x="1006" 
d="M438 250v112h504v-362h-156l31 157h-16q-35 -72 -115.5 -121t-212.5 -49q-129 0 -225 47.5t-147 130.5t-51 185q0 103 53 185.5t155 130t245 47.5q203 0 317 -81t142 -212h-178q-24 67 -94 108.5t-187 41.5q-88 0 -151 -28.5t-95 -78.5t-32 -113q0 -65 32 -116t95 -80
t153 -29q106 0 172.5 35t93.5 90h-333zM422.5 797.5q-29.5 25.5 -29.5 64.5q0 38 29.5 63.5t79.5 25.5q51 0 80.5 -25.5t29.5 -63.5q0 -39 -29.5 -64.5t-80.5 -25.5q-50 0 -79.5 25.5z" />
    <glyph glyph-name="gdotaccent" unicode="&#x121;" horiz-adv-x="768" 
d="M97.5 -177q-80.5 45 -80.5 125q0 101 130 127v14h-24q-33 0 -49.5 13.5t-16.5 36.5q0 24 16.5 37.5t49.5 13.5h32v14q-44 14 -71 49t-27 84q0 87 77 135.5t258 48.5h151q20 0 30 8t10 21q0 21 -24 45h145q15 -14 21 -26t6 -25q0 -24 -19.5 -38.5t-58.5 -14.5h-54v-14
q122 -36 122 -144q0 -79 -72.5 -123t-244.5 -44h-194q-15 0 -24 -8t-9 -20q0 -11 9 -18.5t24 -7.5h240q156 0 226 -45t70 -118q0 -81 -80.5 -126t-284.5 -45q-203 0 -283.5 45zM533.5 275.5q39.5 20.5 39.5 57.5t-39.5 57.5t-142.5 20.5q-104 0 -143.5 -20.5t-39.5 -57.5
t39.5 -57.5t143.5 -20.5q103 0 142.5 20.5zM514 -104.5q46 8.5 62 23t16 36.5t-16 36.5t-62 23t-133 8.5q-86 0 -132 -8.5t-62 -23.5t-16 -36q0 -22 16 -36.5t62 -23t132 -8.5q87 0 133 8.5zM316 608q-25 23 -25 58t25 58t68 23q42 0 67 -23t25 -58t-25 -58t-67 -23
q-43 0 -68 23z" />
    <glyph glyph-name="uni0122" unicode="&#x122;" horiz-adv-x="1006" 
d="M438 250v112h504v-362h-156l31 157h-16q-35 -72 -115.5 -121t-212.5 -49q-129 0 -225 47.5t-147 130.5t-51 185q0 103 53 185.5t155 130t245 47.5q203 0 317 -81t142 -212h-178q-24 67 -94 108.5t-187 41.5q-88 0 -151 -28.5t-95 -78.5t-32 -113q0 -65 32 -116t95 -80
t153 -29q106 0 172.5 35t93.5 90h-333zM584 -79q23 -26 23 -78q0 -57 -24.5 -103t-67 -72.5t-94.5 -26.5v95h12q46 0 73.5 13.5t38.5 42.5q-14 -2 -21 -2q-38 0 -62 22.5t-24 56.5q0 33 23 55.5t57 22.5q43 0 66 -26z" />
    <glyph glyph-name="uni0123" unicode="&#x123;" horiz-adv-x="768" 
d="M97.5 -177q-80.5 45 -80.5 125q0 101 130 127v14h-24q-33 0 -49.5 13.5t-16.5 36.5q0 24 16.5 37.5t49.5 13.5h32v14q-44 14 -71 49t-27 84q0 87 77 135.5t258 48.5h151q20 0 30 8t10 21q0 21 -24 45h145q15 -14 21 -26t6 -25q0 -24 -19.5 -38.5t-58.5 -14.5h-54v-14
q122 -36 122 -144q0 -79 -72.5 -123t-244.5 -44h-194q-15 0 -24 -8t-9 -20q0 -11 9 -18.5t24 -7.5h240q156 0 226 -45t70 -118q0 -81 -80.5 -126t-284.5 -45q-203 0 -283.5 45zM533.5 275.5q39.5 20.5 39.5 57.5t-39.5 57.5t-142.5 20.5q-104 0 -143.5 -20.5t-39.5 -57.5
t39.5 -57.5t143.5 -20.5q103 0 142.5 20.5zM514 -104.5q46 8.5 62 23t16 36.5t-16 36.5t-62 23t-133 8.5q-86 0 -132 -8.5t-62 -23.5t-16 -36q0 -22 16 -36.5t62 -23t132 -8.5q87 0 133 8.5zM323.5 778.5q24.5 46.5 67 73t94.5 26.5v-96h-12q-47 0 -74 -13t-38 -43
q14 2 22 2q38 0 61.5 -22t23.5 -56t-22.5 -56t-57.5 -22q-42 0 -65.5 26t-23.5 78q0 56 24.5 102.5z" />
    <glyph glyph-name="Hcircumflex" unicode="&#x124;" horiz-adv-x="963" 
d="M705 436v264h178v-700h-178v288h-447v-288h-178v700h178v-264h447zM543 940l174 -171h-151l-84 87l-85 -87h-151l174 171h123z" />
    <glyph glyph-name="hcircumflex" unicode="&#x125;" horiz-adv-x="806" 
d="M72 0v700h158v-163q0 -46 -6 -89t-18 -93h17q22 80 83.5 123t159.5 43q129 0 203 -75t74 -207v-239h-157v203q0 89 -47 137t-131 48t-131 -48t-47 -137v-203h-158zM481 948l192 -181h-170l-95 98l-96 -98h-170l192 181h147z" />
    <glyph glyph-name="Hbar" unicode="&#x126;" horiz-adv-x="1023" 
d="M913 630h118v-120h-118v-510h-178v288h-447v-288h-178v510h-118v120h118v70h178v-79h447v79h178v-70zM288 519v-83h447v83h-447z" />
    <glyph glyph-name="hbar" unicode="&#x127;" horiz-adv-x="835" 
d="M699 403.5q74 -74.5 74 -206.5v-197h-157v166q0 89 -47 137t-132 48q-84 0 -131 -48t-47 -137v-166h-157v536h-97v100h97v64h157v-64h258v-100h-258v-41q0 -82 -23 -183h17q21 80 83 123t160 43q129 0 203 -74.5z" />
    <glyph glyph-name="Itilde" unicode="&#x128;" horiz-adv-x="730" 
d="M673 0h-616v143h219v414h-219v143h616v-143h-219v-414h219v-143zM144 765q-22 53 -22 90q0 50 29.5 79t81.5 29q41 0 73 -14t73 -40q27 -17 42 -24.5t29 -7.5q31 0 31 32q0 24 -16 54h121q22 -55 22 -90q0 -50 -29 -79t-81 -29q-41 0 -73 13.5t-75 40.5q-25 16 -40.5 24
t-29.5 8q-15 0 -23 -8.5t-8 -24.5q0 -23 16 -53h-121z" />
    <glyph glyph-name="itilde" unicode="&#x129;" horiz-adv-x="543" 
d="M367 130h158v-130h-493v130h184v193q0 33 -13.5 46.5t-46.5 13.5q-29 0 -59 -11v130q47 19 111 19q87 0 123 -33t36 -107v-251zM64 572q-22 42 -22 82q0 48 28.5 76t77.5 28q34 0 62 -13t65 -37q27 -18 42.5 -26t30.5 -8t24 9t9 24q0 23 -16 51h110q23 -43 23 -82
q0 -48 -28.5 -76t-77.5 -28q-35 0 -64 13.5t-63 37.5q-29 18 -43.5 25.5t-29.5 7.5q-16 0 -24.5 -9t-8.5 -24q0 -23 16 -51h-111z" />
    <glyph glyph-name="Imacron" unicode="&#x12a;" horiz-adv-x="730" 
d="M673 0h-616v143h219v414h-219v143h616v-143h-219v-414h219v-143zM593 801h-454v123h454v-123z" />
    <glyph glyph-name="imacron" unicode="&#x12b;" horiz-adv-x="543" 
d="M367 130h158v-130h-493v130h184v193q0 33 -13.5 46.5t-46.5 13.5q-29 0 -59 -11v130q47 19 111 19q87 0 123 -33t36 -107v-251zM484 615h-428v112h428v-112z" />
    <glyph glyph-name="Ibreve" unicode="&#x12c;" horiz-adv-x="730" 
d="M673 0h-616v143h219v414h-219v143h616v-143h-219v-414h219v-143zM170.5 812.5q-66.5 50.5 -75.5 140.5h144q5 -35 36 -55.5t90 -20.5q61 0 91.5 20.5t36.5 55.5h143q-9 -90 -75.5 -140.5t-195.5 -50.5q-128 0 -194.5 50.5z" />
    <glyph glyph-name="ibreve" unicode="&#x12d;" horiz-adv-x="543" 
d="M367 130h158v-130h-493v130h184v193q0 33 -13.5 46.5t-46.5 13.5q-29 0 -59 -11v130q47 19 111 19q87 0 123 -33t36 -107v-251zM99.5 621.5q-61.5 49.5 -69.5 131.5h133q4 -36 31 -56.5t76 -20.5q50 0 77 20.5t31 56.5h133q-8 -82 -69.5 -131.5t-171.5 -49.5
q-109 0 -170.5 49.5z" />
    <glyph glyph-name="Iogonek" unicode="&#x12e;" horiz-adv-x="730" 
d="M673 557h-219v-414h219v-143h-220q-70 -19 -97 -40.5t-27 -47.5q0 -22 17 -35t52 -13q25 0 55 9v-102q-39 -16 -91 -16q-78 0 -117.5 32t-39.5 85q0 38 23 72.5t71 55.5h-242v143h219v414h-219v143h616v-143z" />
    <glyph glyph-name="iogonek" unicode="&#x12f;" horiz-adv-x="543" 
d="M202 608q-25 23 -25 58t25 58t68 23q42 0 67 -23t25 -58t-25 -58t-67 -23q-43 0 -68 23zM367 130h158v-130h-149q-70 -19 -97 -40.5t-27 -47.5q0 -22 17 -35t52 -13q25 0 55 9v-102q-39 -16 -91 -16q-78 0 -117.5 32t-39.5 85q0 38 23 72.5t71 55.5h-190v130h184v193
q0 33 -13.5 46.5t-46.5 13.5q-29 0 -59 -11v130q47 19 111 19q87 0 123 -33t36 -107v-251z" />
    <glyph glyph-name="Idotaccent" unicode="&#x130;" horiz-adv-x="730" 
d="M673 0h-616v143h219v414h-219v143h616v-143h-219v-414h219v-143zM285.5 797.5q-29.5 25.5 -29.5 64.5q0 38 29.5 63.5t79.5 25.5q51 0 80.5 -25.5t29.5 -63.5q0 -39 -29.5 -64.5t-80.5 -25.5q-50 0 -79.5 25.5z" />
    <glyph glyph-name="dotlessi" unicode="&#x131;" horiz-adv-x="543" 
d="M367 130h158v-130h-493v130h184v193q0 33 -13.5 46.5t-46.5 13.5q-29 0 -59 -11v130q47 19 111 19q87 0 123 -33t36 -107v-251z" />
    <glyph glyph-name="IJ" unicode="&#x132;" horiz-adv-x="1499" 
d="M673 0h-616v143h219v414h-219v143h616v-143h-219v-414h219v-143zM813.5 66q-88.5 79 -88.5 220v19h178v-13q0 -76 43.5 -116.5t130.5 -40.5t130.5 40.5t43.5 116.5v260h-426v148h604v-412q0 -143 -88.5 -222t-263.5 -79t-263.5 79z" />
    <glyph glyph-name="ij" unicode="&#x133;" horiz-adv-x="896" 
d="M367 130h158v-130h-493v130h184v193q0 33 -13.5 46.5t-46.5 13.5q-29 0 -59 -11v130q47 19 111 19q87 0 123 -33t36 -107v-251zM202 608q-25 23 -25 58t25 58t68 23q42 0 67 -23t25 -58t-25 -58t-67 -23q-43 0 -68 23zM530 -208q-25 4 -52 14v127q44 -16 87 -16
q61 0 89.5 24t28.5 71v311q0 33 -14 46.5t-46 13.5q-29 0 -59 -11v130q47 19 111 19q87 0 123 -33t36 -107v-371q0 -108 -61.5 -165t-182.5 -57q-35 0 -60 4zM669 608q-25 23 -25 58t25 58t68 23q42 0 67 -23t25 -58t-25 -58t-67 -23q-43 0 -68 23z" />
    <glyph glyph-name="Jcircumflex" unicode="&#x134;" horiz-adv-x="809" 
d="M123.5 66q-88.5 79 -88.5 220v19h178v-13q0 -76 43.5 -116.5t130.5 -40.5t130.5 40.5t43.5 116.5v260h-426v148h604v-412q0 -143 -88.5 -222t-263.5 -79t-263.5 79zM510 948l192 -181h-170l-95 98l-96 -98h-170l192 181h147z" />
    <glyph glyph-name="jcircumflex" unicode="&#x135;" horiz-adv-x="353" 
d="M-13 -208q-25 4 -52 14v127q44 -16 87 -16q61 0 89.5 24t28.5 71v311q0 33 -14 46.5t-46 13.5q-29 0 -59 -11v130q47 19 111 19q87 0 123 -33t36 -107v-371q0 -108 -61.5 -165t-182.5 -57q-35 0 -60 4zM255 748l174 -171h-151l-84 87l-85 -87h-151l174 171h123z" />
    <glyph glyph-name="uni0136" unicode="&#x136;" horiz-adv-x="845" 
d="M458 363l384 -363h-238l-346 340v-340h-178v700h178v-321l334 321h230zM497 -79q23 -26 23 -78q0 -57 -24.5 -103t-67 -72.5t-94.5 -26.5v95h12q46 0 73.5 13.5t38.5 42.5q-14 -2 -21 -2q-38 0 -62 22.5t-24 56.5q0 33 23 55.5t57 22.5q43 0 66 -26z" />
    <glyph glyph-name="uni0137" unicode="&#x137;" horiz-adv-x="688" 
d="M408 265l285 -265h-207l-256 251v-251h-158v700h158v-424l250 232h203zM424 -79q23 -26 23 -78q0 -57 -24.5 -103t-67 -72.5t-94.5 -26.5v95h12q46 0 73.5 13.5t38.5 42.5q-14 -2 -21 -2q-38 0 -62 22.5t-24 56.5q0 33 23 55.5t57 22.5q43 0 66 -26z" />
    <glyph glyph-name="Lacute" unicode="&#x139;" horiz-adv-x="770" 
d="M735 0h-655v700h178v-552h477v-148zM216 767h-155l115 181h206z" />
    <glyph glyph-name="lacute" unicode="&#x13a;" horiz-adv-x="585" 
d="M389 130h179v-130h-541v130h204v386q0 33 -14.5 46.5t-51.5 13.5q-34 0 -66 -16v130q47 23 122 23q93 0 130.5 -32t37.5 -107v-444zM340 767h-155l115 181h206z" />
    <glyph glyph-name="uni013B" unicode="&#x13b;" horiz-adv-x="770" 
d="M735 0h-655v700h178v-552h477v-148zM469 -79q23 -26 23 -78q0 -57 -24.5 -103t-67 -72.5t-94.5 -26.5v95h12q46 0 73.5 13.5t38.5 42.5q-14 -2 -21 -2q-38 0 -62 22.5t-24 56.5q0 33 23 55.5t57 22.5q43 0 66 -26z" />
    <glyph glyph-name="uni013C" unicode="&#x13c;" horiz-adv-x="585" 
d="M389 130h179v-130h-541v130h204v386q0 33 -14.5 46.5t-51.5 13.5q-34 0 -66 -16v130q47 23 122 23q93 0 130.5 -32t37.5 -107v-444zM375 -79q23 -26 23 -78q0 -57 -24.5 -103t-67 -72.5t-94.5 -26.5v95h12q46 0 73.5 13.5t38.5 42.5q-14 -2 -21 -2q-38 0 -62 22.5
t-24 56.5q0 33 23 55.5t57 22.5q43 0 66 -26z" />
    <glyph glyph-name="Lcaron" unicode="&#x13d;" horiz-adv-x="770" 
d="M735 0h-655v700h178v-552h477v-148zM430 510h-112l20 190h139z" />
    <glyph glyph-name="lcaron" unicode="&#x13e;" horiz-adv-x="585" 
d="M389 130h179v-130h-541v130h204v386q0 33 -14.5 46.5t-51.5 13.5q-34 0 -66 -16v130q47 23 122 23q93 0 130.5 -32t37.5 -107v-444zM561 510h-112l20 190h139z" />
    <glyph glyph-name="Ldot" unicode="&#x13f;" horiz-adv-x="770" 
d="M735 0h-655v700h178v-552h477v-148zM485.5 365.5q-25.5 24.5 -25.5 62.5t25.5 62.5t67.5 24.5t68 -24.5t26 -62.5t-26 -62.5t-68 -24.5t-67.5 24.5z" />
    <glyph glyph-name="ldot" unicode="&#x140;" horiz-adv-x="561" 
d="M389 130h179v-130h-541v130h204v386q0 33 -14.5 46.5t-51.5 13.5q-34 0 -66 -16v130q47 23 122 23q93 0 130.5 -32t37.5 -107v-444zM520.5 319.5q-25.5 24.5 -25.5 62.5t25.5 62.5t67.5 24.5t68 -24.5t26 -62.5t-26 -62.5t-68 -24.5t-67.5 24.5z" />
    <glyph glyph-name="Lslash" unicode="&#x141;" horiz-adv-x="800" 
d="M288 313v-165h477v-148h-655v235l-118 -52v131l118 52v334h178v-256l244 108v-131z" />
    <glyph glyph-name="lslash" unicode="&#x142;" horiz-adv-x="585" 
d="M389 130h179v-130h-541v130h204v165l-112 -54v108l112 54v113q0 33 -14.5 46.5t-51.5 13.5q-34 0 -66 -16v130q47 23 122 23q93 0 130.5 -32t37.5 -107v-94l117 57v-108l-117 -57v-242z" />
    <glyph glyph-name="Nacute" unicode="&#x143;" horiz-adv-x="973" 
d="M80 0v700h277l374 -594h17q-13 43 -19.5 84t-6.5 100v410h171v-700h-277l-374 594h-17q13 -43 19.5 -84t6.5 -100v-410h-171zM549 767h-155l115 181h206z" />
    <glyph glyph-name="nacute" unicode="&#x144;" horiz-adv-x="801" 
d="M67 0v508h158l-24 -153h17q22 80 83.5 123t159.5 43q129 0 203 -75t74 -207v-239h-157v203q0 89 -47 137t-131 48t-131 -48t-47 -137v-203h-158zM446 577h-140l95 171h182z" />
    <glyph glyph-name="uni0145" unicode="&#x145;" horiz-adv-x="973" 
d="M80 0v700h277l374 -594h17q-13 43 -19.5 84t-6.5 100v410h171v-700h-277l-374 594h-17q13 -43 19.5 -84t6.5 -100v-410h-171zM564 -79q23 -26 23 -78q0 -57 -24.5 -103t-67 -72.5t-94.5 -26.5v95h12q46 0 73.5 13.5t38.5 42.5q-14 -2 -21 -2q-38 0 -62 22.5t-24 56.5
q0 33 23 55.5t57 22.5q43 0 66 -26z" />
    <glyph glyph-name="uni0146" unicode="&#x146;" horiz-adv-x="801" 
d="M67 0v508h158l-24 -153h17q22 80 83.5 123t159.5 43q129 0 203 -75t74 -207v-239h-157v203q0 89 -47 137t-131 48t-131 -48t-47 -137v-203h-158zM468 -79q23 -26 23 -78q0 -57 -24.5 -103t-67 -72.5t-94.5 -26.5v95h12q46 0 73.5 13.5t38.5 42.5q-14 -2 -21 -2
q-38 0 -62 22.5t-24 56.5q0 33 23 55.5t57 22.5q43 0 66 -26z" />
    <glyph glyph-name="Ncaron" unicode="&#x147;" horiz-adv-x="973" 
d="M80 0v700h277l374 -594h17q-13 43 -19.5 84t-6.5 100v410h171v-700h-277l-374 594h-17q13 -43 19.5 -84t6.5 -100v-410h-171zM503 850l95 98h170l-192 -181h-147l-192 181h170z" />
    <glyph glyph-name="ncaron" unicode="&#x148;" horiz-adv-x="801" 
d="M67 0v508h158l-24 -153h17q22 80 83.5 123t159.5 43q129 0 203 -75t74 -207v-239h-157v203q0 89 -47 137t-131 48t-131 -48t-47 -137v-203h-158zM403 661l84 87h151l-174 -171h-123l-174 171h151z" />
    <glyph glyph-name="Eng" unicode="&#x14a;" horiz-adv-x="973" 
d="M722 700h171v-717q0 -117 -72.5 -182.5t-212.5 -65.5q-70 0 -125 16v135q53 -14 103 -14q88 0 125 28t37 85v15h-132l-374 594h-17q13 -43 19.5 -84t6.5 -100v-410h-171v700h277l374 -594h17q-13 43 -19.5 84t-6.5 100v410z" />
    <glyph glyph-name="eng" unicode="&#x14b;" horiz-adv-x="801" 
d="M380 -215v127q35 -10 77 -10q65 0 94.5 27.5t29.5 87.5v186q0 89 -47 137t-131 48t-131 -48t-47 -137v-203h-158v508h158l-24 -153h17q22 80 83.5 123t159.5 43q129 0 203 -75t74 -207v-243q0 -102 -65.5 -163t-184.5 -61q-51 0 -108 13z" />
    <glyph glyph-name="Omacron" unicode="&#x14c;" horiz-adv-x="1030" 
d="M261.5 34.5q-104.5 47.5 -158 129.5t-53.5 186t53.5 186t158 129.5t253.5 47.5t253.5 -47.5t158 -129.5t53.5 -186t-53.5 -186t-158 -129.5t-253.5 -47.5t-253.5 47.5zM672.5 160.5q64.5 28.5 97 78t32.5 111.5t-32.5 111.5t-97 78t-157.5 28.5t-157.5 -28.5t-97 -78
t-32.5 -111.5t32.5 -111.5t97 -78t157.5 -28.5t157.5 28.5zM742 801h-454v123h454v-123z" />
    <glyph glyph-name="omacron" unicode="&#x14d;" horiz-adv-x="789" 
d="M201 22.5q-80 35.5 -120.5 96t-40.5 135.5t40.5 135.5t120.5 96t194 35.5q113 0 193 -35.5t120.5 -96t40.5 -135.5t-40.5 -135.5t-120.5 -96t-193 -35.5q-114 0 -194 35.5zM541 151.5q51 40.5 51 102.5q0 61 -51 101.5t-146 40.5t-146.5 -40.5t-51.5 -101.5
q0 -62 51.5 -102.5t146.5 -40.5t146 40.5zM609 615h-428v112h428v-112z" />
    <glyph glyph-name="Obreve" unicode="&#x14e;" horiz-adv-x="1030" 
d="M261.5 34.5q-104.5 47.5 -158 129.5t-53.5 186t53.5 186t158 129.5t253.5 47.5t253.5 -47.5t158 -129.5t53.5 -186t-53.5 -186t-158 -129.5t-253.5 -47.5t-253.5 47.5zM672.5 160.5q64.5 28.5 97 78t32.5 111.5t-32.5 111.5t-97 78t-157.5 28.5t-157.5 -28.5t-97 -78
t-32.5 -111.5t32.5 -111.5t97 -78t157.5 -28.5t157.5 28.5zM319.5 812.5q-66.5 50.5 -75.5 140.5h144q5 -35 36 -55.5t90 -20.5q61 0 91.5 20.5t36.5 55.5h143q-9 -90 -75.5 -140.5t-195.5 -50.5q-128 0 -194.5 50.5z" />
    <glyph glyph-name="obreve" unicode="&#x14f;" horiz-adv-x="789" 
d="M201 22.5q-80 35.5 -120.5 96t-40.5 135.5t40.5 135.5t120.5 96t194 35.5q113 0 193 -35.5t120.5 -96t40.5 -135.5t-40.5 -135.5t-120.5 -96t-193 -35.5q-114 0 -194 35.5zM541 151.5q51 40.5 51 102.5q0 61 -51 101.5t-146 40.5t-146.5 -40.5t-51.5 -101.5
q0 -62 51.5 -102.5t146.5 -40.5t146 40.5zM223.5 621.5q-61.5 49.5 -69.5 131.5h133q4 -36 31 -56.5t76 -20.5q50 0 77 20.5t31 56.5h133q-8 -82 -69.5 -131.5t-171.5 -49.5q-109 0 -170.5 49.5z" />
    <glyph glyph-name="Ohungarumlaut" unicode="&#x150;" horiz-adv-x="1030" 
d="M261.5 34.5q-104.5 47.5 -158 129.5t-53.5 186t53.5 186t158 129.5t253.5 47.5t253.5 -47.5t158 -129.5t53.5 -186t-53.5 -186t-158 -129.5t-253.5 -47.5t-253.5 47.5zM672.5 160.5q64.5 28.5 97 78t32.5 111.5t-32.5 111.5t-97 78t-157.5 28.5t-157.5 -28.5t-97 -78
t-32.5 -111.5t32.5 -111.5t97 -78t157.5 -28.5t157.5 28.5zM448 767h-119l95 181h170zM700 767h-120l95 181h170z" />
    <glyph glyph-name="ohungarumlaut" unicode="&#x151;" horiz-adv-x="789" 
d="M201 22.5q-80 35.5 -120.5 96t-40.5 135.5t40.5 135.5t120.5 96t194 35.5q113 0 193 -35.5t120.5 -96t40.5 -135.5t-40.5 -135.5t-120.5 -96t-193 -35.5q-114 0 -194 35.5zM541 151.5q51 40.5 51 102.5q0 61 -51 101.5t-146 40.5t-146.5 -40.5t-51.5 -101.5
q0 -62 51.5 -102.5t146.5 -40.5t146 40.5zM338 577h-104l75 171h147zM555 577h-105l75 171h147z" />
    <glyph glyph-name="OE" unicode="&#x152;" horiz-adv-x="1342" 
d="M1284 560h-487v-142h417v-125h-417v-153h487v-140h-793q-139 0 -239 46t-151 125.5t-51 178.5t51 178.5t151 125.5t239 46h793v-140zM625 140v420h-134q-84 0 -143.5 -27t-89.5 -74.5t-30 -108.5t30 -108.5t89.5 -74.5t143.5 -27h134z" />
    <glyph glyph-name="oe" unicode="&#x153;" horiz-adv-x="1278" 
d="M1235 210h-521q14 -51 62 -81t125 -30q125 0 174 69h152q-15 -43 -53.5 -84.5t-107 -69t-164.5 -27.5q-177 0 -262 108q-83 -108 -266 -108q-104 0 -179.5 35.5t-115 96.5t-39.5 135t39.5 135t115 96.5t179.5 35.5q92 0 159.5 -28.5t107.5 -82.5q82 111 265 111
q103 0 178 -35.5t114.5 -97t39.5 -136.5q0 -18 -3 -42zM775 378q-48 -31 -61 -84h374q-13 53 -61 84t-127 31q-77 0 -125 -31zM522.5 150q49.5 41 49.5 104t-49.5 104t-137.5 41q-89 0 -138.5 -41t-49.5 -104t49.5 -104t138.5 -41q88 0 137.5 41z" />
    <glyph glyph-name="Racute" unicode="&#x154;" horiz-adv-x="889" 
d="M864 0h-212l-76 180q-16 36 -41.5 49.5t-76.5 13.5h-200v-243h-178v700h463q139 0 212 -60.5t73 -159.5q0 -56 -24 -101.5t-65 -73.5t-91 -32v-17q55 -2 87.5 -26t61.5 -86zM526 355q61 0 92.5 28t31.5 75t-31.5 74.5t-92.5 27.5h-277v-205h277zM492 769h-140l95 171h182
z" />
    <glyph glyph-name="racute" unicode="&#x155;" horiz-adv-x="720" 
d="M67 0v508h158l-22 -140h17q21 73 77 113t141 40q120 0 183.5 -67.5t63.5 -198.5v-20h-160v7q0 67 -39.5 104.5t-111.5 37.5q-71 0 -110 -40.5t-39 -118.5v-225h-158zM416 577h-140l95 171h182z" />
    <glyph glyph-name="uni0156" unicode="&#x156;" horiz-adv-x="889" 
d="M864 0h-212l-76 180q-16 36 -41.5 49.5t-76.5 13.5h-200v-243h-178v700h463q139 0 212 -60.5t73 -159.5q0 -56 -24 -101.5t-65 -73.5t-91 -32v-17q55 -2 87.5 -26t61.5 -86zM526 355q61 0 92.5 28t31.5 75t-31.5 74.5t-92.5 27.5h-277v-205h277zM521 -79q23 -26 23 -78
q0 -57 -24.5 -103t-67 -72.5t-94.5 -26.5v95h12q46 0 73.5 13.5t38.5 42.5q-14 -2 -21 -2q-38 0 -62 22.5t-24 56.5q0 33 23 55.5t57 22.5q43 0 66 -26z" />
    <glyph glyph-name="uni0157" unicode="&#x157;" horiz-adv-x="720" 
d="M67 0v508h158l-22 -140h17q21 73 77 113t141 40q120 0 183.5 -67.5t63.5 -198.5v-20h-160v7q0 67 -39.5 104.5t-111.5 37.5q-71 0 -110 -40.5t-39 -118.5v-225h-158zM211 -79q23 -26 23 -78q0 -57 -24.5 -103t-67 -72.5t-94.5 -26.5v95h12q46 0 73.5 13.5t38.5 42.5
q-14 -2 -21 -2q-38 0 -62 22.5t-24 56.5q0 33 23 55.5t57 22.5q43 0 66 -26z" />
    <glyph glyph-name="Rcaron" unicode="&#x158;" horiz-adv-x="889" 
d="M864 0h-212l-76 180q-16 36 -41.5 49.5t-76.5 13.5h-200v-243h-178v700h463q139 0 212 -60.5t73 -159.5q0 -56 -24 -101.5t-65 -73.5t-91 -32v-17q55 -2 87.5 -26t61.5 -86zM526 355q61 0 92.5 28t31.5 75t-31.5 74.5t-92.5 27.5h-277v-205h277zM448 853l84 87h151
l-174 -171h-123l-174 171h151z" />
    <glyph glyph-name="rcaron" unicode="&#x159;" horiz-adv-x="720" 
d="M67 0v508h158l-22 -140h17q21 73 77 113t141 40q120 0 183.5 -67.5t63.5 -198.5v-20h-160v7q0 67 -39.5 104.5t-111.5 37.5q-71 0 -110 -40.5t-39 -118.5v-225h-158zM373 661l84 87h151l-174 -171h-123l-174 171h151z" />
    <glyph glyph-name="Sacute" unicode="&#x15a;" horiz-adv-x="940" 
d="M157 58.5q-100 71.5 -100 193.5v13h181v-9q0 -134 235 -134q133 0 183.5 24t50.5 65q0 37 -33 55.5t-84 24.5t-139 10q-124 6 -201 19t-132.5 55t-55.5 126q0 96 95 154t315 58q212 0 311.5 -70t99.5 -185v-8h-181v8q0 53 -54.5 86.5t-175.5 33.5q-129 0 -179 -23.5
t-50 -61.5q0 -31 31 -47t77.5 -21t131.5 -8q126 -5 207 -17.5t139.5 -56.5t58.5 -132q0 -102 -97 -163t-318 -61q-216 0 -316 71.5zM520 767h-155l115 181h206z" />
    <glyph glyph-name="sacute" unicode="&#x15b;" horiz-adv-x="738" 
d="M122.5 38.5q-77.5 51.5 -77.5 138.5v8h160v-6q0 -80 167 -80q95 0 130.5 16t35.5 42q0 23 -23.5 34t-58.5 14.5t-100 6.5q-96 4 -157 13.5t-105 40.5t-44 94q0 72 75 116.5t247 44.5q161 0 239 -53.5t82 -138.5h-160q-6 80 -161 80q-162 0 -162 -58q0 -30 42 -38.5
t134 -12.5q97 -3 159.5 -12.5t107.5 -41.5t45 -96q0 -163 -326 -163q-172 0 -249.5 51.5zM415 577h-140l95 171h182z" />
    <glyph glyph-name="Scircumflex" unicode="&#x15c;" horiz-adv-x="940" 
d="M157 58.5q-100 71.5 -100 193.5v13h181v-9q0 -134 235 -134q133 0 183.5 24t50.5 65q0 37 -33 55.5t-84 24.5t-139 10q-124 6 -201 19t-132.5 55t-55.5 126q0 96 95 154t315 58q212 0 311.5 -70t99.5 -185v-8h-181v8q0 53 -54.5 86.5t-175.5 33.5q-129 0 -179 -23.5
t-50 -61.5q0 -31 31 -47t77.5 -21t131.5 -8q126 -5 207 -17.5t139.5 -56.5t58.5 -132q0 -102 -97 -163t-318 -61q-216 0 -316 71.5zM546 948l192 -181h-170l-95 98l-96 -98h-170l192 181h147z" />
    <glyph glyph-name="scircumflex" unicode="&#x15d;" horiz-adv-x="738" 
d="M122.5 38.5q-77.5 51.5 -77.5 138.5v8h160v-6q0 -80 167 -80q95 0 130.5 16t35.5 42q0 23 -23.5 34t-58.5 14.5t-100 6.5q-96 4 -157 13.5t-105 40.5t-44 94q0 72 75 116.5t247 44.5q161 0 239 -53.5t82 -138.5h-160q-6 80 -161 80q-162 0 -162 -58q0 -30 42 -38.5
t134 -12.5q97 -3 159.5 -12.5t107.5 -41.5t45 -96q0 -163 -326 -163q-172 0 -249.5 51.5zM433 748l174 -171h-151l-84 87l-85 -87h-151l174 171h123z" />
    <glyph glyph-name="Scedilla" unicode="&#x15e;" horiz-adv-x="940" 
d="M798 52.5q-90 -60.5 -295 -65.5l-32 -37q186 0 186 -96q0 -46 -41 -72.5t-134 -26.5q-85 0 -148 29v84q64 -27 142 -27q43 0 58.5 6.5t15.5 18.5t-16.5 18.5t-64.5 6.5h-83v58l33 39q-187 9 -274.5 79.5t-87.5 184.5v13h181v-9q0 -134 235 -134q133 0 183.5 24t50.5 65
q0 37 -33 55.5t-84 24.5t-139 10q-124 6 -201 19t-132.5 55t-55.5 126q0 96 95 154t315 58q212 0 311.5 -70t99.5 -185v-8h-181v8q0 53 -54.5 86.5t-175.5 33.5q-129 0 -179 -23.5t-50 -61.5q0 -31 31 -47t77.5 -21t131.5 -8q126 -5 207 -17.5t139.5 -56.5t58.5 -132
q0 -98 -90 -158.5z" />
    <glyph glyph-name="scedilla" unicode="&#x15f;" horiz-adv-x="738" 
d="M398 -13l-32 -37q186 0 186 -96q0 -46 -41 -72.5t-134 -26.5q-85 0 -148 29v84q64 -27 142 -27q43 0 58.5 6.5t15.5 18.5t-16.5 18.5t-64.5 6.5h-83v58l34 40q-142 9 -206 59t-64 129v8h160v-6q0 -80 167 -80q95 0 130.5 16t35.5 42q0 23 -23.5 34t-58.5 14.5t-100 6.5
q-96 4 -157 13.5t-105 40.5t-44 94q0 72 75 116.5t247 44.5q161 0 239 -53.5t82 -138.5h-160q-6 80 -161 80q-162 0 -162 -58q0 -30 42 -38.5t134 -12.5q97 -3 159.5 -12.5t107.5 -41.5t45 -96q0 -157 -300 -163z" />
    <glyph glyph-name="Scaron" unicode="&#x160;" horiz-adv-x="940" 
d="M157 58.5q-100 71.5 -100 193.5v13h181v-9q0 -134 235 -134q133 0 183.5 24t50.5 65q0 37 -33 55.5t-84 24.5t-139 10q-124 6 -201 19t-132.5 55t-55.5 126q0 96 95 154t315 58q212 0 311.5 -70t99.5 -185v-8h-181v8q0 53 -54.5 86.5t-175.5 33.5q-129 0 -179 -23.5
t-50 -61.5q0 -31 31 -47t77.5 -21t131.5 -8q126 -5 207 -17.5t139.5 -56.5t58.5 -132q0 -102 -97 -163t-318 -61q-216 0 -316 71.5zM473 850l95 98h170l-192 -181h-147l-192 181h170z" />
    <glyph glyph-name="scaron" unicode="&#x161;" horiz-adv-x="738" 
d="M122.5 38.5q-77.5 51.5 -77.5 138.5v8h160v-6q0 -80 167 -80q95 0 130.5 16t35.5 42q0 23 -23.5 34t-58.5 14.5t-100 6.5q-96 4 -157 13.5t-105 40.5t-44 94q0 72 75 116.5t247 44.5q161 0 239 -53.5t82 -138.5h-160q-6 80 -161 80q-162 0 -162 -58q0 -30 42 -38.5
t134 -12.5q97 -3 159.5 -12.5t107.5 -41.5t45 -96q0 -163 -326 -163q-172 0 -249.5 51.5zM372 661l84 87h151l-174 -171h-123l-174 171h151z" />
    <glyph glyph-name="uni0162" unicode="&#x162;" horiz-adv-x="778" 
d="M478 0h-59l-43 -50q186 0 186 -96q0 -46 -41 -72.5t-134 -26.5q-85 0 -148 29v84q64 -27 142 -27q43 0 58.5 6.5t15.5 18.5t-16.5 18.5t-64.5 6.5h-83v58l43 51h-34v552h-288v148h754v-148h-288v-552z" />
    <glyph glyph-name="uni0163" unicode="&#x163;" horiz-adv-x="677" 
d="M503 236h157v-15q0 -106 -68.5 -167.5t-206.5 -66.5l-32 -37q186 0 186 -96q0 -46 -41 -72.5t-134 -26.5q-85 0 -148 29v84q64 -27 142 -27q43 0 58.5 6.5t15.5 18.5t-16.5 18.5t-64.5 6.5h-83v58l35 41q-117 11 -174.5 63.5t-57.5 131.5q0 72 44.5 120.5t108.5 59.5v16
h-212v114h132q31 0 44 13t13 44v76h129v-128h288v-119h-315q-38 -18 -59 -50.5t-21 -83.5q0 -128 139 -128q71 0 106 28t35 77v12z" />
    <glyph glyph-name="Tcaron" unicode="&#x164;" horiz-adv-x="778" 
d="M478 0h-178v552h-288v148h754v-148h-288v-552zM390 850l95 98h170l-192 -181h-147l-192 181h170z" />
    <glyph glyph-name="tcaron" unicode="&#x165;" horiz-adv-x="677" 
d="M143.5 41.5q-72.5 54.5 -72.5 143.5q0 72 44.5 120.5t108.5 59.5v16h-212v114h132q31 0 44 13t13 44v76h129v-128h288v-119h-315q-38 -18 -59 -50.5t-21 -83.5q0 -128 139 -128q71 0 106 28t35 77v12h157v-15q0 -110 -74 -172t-224 -62q-146 0 -218.5 54.5zM503 570h-112
l20 190h139z" />
    <glyph glyph-name="Tbar" unicode="&#x166;" horiz-adv-x="778" 
d="M766 700v-148h-288v-197h148v-127h-148v-228h-178v228h-147v127h147v197h-288v148h754z" />
    <glyph glyph-name="tbar" unicode="&#x167;" horiz-adv-x="697" 
d="M519 205h151v-7q0 -96 -69.5 -153.5t-205.5 -57.5q-135 0 -205.5 60t-70.5 160v48h-79v65h147v73h-165v102h89q31 0 44 13t13 44v76h130v-128h330v-107h-363v-73h335v-65h-335v-35q0 -53 31.5 -82t91.5 -29q66 0 98.5 25t32.5 66v5z" />
    <glyph glyph-name="Utilde" unicode="&#x168;" horiz-adv-x="937" 
d="M171 77.5q-101 90.5 -101 253.5v369h178v-356q0 -97 55.5 -149.5t165.5 -52.5q109 0 165 52.5t56 149.5v356h178v-369q0 -162 -101.5 -253t-297.5 -91q-197 0 -298 90.5zM248 765q-22 53 -22 90q0 50 29.5 79t81.5 29q41 0 73 -14t73 -40q27 -17 42 -24.5t29 -7.5
q31 0 31 32q0 24 -16 54h121q22 -55 22 -90q0 -50 -29 -79t-81 -29q-41 0 -73 13.5t-75 40.5q-25 16 -40.5 24t-29.5 8q-15 0 -23 -8.5t-8 -24.5q0 -23 16 -53h-121z" />
    <glyph glyph-name="utilde" unicode="&#x169;" horiz-adv-x="786" 
d="M134 60.5q-72 73.5 -72 202.5v245h158v-209q0 -86 45 -133t125 -47q81 0 126 47t45 133v209h157v-508h-157l23 152h-16q-22 -80 -82 -122.5t-155 -42.5q-125 0 -197 73.5zM185 572q-22 42 -22 82q0 48 28.5 76t77.5 28q34 0 62 -13t65 -37q27 -18 42.5 -26t30.5 -8t24 9
t9 24q0 23 -16 51h110q23 -43 23 -82q0 -48 -28.5 -76t-77.5 -28q-35 0 -64 13.5t-63 37.5q-29 18 -43.5 25.5t-29.5 7.5q-16 0 -24.5 -9t-8.5 -24q0 -23 16 -51h-111z" />
    <glyph glyph-name="Umacron" unicode="&#x16a;" horiz-adv-x="937" 
d="M171 77.5q-101 90.5 -101 253.5v369h178v-356q0 -97 55.5 -149.5t165.5 -52.5q109 0 165 52.5t56 149.5v356h178v-369q0 -162 -101.5 -253t-297.5 -91q-197 0 -298 90.5zM696 801h-454v123h454v-123z" />
    <glyph glyph-name="umacron" unicode="&#x16b;" horiz-adv-x="786" 
d="M134 60.5q-72 73.5 -72 202.5v245h158v-209q0 -86 45 -133t125 -47q81 0 126 47t45 133v209h157v-508h-157l23 152h-16q-22 -80 -82 -122.5t-155 -42.5q-125 0 -197 73.5zM605 615h-428v112h428v-112z" />
    <glyph glyph-name="Ubreve" unicode="&#x16c;" horiz-adv-x="937" 
d="M171 77.5q-101 90.5 -101 253.5v369h178v-356q0 -97 55.5 -149.5t165.5 -52.5q109 0 165 52.5t56 149.5v356h178v-369q0 -162 -101.5 -253t-297.5 -91q-197 0 -298 90.5zM273.5 812.5q-66.5 50.5 -75.5 140.5h144q5 -35 36 -55.5t90 -20.5q61 0 91.5 20.5t36.5 55.5h143
q-9 -90 -75.5 -140.5t-195.5 -50.5q-128 0 -194.5 50.5z" />
    <glyph glyph-name="ubreve" unicode="&#x16d;" horiz-adv-x="786" 
d="M134 60.5q-72 73.5 -72 202.5v245h158v-209q0 -86 45 -133t125 -47q81 0 126 47t45 133v209h157v-508h-157l23 152h-16q-22 -80 -82 -122.5t-155 -42.5q-125 0 -197 73.5zM219.5 621.5q-61.5 49.5 -69.5 131.5h133q4 -36 31 -56.5t76 -20.5q50 0 77 20.5t31 56.5h133
q-8 -82 -69.5 -131.5t-171.5 -49.5q-109 0 -170.5 49.5z" />
    <glyph glyph-name="Uring" unicode="&#x16e;" horiz-adv-x="937" 
d="M171 77.5q-101 90.5 -101 253.5v369h178v-356q0 -97 55.5 -149.5t165.5 -52.5q109 0 165 52.5t56 149.5v356h178v-369q0 -162 -101.5 -253t-297.5 -91q-197 0 -298 90.5zM342.5 781q-44.5 36 -44.5 93t44.5 93t126.5 36t126 -36t44 -93t-44 -93t-126 -36t-126.5 36z
M524 841q18 13 18 33t-18 33t-55 13q-38 0 -56.5 -13t-18.5 -33t18.5 -33t56.5 -13q37 0 55 13z" />
    <glyph glyph-name="uring" unicode="&#x16f;" horiz-adv-x="786" 
d="M134 60.5q-72 73.5 -72 202.5v245h158v-209q0 -86 45 -133t125 -47q81 0 126 47t45 133v209h157v-508h-157l23 152h-16q-22 -80 -82 -122.5t-155 -42.5q-125 0 -197 73.5zM276.5 595q-41.5 35 -41.5 89t41.5 89t114.5 35t114 -35t41 -89t-41 -89t-114 -35t-114.5 35z
M440 652q17 13 17 32t-17 32t-49 13q-33 0 -50 -13t-17 -32t17 -32t50 -13q32 0 49 13z" />
    <glyph glyph-name="Uhungarumlaut" unicode="&#x170;" horiz-adv-x="937" 
d="M171 77.5q-101 90.5 -101 253.5v369h178v-356q0 -97 55.5 -149.5t165.5 -52.5q109 0 165 52.5t56 149.5v356h178v-369q0 -162 -101.5 -253t-297.5 -91q-197 0 -298 90.5zM402 767h-119l95 181h170zM654 767h-120l95 181h170z" />
    <glyph glyph-name="uhungarumlaut" unicode="&#x171;" horiz-adv-x="786" 
d="M134 60.5q-72 73.5 -72 202.5v245h158v-209q0 -86 45 -133t125 -47q81 0 126 47t45 133v209h157v-508h-157l23 152h-16q-22 -80 -82 -122.5t-155 -42.5q-125 0 -197 73.5zM334 577h-104l75 171h147zM551 577h-105l75 171h147z" />
    <glyph glyph-name="Uogonek" unicode="&#x172;" horiz-adv-x="937" 
d="M690 700h178v-369q0 -104 -42 -179.5t-126 -118.5q-71 -37 -96.5 -64.5t-25.5 -53.5q0 -24 17 -37.5t51 -13.5q26 0 56 9v-102q-39 -16 -91 -16q-78 0 -117.5 32t-39.5 85q0 33 17.5 64t53.5 53q-17 -2 -56 -2q-197 0 -298 90.5t-101 253.5v369h178v-356
q0 -97 55.5 -149.5t165.5 -52.5q109 0 165 52.5t56 149.5v356z" />
    <glyph glyph-name="uogonek" unicode="&#x173;" horiz-adv-x="786" 
d="M718 0q-77 -17 -105.5 -38t-28.5 -48q0 -50 76 -50q28 0 58 9v-102q-39 -16 -95 -16q-80 0 -121.5 34t-41.5 90q0 38 24 72.5t79 58.5l21 142h-16q-22 -80 -82 -122.5t-155 -42.5q-125 0 -197 73.5t-72 202.5v245h158v-209q0 -86 45 -133t125 -47q81 0 126 47t45 133v209
h157v-508z" />
    <glyph glyph-name="Wcircumflex" unicode="&#x174;" horiz-adv-x="1173" 
d="M232 0l-205 700h192l120 -448q17 -72 17 -139v-7h16v7q0 77 16 139l100 328h198l99 -328q16 -62 16 -139v-7h17v7q0 65 16 139l120 448h192l-205 -700h-225l-99 305q-13 47 -17.5 78t-4.5 87v4h-17v-4q0 -56 -4.5 -87t-17.5 -78l-99 -305h-225zM660 948l192 -181h-170
l-95 98l-96 -98h-170l192 181h147z" />
    <glyph glyph-name="wcircumflex" unicode="&#x175;" horiz-adv-x="987" 
d="M178 0l-166 508h171l90 -306q13 -51 13 -109v-7h17v7q0 62 12 109l95 306h167l95 -306q12 -47 12 -109v-7h17v7q0 58 13 109l90 306h171l-166 -508h-197l-96 277q-8 28 -11 59.5t-3 80.5v5h-17v-5q0 -49 -3 -80.5t-11 -59.5l-96 -277h-197zM555 748l174 -171h-151l-84 87
l-85 -87h-151l174 171h123z" />
    <glyph glyph-name="Ycircumflex" unicode="&#x176;" horiz-adv-x="839" 
d="M330 0v221l-323 479h204l159 -242q41 -67 41 -118v-14h17v14q0 53 41 118l159 242h203l-323 -479v-221h-178zM493 948l192 -181h-170l-95 98l-96 -98h-170l192 181h147z" />
    <glyph glyph-name="ycircumflex" unicode="&#x177;" horiz-adv-x="708" 
d="M517 508h183l-259 -513q-55 -112 -123 -159.5t-167 -47.5q-31 0 -54.5 4t-49.5 14v130q41 -16 84 -16q51 0 83 17t55 58l-262 513h183l130 -293q25 -66 25 -107v-3h17v3q0 44 24 107zM415 748l174 -171h-151l-84 87l-85 -87h-151l174 171h123z" />
    <glyph glyph-name="Ydieresis" unicode="&#x178;" horiz-adv-x="839" 
d="M330 0v221l-323 479h204l159 -242q41 -67 41 -118v-14h17v14q0 53 41 118l159 242h203l-323 -479v-221h-178zM202 798.5q-25 21.5 -25 56.5q0 34 25 56t69 22t69 -22t25 -56q0 -35 -25 -56.5t-69 -21.5t-69 21.5zM499 798.5q-25 21.5 -25 56.5q0 34 25 56t69 22t69 -22
t25 -56q0 -35 -24.5 -56.5t-69.5 -21.5q-44 0 -69 21.5z" />
    <glyph glyph-name="Zacute" unicode="&#x179;" horiz-adv-x="855" 
d="M800 0h-740v132l481 406v17h-471v145h720v-132l-481 -406v-17h491v-145zM477 767h-155l115 181h206z" />
    <glyph glyph-name="zacute" unicode="&#x17a;" horiz-adv-x="689" 
d="M647 0h-600v113l352 251v17h-342v127h580v-114l-352 -250v-17h362v-127zM391 577h-140l95 171h182z" />
    <glyph glyph-name="Zdotaccent" unicode="&#x17b;" horiz-adv-x="855" 
d="M800 0h-740v132l481 406v17h-471v145h720v-132l-481 -406v-17h491v-145zM349.5 797.5q-29.5 25.5 -29.5 64.5q0 38 29.5 63.5t79.5 25.5q51 0 80.5 -25.5t29.5 -63.5q0 -39 -29.5 -64.5t-80.5 -25.5q-50 0 -79.5 25.5z" />
    <glyph glyph-name="zdotaccent" unicode="&#x17c;" horiz-adv-x="689" 
d="M647 0h-600v113l352 251v17h-342v127h580v-114l-352 -250v-17h362v-127zM279 608q-25 23 -25 58t25 58t68 23q42 0 67 -23t25 -58t-25 -58t-67 -23q-43 0 -68 23z" />
    <glyph glyph-name="Zcaron" unicode="&#x17d;" horiz-adv-x="855" 
d="M800 0h-740v132l481 406v17h-471v145h720v-132l-481 -406v-17h491v-145zM430 850l95 98h170l-192 -181h-147l-192 181h170z" />
    <glyph glyph-name="zcaron" unicode="&#x17e;" horiz-adv-x="689" 
d="M647 0h-600v113l352 251v17h-342v127h580v-114l-352 -250v-17h362v-127zM347 661l84 87h151l-174 -171h-123l-174 171h151z" />
    <glyph glyph-name="uni018F" unicode="&#x18f;" horiz-adv-x="1030" 
d="M770 666q104 -47 157 -129.5t53 -186.5t-53 -186.5t-157 -129.5t-251 -47q-151 0 -256.5 47t-159 129.5t-53.5 186.5q0 32 4 56h748q-20 77 -92 123t-191 46q-211 0 -281 -122h-173q33 109 142.5 184.5t311.5 75.5q147 0 251 -47zM710 171q72 46 92 123h-575
q19 -78 92 -123.5t200 -45.5q119 0 191 46z" />
    <glyph glyph-name="florin" unicode="&#x192;" horiz-adv-x="813" 
d="M569 535q-41 -33 -57 -108l-7 -36h207l-28 -140h-209l-39 -190q-25 -119 -99.5 -181.5t-206.5 -62.5q-42 0 -74.5 6.5t-65.5 19.5l29 134q39 -15 89 -15q73 0 114 33t57 108l31 148h-153l29 140h153l16 78q25 119 99.5 181.5t206.5 62.5q42 0 74.5 -6.5t65.5 -19.5
l-29 -134q-39 15 -89 15q-73 0 -114 -33z" />
    <glyph glyph-name="uni01F4" unicode="&#x1f4;" horiz-adv-x="1006" 
d="M438 250v112h504v-362h-156l31 157h-16q-35 -72 -115.5 -121t-212.5 -49q-129 0 -225 47.5t-147 130.5t-51 185q0 103 53 185.5t155 130t245 47.5q203 0 317 -81t142 -212h-178q-24 67 -94 108.5t-187 41.5q-88 0 -151 -28.5t-95 -78.5t-32 -113q0 -65 32 -116t95 -80
t153 -29q106 0 172.5 35t93.5 90h-333zM550 767h-155l115 181h206z" />
    <glyph glyph-name="uni01F5" unicode="&#x1f5;" horiz-adv-x="768" 
d="M97.5 -177q-80.5 45 -80.5 125q0 101 130 127v14h-24q-33 0 -49.5 13.5t-16.5 36.5q0 24 16.5 37.5t49.5 13.5h32v14q-44 14 -71 49t-27 84q0 87 77 135.5t258 48.5h151q20 0 30 8t10 21q0 21 -24 45h145q15 -14 21 -26t6 -25q0 -24 -19.5 -38.5t-58.5 -14.5h-54v-14
q122 -36 122 -144q0 -79 -72.5 -123t-244.5 -44h-194q-15 0 -24 -8t-9 -20q0 -11 9 -18.5t24 -7.5h240q156 0 226 -45t70 -118q0 -81 -80.5 -126t-284.5 -45q-203 0 -283.5 45zM533.5 275.5q39.5 20.5 39.5 57.5t-39.5 57.5t-142.5 20.5q-104 0 -143.5 -20.5t-39.5 -57.5
t39.5 -57.5t143.5 -20.5q103 0 142.5 20.5zM514 -104.5q46 8.5 62 23t16 36.5t-16 36.5t-62 23t-133 8.5q-86 0 -132 -8.5t-62 -23.5t-16 -36q0 -22 16 -36.5t62 -23t132 -8.5q87 0 133 8.5zM428 577h-140l95 171h182z" />
    <glyph glyph-name="uni0218" unicode="&#x218;" horiz-adv-x="940" 
d="M157 58.5q-100 71.5 -100 193.5v13h181v-9q0 -134 235 -134q133 0 183.5 24t50.5 65q0 37 -33 55.5t-84 24.5t-139 10q-124 6 -201 19t-132.5 55t-55.5 126q0 96 95 154t315 58q212 0 311.5 -70t99.5 -185v-8h-181v8q0 53 -54.5 86.5t-175.5 33.5q-129 0 -179 -23.5
t-50 -61.5q0 -31 31 -47t77.5 -21t131.5 -8q126 -5 207 -17.5t139.5 -56.5t58.5 -132q0 -102 -97 -163t-318 -61q-216 0 -316 71.5zM549 -79q23 -26 23 -78q0 -57 -24.5 -103t-67 -72.5t-94.5 -26.5v95h12q46 0 73.5 13.5t38.5 42.5q-14 -2 -21 -2q-38 0 -62 22.5t-24 56.5
q0 33 23 55.5t57 22.5q43 0 66 -26z" />
    <glyph glyph-name="uni0219" unicode="&#x219;" horiz-adv-x="738" 
d="M122.5 38.5q-77.5 51.5 -77.5 138.5v8h160v-6q0 -80 167 -80q95 0 130.5 16t35.5 42q0 23 -23.5 34t-58.5 14.5t-100 6.5q-96 4 -157 13.5t-105 40.5t-44 94q0 72 75 116.5t247 44.5q161 0 239 -53.5t82 -138.5h-160q-6 80 -161 80q-162 0 -162 -58q0 -30 42 -38.5
t134 -12.5q97 -3 159.5 -12.5t107.5 -41.5t45 -96q0 -163 -326 -163q-172 0 -249.5 51.5zM444 -79q23 -26 23 -78q0 -57 -24.5 -103t-67 -72.5t-94.5 -26.5v95h12q46 0 73.5 13.5t38.5 42.5q-14 -2 -21 -2q-38 0 -62 22.5t-24 56.5q0 33 23 55.5t57 22.5q43 0 66 -26z" />
    <glyph glyph-name="uni021A" unicode="&#x21a;" horiz-adv-x="778" 
d="M478 0h-178v552h-288v148h754v-148h-288v-552zM455 -79q23 -26 23 -78q0 -57 -24.5 -103t-67 -72.5t-94.5 -26.5v95h12q46 0 73.5 13.5t38.5 42.5q-14 -2 -21 -2q-38 0 -62 22.5t-24 56.5q0 33 23 55.5t57 22.5q43 0 66 -26z" />
    <glyph glyph-name="uni021B" unicode="&#x21b;" horiz-adv-x="677" 
d="M143.5 41.5q-72.5 54.5 -72.5 143.5q0 72 44.5 120.5t108.5 59.5v16h-212v114h132q31 0 44 13t13 44v76h129v-128h288v-119h-315q-38 -18 -59 -50.5t-21 -83.5q0 -128 139 -128q71 0 106 28t35 77v12h157v-15q0 -110 -74 -172t-224 -62q-146 0 -218.5 54.5zM431 -79
q23 -26 23 -78q0 -57 -24.5 -103t-67 -72.5t-94.5 -26.5v95h12q46 0 73.5 13.5t38.5 42.5q-14 -2 -21 -2q-38 0 -62 22.5t-24 56.5q0 33 23 55.5t57 22.5q43 0 66 -26z" />
    <glyph glyph-name="uni0232" unicode="&#x232;" horiz-adv-x="839" 
d="M330 0v221l-323 479h204l159 -242q41 -67 41 -118v-14h17v14q0 53 41 118l159 242h203l-323 -479v-221h-178zM647 801h-454v123h454v-123z" />
    <glyph glyph-name="uni0233" unicode="&#x233;" horiz-adv-x="708" 
d="M517 508h183l-259 -513q-55 -112 -123 -159.5t-167 -47.5q-31 0 -54.5 4t-49.5 14v130q41 -16 84 -16q51 0 83 17t55 58l-262 513h183l130 -293q25 -66 25 -107v-3h17v3q0 44 24 107zM568 615h-428v112h428v-112z" />
    <glyph glyph-name="uni0237" unicode="&#x237;" horiz-adv-x="353" 
d="M-13 -208q-25 4 -52 14v127q44 -16 87 -16q61 0 89.5 24t28.5 71v311q0 33 -14 46.5t-46 13.5q-29 0 -59 -11v130q47 19 111 19q87 0 123 -33t36 -107v-371q0 -108 -61.5 -165t-182.5 -57q-35 0 -60 4z" />
    <glyph glyph-name="uni0244" unicode="&#x244;" horiz-adv-x="997" 
d="M1015 504v-127h-117v-46q0 -162 -101.5 -253t-297.5 -91q-197 0 -298 90.5t-101 253.5v46h-118v127h118v196h178v-196h442v196h178v-196h117zM720 377h-442v-33q0 -97 55.5 -149.5t165.5 -52.5q109 0 165 52.5t56 149.5v33z" />
    <glyph glyph-name="uni0259" unicode="&#x259;" horiz-adv-x="777" 
d="M578.5 485.5q78.5 -35.5 118.5 -96t40 -135.5t-40 -135.5t-119 -96t-189 -35.5q-111 0 -190 35.5t-119 96.5t-40 137q0 20 3 44h542q-16 49 -65.5 77.5t-131.5 28.5q-79 0 -120.5 -18.5t-64.5 -45.5h-152q15 43 54.5 83t111 68t174.5 28q109 0 187.5 -35.5zM522 130.5
q50 29.5 64 80.5h-395q15 -51 65 -80.5t133 -29.5t133 29.5z" />
    <glyph glyph-name="uni0289" unicode="&#x289;" horiz-adv-x="836" 
d="M841 379v-97h-98v-282h-157l23 152h-16q-22 -80 -82 -122.5t-155 -42.5q-125 0 -197 73.5t-72 202.5v19h-97v97h97v129h158v-129h341v129h157v-129h98zM536.5 161q44.5 42 49.5 121h-341q5 -78 49.5 -120.5t120.5 -42.5q77 0 121.5 42z" />
    <glyph glyph-name="uni02BC" unicode="&#x2bc;" horiz-adv-x="246" 
d="M193 729.5q23 -26.5 23 -78.5q0 -63 -24 -112.5t-66.5 -77t-95.5 -27.5v96h12q51 0 78 16.5t37 54.5q-14 -2 -24 -2q-38 0 -62 22t-24 56t23 56.5t57 22.5q43 0 66 -26.5z" />
    <glyph glyph-name="circumflex" unicode="&#x2c6;" horiz-adv-x="531" 
d="M327 748l174 -171h-151l-84 87l-85 -87h-151l174 171h123z" />
    <glyph glyph-name="caron" unicode="&#x2c7;" horiz-adv-x="531" 
d="M266 661l84 87h151l-174 -171h-123l-174 171h151z" />
    <glyph glyph-name="breve" unicode="&#x2d8;" horiz-adv-x="541" 
d="M99.5 621.5q-61.5 49.5 -69.5 131.5h133q4 -36 31 -56.5t76 -20.5q50 0 77 20.5t31 56.5h133q-8 -82 -69.5 -131.5t-171.5 -49.5q-109 0 -170.5 49.5z" />
    <glyph glyph-name="dotaccent" unicode="&#x2d9;" horiz-adv-x="245" 
d="M55 608q-25 23 -25 58t25 58t68 23q42 0 67 -23t25 -58t-25 -58t-67 -23q-43 0 -68 23z" />
    <glyph glyph-name="ring" unicode="&#x2da;" horiz-adv-x="371" 
d="M71.5 595q-41.5 35 -41.5 89t41.5 89t114.5 35t114 -35t41 -89t-41 -89t-114 -35t-114.5 35zM235 652q17 13 17 32t-17 32t-49 13q-33 0 -50 -13t-17 -32t17 -32t50 -13q32 0 49 13z" />
    <glyph glyph-name="ogonek" unicode="&#x2db;" horiz-adv-x="308" 
d="M69.5 -213q-39.5 32 -39.5 85q0 47 34.5 86.5t106.5 57.5l107 -16q-70 -19 -97 -40.5t-27 -47.5q0 -22 17 -35t52 -13q25 0 55 9v-102q-39 -16 -91 -16q-78 0 -117.5 32z" />
    <glyph glyph-name="tilde" unicode="&#x2dc;" horiz-adv-x="516" 
d="M52 572q-22 42 -22 82q0 48 28.5 76t77.5 28q34 0 62 -13t65 -37q27 -18 42.5 -26t30.5 -8t24 9t9 24q0 23 -16 51h110q23 -43 23 -82q0 -48 -28.5 -76t-77.5 -28q-35 0 -64 13.5t-63 37.5q-29 18 -43.5 25.5t-29.5 7.5q-16 0 -24.5 -9t-8.5 -24q0 -23 16 -51h-111z" />
    <glyph glyph-name="hungarumlaut" unicode="&#x2dd;" horiz-adv-x="498" 
d="M134 577h-104l75 171h147zM351 577h-105l75 171h147z" />
    <glyph glyph-name="gravecomb" unicode="&#x300;" horiz-adv-x="0" 
d="M-30 577h-139l-138 171h182z" />
    <glyph glyph-name="acutecomb" unicode="&#x301;" horiz-adv-x="0" 
d="M-167 577h-140l95 171h182z" />
    <glyph glyph-name="uni0302" unicode="&#x302;" horiz-adv-x="0" 
d="M-204 748l174 -171h-151l-84 87l-85 -87h-151l174 171h123z" />
    <glyph glyph-name="tildecomb" unicode="&#x303;" horiz-adv-x="0" 
d="M-464 572q-22 42 -22 82q0 48 28.5 76t77.5 28q34 0 62 -13t65 -37q27 -18 42.5 -26t30.5 -8t24 9t9 24q0 23 -16 51h110q23 -43 23 -82q0 -48 -28.5 -76t-77.5 -28q-35 0 -64 13.5t-63 37.5q-29 18 -43.5 25.5t-29.5 7.5q-16 0 -24.5 -9t-8.5 -24q0 -23 16 -51h-111z
" />
    <glyph glyph-name="uni0304" unicode="&#x304;" horiz-adv-x="0" 
d="M-30 615h-428v112h428v-112z" />
    <glyph glyph-name="uni0306" unicode="&#x306;" horiz-adv-x="0" 
d="M-441.5 621.5q-61.5 49.5 -69.5 131.5h133q4 -36 31 -56.5t76 -20.5q50 0 77 20.5t31 56.5h133q-8 -82 -69.5 -131.5t-171.5 -49.5q-109 0 -170.5 49.5z" />
    <glyph glyph-name="uni0307" unicode="&#x307;" horiz-adv-x="0" 
d="M-190 608q-25 23 -25 58t25 58t68 23q42 0 67 -23t25 -58t-25 -58t-67 -23q-43 0 -68 23z" />
    <glyph glyph-name="uni0308" unicode="&#x308;" horiz-adv-x="0" 
d="M-421 616.5q-22 19.5 -22 49.5t22 50t59 20t59 -20t22 -50t-22 -49.5t-59 -19.5t-59 19.5zM-170 616.5q-22 19.5 -22 49.5t22 50t59 20t59 -20t22 -50t-22 -49.5t-59 -19.5t-59 19.5z" />
    <glyph glyph-name="uni030A" unicode="&#x30a;" horiz-adv-x="0" 
d="M-299.5 595q-41.5 35 -41.5 89t41.5 89t114.5 35t114 -35t41 -89t-41 -89t-114 -35t-114.5 35zM-136 652q17 13 17 32t-17 32t-49 13q-33 0 -50 -13t-17 -32t17 -32t50 -13q32 0 49 13z" />
    <glyph glyph-name="uni030B" unicode="&#x30b;" horiz-adv-x="0" 
d="M-364 577h-104l75 171h147zM-147 577h-105l75 171h147z" />
    <glyph glyph-name="uni030C" unicode="&#x30c;" horiz-adv-x="0" 
d="M-265 661l84 87h151l-174 -171h-123l-174 171h151z" />
    <glyph glyph-name="uni0312" unicode="&#x312;" horiz-adv-x="0" 
d="M-191.5 778.5q24.5 46.5 67 73t94.5 26.5v-96h-12q-47 0 -74 -13t-38 -43q14 2 22 2q38 0 61.5 -22t23.5 -56t-22.5 -56t-57.5 -22q-42 0 -65.5 26t-23.5 78q0 56 24.5 102.5z" />
    <glyph glyph-name="uni0326" unicode="&#x326;" horiz-adv-x="0" 
d="M-53 -79q23 -26 23 -78q0 -57 -24.5 -103t-67 -72.5t-94.5 -26.5v95h12q46 0 73.5 13.5t38.5 42.5q-14 -2 -21 -2q-38 0 -62 22.5t-24 56.5q0 33 23 55.5t57 22.5q43 0 66 -26z" />
    <glyph glyph-name="uni0327" unicode="&#x327;" horiz-adv-x="0" 
d="M-216 -50q186 0 186 -96q0 -46 -41 -72.5t-134 -26.5q-85 0 -148 29v84q64 -27 142 -27q43 0 58.5 6.5t15.5 18.5t-16.5 18.5t-64.5 6.5h-83v58l57 67h85z" />
    <glyph glyph-name="uni0328" unicode="&#x328;" horiz-adv-x="0" 
d="M-238.5 -213q-39.5 32 -39.5 85q0 47 34.5 86.5t106.5 57.5l107 -16q-70 -19 -97 -40.5t-27 -47.5q0 -22 17 -35t52 -13q25 0 55 9v-102q-39 -16 -91 -16q-78 0 -117.5 32z" />
    <glyph glyph-name="uni0401" unicode="&#x401;" horiz-adv-x="832" 
d="M775 700v-140h-517v-142h447v-125h-447v-153h517v-140h-695v700h695zM210 798.5q-25 21.5 -25 56.5q0 34 25 56t69 22t69 -22t25 -56q0 -35 -25 -56.5t-69 -21.5t-69 21.5zM507 798.5q-25 21.5 -25 56.5q0 34 25 56t69 22t69 -22t25 -56q0 -35 -24.5 -56.5t-69.5 -21.5
q-44 0 -69 21.5z" />
    <glyph glyph-name="uni0402" unicode="&#x402;" horiz-adv-x="1078" 
d="M885.5 397.5q78.5 -37.5 119.5 -104t41 -152.5q0 -85 -41 -151.5t-119.5 -104t-187.5 -37.5q-89 0 -148 13v137q53 -10 114 -10q102 0 153 41t51 112q0 72 -52.5 113t-162.5 41q-71 0 -120 -14t-85 -43v-238h-178v557h-248v143h754v-143h-328v-178q46 28 106.5 42
t143.5 14q109 0 187.5 -37.5z" />
    <glyph glyph-name="uni0403" unicode="&#x403;" horiz-adv-x="757" 
d="M258 0h-178v700h638v-148h-460v-552zM443 769h-140l95 171h182z" />
    <glyph glyph-name="uni0404" unicode="&#x404;" horiz-adv-x="1012" 
d="M705 168.5q69 41.5 89 101.5h173q-15 -79 -70.5 -143t-154 -102t-234.5 -38q-146 0 -249 47t-156 129.5t-53 186.5t53 186.5t156 129.5t249 47q136 0 234.5 -38t154 -102t70.5 -143h-173q-20 60 -89 101.5t-197 41.5q-114 0 -185 -43.5t-92 -118.5h375v-120h-375
q20 -75 91 -119.5t186 -44.5q128 0 197 41.5z" />
    <glyph glyph-name="uni0405" unicode="&#x405;" horiz-adv-x="940" 
d="M157 58.5q-100 71.5 -100 193.5v13h181v-9q0 -134 235 -134q133 0 183.5 24t50.5 65q0 37 -33 55.5t-84 24.5t-139 10q-124 6 -201 19t-132.5 55t-55.5 126q0 96 95 154t315 58q212 0 311.5 -70t99.5 -185v-8h-181v8q0 53 -54.5 86.5t-175.5 33.5q-129 0 -179 -23.5
t-50 -61.5q0 -31 31 -47t77.5 -21t131.5 -8q126 -5 207 -17.5t139.5 -56.5t58.5 -132q0 -102 -97 -163t-318 -61q-216 0 -316 71.5z" />
    <glyph glyph-name="uni0406" unicode="&#x406;" horiz-adv-x="730" 
d="M673 0h-616v143h219v414h-219v143h616v-143h-219v-414h219v-143z" />
    <glyph glyph-name="uni0407" unicode="&#x407;" horiz-adv-x="730" 
d="M673 0h-616v143h219v414h-219v143h616v-143h-219v-414h219v-143zM181 808.5q-22 19.5 -22 49.5t22 50t59 20t59 -20t22 -50t-22 -49.5t-59 -19.5t-59 19.5zM432 808.5q-22 19.5 -22 49.5t22 50t59 20t59 -20t22 -50t-22 -49.5t-59 -19.5t-59 19.5z" />
    <glyph glyph-name="uni0408" unicode="&#x408;" horiz-adv-x="809" 
d="M123.5 66q-88.5 79 -88.5 220v19h178v-13q0 -76 43.5 -116.5t130.5 -40.5t130.5 40.5t43.5 116.5v260h-426v148h604v-412q0 -143 -88.5 -222t-263.5 -79t-263.5 79z" />
    <glyph glyph-name="uni0409" unicode="&#x409;" horiz-adv-x="1466" 
d="M1145 464q141 0 212.5 -61.5t71.5 -170.5t-71.5 -170.5t-212.5 -61.5h-440v552h-329l-37 -337q-13 -114 -69 -171t-161 -57q-51 0 -89 14v149q24 -8 46 -8q48 0 71 23t30 80l53 455h663v-236h262zM1134 138q58 0 87.5 25.5t29.5 68.5t-29.5 68.5t-87.5 25.5h-260v-188
h260z" />
    <glyph glyph-name="uni040A" unicode="&#x40a;" horiz-adv-x="1441" 
d="M1119 464q142 0 213.5 -61.5t71.5 -170.5t-71.5 -170.5t-213.5 -61.5h-439v318h-422v-318h-178v700h178v-236h422v236h178v-236h261zM1109 138q58 0 87.5 25.5t29.5 68.5t-29.5 68.5t-87.5 25.5h-260v-188h260z" />
    <glyph glyph-name="uni040B" unicode="&#x40b;" horiz-adv-x="1078" 
d="M952.5 355.5q83.5 -79.5 83.5 -238.5v-117h-178v122q0 86 -49 128t-156 42q-71 0 -120 -14t-85 -43v-235h-178v557h-248v143h754v-143h-328v-178q46 28 106.5 42t143.5 14q171 0 254.5 -79.5z" />
    <glyph glyph-name="uni040C" unicode="&#x40c;" horiz-adv-x="845" 
d="M458 363l384 -363h-238l-346 340v-340h-178v700h178v-321l334 321h230zM473 769h-140l95 171h182z" />
    <glyph glyph-name="uni040E" unicode="&#x40e;" horiz-adv-x="824" 
d="M618 700h203l-308 -526q-55 -94 -122.5 -140.5t-167.5 -46.5q-63 0 -114 17v148q46 -10 84 -10q52 0 83 15.5t50 50.5l-319 492h207l160 -260q45 -79 45 -134v-10h17v10q0 29 9.5 61t30.5 73zM228 812.5q-67 50.5 -76 140.5h144q5 -36 37 -58t94 -22q63 0 95 22t38 58
h143q-9 -90 -76.5 -140.5t-199.5 -50.5t-199 50.5z" />
    <glyph glyph-name="uni040F" unicode="&#x40f;" horiz-adv-x="953" 
d="M695 700h178v-700h-311v-170h-171v170h-311v700h178v-555h437v555z" />
    <glyph glyph-name="uni0410" unicode="&#x410;" 
d="M887 0h-188l-52 115h-394l-52 -115h-189l333 700h209zM316 253h268l-88 194q-21 50 -29.5 82.5t-8.5 61.5v3h-16v-3q0 -29 -8.5 -61.5t-29.5 -82.5z" />
    <glyph glyph-name="uni0411" unicode="&#x411;" horiz-adv-x="882" 
d="M578 438q130 0 197.5 -58.5t67.5 -160.5t-67.5 -160.5t-197.5 -58.5h-498v700h723v-137h-557v-125h332zM557 137q52 0 80 24.5t28 65.5t-28 65t-80 24h-304v-179h304z" />
    <glyph glyph-name="uni0412" unicode="&#x412;" horiz-adv-x="908" 
d="M703 357q82 -7 126.5 -51.5t44.5 -116.5q0 -90 -62.5 -139.5t-196.5 -49.5h-535v700h538q116 0 173.5 -46t57.5 -124q0 -64 -38.5 -105.5t-107.5 -48.5v-19zM253 563v-147h326q45 0 68.5 20t23.5 53q0 34 -23.5 54t-68.5 20h-326zM596 137q50 0 75 20.5t25 57.5t-25 58
t-75 21h-343v-157h343z" />
    <glyph glyph-name="uni0413" unicode="&#x413;" horiz-adv-x="757" 
d="M258 0h-178v700h638v-148h-460v-552z" />
    <glyph glyph-name="uni0414" unicode="&#x414;" horiz-adv-x="997" 
d="M864 145h108v-315h-172v170h-611v-170h-172v315h43q82 0 93 102l53 453h658v-555zM693 145v410h-333l-32 -290q-9 -93 -55 -120h420z" />
    <glyph glyph-name="uni0415" unicode="&#x415;" horiz-adv-x="832" 
d="M775 700v-140h-517v-142h447v-125h-447v-153h517v-140h-695v700h695z" />
    <glyph glyph-name="uni0416" unicode="&#x416;" horiz-adv-x="1241" 
d="M893 363l335 -363h-220l-302 338v-338h-171v338l-302 -338h-221l336 363l-316 337h213l290 -318v318h171v-318l289 318h213z" />
    <glyph glyph-name="uni0417" unicode="&#x417;" horiz-adv-x="855" 
d="M661 354q75 -7 117.5 -50.5t42.5 -108.5q0 -94 -92.5 -151t-303.5 -57q-207 0 -301 65.5t-94 176.5v11h178v-11q0 -45 51.5 -75t165.5 -30q121 0 168 23.5t47 63.5q0 84 -185 84h-170v119h170q95 0 135 22t40 57q0 83 -205 83q-109 0 -158 -29.5t-49 -73.5v-8h-178v12
q0 108 92.5 172t292.5 64q138 0 224.5 -26.5t124 -69.5t37.5 -95q0 -63 -39 -102.5t-111 -46.5v-19z" />
    <glyph glyph-name="uni0418" unicode="&#x418;" horiz-adv-x="973" 
d="M80 0v700h171v-410q0 -59 -6.5 -100t-19.5 -84h17l374 594h277v-700h-171v410q0 59 6.5 100t19.5 84h-17l-374 -594h-277z" />
    <glyph glyph-name="uni0419" unicode="&#x419;" horiz-adv-x="973" 
d="M80 0v700h171v-410q0 -59 -6.5 -100t-19.5 -84h17l374 594h277v-700h-171v410q0 59 6.5 100t19.5 84h-17l-374 -594h-277zM303 812.5q-67 50.5 -76 140.5h144q5 -36 37 -58t94 -22q63 0 95 22t38 58h143q-9 -90 -76.5 -140.5t-199.5 -50.5t-199 50.5z" />
    <glyph glyph-name="uni041A" unicode="&#x41a;" horiz-adv-x="845" 
d="M458 363l384 -363h-238l-346 340v-340h-178v700h178v-321l334 321h230z" />
    <glyph glyph-name="uni041B" unicode="&#x41b;" horiz-adv-x="988" 
d="M20 1v149q24 -8 46 -8q48 0 71 23t30 80l53 455h688v-700h-178v552h-354l-37 -337q-13 -114 -69 -171t-161 -57q-51 0 -89 14z" />
    <glyph glyph-name="uni041C" unicode="&#x41c;" horiz-adv-x="1114" 
d="M80 0v700h277l169 -377q23 -67 23 -88v-9h16v9q0 21 23 88l169 377h278v-700h-172v396q0 67 5.5 110t17.5 88h-17l-213 -474h-198l-213 474h-17q12 -45 17.5 -88t5.5 -110v-396h-171z" />
    <glyph glyph-name="uni041D" unicode="&#x41d;" horiz-adv-x="963" 
d="M705 436v264h178v-700h-178v288h-447v-288h-178v700h178v-264h447z" />
    <glyph glyph-name="uni041E" unicode="&#x41e;" horiz-adv-x="1030" 
d="M261.5 34.5q-104.5 47.5 -158 129.5t-53.5 186t53.5 186t158 129.5t253.5 47.5t253.5 -47.5t158 -129.5t53.5 -186t-53.5 -186t-158 -129.5t-253.5 -47.5t-253.5 47.5zM672.5 160.5q64.5 28.5 97 78t32.5 111.5t-32.5 111.5t-97 78t-157.5 28.5t-157.5 -28.5t-97 -78
t-32.5 -111.5t32.5 -111.5t97 -78t157.5 -28.5t157.5 28.5z" />
    <glyph glyph-name="uni041F" unicode="&#x41f;" horiz-adv-x="948" 
d="M258 0h-178v700h788v-700h-178v552h-432v-552z" />
    <glyph glyph-name="uni0420" unicode="&#x420;" horiz-adv-x="868" 
d="M530 700q145 0 219 -64.5t74 -177.5t-74 -178t-219 -65h-272v-215h-178v700h450zM523 358q60 0 91 27t31 73t-31 72.5t-91 26.5h-274v-199h274z" />
    <glyph glyph-name="uni0421" unicode="&#x421;" horiz-adv-x="1007" 
d="M259 34q-103 47 -156 129.5t-53 186.5t53 186.5t156 129.5t249 47q137 0 235.5 -38.5t154 -104.5t69.5 -150h-178q-15 62 -85 105t-196 43q-89 0 -152.5 -28.5t-95.5 -78t-32 -111.5t32 -111.5t95.5 -78t152.5 -28.5q126 0 196 43t85 105h178q-14 -85 -69 -151
t-153.5 -104t-236.5 -38q-146 0 -249 47z" />
    <glyph glyph-name="uni0422" unicode="&#x422;" horiz-adv-x="778" 
d="M478 0h-178v552h-288v148h754v-148h-288v-552z" />
    <glyph glyph-name="uni0423" unicode="&#x423;" horiz-adv-x="824" 
d="M618 700h203l-308 -526q-55 -94 -122.5 -140.5t-167.5 -46.5q-63 0 -114 17v148q46 -10 84 -10q52 0 83 15.5t50 50.5l-319 492h207l160 -260q45 -79 45 -134v-10h17v10q0 29 9.5 61t30.5 73z" />
    <glyph glyph-name="uni0424" unicode="&#x424;" horiz-adv-x="1117" 
d="M1026 189q-46 -70 -141.5 -110t-237.5 -41v-73h-178v73q-142 1 -237 41t-141 110t-46 161t46 161t141 110t237 41v73h178v-73q142 -1 237.5 -41t141.5 -110t46 -161t-46 -161zM283 223.5q63 -47.5 190 -47.5h5v348h-5q-127 0 -190 -47.5t-63 -126.5t63 -126.5zM644 176
q127 0 189.5 47.5t62.5 126.5t-62.5 126.5t-189.5 47.5h-5v-348h5z" />
    <glyph glyph-name="uni0425" unicode="&#x425;" horiz-adv-x="901" 
d="M15 0l305 355l-295 345h220l151 -178q24 -33 35 -56t11 -43v-12h17v12q0 21 11 44t35 55l151 178h220l-295 -345l305 -355h-224l-163 192q-21 27 -30.5 47.5t-9.5 41.5v9h-17v-9q0 -20 -9.5 -40.5t-30.5 -48.5l-163 -192h-224z" />
    <glyph glyph-name="uni0426" unicode="&#x426;" horiz-adv-x="991" 
d="M966 -170h-172v170h-714v700h178v-555h422v555h178v-555h108v-315z" />
    <glyph glyph-name="uni0427" unicode="&#x427;" horiz-adv-x="897" 
d="M640 700h178v-700h-178v243q-46 -28 -106.5 -42t-143.5 -14q-171 0 -254.5 79.5t-83.5 238.5v195h178v-195q0 -86 48.5 -128t155.5 -42q72 0 121 14t85 43v308z" />
    <glyph glyph-name="uni0428" unicode="&#x428;" horiz-adv-x="1223" 
d="M965 145v555h178v-700h-1063v700h178v-555h268v555h171v-555h268z" />
    <glyph glyph-name="uni0429" unicode="&#x429;" horiz-adv-x="1276" 
d="M1143 700v-555h108v-315h-172v170h-999v700h178v-555h268v555h171v-555h268v555h178z" />
    <glyph glyph-name="uni042A" unicode="&#x42a;" horiz-adv-x="978" 
d="M647 490q143 0 218 -66t75 -180q0 -113 -75 -178.5t-218 -65.5h-450v552h-185v148h363v-210h272zM638 143q60 0 92 27.5t32 73.5q0 47 -32 75t-92 28h-272v-204h272z" />
    <glyph glyph-name="uni042B" unicode="&#x42b;" horiz-adv-x="1147" 
d="M502 490q144 0 219 -66t75 -180q0 -113 -75.5 -178.5t-218.5 -65.5h-422v700h178v-210h244zM890 0v700h178v-700h-178zM493 143q60 0 92.5 27.5t32.5 73.5q0 47 -32.5 75t-92.5 28h-244v-204h244z" />
    <glyph glyph-name="uni042C" unicode="&#x42c;" horiz-adv-x="860" 
d="M530 490q143 0 218 -66t75 -180q0 -113 -75 -178.5t-218 -65.5h-450v700h178v-210h272zM521 143q60 0 92 27.5t32 73.5q0 47 -32 75t-92 28h-272v-204h272z" />
    <glyph glyph-name="uni042D" unicode="&#x42d;" horiz-adv-x="1012" 
d="M752.5 666q103.5 -47 156.5 -129.5t53 -186.5t-53 -186.5t-156.5 -129.5t-249.5 -47q-136 0 -234 38t-153.5 102t-70.5 143h173q20 -60 89 -101.5t196 -41.5q116 0 187 44.5t91 119.5h-375v120h375q-21 75 -92 118.5t-186 43.5q-127 0 -196 -41.5t-89 -101.5h-173
q15 79 70.5 143t153.5 102t234 38q146 0 249.5 -47z" />
    <glyph glyph-name="uni042E" unicode="&#x42e;" horiz-adv-x="1284" 
d="M1028.5 665.5q98.5 -47.5 150 -130t51.5 -185.5t-51.5 -185.5t-150 -130t-233.5 -47.5q-120 0 -211.5 37.5t-147 104t-71.5 152.5h-107v-281h-178v700h178v-278h108q17 86 72.5 151.5t146.5 102.5t210 37q135 0 233.5 -47.5zM930.5 160.5q59.5 28.5 90.5 78t31 111.5
t-31 111.5t-90.5 78t-139.5 28.5t-139 -28.5t-90 -78t-31 -111.5t31 -111.5t90 -78t139 -28.5t139.5 28.5z" />
    <glyph glyph-name="uni042F" unicode="&#x42f;" horiz-adv-x="874" 
d="M794 700v-700h-178v243h-190q-51 0 -76.5 -13.5t-41.5 -49.5l-76 -180h-212l66 144q29 62 62 86t88 26v17q-50 4 -91 32t-65 73.5t-24 101.5q0 99 73 159.5t211 60.5h454zM625 355v205h-267q-61 0 -92.5 -27.5t-31.5 -74.5t31.5 -75t92.5 -28h267z" />
    <glyph glyph-name="uni0430" unicode="&#x430;" horiz-adv-x="771" 
d="M106.5 28.5q-56.5 41.5 -56.5 112.5q0 70 56.5 111t177.5 41q87 0 144 -15.5t113 -45.5v37q0 60 -45 96t-133 36q-77 0 -118.5 -24t-52.5 -60h-157q11 90 92.5 147t237.5 57q163 0 246.5 -69.5t83.5 -188.5v-108q0 -20 9 -29t27 -9q15 0 28 4v-123q-36 -11 -70 -11
q-60 0 -92 27.5t-32 71.5v4h-17v-3q0 -25 -29 -47.5t-88.5 -37.5t-146.5 -15q-121 0 -177.5 41.5zM541 135v28q-48 19 -93.5 29t-104.5 10q-76 0 -104.5 -14t-28.5 -40t28 -40t105 -14q109 0 198 41z" />
    <glyph glyph-name="uni0431" unicode="&#x431;" horiz-adv-x="784" 
d="M135.5 70.5q-90.5 83.5 -90.5 240.5q0 163 94.5 249.5t285.5 86.5q78 0 116 7t50.5 20.5t12.5 38.5h160q0 -76 -23.5 -115.5t-87.5 -57.5t-191 -18q-147 0 -212.5 -49t-65.5 -141v-9h13q20 59 78 93t177 34q95 0 161.5 -29.5t100 -80.5t33.5 -117q0 -107 -84.5 -171.5
t-256.5 -64.5q-180 0 -270.5 83.5zM543 140.5q46 31.5 46 82.5q0 50 -46.5 81.5t-143.5 31.5q-98 0 -144.5 -31.5t-46.5 -81.5q0 -51 46.5 -82.5t144.5 -31.5t144 31.5z" />
    <glyph glyph-name="uni0432" unicode="&#x432;" horiz-adv-x="731" 
d="M579 258q59 0 94.5 -34t35.5 -88q0 -64 -44.5 -100t-135.5 -36h-462v508h451q84 0 127.5 -34t43.5 -88q0 -49 -30.5 -80t-78.5 -31h-2v-17h1zM219 398v-96h258q25 0 39.5 13.5t14.5 34.5t-14.5 34.5t-39.5 13.5h-258zM490 109q30 0 45.5 13.5t15.5 37.5q0 23 -15.5 36.5
t-45.5 13.5h-271v-101h271z" />
    <glyph glyph-name="uni0433" unicode="&#x433;" horiz-adv-x="738" 
d="M108.5 26q-68.5 39 -68.5 107q0 62 45.5 96.5t108.5 47.5t158 23q89 10 127.5 20t38.5 36q0 25 -33.5 39t-125.5 14q-154 0 -159 -78h-160q4 94 89 142t233 48q166 0 241 -40.5t75 -111.5q0 -58 -44 -90t-104.5 -45t-155.5 -23q-91 -11 -132.5 -22.5t-41.5 -38.5
q0 -17 11.5 -28t44.5 -17t97 -6q180 0 180 76v5h160v-5q0 -81 -83 -134.5t-266 -53.5q-167 0 -235.5 39z" />
    <glyph glyph-name="uni0434" unicode="&#x434;" horiz-adv-x="794" 
d="M131 57q-86 70 -86 187q0 70 34 124.5t101 85.5t162 31q111 0 171.5 -35.5t80.5 -93.5h13v11q0 99 -74 157.5t-222 58.5q-143 0 -256 -43v130q102 43 259 43q140 0 238 -47.5t147.5 -135.5t49.5 -209q0 -111 -45 -185q-40 -72 -120.5 -110.5t-196.5 -38.5q-170 0 -256 70
zM538 147q49 36 49 91q0 56 -48.5 92t-144.5 36t-144 -36t-48 -92q0 -55 48.5 -91t143.5 -36t144 36z" />
    <glyph glyph-name="uni0435" unicode="&#x435;" horiz-adv-x="777" 
d="M734 208h-542q16 -50 66 -78.5t132 -28.5q78 0 119 18.5t65 45.5h152q-15 -42 -54 -82.5t-110.5 -68t-174.5 -27.5q-110 0 -188.5 35.5t-118.5 96t-40 135.5t40.5 135.5t119 96t189.5 35.5q110 0 189 -35.5t119 -96.5t40 -137q0 -21 -3 -44zM256 377q-50 -29 -65 -80h395
q-15 51 -64.5 80t-132.5 29t-133 -29z" />
    <glyph glyph-name="uni0436" unicode="&#x436;" horiz-adv-x="973" 
d="M727 265l246 -265h-190l-221 250v-250h-151v250l-221 -250h-190l246 265l-236 243h186l215 -231v231h151v-231l215 231h186z" />
    <glyph glyph-name="uni0437" unicode="&#x437;" horiz-adv-x="672" 
d="M519 260q60 -1 95.5 -34.5t35.5 -83.5q0 -72 -71 -113.5t-243 -41.5q-169 0 -241.5 47t-72.5 131v10h158v-7q0 -33 34 -51t122 -18q92 0 124 14.5t32 42.5q0 29 -30 43.5t-114 14.5h-107v89h107q77 0 105.5 14t28.5 39q0 26 -30.5 39.5t-115.5 13.5q-146 0 -146 -67v-7
h-158v11q0 81 71.5 128t232.5 47q164 0 234 -38.5t70 -99.5q0 -46 -32 -76t-89 -31v-16z" />
    <glyph glyph-name="uni0438" unicode="&#x438;" horiz-adv-x="798" 
d="M67 0v508h151v-244q0 -58 -5.5 -97.5t-17.5 -80.5h17l275 422h243v-508h-150v243q0 60 5.5 99.5t16.5 79.5h-16l-275 -422h-244z" />
    <glyph glyph-name="uni0439" unicode="&#x439;" horiz-adv-x="798" 
d="M67 0v508h151v-244q0 -58 -5.5 -97.5t-17.5 -80.5h17l275 422h243v-508h-150v243q0 60 5.5 99.5t16.5 79.5h-16l-275 -422h-244zM232 621.5q-62 49.5 -70 131.5h133q4 -38 32 -59.5t80 -21.5q53 0 81 21.5t32 59.5h133q-8 -82 -70.5 -131.5t-175.5 -49.5t-175 49.5z" />
    <glyph glyph-name="uni043A" unicode="&#x43a;" horiz-adv-x="683" 
d="M403 265l285 -265h-207l-256 251v-251h-158v508h158v-232l250 232h203z" />
    <glyph glyph-name="uni043B" unicode="&#x43b;" horiz-adv-x="777" 
d="M12 1v133q19 -7 40 -7q38 0 56.5 20.5t23.5 60.5l35 300h543v-508h-157v375h-250l-24 -205q-10 -91 -56.5 -137t-127.5 -46q-52 0 -83 14z" />
    <glyph glyph-name="uni043C" unicode="&#x43c;" horiz-adv-x="920" 
d="M67 0v508h238l125 -263q21 -55 21 -81v-4h17v4q0 23 22 81l125 263h237v-508h-150v277q0 81 16 145h-17l-166 -347h-151l-166 347h-16q16 -71 16 -145v-277h-151z" />
    <glyph glyph-name="uni043D" unicode="&#x43d;" horiz-adv-x="793" 
d="M568 326v182h157v-508h-157v194h-343v-194h-158v508h158v-182h343z" />
    <glyph glyph-name="uni043E" unicode="&#x43e;" horiz-adv-x="789" 
d="M201 22.5q-80 35.5 -120.5 96t-40.5 135.5t40.5 135.5t120.5 96t194 35.5q113 0 193 -35.5t120.5 -96t40.5 -135.5t-40.5 -135.5t-120.5 -96t-193 -35.5q-114 0 -194 35.5zM541 151.5q51 40.5 51 102.5q0 61 -51 101.5t-146 40.5t-146.5 -40.5t-51.5 -101.5
q0 -62 51.5 -102.5t146.5 -40.5t146 40.5z" />
    <glyph glyph-name="uni043F" unicode="&#x43f;" horiz-adv-x="778" 
d="M225 0h-158v508h643v-508h-157v375h-328v-375z" />
    <glyph glyph-name="uni0440" unicode="&#x440;" horiz-adv-x="803" 
d="M67 -192v700h158l-24 -138h17q24 72 88 111.5t168 39.5q86 0 150 -34t99 -94.5t35 -138.5q0 -79 -35 -139.5t-99 -94t-150 -33.5q-104 0 -168 39.5t-88 110.5h-17q12 -52 18 -94.5t6 -88.5v-146h-158zM552 151.5q49 40.5 49 102.5t-49 102t-138 40q-90 0 -138.5 -40
t-48.5 -102t49 -102.5t138 -40.5t138 40.5z" />
    <glyph glyph-name="uni0441" unicode="&#x441;" horiz-adv-x="759" 
d="M198 22.5q-78 35.5 -118 96t-40 135.5t40 135.5t118 96t187 35.5q99 0 174 -29.5t118.5 -81.5t51.5 -118h-158q-10 44 -57.5 74t-128.5 30q-59 0 -101.5 -19t-64.5 -51.5t-22 -71.5t22 -71.5t64.5 -52t101.5 -19.5q81 0 128.5 30t57.5 74h158q-8 -66 -51.5 -118
t-118.5 -81t-174 -29q-109 0 -187 35.5z" />
    <glyph glyph-name="uni0442" unicode="&#x442;" horiz-adv-x="617" 
d="M387 0h-157v375h-223v133h603v-133h-223v-375z" />
    <glyph glyph-name="uni0443" unicode="&#x443;" horiz-adv-x="708" 
d="M517 508h183l-259 -513q-55 -112 -123 -159.5t-167 -47.5q-31 0 -54.5 4t-49.5 14v130q41 -16 84 -16q51 0 83 17t55 58l-262 513h183l130 -293q25 -66 25 -107v-3h17v3q0 44 24 107z" />
    <glyph glyph-name="uni0444" unicode="&#x444;" horiz-adv-x="1106" 
d="M471 -41q0 38 5 69t15 70h-17q-19 -48 -68 -79.5t-126 -31.5q-70 0 -123 31t-82.5 91.5t-29.5 144.5t29.5 144t82.5 91.5t123 31.5q77 0 126 -31.5t68 -80.5h17q-10 39 -15 70t-5 69v152h165v-152q0 -38 -5 -69t-15 -70h16q20 49 69 80.5t126 31.5q70 0 123 -31.5
t82.5 -91.5t29.5 -144t-29.5 -144.5t-82.5 -91.5t-123 -31q-77 0 -126 31t-69 80h-16q10 -39 15 -70t5 -69v-151h-165v151zM440 150q38 39 38 104q0 64 -38 103t-101 39t-101 -39t-38 -103q0 -65 38 -104t101 -39t101 39zM869 150q38 39 38 104q0 64 -38 103t-101 39
t-101 -39t-38 -103q0 -65 38 -104t101 -39t101 39z" />
    <glyph glyph-name="uni0445" unicode="&#x445;" horiz-adv-x="724" 
d="M7 0l239 259l-229 249h197l102 -114q38 -49 38 -85v-4h16v4q0 20 10 40.5t28 44.5l101 114h197l-229 -249l239 -259h-200l-114 127q-32 39 -32 70v7h-16v-7q0 -30 -31 -70l-115 -127h-201z" />
    <glyph glyph-name="uni0446" unicode="&#x446;" horiz-adv-x="808" 
d="M793 -140h-151v140h-575v508h158v-378h318v378h157v-378h93v-270z" />
    <glyph glyph-name="uni0447" unicode="&#x447;" horiz-adv-x="735" 
d="M510 508h157v-508h-157v168q-40 -25 -84.5 -36.5t-108.5 -11.5q-143 0 -210 65t-67 199v124h157v-115q0 -73 36.5 -107t120.5 -34q50 0 87 11.5t69 36.5v208z" />
    <glyph glyph-name="uni0448" unicode="&#x448;" horiz-adv-x="1000" 
d="M775 130v378h157v-508h-865v508h158v-378h199v378h151v-378h200z" />
    <glyph glyph-name="uni0449" unicode="&#x449;" horiz-adv-x="1040" 
d="M932 508v-378h93v-270h-151v140h-807v508h158v-378h199v378h151v-378h200v378h157z" />
    <glyph glyph-name="uni044A" unicode="&#x44a;" horiz-adv-x="778" 
d="M533 368q109 0 164.5 -48.5t55.5 -135.5t-55.5 -135.5t-164.5 -48.5h-370v375h-156v133h313v-140h213zM513 117q40 0 61.5 18.5t21.5 48.5q0 31 -21.5 49.5t-61.5 18.5h-202v-135h202z" />
    <glyph glyph-name="uni044B" unicode="&#x44b;" horiz-adv-x="936" 
d="M409 368q110 0 165.5 -48.5t55.5 -135.5t-55.5 -135.5t-165.5 -48.5h-342v508h158v-140h184zM712 0v508h157v-508h-157zM395 117q40 0 61.5 18.5t21.5 48.5q0 31 -21.5 49.5t-61.5 18.5h-180v-135h180z" />
    <glyph glyph-name="uni044C" unicode="&#x44c;" horiz-adv-x="683" 
d="M437 368q110 0 165.5 -48.5t55.5 -135.5t-55.5 -135.5t-165.5 -48.5h-370v508h158v-140h212zM418 117q40 0 61 18.5t21 48.5q0 31 -21 49.5t-61 18.5h-203v-135h203z" />
    <glyph glyph-name="uni044D" unicode="&#x44d;" horiz-adv-x="764" 
d="M566 485.5q78 -35.5 118 -96t40 -135.5t-40 -135.5t-118 -96t-187 -35.5q-98 0 -173.5 29t-119 79t-51.5 113h152q10 -41 59.5 -71.5t132.5 -30.5q73 0 120.5 27t63.5 72h-250v97h251q-17 45 -64.5 72t-120.5 27q-84 0 -133 -30t-59 -71h-152q8 63 52 113t119 79t173 29
q109 0 187 -35.5z" />
    <glyph glyph-name="uni044E" unicode="&#x44e;" horiz-adv-x="1016" 
d="M819.5 486.5q74.5 -34.5 113 -95t38.5 -137.5t-38.5 -137.5t-113 -95t-179.5 -34.5q-135 0 -219 56.5t-105 150.5h-91v-194h-158v508h158v-190h91q22 92 106.5 147.5t217.5 55.5q105 0 179.5 -34.5zM767 151.5q47 40.5 47 102.5t-47 102t-131 40q-83 0 -129.5 -40
t-46.5 -102t46.5 -102.5t129.5 -40.5q84 0 131 40.5z" />
    <glyph glyph-name="uni044F" unicode="&#x44f;" horiz-adv-x="712" 
d="M645 508v-508h-157v160h-153q-33 0 -53.5 -11.5t-30.5 -37.5l-41 -111h-193l38 84q23 50 49 70.5t73 22.5v15q-63 5 -100.5 45.5t-37.5 99.5q0 80 56 125.5t171 45.5h379zM500 254v139h-220q-40 0 -62 -19t-22 -51q0 -31 22 -50t62 -19h220z" />
    <glyph glyph-name="uni0451" unicode="&#x451;" horiz-adv-x="777" 
d="M734 208h-542q16 -50 66 -78.5t132 -28.5q78 0 119 18.5t65 45.5h152q-15 -42 -54 -82.5t-110.5 -68t-174.5 -27.5q-110 0 -188.5 35.5t-118.5 96t-40 135.5t40.5 135.5t119 96t189.5 35.5q110 0 189 -35.5t119 -96.5t40 -137q0 -21 -3 -44zM256 377q-50 -29 -65 -80h395
q-15 51 -64.5 80t-132.5 29t-133 -29zM204 616.5q-22 19.5 -22 49.5t22 50t59 20t59 -20t22 -50t-22 -49.5t-59 -19.5t-59 19.5zM455 616.5q-22 19.5 -22 49.5t22 50t59 20t59 -20t22 -50t-22 -49.5t-59 -19.5t-59 19.5z" />
    <glyph glyph-name="uni0452" unicode="&#x452;" horiz-adv-x="835" 
d="M708 400.5q75 -77.5 75 -218.5t-80.5 -217.5t-232.5 -76.5q-39 0 -67.5 3t-58.5 11v125q23 -7 43.5 -9.5t51.5 -2.5q90 0 138.5 44.5t48.5 122.5q0 79 -48 124t-138 45q-86 0 -133.5 -48t-47.5 -137v-166h-157v536h-97v100h97v64h157v-64h258v-100h-258v-41
q0 -82 -23 -183h17q21 80 83.5 123t162.5 43q134 0 209 -77.5z" />
    <glyph glyph-name="uni0453" unicode="&#x453;" horiz-adv-x="738" 
d="M108.5 26q-68.5 39 -68.5 107q0 62 45.5 96.5t108.5 47.5t158 23q89 10 127.5 20t38.5 36q0 25 -33.5 39t-125.5 14q-154 0 -159 -78h-160q4 94 89 142t233 48q166 0 241 -40.5t75 -111.5q0 -58 -44 -90t-104.5 -45t-155.5 -23q-91 -11 -132.5 -22.5t-41.5 -38.5
q0 -17 11.5 -28t44.5 -17t97 -6q180 0 180 76v5h160v-5q0 -81 -83 -134.5t-266 -53.5q-167 0 -235.5 39zM405 577h-140l95 171h182z" />
    <glyph glyph-name="uni0454" unicode="&#x454;" horiz-adv-x="764" 
d="M517 136q49 30 60 72h152q-8 -63 -51.5 -113t-119 -79t-173.5 -29q-109 0 -187 35.5t-118 96t-40 135.5t40 135.5t118 96t187 35.5q98 0 173 -29t119 -79t52 -113h-152q-11 42 -60 71.5t-132 29.5q-74 0 -121.5 -27t-63.5 -72h250v-97h-250q17 -45 64.5 -72t120.5 -27
q83 0 132 30z" />
    <glyph glyph-name="uni0455" unicode="&#x455;" horiz-adv-x="738" 
d="M122.5 38.5q-77.5 51.5 -77.5 138.5v8h160v-6q0 -80 167 -80q95 0 130.5 16t35.5 42q0 23 -23.5 34t-58.5 14.5t-100 6.5q-96 4 -157 13.5t-105 40.5t-44 94q0 72 75 116.5t247 44.5q161 0 239 -53.5t82 -138.5h-160q-6 80 -161 80q-162 0 -162 -58q0 -30 42 -38.5
t134 -12.5q97 -3 159.5 -12.5t107.5 -41.5t45 -96q0 -163 -326 -163q-172 0 -249.5 51.5z" />
    <glyph glyph-name="uni0456" unicode="&#x456;" horiz-adv-x="543" 
d="M367 130h158v-130h-493v130h184v193q0 33 -13.5 46.5t-46.5 13.5q-29 0 -59 -11v130q47 19 111 19q87 0 123 -33t36 -107v-251zM202 608q-25 23 -25 58t25 58t68 23q42 0 67 -23t25 -58t-25 -58t-67 -23q-43 0 -68 23z" />
    <glyph glyph-name="uni0457" unicode="&#x457;" horiz-adv-x="543" 
d="M367 130h158v-130h-493v130h184v193q0 33 -13.5 46.5t-46.5 13.5q-29 0 -59 -11v130q47 19 111 19q87 0 123 -33t36 -107v-251zM85 616.5q-22 19.5 -22 49.5t22 50t59 20t59 -20t22 -50t-22 -49.5t-59 -19.5t-59 19.5zM336 616.5q-22 19.5 -22 49.5t22 50t59 20t59 -20
t22 -50t-22 -49.5t-59 -19.5t-59 19.5z" />
    <glyph glyph-name="uni0458" unicode="&#x458;" horiz-adv-x="353" 
d="M-13 -208q-25 4 -52 14v127q44 -16 87 -16q61 0 89.5 24t28.5 71v311q0 33 -14 46.5t-46 13.5q-29 0 -59 -11v130q47 19 111 19q87 0 123 -33t36 -107v-371q0 -108 -61.5 -165t-182.5 -57q-35 0 -60 4zM126 608q-25 23 -25 58t25 58t68 23q42 0 67 -23t25 -58t-25 -58
t-67 -23q-43 0 -68 23z" />
    <glyph glyph-name="uni0459" unicode="&#x459;" horiz-adv-x="1123" 
d="M887 346q105 0 158 -46t53 -127t-53 -127t-158 -46h-359v375h-225l-24 -205q-10 -91 -56.5 -137t-127.5 -46q-52 0 -83 14v133q19 -7 40 -7q38 0 56.5 20.5t23.5 60.5l35 300h518v-162h202zM865 109q36 0 56 17.5t20 46.5t-20 46.5t-56 17.5h-189v-128h189z" />
    <glyph glyph-name="uni045A" unicode="&#x45a;" horiz-adv-x="1138" 
d="M902 346q105 0 158 -46t53 -127t-53 -127t-158 -46h-359v222h-318v-222h-158v508h158v-162h318v162h157v-162h202zM880 109q36 0 56 17.5t20 46.5t-20 46.5t-56 17.5h-189v-128h189z" />
    <glyph glyph-name="uni045B" unicode="&#x45b;" horiz-adv-x="835" 
d="M699 403.5q74 -74.5 74 -206.5v-197h-157v166q0 89 -47 137t-132 48q-84 0 -131 -48t-47 -137v-166h-157v536h-97v100h97v64h157v-64h258v-100h-258v-41q0 -82 -23 -183h17q21 80 83 123t160 43q129 0 203 -74.5z" />
    <glyph glyph-name="uni045C" unicode="&#x45c;" horiz-adv-x="683" 
d="M403 265l285 -265h-207l-256 251v-251h-158v508h158v-232l250 232h203zM398 577h-140l95 171h182z" />
    <glyph glyph-name="uni045E" unicode="&#x45e;" horiz-adv-x="708" 
d="M517 508h183l-259 -513q-55 -112 -123 -159.5t-167 -47.5q-31 0 -54.5 4t-49.5 14v130q41 -16 84 -16q51 0 83 17t55 58l-262 513h183l130 -293q25 -66 25 -107v-3h17v3q0 44 24 107zM178 621.5q-62 49.5 -70 131.5h133q4 -38 32 -59.5t80 -21.5q53 0 81 21.5t32 59.5
h133q-8 -82 -70.5 -131.5t-175.5 -49.5t-175 49.5z" />
    <glyph glyph-name="uni045F" unicode="&#x45f;" horiz-adv-x="783" 
d="M558 508h157v-508h-248v-140h-151v140h-249v508h158v-378h333v378z" />
    <glyph glyph-name="uni0490" unicode="&#x490;" horiz-adv-x="757" 
d="M547 700v161h171v-309h-460v-552h-178v700h467z" />
    <glyph glyph-name="uni0491" unicode="&#x491;" horiz-adv-x="605" 
d="M428 508v124h150v-257h-353v-375h-158v508h361z" />
    <glyph glyph-name="Wgrave" unicode="&#x1e80;" horiz-adv-x="1173" 
d="M232 0l-205 700h192l120 -448q17 -72 17 -139v-7h16v7q0 77 16 139l100 328h198l99 -328q16 -62 16 -139v-7h17v7q0 65 16 139l120 448h192l-205 -700h-225l-99 305q-13 47 -17.5 78t-4.5 87v4h-17v-4q0 -56 -4.5 -87t-17.5 -78l-99 -305h-225zM695 767h-154l-167 181
h207z" />
    <glyph glyph-name="wgrave" unicode="&#x1e81;" horiz-adv-x="987" 
d="M178 0l-166 508h171l90 -306q13 -51 13 -109v-7h17v7q0 62 12 109l95 306h167l95 -306q12 -47 12 -109v-7h17v7q0 58 13 109l90 306h171l-166 -508h-197l-96 277q-8 28 -11 59.5t-3 80.5v5h-17v-5q0 -49 -3 -80.5t-11 -59.5l-96 -277h-197zM590 577h-139l-138 171h182z
" />
    <glyph glyph-name="Wacute" unicode="&#x1e82;" horiz-adv-x="1173" 
d="M232 0l-205 700h192l120 -448q17 -72 17 -139v-7h16v7q0 77 16 139l100 328h198l99 -328q16 -62 16 -139v-7h17v7q0 65 16 139l120 448h192l-205 -700h-225l-99 305q-13 47 -17.5 78t-4.5 87v4h-17v-4q0 -56 -4.5 -87t-17.5 -78l-99 -305h-225zM634 767h-155l115 181h206
z" />
    <glyph glyph-name="wacute" unicode="&#x1e83;" horiz-adv-x="987" 
d="M178 0l-166 508h171l90 -306q13 -51 13 -109v-7h17v7q0 62 12 109l95 306h167l95 -306q12 -47 12 -109v-7h17v7q0 58 13 109l90 306h171l-166 -508h-197l-96 277q-8 28 -11 59.5t-3 80.5v5h-17v-5q0 -49 -3 -80.5t-11 -59.5l-96 -277h-197zM538 577h-140l95 171h182z" />
    <glyph glyph-name="Wdieresis" unicode="&#x1e84;" horiz-adv-x="1173" 
d="M232 0l-205 700h192l120 -448q17 -72 17 -139v-7h16v7q0 77 16 139l100 328h198l99 -328q16 -62 16 -139v-7h17v7q0 65 16 139l120 448h192l-205 -700h-225l-99 305q-13 47 -17.5 78t-4.5 87v4h-17v-4q0 -56 -4.5 -87t-17.5 -78l-99 -305h-225zM369 798.5
q-25 21.5 -25 56.5q0 34 25 56t69 22t69 -22t25 -56q0 -35 -25 -56.5t-69 -21.5t-69 21.5zM666 798.5q-25 21.5 -25 56.5q0 34 25 56t69 22t69 -22t25 -56q0 -35 -24.5 -56.5t-69.5 -21.5q-44 0 -69 21.5z" />
    <glyph glyph-name="wdieresis" unicode="&#x1e85;" horiz-adv-x="987" 
d="M178 0l-166 508h171l90 -306q13 -51 13 -109v-7h17v7q0 62 12 109l95 306h167l95 -306q12 -47 12 -109v-7h17v7q0 58 13 109l90 306h171l-166 -508h-197l-96 277q-8 28 -11 59.5t-3 80.5v5h-17v-5q0 -49 -3 -80.5t-11 -59.5l-96 -277h-197zM309 616.5q-22 19.5 -22 49.5
t22 50t59 20t59 -20t22 -50t-22 -49.5t-59 -19.5t-59 19.5zM560 616.5q-22 19.5 -22 49.5t22 50t59 20t59 -20t22 -50t-22 -49.5t-59 -19.5t-59 19.5z" />
    <glyph glyph-name="uni1E9E" unicode="&#x1e9e;" horiz-adv-x="983" 
d="M467.5 16.5q-71.5 29.5 -106.5 80.5t-35 114v9h160v-5q0 -45 39.5 -74t118.5 -29q84 0 120.5 21.5t36.5 57.5q0 31 -22 47t-55 22.5t-91 11.5q-73 7 -118 17t-77 39.5t-32 85.5q0 54 42.5 86.5t124.5 50.5v17h-193q-70 0 -103.5 -34t-33.5 -103v-431h-173v420
q0 138 72.5 209t214.5 71h499v-132q-117 -20 -182 -39t-90.5 -38t-25.5 -43q0 -27 19.5 -41.5t49 -21.5t81.5 -13q77 -10 126.5 -24.5t85.5 -53.5t36 -111q0 -87 -76.5 -141.5t-235.5 -54.5q-105 0 -176.5 29.5z" />
    <glyph glyph-name="uni1EBC" unicode="&#x1ebc;" horiz-adv-x="832" 
d="M775 700v-140h-517v-142h447v-125h-447v-153h517v-140h-695v700h695zM206 765q-22 53 -22 90q0 50 29.5 79t81.5 29q41 0 73 -14t73 -40q27 -17 42 -24.5t29 -7.5q31 0 31 32q0 24 -16 54h121q22 -55 22 -90q0 -50 -29 -79t-81 -29q-41 0 -73 13.5t-75 40.5
q-25 16 -40.5 24t-29.5 8q-15 0 -23 -8.5t-8 -24.5q0 -23 16 -53h-121z" />
    <glyph glyph-name="uni1EBD" unicode="&#x1ebd;" horiz-adv-x="777" 
d="M734 208h-542q16 -50 66 -78.5t132 -28.5q78 0 119 18.5t65 45.5h152q-15 -42 -54 -82.5t-110.5 -68t-174.5 -27.5q-110 0 -188.5 35.5t-118.5 96t-40 135.5t40.5 135.5t119 96t189.5 35.5q110 0 189 -35.5t119 -96.5t40 -137q0 -21 -3 -44zM256 377q-50 -29 -65 -80h395
q-15 51 -64.5 80t-132.5 29t-133 -29zM183 572q-22 42 -22 82q0 48 28.5 76t77.5 28q34 0 62 -13t65 -37q27 -18 42.5 -26t30.5 -8t24 9t9 24q0 23 -16 51h110q23 -43 23 -82q0 -48 -28.5 -76t-77.5 -28q-35 0 -64 13.5t-63 37.5q-29 18 -43.5 25.5t-29.5 7.5
q-16 0 -24.5 -9t-8.5 -24q0 -23 16 -51h-111z" />
    <glyph glyph-name="Ygrave" unicode="&#x1ef2;" horiz-adv-x="839" 
d="M330 0v221l-323 479h204l159 -242q41 -67 41 -118v-14h17v14q0 53 41 118l159 242h203l-323 -479v-221h-178zM527 767h-154l-167 181h207z" />
    <glyph glyph-name="ygrave" unicode="&#x1ef3;" horiz-adv-x="708" 
d="M517 508h183l-259 -513q-55 -112 -123 -159.5t-167 -47.5q-31 0 -54.5 4t-49.5 14v130q41 -16 84 -16q51 0 83 17t55 58l-262 513h183l130 -293q25 -66 25 -107v-3h17v3q0 44 24 107zM449 577h-139l-138 171h182z" />
    <glyph glyph-name="uni1EF8" unicode="&#x1ef8;" horiz-adv-x="839" 
d="M330 0v221l-323 479h204l159 -242q41 -67 41 -118v-14h17v14q0 53 41 118l159 242h203l-323 -479v-221h-178zM198 765q-22 53 -22 90q0 50 29.5 79t81.5 29q41 0 73 -14t73 -40q27 -17 42 -24.5t29 -7.5q31 0 31 32q0 24 -16 54h121q22 -55 22 -90q0 -50 -29 -79t-81 -29
q-41 0 -73 13.5t-75 40.5q-25 16 -40.5 24t-29.5 8q-15 0 -23 -8.5t-8 -24.5q0 -23 16 -53h-121z" />
    <glyph glyph-name="uni1EF9" unicode="&#x1ef9;" horiz-adv-x="708" 
d="M517 508h183l-259 -513q-55 -112 -123 -159.5t-167 -47.5q-31 0 -54.5 4t-49.5 14v130q41 -16 84 -16q51 0 83 17t55 58l-262 513h183l130 -293q25 -66 25 -107v-3h17v3q0 44 24 107zM148 572q-22 42 -22 82q0 48 28.5 76t77.5 28q34 0 62 -13t65 -37q27 -18 42.5 -26
t30.5 -8t24 9t9 24q0 23 -16 51h110q23 -43 23 -82q0 -48 -28.5 -76t-77.5 -28q-35 0 -64 13.5t-63 37.5q-29 18 -43.5 25.5t-29.5 7.5q-16 0 -24.5 -9t-8.5 -24q0 -23 16 -51h-111z" />
    <glyph glyph-name="endash" unicode="&#x2013;" horiz-adv-x="730" 
d="M683 193h-636v122h636v-122z" />
    <glyph glyph-name="emdash" unicode="&#x2014;" horiz-adv-x="970" 
d="M923 193h-876v122h876v-122z" />
    <glyph glyph-name="quoteleft" unicode="&#x2018;" horiz-adv-x="256" 
d="M90 649.5q55 63.5 149 63.5v-116h-12q-58 0 -87.5 -16.5t-37.5 -50.5q12 3 26 3q42 0 68 -24.5t26 -62.5q0 -37 -25.5 -62t-63.5 -25q-47 0 -72.5 28.5t-25.5 84.5q0 114 55 177.5z" />
    <glyph glyph-name="quoteright" unicode="&#x2019;" horiz-adv-x="256" 
d="M196 684.5q26 -28.5 26 -84.5q0 -114 -55 -177.5t-149 -63.5v115h12q57 0 86.5 17t37.5 51q-12 -3 -26 -3q-42 0 -67.5 24.5t-25.5 62.5t25 62.5t63 24.5q47 0 73 -28.5z" />
    <glyph glyph-name="quotesinglbase" unicode="&#x201a;" horiz-adv-x="256" 
d="M196 132.5q26 -28.5 26 -84.5q0 -113 -55.5 -177t-148.5 -64v115h12q57 0 86.5 17t37.5 51q-12 -3 -26 -3q-42 0 -67.5 24.5t-25.5 62.5t25 62.5t63 24.5q47 0 73 -28.5z" />
    <glyph glyph-name="quotedblleft" unicode="&#x201c;" horiz-adv-x="497" 
d="M90 649.5q55 63.5 149 63.5v-116h-12q-58 0 -87.5 -16.5t-37.5 -50.5q12 3 26 3q42 0 68 -24.5t26 -62.5q0 -37 -25.5 -62t-63.5 -25q-47 0 -72.5 28.5t-25.5 84.5q0 114 55 177.5zM331 649.5q55 63.5 149 63.5v-116h-12q-58 0 -87.5 -16.5t-37.5 -50.5q12 3 26 3
q42 0 68 -24.5t26 -62.5q0 -37 -25.5 -62t-63.5 -25q-47 0 -72.5 28.5t-25.5 84.5q0 114 55 177.5z" />
    <glyph glyph-name="quotedblright" unicode="&#x201d;" horiz-adv-x="497" 
d="M196 684.5q26 -28.5 26 -84.5q0 -114 -55 -177.5t-149 -63.5v115h12q57 0 86.5 17t37.5 51q-12 -3 -26 -3q-42 0 -67.5 24.5t-25.5 62.5t25 62.5t63 24.5q47 0 73 -28.5zM437 684.5q26 -28.5 26 -84.5q0 -114 -55 -177.5t-149 -63.5v115h12q57 0 86.5 17t37.5 51
q-12 -3 -26 -3q-42 0 -67.5 24.5t-25.5 62.5t25 62.5t63 24.5q47 0 73 -28.5z" />
    <glyph glyph-name="quotedblbase" unicode="&#x201e;" horiz-adv-x="497" 
d="M196 132.5q26 -28.5 26 -84.5q0 -113 -55.5 -177t-148.5 -64v115h12q57 0 86.5 17t37.5 51q-12 -3 -26 -3q-42 0 -67.5 24.5t-25.5 62.5t25 62.5t63 24.5q47 0 73 -28.5zM437 132.5q26 -28.5 26 -84.5q0 -113 -55.5 -177t-148.5 -64v115h12q57 0 86.5 17t37.5 51
q-12 -3 -26 -3q-42 0 -67.5 24.5t-25.5 62.5t25 62.5t63 24.5q47 0 73 -28.5z" />
    <glyph glyph-name="dagger" unicode="&#x2020;" horiz-adv-x="575" 
d="M358 560h172v-126h-172v-544h-141v544h-172v126h172v180h141v-180z" />
    <glyph glyph-name="daggerdbl" unicode="&#x2021;" horiz-adv-x="595" 
d="M540 560v-116h-175v-179h175v-116h-175v-259h-136v259h-174v116h174v179h-174v116h174v180h136v-180h175z" />
    <glyph glyph-name="bullet" unicode="&#x2022;" horiz-adv-x="418" 
d="M123.5 176q-33.5 32 -33.5 79t33.5 79t85.5 32q53 0 86.5 -32t33.5 -79t-33.5 -79t-86.5 -32q-52 0 -85.5 32z" />
    <glyph glyph-name="ellipsis" unicode="&#x2026;" horiz-adv-x="869" 
d="M60.5 11.5q-25.5 24.5 -25.5 62.5t25.5 62.5t67.5 24.5t68 -24.5t26 -62.5t-26 -62.5t-68 -24.5t-67.5 24.5zM366.5 11.5q-25.5 24.5 -25.5 62.5t25.5 62.5t67.5 24.5t68 -24.5t26 -62.5t-26 -62.5t-68 -24.5t-67.5 24.5zM673.5 11.5q-25.5 24.5 -25.5 62.5t25.5 62.5
t67.5 24.5t68 -24.5t26 -62.5t-26 -62.5t-68 -24.5t-67.5 24.5z" />
    <glyph glyph-name="perthousand" unicode="&#x2030;" horiz-adv-x="1347" 
d="M130 378q-45 23 -69 64t-24 92t24 92t69 64t105 23q59 0 104 -23t69 -64t24 -92t-24 -92t-69 -64t-104 -23q-60 0 -105 23zM265 0h-128l520 700h128zM300.5 473q25.5 24 25.5 61t-25.5 61t-65.5 24q-41 0 -66 -24t-25 -61t25 -61t66 -24q40 0 65.5 24zM583 10
q-45 23 -69 64t-24 92t24 92t69 64t105 23q59 0 104 -23t69 -64t24 -92t-24 -92t-69 -64t-104 -23q-60 0 -105 23zM1013 10q-45 23 -69 64t-24 92t24 92t69 64t105 23q59 0 104 -23t69 -64t24 -92t-24 -92t-69 -64t-104 -23q-60 0 -105 23zM753 105q25 24 25 61t-25 61
t-65 24q-41 0 -66 -24t-25 -61t25 -61t66 -24q40 0 65 24zM1183 105q25 24 25 61t-25 61t-65 24q-41 0 -66 -24t-25 -61t25 -61t66 -24q40 0 65 24z" />
    <glyph glyph-name="guilsinglleft" unicode="&#x2039;" horiz-adv-x="387" 
d="M357 61h-161l-176 194l176 192h161l-180 -192z" />
    <glyph glyph-name="guilsinglright" unicode="&#x203a;" horiz-adv-x="387" 
d="M191 61h-161l179 194l-179 192h161l176 -192z" />
    <glyph glyph-name="fraction" unicode="&#x2044;" horiz-adv-x="253" 
d="M-69 0h-129l520 700h129z" />
    <glyph glyph-name="uni2070" unicode="&#x2070;" horiz-adv-x="503" 
d="M134.5 436.5q-49.5 25.5 -76 70.5t-26.5 103t26.5 103t76 70.5t116.5 25.5t116.5 -25t76.5 -70.5t27 -103.5t-26.5 -103t-76.5 -70.5t-117 -25.5t-116.5 25.5zM327.5 536q28.5 28 28.5 74t-28.5 74t-76.5 28q-47 0 -75.5 -28t-28.5 -74t28.5 -74t75.5 -28q48 0 76.5 28z
" />
    <glyph glyph-name="uni2074" unicode="&#x2074;" horiz-adv-x="463" 
d="M380 568h70v-82h-70v-62h-109v62h-246v79l201 231h154v-228zM148 580v-12h131v80q0 33 5 56t17 53h-12q-9 -23 -19.5 -40t-28.5 -37z" />
    <glyph glyph-name="uni2075" unicode="&#x2075;" horiz-adv-x="457" 
d="M80.5 445q-49.5 34 -49.5 87v6h109v-4q0 -16 22 -27.5t72 -11.5q94 0 94 53q0 52 -98 52q-76 0 -97 -27h-106l27 223h369v-81h-293l-13 -91h11q15 21 45.5 33t89.5 12q88 0 131.5 -34.5t43.5 -94.5q0 -59 -49 -94t-155 -35q-104 0 -153.5 34z" />
    <glyph glyph-name="uni2076" unicode="&#x2076;" horiz-adv-x="493" 
d="M86 460q-54 49 -54 150q0 99 54 149t165 50q107 0 158.5 -34.5t51.5 -86.5v-3h-109v2q0 15 -25 29t-72 14q-59 0 -90 -29t-31 -82q0 -11 1 -17h10q12 25 44 40.5t99 15.5q90 0 134 -33t44 -85q0 -129 -212 -129q-114 0 -168 49zM357 541q0 22 -24.5 36t-82.5 14
q-57 0 -81.5 -14t-24.5 -36q0 -51 106 -51q107 0 107 51z" />
    <glyph glyph-name="uni2077" unicode="&#x2077;" horiz-adv-x="422" 
d="M113 424q0 98 45.5 164t146.5 97v10h-273v101h371v-111q-93 -40 -130.5 -106t-37.5 -155h-122z" />
    <glyph glyph-name="uni2078" unicode="&#x2078;" horiz-adv-x="501" 
d="M371 613q43 -2 70.5 -27.5t27.5 -60.5q0 -114 -218 -114q-219 0 -219 114q0 35 27.5 60.5t70.5 27.5v12q-41 1 -64.5 23.5t-23.5 58.5q0 102 209 102q208 0 208 -102q0 -36 -23.5 -58.5t-64.5 -23.5v-12zM169 717q-23 -11 -23 -30t23 -30t82 -11t81.5 11t22.5 30
t-22.5 30t-81.5 11t-82 -11zM341 503.5q24 11.5 24 32.5t-24 32.5t-90 11.5q-67 0 -91 -11.5t-24 -32.5t24 -32.5t91 -11.5q66 0 90 11.5z" />
    <glyph glyph-name="uni2079" unicode="&#x2079;" horiz-adv-x="493" 
d="M84 444.5q-52 33.5 -52 82.5v3h110v-2q0 -13 24 -25.5t72 -12.5q60 0 90.5 28t30.5 78v17h-11q-12 -25 -43.5 -40.5t-99.5 -15.5q-89 0 -133.5 33t-44.5 87q0 132 212 132q114 0 168 -48.5t54 -150.5q0 -99 -54 -149t-165 -50q-106 0 -158 33.5zM349 677q0 53 -106 53
t-106 -53t106 -53t106 53z" />
    <glyph glyph-name="uni2080" unicode="&#x2080;" horiz-adv-x="503" 
d="M134.5 -83.5q-49.5 25.5 -76 70.5t-26.5 103t26.5 103t76 70.5t116.5 25.5t116.5 -25t76.5 -70.5t27 -103.5t-26.5 -103t-76.5 -70.5t-117 -25.5t-116.5 25.5zM327.5 16q28.5 28 28.5 74t-28.5 74t-76.5 28q-47 0 -75.5 -28t-28.5 -74t28.5 -74t75.5 -28q48 0 76.5 28z
" />
    <glyph glyph-name="uni2081" unicode="&#x2081;" horiz-adv-x="420" 
d="M286 -9h127v-87h-376v87h142v57q0 37 8 66t29 77h-12q-20 -51 -53.5 -77.5t-88.5 -26.5v89h19q55 0 81.5 24.5t26.5 68.5v7h97v-285z" />
    <glyph glyph-name="uni2082" unicode="&#x2082;" horiz-adv-x="485" 
d="M431 100.5q-27 -25.5 -65 -36.5t-97 -21q-60 -11 -87.5 -21.5t-27.5 -33.5h296v-84h-408v76q0 50 28 77t66.5 37t97.5 17q58 7 83.5 15.5t25.5 31.5q0 44 -95 44q-53 0 -74.5 -13t-21.5 -39v-6h-115v9q0 136 211 136q110 0 160 -32.5t50 -85.5q0 -45 -27 -70.5z" />
    <glyph glyph-name="uni2083" unicode="&#x2083;" horiz-adv-x="464" 
d="M301 129q144 -13 144 -115q0 -55 -50.5 -89t-158.5 -34q-209 0 -209 133v7h110v-5q0 -23 23 -37t76 -14q55 0 77 12t22 34q0 46 -96 46h-79v58l169 82v12q-34 -15 -69 -22.5t-81 -7.5h-137v87h383v-92z" />
    <glyph glyph-name="uni2084" unicode="&#x2084;" horiz-adv-x="463" 
d="M380 48h70v-82h-70v-62h-109v62h-246v79l201 231h154v-228zM148 60v-12h131v80q0 33 5 56t17 53h-12q-9 -23 -19.5 -40t-28.5 -37z" />
    <glyph glyph-name="uni2085" unicode="&#x2085;" horiz-adv-x="457" 
d="M80.5 -75q-49.5 34 -49.5 87v6h109v-4q0 -16 22 -27.5t72 -11.5q94 0 94 53q0 52 -98 52q-76 0 -97 -27h-106l27 223h369v-81h-293l-13 -91h11q15 21 45.5 33t89.5 12q88 0 131.5 -34.5t43.5 -94.5q0 -59 -49 -94t-155 -35q-104 0 -153.5 34z" />
    <glyph glyph-name="uni2086" unicode="&#x2086;" horiz-adv-x="493" 
d="M86 -60q-54 49 -54 150q0 99 54 149t165 50q107 0 158.5 -34.5t51.5 -86.5v-3h-109v2q0 15 -25 29t-72 14q-59 0 -90 -29t-31 -82q0 -11 1 -17h10q12 25 44 40.5t99 15.5q90 0 134 -33t44 -85q0 -129 -212 -129q-114 0 -168 49zM357 21q0 22 -24.5 36t-82.5 14
q-57 0 -81.5 -14t-24.5 -36q0 -51 106 -51q107 0 107 51z" />
    <glyph glyph-name="uni2087" unicode="&#x2087;" horiz-adv-x="422" 
d="M113 -96q0 98 45.5 164t146.5 97v10h-273v101h371v-111q-93 -40 -130.5 -106t-37.5 -155h-122z" />
    <glyph glyph-name="uni2088" unicode="&#x2088;" horiz-adv-x="501" 
d="M371 93q43 -2 70.5 -27.5t27.5 -60.5q0 -114 -218 -114q-219 0 -219 114q0 35 27.5 60.5t70.5 27.5v12q-41 1 -64.5 23.5t-23.5 58.5q0 102 209 102q208 0 208 -102q0 -36 -23.5 -58.5t-64.5 -23.5v-12zM169 197q-23 -11 -23 -30t23 -30t82 -11t81.5 11t22.5 30t-22.5 30
t-81.5 11t-82 -11zM341 -16.5q24 11.5 24 32.5t-24 32.5t-90 11.5q-67 0 -91 -11.5t-24 -32.5t24 -32.5t91 -11.5q66 0 90 11.5z" />
    <glyph glyph-name="uni2089" unicode="&#x2089;" horiz-adv-x="493" 
d="M84 -75.5q-52 33.5 -52 82.5v3h110v-2q0 -13 24 -25.5t72 -12.5q60 0 90.5 28t30.5 78v17h-11q-12 -25 -43.5 -40.5t-99.5 -15.5q-89 0 -133.5 33t-44.5 87q0 132 212 132q114 0 168 -48.5t54 -150.5q0 -99 -54 -149t-165 -50q-106 0 -158 33.5zM349 157q0 53 -106 53
t-106 -53t106 -53t106 53z" />
    <glyph glyph-name="uni20A9" unicode="&#x20a9;" horiz-adv-x="1149" 
d="M1137 395h-131l-21 -80h152v-95h-177l-57 -220h-211l-90 305q-11 46 -15 78t-4 87v4h-17v-4q0 -55 -4 -87t-15 -78l-89 -305h-212l-57 220h-177v95h153l-21 80h-132v95h107l-54 210h181l104 -448q15 -76 15 -139v-7h16v7q0 81 14 139l89 328h181l89 -328q14 -58 14 -139
v-7h17v7q0 63 15 139l103 448h182l-55 -210h107v-95z" />
    <glyph glyph-name="Euro" unicode="&#x20ac;" horiz-adv-x="956" 
d="M452 546q-72 -29 -106 -81h352v-83h-383q-2 -20 -2 -32t2 -32h383v-83h-352q34 -52 106 -81t180 -29q88 0 150 11t117 31v-131q-60 -26 -125 -37.5t-142 -11.5q-193 0 -312.5 67t-158.5 181h-139v83h121q-1 11 -1 32t1 32h-121v83h139q39 114 158.5 181t312.5 67
q150 0 267 -50v-130q-55 20 -117 31t-150 11q-108 0 -180 -29z" />
    <glyph glyph-name="uni20B4" unicode="&#x20b4;" horiz-adv-x="1000" 
d="M948 460v-83h-896v83h634q27 23 27 51q0 35 -48 58.5t-165 23.5q-115 0 -163.5 -23t-48.5 -55v-10h-178v12q0 52 39 96t126 72t225 28q143 0 230 -24.5t124 -62.5t37 -84q0 -49 -33 -82h90zM52 240v83h896v-83h-634q-26 -22 -26 -51q0 -35 47.5 -58.5t164.5 -23.5
q115 0 164 23t49 55v10h178v-12q0 -52 -39 -96t-126.5 -72t-225.5 -28q-142 0 -229.5 24.5t-124 62.5t-36.5 84q0 49 33 82h-91z" />
    <glyph glyph-name="uni20B8" unicode="&#x20b8;" horiz-adv-x="798" 
d="M776 588h-754v112h754v-112zM488 0h-178v391h-288v112h754v-112h-288v-391z" />
    <glyph glyph-name="uni20B9" unicode="&#x20b9;" horiz-adv-x="858" 
d="M818 583h-154q26 -40 32 -93h122v-82h-126q-17 -64 -68.5 -109t-119.5 -50v-17q43 -4 77.5 -25t63.5 -66l89 -141h-219l-82 135q-28 47 -68 62.5t-117 15.5h-196v102h319q62 0 100.5 24.5t50.5 68.5h-470v82h470q-12 44 -50.5 68.5t-100.5 24.5h-319v117h766v-117z" />
    <glyph glyph-name="uni20BA" unicode="&#x20ba;" horiz-adv-x="857" 
d="M647 295h178v-28q0 -131 -79.5 -199t-250.5 -68h-328v210l-145 -56v94l145 56v78l-145 -56v94l145 56v224h178v-155l245 94v-94l-245 -94v-78l245 95v-94l-245 -95v-134h109q106 0 149.5 32t43.5 99v19z" />
    <glyph glyph-name="uni20BD" unicode="&#x20bd;" horiz-adv-x="953" 
d="M617 700q143 0 217 -62.5t74 -167.5t-73 -166t-218 -61h-275v-62h250v-90h-250v-91h-178v91h-144v90h144v62h-144v120h144v337h453zM611 363q58 0 88.5 26t30.5 71t-30.5 71t-88.5 26h-278v-194h278z" />
    <glyph glyph-name="uni20BF" unicode="&#x20bf;" horiz-adv-x="908" 
d="M639 0v-133h-130v133h-125v-133h-130v133h-174v700h174v133h130v-133h125v133h130v-133q105 -4 157.5 -49.5t52.5 -120.5q0 -64 -38.5 -105.5t-107.5 -48.5v-19q82 -7 126.5 -51.5t44.5 -116.5q0 -179 -235 -189zM253 563v-147h326q45 0 68.5 20t23.5 53q0 34 -23.5 54
t-68.5 20h-326zM596 137q50 0 75 20.5t25 57.5t-25 58t-75 21h-343v-157h343z" />
    <glyph glyph-name="uni2116" unicode="&#x2116;" horiz-adv-x="1388" 
d="M80 0v700h278l366 -594h16q-13 43 -19.5 84t-6.5 100v410h172v-700h-279l-365 594h-17q13 -43 19.5 -84t6.5 -100v-410h-171zM1045.5 169q-44.5 23 -68.5 64t-24 93t24 92.5t68.5 63.5t104.5 23t105 -23t69 -63.5t24 -92.5t-24 -93t-69 -64t-105 -23t-104.5 23z
M1216.5 264.5q24.5 23.5 24.5 61.5q0 37 -25 60.5t-66 23.5t-65.5 -23.5t-24.5 -60.5q0 -38 24.5 -61.5t65.5 -23.5q42 0 66.5 23.5zM1338 0h-375v97h375v-97z" />
    <glyph glyph-name="trademark" unicode="&#x2122;" horiz-adv-x="855" 
d="M231 380h-102v231h-104v89h311v-89h-105v-231zM373 380v320h147l53 -123q8 -21 10.5 -35t3.5 -35h12q1 21 3.5 35t10.5 35l53 123h146v-320h-96v144q0 40 3 63.5t12 54.5h-12l-82 -193h-89l-81 193h-12q9 -31 12 -54.5t3 -63.5v-144h-97z" />
    <glyph glyph-name="uni2150" unicode="&#x2150;" horiz-adv-x="1185" 
d="M286 415h127v-87h-376v87h142v57q0 37 8 66t29 77h-12q-20 -51 -53.5 -77.5t-88.5 -26.5v89h19q55 0 81.5 24.5t26.5 68.5v7h97v-285zM411 0h-129l520 700h129zM876 0q0 98 45.5 164t146.5 97v10h-273v101h371v-111q-93 -40 -130.5 -106t-37.5 -155h-122z" />
    <glyph glyph-name="uni2151" unicode="&#x2151;" horiz-adv-x="1226" 
d="M286 415h127v-87h-376v87h142v57q0 37 8 66t29 77h-12q-20 -51 -53.5 -77.5t-88.5 -26.5v89h19q55 0 81.5 24.5t26.5 68.5v7h97v-285zM411 0h-129l520 700h129zM817 20.5q-52 33.5 -52 82.5v3h110v-2q0 -13 24 -25.5t72 -12.5q60 0 90.5 28t30.5 78v17h-11
q-12 -25 -43.5 -40.5t-99.5 -15.5q-89 0 -133.5 33t-44.5 87q0 132 212 132q114 0 168 -48.5t54 -150.5q0 -99 -54 -149t-165 -50q-106 0 -158 33.5zM1082 253q0 53 -106 53t-106 -53t106 -53t106 53z" />
    <glyph glyph-name="uni2153" unicode="&#x2153;" horiz-adv-x="1167" 
d="M286 415h127v-87h-376v87h142v57q0 37 8 66t29 77h-12q-20 -51 -53.5 -77.5t-88.5 -26.5v89h19q55 0 81.5 24.5t26.5 68.5v7h97v-285zM411 0h-129l520 700h129zM1004 225q144 -13 144 -115q0 -55 -50.5 -89t-158.5 -34q-209 0 -209 133v7h110v-5q0 -23 23 -37t76 -14
q55 0 77 12t22 34q0 46 -96 46h-79v58l169 82v12q-34 -15 -69 -22.5t-81 -7.5h-137v87h383v-92z" />
    <glyph glyph-name="uni2154" unicode="&#x2154;" horiz-adv-x="1202" 
d="M431 524.5q-27 -25.5 -65 -36.5t-97 -21q-60 -11 -87.5 -21.5t-27.5 -33.5h296v-84h-408v76q0 50 28 77t66.5 37t97.5 17q58 7 83.5 15.5t25.5 31.5q0 44 -95 44q-53 0 -74.5 -13t-21.5 -39v-6h-115v9q0 136 211 136q110 0 160 -32.5t50 -85.5q0 -45 -27 -70.5zM446 0
h-129l520 700h129zM1039 225q144 -13 144 -115q0 -55 -50.5 -89t-158.5 -34q-209 0 -209 133v7h110v-5q0 -23 23 -37t76 -14q55 0 77 12t22 34q0 46 -96 46h-79v58l169 82v12q-34 -15 -69 -22.5t-81 -7.5h-137v87h383v-92z" />
    <glyph glyph-name="uni2155" unicode="&#x2155;" horiz-adv-x="1190" 
d="M286 415h127v-87h-376v87h142v57q0 37 8 66t29 77h-12q-20 -51 -53.5 -77.5t-88.5 -26.5v89h19q55 0 81.5 24.5t26.5 68.5v7h97v-285zM411 0h-129l520 700h129zM813.5 21q-49.5 34 -49.5 87v6h109v-4q0 -16 22 -27.5t72 -11.5q94 0 94 53q0 52 -98 52q-76 0 -97 -27h-106
l27 223h369v-81h-293l-13 -91h11q15 21 45.5 33t89.5 12q88 0 131.5 -34.5t43.5 -94.5q0 -59 -49 -94t-155 -35q-104 0 -153.5 34z" />
    <glyph glyph-name="uni2156" unicode="&#x2156;" horiz-adv-x="1225" 
d="M431 524.5q-27 -25.5 -65 -36.5t-97 -21q-60 -11 -87.5 -21.5t-27.5 -33.5h296v-84h-408v76q0 50 28 77t66.5 37t97.5 17q58 7 83.5 15.5t25.5 31.5q0 44 -95 44q-53 0 -74.5 -13t-21.5 -39v-6h-115v9q0 136 211 136q110 0 160 -32.5t50 -85.5q0 -45 -27 -70.5zM446 0
h-129l520 700h129zM848.5 21q-49.5 34 -49.5 87v6h109v-4q0 -16 22 -27.5t72 -11.5q94 0 94 53q0 52 -98 52q-76 0 -97 -27h-106l27 223h369v-81h-293l-13 -91h11q15 21 45.5 33t89.5 12q88 0 131.5 -34.5t43.5 -94.5q0 -59 -49 -94t-155 -35q-104 0 -153.5 34z" />
    <glyph glyph-name="uni2157" unicode="&#x2157;" horiz-adv-x="1174" 
d="M301 553q144 -13 144 -115q0 -55 -50.5 -89t-158.5 -34q-209 0 -209 133v7h110v-5q0 -23 23 -37t76 -14q55 0 77 12t22 34q0 46 -96 46h-79v58l169 82v12q-34 -15 -69 -22.5t-81 -7.5h-137v87h383v-92zM395 0h-129l520 700h129zM797.5 21q-49.5 34 -49.5 87v6h109v-4
q0 -16 22 -27.5t72 -11.5q94 0 94 53q0 52 -98 52q-76 0 -97 -27h-106l27 223h369v-81h-293l-13 -91h11q15 21 45.5 33t89.5 12q88 0 131.5 -34.5t43.5 -94.5q0 -59 -49 -94t-155 -35q-104 0 -153.5 34z" />
    <glyph glyph-name="uni2158" unicode="&#x2158;" horiz-adv-x="1213" 
d="M380 472h70v-82h-70v-62h-109v62h-246v79l201 231h154v-228zM148 484v-12h131v80q0 33 5 56t17 53h-12q-9 -23 -19.5 -40t-28.5 -37zM434 0h-129l520 700h129zM836.5 21q-49.5 34 -49.5 87v6h109v-4q0 -16 22 -27.5t72 -11.5q94 0 94 53q0 52 -98 52q-76 0 -97 -27h-106
l27 223h369v-81h-293l-13 -91h11q15 21 45.5 33t89.5 12q88 0 131.5 -34.5t43.5 -94.5q0 -59 -49 -94t-155 -35q-104 0 -153.5 34z" />
    <glyph glyph-name="uni2159" unicode="&#x2159;" horiz-adv-x="1226" 
d="M286 415h127v-87h-376v87h142v57q0 37 8 66t29 77h-12q-20 -51 -53.5 -77.5t-88.5 -26.5v89h19q55 0 81.5 24.5t26.5 68.5v7h97v-285zM411 0h-129l520 700h129zM819 36q-54 49 -54 150q0 99 54 149t165 50q107 0 158.5 -34.5t51.5 -86.5v-3h-109v2q0 15 -25 29t-72 14
q-59 0 -90 -29t-31 -82q0 -11 1 -17h10q12 25 44 40.5t99 15.5q90 0 134 -33t44 -85q0 -129 -212 -129q-114 0 -168 49zM1090 117q0 22 -24.5 36t-82.5 14q-57 0 -81.5 -14t-24.5 -36q0 -51 106 -51q107 0 107 51z" />
    <glyph glyph-name="uni215A" unicode="&#x215a;" horiz-adv-x="1203" 
d="M80.5 349q-49.5 34 -49.5 87v6h109v-4q0 -16 22 -27.5t72 -11.5q94 0 94 53q0 52 -98 52q-76 0 -97 -27h-106l27 223h369v-81h-293l-13 -91h11q15 21 45.5 33t89.5 12q88 0 131.5 -34.5t43.5 -94.5q0 -59 -49 -94t-155 -35q-104 0 -153.5 34zM388 0h-129l520 700h129z
M796 36q-54 49 -54 150q0 99 54 149t165 50q107 0 158.5 -34.5t51.5 -86.5v-3h-109v2q0 15 -25 29t-72 14q-59 0 -90 -29t-31 -82q0 -11 1 -17h10q12 25 44 40.5t99 15.5q90 0 134 -33t44 -85q0 -129 -212 -129q-114 0 -168 49zM1067 117q0 22 -24.5 36t-82.5 14
q-57 0 -81.5 -14t-24.5 -36q0 -51 106 -51q107 0 107 51z" />
    <glyph glyph-name="oneeighth" unicode="&#x215b;" horiz-adv-x="1234" 
d="M286 415h127v-87h-376v87h142v57q0 37 8 66t29 77h-12q-20 -51 -53.5 -77.5t-88.5 -26.5v89h19q55 0 81.5 24.5t26.5 68.5v7h97v-285zM411 0h-129l520 700h129zM1104 189q43 -2 70.5 -27.5t27.5 -60.5q0 -114 -218 -114q-219 0 -219 114q0 35 27.5 60.5t70.5 27.5v12
q-41 1 -64.5 23.5t-23.5 58.5q0 102 209 102q208 0 208 -102q0 -36 -23.5 -58.5t-64.5 -23.5v-12zM902 293q-23 -11 -23 -30t23 -30t82 -11t81.5 11t22.5 30t-22.5 30t-81.5 11t-82 -11zM1074 79.5q24 11.5 24 32.5t-24 32.5t-90 11.5q-67 0 -91 -11.5t-24 -32.5t24 -32.5
t91 -11.5q66 0 90 11.5z" />
    <glyph glyph-name="threeeighths" unicode="&#x215c;" horiz-adv-x="1218" 
d="M301 553q144 -13 144 -115q0 -55 -50.5 -89t-158.5 -34q-209 0 -209 133v7h110v-5q0 -23 23 -37t76 -14q55 0 77 12t22 34q0 46 -96 46h-79v58l169 82v12q-34 -15 -69 -22.5t-81 -7.5h-137v87h383v-92zM395 0h-129l520 700h129zM1088 189q43 -2 70.5 -27.5t27.5 -60.5
q0 -114 -218 -114q-219 0 -219 114q0 35 27.5 60.5t70.5 27.5v12q-41 1 -64.5 23.5t-23.5 58.5q0 102 209 102q208 0 208 -102q0 -36 -23.5 -58.5t-64.5 -23.5v-12zM886 293q-23 -11 -23 -30t23 -30t82 -11t81.5 11t22.5 30t-22.5 30t-81.5 11t-82 -11zM1058 79.5
q24 11.5 24 32.5t-24 32.5t-90 11.5q-67 0 -91 -11.5t-24 -32.5t24 -32.5t91 -11.5q66 0 90 11.5z" />
    <glyph glyph-name="fiveeighths" unicode="&#x215d;" horiz-adv-x="1211" 
d="M80.5 349q-49.5 34 -49.5 87v6h109v-4q0 -16 22 -27.5t72 -11.5q94 0 94 53q0 52 -98 52q-76 0 -97 -27h-106l27 223h369v-81h-293l-13 -91h11q15 21 45.5 33t89.5 12q88 0 131.5 -34.5t43.5 -94.5q0 -59 -49 -94t-155 -35q-104 0 -153.5 34zM388 0h-129l520 700h129z
M1081 189q43 -2 70.5 -27.5t27.5 -60.5q0 -114 -218 -114q-219 0 -219 114q0 35 27.5 60.5t70.5 27.5v12q-41 1 -64.5 23.5t-23.5 58.5q0 102 209 102q208 0 208 -102q0 -36 -23.5 -58.5t-64.5 -23.5v-12zM879 293q-23 -11 -23 -30t23 -30t82 -11t81.5 11t22.5 30t-22.5 30
t-81.5 11t-82 -11zM1051 79.5q24 11.5 24 32.5t-24 32.5t-90 11.5q-67 0 -91 -11.5t-24 -32.5t24 -32.5t91 -11.5q66 0 90 11.5z" />
    <glyph glyph-name="seveneighths" unicode="&#x215e;" horiz-adv-x="1146" 
d="M113 328q0 98 45.5 164t146.5 97v10h-273v101h371v-111q-93 -40 -130.5 -106t-37.5 -155h-122zM323 0h-129l520 700h129zM1016 189q43 -2 70.5 -27.5t27.5 -60.5q0 -114 -218 -114q-219 0 -219 114q0 35 27.5 60.5t70.5 27.5v12q-41 1 -64.5 23.5t-23.5 58.5
q0 102 209 102q208 0 208 -102q0 -36 -23.5 -58.5t-64.5 -23.5v-12zM814 293q-23 -11 -23 -30t23 -30t82 -11t81.5 11t22.5 30t-22.5 30t-81.5 11t-82 -11zM986 79.5q24 11.5 24 32.5t-24 32.5t-90 11.5q-67 0 -91 -11.5t-24 -32.5t24 -32.5t91 -11.5q66 0 90 11.5z" />
    <glyph glyph-name="uni215F" unicode="&#x215f;" horiz-adv-x="733" 
d="M286 415h127v-87h-376v87h142v57q0 37 8 66t29 77h-12q-20 -51 -53.5 -77.5t-88.5 -26.5v89h19q55 0 81.5 24.5t26.5 68.5v7h97v-285zM411 0h-129l520 700h129z" />
    <glyph glyph-name="arrowleft" unicode="&#x2190;" horiz-adv-x="1076" 
d="M370 56q0 113 -66 178t-185 65h-16v103h16q120 0 185.5 64.5t65.5 178.5v19h145v-33q0 -81 -34 -134.5t-113 -75.5v-17q94 23 185 23h430v-153h-430q-95 0 -185 22v-17q79 -21 113 -74.5t34 -135.5v-32h-145v19z" />
    <glyph glyph-name="arrowup" unicode="&#x2191;" horiz-adv-x="1076" 
d="M462 350q0 95 22 185h-17q-22 -79 -75 -113.5t-135 -34.5h-32v146h18q114 0 178.5 65.5t64.5 185.5v16h104v-16q0 -120 64.5 -185.5t178.5 -65.5h18v-146h-32q-82 0 -135 34.5t-75 113.5h-17q22 -90 22 -185v-450h-152v450z" />
    <glyph glyph-name="arrowright" unicode="&#x2192;" horiz-adv-x="1076" 
d="M560 69q0 82 34.5 135.5t113.5 74.5v17q-90 -22 -185 -22h-430v153h430q91 0 185 -23v17q-79 22 -113.5 75.5t-34.5 134.5v33h145v-19q0 -114 66 -178.5t186 -64.5h16v-103h-16q-120 0 -186 -65t-66 -178v-19h-145v32z" />
    <glyph glyph-name="arrowdown" unicode="&#x2193;" horiz-adv-x="1076" 
d="M486 -84q0 120 -64.5 185.5t-178.5 65.5h-18v146h32q82 0 135 -34.5t75 -113.5h17q-22 90 -22 185v450h152v-450q0 -95 -22 -185h17q22 79 75 113.5t135 34.5h32v-146h-18q-114 0 -178.5 -65.5t-64.5 -185.5v-16h-104v16z" />
    <glyph glyph-name="arrowboth" unicode="&#x2194;" horiz-adv-x="1076" 
d="M303 84q0 101 -58.5 161t-155.5 60h-11v90h11q97 0 155.5 60t58.5 161v23h122v-27q0 -73 -29 -122t-96 -70v-17q79 17 159 17h157q81 0 160 -17v17q-126 41 -126 192v27h123v-23q0 -101 58 -161t156 -60h11v-90h-11q-98 0 -156 -60t-58 -161v-23h-123v27q0 151 126 192
v17q-79 -17 -160 -17h-157q-80 0 -159 17v-17q67 -21 96 -70t29 -122v-27h-122v23z" />
    <glyph glyph-name="arrowupdn" unicode="&#x2195;" horiz-adv-x="1076" 
d="M492 -99q0 98 -60 156t-160 58h-24v122h28q73 0 122 -29t70 -96h17q-17 79 -17 160v156q0 81 17 160h-17q-21 -67 -70 -96t-122 -29h-28v122h24q100 0 160 58t60 156v11h91v-11q0 -97 60 -155.5t161 -58.5h23v-122h-27q-73 0 -122.5 29t-70.5 96h-16q17 -79 17 -160v-156
q0 -81 -17 -160h16q21 67 70.5 96t122.5 29h27v-122h-23q-101 0 -161 -58.5t-60 -155.5v-11h-91v11z" />
    <glyph glyph-name="uni2196" unicode="&#x2196;" horiz-adv-x="1076" 
d="M481 328q-67 67 -116 147l-11 -12q30 -54 30 -102q0 -77 -74 -151l-23 -23l-103 102l13 14q80 83 80 174q0 94 -85 175l-12 12l73 73l11 -12q84 -84 176 -84q87 0 174 79l13 12l102 -102l-23 -23q-74 -74 -150 -74q-51 0 -102 30l-12 -12q83 -52 146 -115l366 -365
l-108 -108z" />
    <glyph glyph-name="uni2197" unicode="&#x2197;" horiz-adv-x="1076" 
d="M229 -37l-108 108l366 365q68 66 147 115l-12 12q-51 -30 -102 -30q-77 0 -151 74l-23 23l102 102l14 -12q85 -79 174 -79q91 0 175 84l12 12l73 -73l-12 -12q-85 -81 -85 -174q0 -92 80 -175l13 -14l-103 -102l-23 23q-74 74 -74 151q0 51 30 102l-12 12
q-49 -79 -115 -147z" />
    <glyph glyph-name="uni2198" unicode="&#x2198;" horiz-adv-x="1076" 
d="M811 -24q-84 84 -175 84q-89 0 -174 -79l-14 -12l-102 102l23 23q74 74 151 74q51 0 102 -30l12 12q-79 49 -147 115l-366 365l108 108l366 -365q66 -68 115 -147l12 12q-30 51 -30 102q0 77 74 151l23 23l103 -102l-13 -14q-80 -83 -80 -175q0 -93 85 -174l12 -12
l-73 -73z" />
    <glyph glyph-name="uni2199" unicode="&#x2199;" horiz-adv-x="1076" 
d="M253 -36l-73 73l12 12q85 81 85 175q0 91 -80 174l-13 14l103 102l23 -23q74 -74 74 -151q0 -48 -30 -102l11 -12q49 80 116 147l365 365l108 -108l-366 -365q-63 -63 -146 -115l12 -12q51 30 102 30q76 0 150 -74l23 -23l-102 -102l-13 12q-87 79 -174 79
q-92 0 -176 -84z" />
    <glyph glyph-name="minus" unicode="&#x2212;" horiz-adv-x="600" 
d="M548 288h-496v124h496v-124z" />
    <glyph glyph-name="approxequal" unicode="&#x2248;" horiz-adv-x="620" 
d="M360 373q-33 14 -71 40q-27 19 -46 28t-41 9q-18 0 -29.5 -10.5t-11.5 -26.5q0 -23 9 -44h-98q-15 32 -15 69q0 52 32 81.5t91 29.5q47 0 80 -14t71 -40q27 -19 46 -28t41 -9q18 0 29.5 10.5t11.5 26.5q0 23 -9 44h98q15 -31 15 -69q0 -52 -32 -81.5t-91 -29.5
q-47 0 -80 14zM360 165q-33 14 -71 40q-27 19 -46 28t-41 9q-18 0 -29.5 -10.5t-11.5 -26.5q0 -23 9 -44h-98q-15 32 -15 69q0 52 32 81.5t91 29.5q47 0 80 -14t71 -40q27 -19 46 -28t41 -9q18 0 29.5 10.5t11.5 26.5q0 23 -9 44h98q15 -31 15 -69q0 -52 -32 -81.5
t-91 -29.5q-47 0 -80 14z" />
    <glyph glyph-name="notequal" unicode="&#x2260;" horiz-adv-x="610" 
d="M553 512v-112h-166l-56 -101h222v-112h-284l-54 -97h-109l54 97h-103v112h165l56 101h-221v112h284l54 98h109l-54 -98h103z" />
    <glyph glyph-name="lessequal" unicode="&#x2264;" horiz-adv-x="588" 
d="M50 484l475 151v-117l-319 -92l319 -92v-116l-475 151v115zM525 67h-475v109h475v-109z" />
    <glyph glyph-name="greaterequal" unicode="&#x2265;" horiz-adv-x="588" 
d="M62 518v117l476 -151v-115l-476 -151v116l319 92zM538 67h-476v109h476v-109z" />
    <glyph glyph-name="uni2460" unicode="&#x2460;" horiz-adv-x="1240" 
d="M921.5 797.5q130.5 -67.5 202 -185t71.5 -262.5t-71.5 -262.5t-202 -185t-301.5 -67.5t-301.5 67.5t-202 185t-71.5 262.5t71.5 262.5t202 185t301.5 67.5t301.5 -67.5zM862 -8q105 54 162 148t57 210t-57 210t-162 148t-242 54t-242 -54t-162 -148t-57 -210t57 -210
t162 -148t242 -54t242 54zM692 565v-333h142v-97h-416v97h157v75q0 34 9.5 69.5t31.5 88.5h-17q-21 -56 -55.5 -87t-100.5 -31v102h20q63 0 92.5 27.5t29.5 85.5v3h107z" />
    <glyph glyph-name="uni2461" unicode="&#x2461;" horiz-adv-x="1240" 
d="M921.5 797.5q130.5 -67.5 202 -185t71.5 -262.5t-71.5 -262.5t-202 -185t-301.5 -67.5t-301.5 67.5t-202 185t-71.5 262.5t71.5 262.5t202 185t301.5 67.5t301.5 -67.5zM862 -8q105 54 162 148t57 210t-57 210t-162 148t-242 54t-242 -54t-162 -148t-57 -210t57 -210
t162 -148t242 -54t242 54zM832.5 352q-33.5 -30 -80 -41t-118.5 -19q-68 -8 -99 -17.5t-31 -35.5v-7h352v-97h-474v93q0 58 33.5 88.5t80 41t116.5 15.5q69 6 100.5 15t31.5 37q0 25 -27 39.5t-96 14.5q-65 0 -93.5 -17t-28.5 -44v-6h-122v10q0 71 59.5 113.5t185.5 42.5
t185 -39t59 -100q0 -57 -33.5 -87z" />
    <glyph glyph-name="uni2462" unicode="&#x2462;" horiz-adv-x="1240" 
d="M921.5 797.5q130.5 -67.5 202 -185t71.5 -262.5t-71.5 -262.5t-202 -185t-301.5 -67.5t-301.5 67.5t-202 185t-71.5 262.5t71.5 262.5t202 185t301.5 67.5t301.5 -67.5zM862 -8q105 54 162 148t57 210t-57 210t-162 148t-242 54t-242 -54t-162 -148t-57 -210t57 -210
t162 -148t242 -54t242 54zM712 400q154 -18 154 -135q0 -65 -58 -104t-185 -39q-242 0 -242 154v8h119v-6q0 -28 29 -45t94 -17q124 0 124 56q0 25 -27 41t-89 16h-86v63l193 93v17q-102 -34 -199 -34h-143v97h450v-103z" />
    <glyph glyph-name="uni2463" unicode="&#x2463;" horiz-adv-x="1240" 
d="M318.5 -97.5q-130.5 67.5 -202 185t-71.5 262.5t71.5 262.5t202 185t301.5 67.5t301.5 -67.5t202 -185t71.5 -262.5t-71.5 -262.5t-202 -185t-301.5 -67.5t-301.5 67.5zM862 -8q105 54 162 148t57 210t-57 210t-162 148t-242 54t-242 -54t-162 -148t-57 -210t57 -210
t162 -148t242 -54t242 54zM773 135h-119v74h-293v92l231 264h181v-262h82v-94h-82v-74zM502 303h159v93q0 73 20 125h-17q-22 -50 -56 -89l-106 -112v-17z" />
    <glyph glyph-name="uni2464" unicode="&#x2464;" horiz-adv-x="1240" 
d="M318.5 -97.5q-130.5 67.5 -202 185t-71.5 262.5t71.5 262.5t202 185t301.5 67.5t301.5 -67.5t202 -185t71.5 -262.5t-71.5 -262.5t-202 -185t-301.5 -67.5t-301.5 67.5zM862 -8q105 54 162 148t57 210t-57 210t-162 148t-242 54t-242 -54t-162 -148t-57 -210t57 -210
t162 -148t242 -54t242 54zM439.5 160.5q-57.5 38.5 -57.5 101.5v7h119v-4q0 -20 28.5 -34.5t92.5 -14.5q63 0 91.5 17t28.5 44q0 28 -28.5 45.5t-94.5 17.5q-62 0 -89 -10.5t-37 -25.5h-115l31 261h438v-92h-350l-14 -110h15q13 24 48.5 38.5t110.5 14.5q105 0 155 -39
t50 -108q0 -67 -57.5 -107t-182.5 -40t-182.5 38.5z" />
    <glyph glyph-name="uni2465" unicode="&#x2465;" horiz-adv-x="1240" 
d="M318.5 -97.5q-130.5 67.5 -202 185t-71.5 262.5t71.5 262.5t202 185t301.5 67.5t301.5 -67.5t202 -185t71.5 -262.5t-71.5 -262.5t-202 -185t-301.5 -67.5t-301.5 67.5zM862 -8q105 54 162 148t57 210t-57 210t-162 148t-242 54t-242 -54t-162 -148t-57 -210t57 -210
t162 -148t242 -54t242 54zM426 177.5q-62 55.5 -62 172.5q0 114 62.5 171t194.5 57q126 0 187 -39.5t61 -99.5v-3h-120v2q0 19 -31 36t-93 17q-149 0 -149 -131v-21h15q19 30 57 46t116 16q108 0 159 -36t51 -96q0 -147 -248 -147q-138 0 -200 55.5zM725 224q29 15 29 43
q0 27 -29.5 42.5t-103.5 15.5t-103.5 -15.5t-29.5 -42.5q0 -28 29.5 -43t104.5 -15q74 0 103 15z" />
    <glyph glyph-name="uni2466" unicode="&#x2466;" horiz-adv-x="1240" 
d="M318.5 -97.5q-130.5 67.5 -202 185t-71.5 262.5t71.5 262.5t202 185t301.5 67.5t301.5 -67.5t202 -185t71.5 -262.5t-71.5 -262.5t-202 -185t-301.5 -67.5t-301.5 67.5zM862 -8q105 54 162 148t57 210t-57 210t-162 148t-242 54t-242 -54t-162 -148t-57 -210t57 -210
t162 -148t242 -54t242 54zM512 135q0 108 51.5 187t161.5 117v17h-318v109h436v-119q-110 -45 -155.5 -128t-45.5 -183h-130z" />
    <glyph glyph-name="uni2467" unicode="&#x2467;" horiz-adv-x="1240" 
d="M318.5 -97.5q-130.5 67.5 -202 185t-71.5 262.5t71.5 262.5t202 185t301.5 67.5t301.5 -67.5t202 -185t71.5 -262.5t-71.5 -262.5t-202 -185t-301.5 -67.5t-301.5 67.5zM862 -8q105 54 162 148t57 210t-57 210t-162 148t-242 54t-242 -54t-162 -148t-57 -210t57 -210
t162 -148t242 -54t242 54zM421.5 156q-56.5 34 -56.5 97q0 40 33 69t82 30v17q-48 1 -75.5 27t-27.5 65q0 54 55 85.5t188 31.5t188 -31.5t55 -85.5q0 -39 -27.5 -65t-75.5 -27v-17q49 -1 82 -30t33 -69q0 -63 -56.5 -97t-198.5 -34t-198.5 34zM718.5 403.5
q27.5 13.5 27.5 35.5q0 24 -27 37t-99 13t-99 -13t-27 -37q0 -22 27.5 -35.5t98.5 -13.5t98.5 13.5zM728.5 225q29.5 14 29.5 39t-29.5 38.5t-108.5 13.5t-108.5 -13.5t-29.5 -38.5t29.5 -39t108.5 -14t108.5 14z" />
    <glyph glyph-name="uni2468" unicode="&#x2468;" horiz-adv-x="1240" 
d="M318.5 -97.5q-130.5 67.5 -202 185t-71.5 262.5t71.5 262.5t202 185t301.5 67.5t301.5 -67.5t202 -185t71.5 -262.5t-71.5 -262.5t-202 -185t-301.5 -67.5t-301.5 67.5zM862 -8q105 54 162 148t57 210t-57 210t-162 148t-242 54t-242 -54t-162 -148t-57 -210t57 -210
t162 -148t242 -54t242 54zM478.5 141q-55.5 19 -81 49t-25.5 66v3h119v-2q0 -10 12.5 -21t41 -19t71.5 -8q148 0 148 128v19h-15q-19 -30 -57 -46t-115 -16q-108 0 -159 36.5t-51 99.5q0 148 248 148q137 0 199 -55.5t62 -172.5q0 -114 -62 -171t-194 -57q-86 0 -141.5 19z
M723 386q29 16 29 46q0 28 -29 43.5t-105 15.5q-74 0 -103 -15.5t-29 -43.5q0 -30 29 -46t105 -16q74 0 103 16z" />
    <glyph glyph-name="uni24EA" unicode="&#x24ea;" horiz-adv-x="1240" 
d="M318.5 -97.5q-130.5 67.5 -202 185t-71.5 262.5t71.5 262.5t202 185t301.5 67.5t301.5 -67.5t202 -185t71.5 -262.5t-71.5 -262.5t-202 -185t-301.5 -67.5t-301.5 67.5zM862 -8q105 54 162 148t57 210t-57 210t-162 148t-242 54t-242 -54t-162 -148t-57 -210t57 -210
t162 -148t242 -54t242 54zM490 151q-56 29 -86.5 81t-30.5 118t30.5 118t86.5 81t130 29t130 -29t86.5 -81t30.5 -118t-30.5 -118t-86.5 -81t-130 -29t-130 29zM707.5 263q34.5 34 34.5 87t-34.5 87t-87.5 34t-87.5 -34t-34.5 -87t34.5 -87t87.5 -34t87.5 34z" />
    <glyph glyph-name="uni24FF" unicode="&#x24ff;" horiz-adv-x="1240" 
d="M318.5 -97.5q-130.5 67.5 -202 185t-71.5 262.5t71.5 262.5t202 185t301.5 67.5t301.5 -67.5t202 -185t71.5 -262.5t-71.5 -262.5t-202 -185t-301.5 -67.5t-301.5 67.5zM750 151q56 29 86.5 81t30.5 118t-30.5 118t-86.5 81t-130 29t-130 -29t-86.5 -81t-30.5 -118
t30.5 -118t86.5 -81t130 -29t130 29zM532.5 263q-34.5 34 -34.5 87t34.5 87t87.5 34t87.5 -34t34.5 -87t-34.5 -87t-87.5 -34t-87.5 34z" />
    <glyph glyph-name="uni2776" unicode="&#x2776;" horiz-adv-x="1240" 
d="M318.5 -97.5q-130.5 67.5 -202 185t-71.5 262.5t71.5 262.5t202 185t301.5 67.5t301.5 -67.5t202 -185t71.5 -262.5t-71.5 -262.5t-202 -185t-301.5 -67.5t-301.5 67.5zM418 135h416v97h-142v333h-107v-3q0 -58 -29.5 -85.5t-92.5 -27.5h-20v-102q66 0 100.5 31t55.5 87
h17q-22 -53 -31.5 -88.5t-9.5 -69.5v-75h-157v-97z" />
    <glyph glyph-name="uni2777" unicode="&#x2777;" horiz-adv-x="1240" 
d="M318.5 -97.5q-130.5 67.5 -202 185t-71.5 262.5t71.5 262.5t202 185t301.5 67.5t301.5 -67.5t202 -185t71.5 -262.5t-71.5 -262.5t-202 -185t-301.5 -67.5t-301.5 67.5zM382 135h474v97h-350v11q0 24 30 33t104 16q67 6 114 18.5t79.5 43t32.5 85.5q0 61 -59 100t-185 39
t-185.5 -42.5t-59.5 -113.5v-10h122v6q0 27 28.5 44t93.5 17q69 0 96 -14.5t27 -39.5q0 -28 -31.5 -37t-100.5 -15q-70 -5 -116.5 -15.5t-80 -41t-33.5 -88.5v-93z" />
    <glyph glyph-name="uni2778" unicode="&#x2778;" horiz-adv-x="1240" 
d="M318.5 -97.5q-130.5 67.5 -202 185t-71.5 262.5t71.5 262.5t202 185t301.5 67.5t301.5 -67.5t202 -185t71.5 -262.5t-71.5 -262.5t-202 -185t-301.5 -67.5t-301.5 67.5zM808 161q58 39 58 104q0 56 -36 90q-22 21 -58.5 31.5t-60.5 10.5l135 65v103h-450v-97h143
q97 0 199 34v-17l-193 -93v-63h86q62 0 89 -16t27 -41q0 -56 -124 -56q-65 0 -94 17t-29 45v6h-119v-8q0 -154 242 -154q127 0 185 39z" />
    <glyph glyph-name="uni2779" unicode="&#x2779;" horiz-adv-x="1240" 
d="M318.5 -97.5q-130.5 67.5 -202 185t-71.5 262.5t71.5 262.5t202 185t301.5 67.5t301.5 -67.5t202 -185t71.5 -262.5t-71.5 -262.5t-202 -185t-301.5 -67.5t-301.5 67.5zM654 209v-74h119v74h82v94h-82v262h-181l-231 -264v-92h293zM502 303v17l106 112q34 39 56 89h17
q-20 -52 -20 -125v-93h-159z" />
    <glyph glyph-name="uni277A" unicode="&#x277a;" horiz-adv-x="1240" 
d="M318.5 -97.5q-130.5 67.5 -202 185t-71.5 262.5t71.5 262.5t202 185t301.5 67.5t301.5 -67.5t202 -185t71.5 -262.5t-71.5 -262.5t-202 -185t-301.5 -67.5t-301.5 67.5zM804.5 162q57.5 40 57.5 107q0 69 -50 108t-155 39q-75 0 -110.5 -14.5t-48.5 -38.5h-15l14 110h350
v92h-438l-31 -261h115q10 15 37 25.5t89 10.5q66 0 94.5 -17.5t28.5 -45.5q0 -27 -28.5 -44t-91.5 -17q-64 0 -92.5 14.5t-28.5 34.5v4h-119v-7q0 -63 57.5 -101.5t182.5 -38.5t182.5 40z" />
    <glyph glyph-name="uni277B" unicode="&#x277b;" horiz-adv-x="1240" 
d="M318.5 -97.5q-130.5 67.5 -202 185t-71.5 262.5t71.5 262.5t202 185t301.5 67.5t301.5 -67.5t202 -185t71.5 -262.5t-71.5 -262.5t-202 -185t-301.5 -67.5t-301.5 67.5zM874 269q0 60 -51 96t-159 36q-78 0 -116 -16t-57 -46h-15v21q0 131 149 131q62 0 93 -17t31 -36v-2
h120v3q0 60 -61 99.5t-187 39.5q-132 0 -194.5 -57t-62.5 -171q0 -117 62 -172.5t200 -55.5q248 0 248 147zM517.5 224q-29.5 15 -29.5 43q0 27 29.5 42.5t103.5 15.5t103.5 -15.5t29.5 -42.5q0 -28 -29 -43t-103 -15q-75 0 -104.5 15z" />
    <glyph glyph-name="uni277C" unicode="&#x277c;" horiz-adv-x="1240" 
d="M318.5 -97.5q-130.5 67.5 -202 185t-71.5 262.5t71.5 262.5t202 185t301.5 67.5t301.5 -67.5t202 -185t71.5 -262.5t-71.5 -262.5t-202 -185t-301.5 -67.5t-301.5 67.5zM642 135q0 100 45.5 183t155.5 128v119h-436v-109h318v-17q-110 -38 -161.5 -117t-51.5 -187h130z
" />
    <glyph glyph-name="uni277D" unicode="&#x277d;" horiz-adv-x="1240" 
d="M318.5 -97.5q-130.5 67.5 -202 185t-71.5 262.5t71.5 262.5t202 185t301.5 67.5t301.5 -67.5t202 -185t71.5 -262.5t-71.5 -262.5t-202 -185t-301.5 -67.5t-301.5 67.5zM818.5 156q56.5 34 56.5 97q0 40 -33 69t-82 30v17q48 1 75.5 27t27.5 65q0 54 -55 85.5t-188 31.5
t-188 -31.5t-55 -85.5q0 -39 27.5 -65t75.5 -27v-17q-49 -1 -82 -30t-33 -69q0 -63 56.5 -97t198.5 -34t198.5 34zM521.5 403.5q-27.5 13.5 -27.5 35.5q0 24 27 37t99 13t99 -13t27 -37q0 -22 -27.5 -35.5t-98.5 -13.5t-98.5 13.5zM511.5 225q-29.5 14 -29.5 39t29.5 38.5
t108.5 13.5t108.5 -13.5t29.5 -38.5t-29.5 -39t-108.5 -14t-108.5 14z" />
    <glyph glyph-name="uni277E" unicode="&#x277e;" horiz-adv-x="1240" 
d="M318.5 -97.5q-130.5 67.5 -202 185t-71.5 262.5t71.5 262.5t202 185t301.5 67.5t301.5 -67.5t202 -185t71.5 -262.5t-71.5 -262.5t-202 -185t-301.5 -67.5t-301.5 67.5zM814 179q62 57 62 171q0 117 -62 172.5t-199 55.5q-248 0 -248 -148q0 -63 51 -99.5t159 -36.5
q77 0 115 16t57 46h15v-19q0 -128 -148 -128q-43 0 -71.5 8t-41 19t-12.5 21v2h-119v-3q0 -36 25.5 -66t81 -49t141.5 -19q132 0 194 57zM515 386q-29 16 -29 46q0 28 29 43.5t103 15.5q76 0 105 -15.5t29 -43.5q0 -30 -29 -46t-103 -16q-76 0 -105 16z" />
    <glyph glyph-name="Iacute_J.loclNLD" horiz-adv-x="1499" 
d="M673 0h-616v143h219v414h-219v143h616v-143h-219v-414h219v-143zM409 769h-140l95 171h182zM813.5 66q-88.5 79 -88.5 220v19h178v-13q0 -76 43.5 -116.5t130.5 -40.5t130.5 40.5t43.5 116.5v260h-426v148h604v-412q0 -143 -88.5 -222t-263.5 -79t-263.5 79zM1171 769
h-140l95 171h182z" />
    <glyph glyph-name="i.loclTRK" horiz-adv-x="543" 
d="M367 130h158v-130h-493v130h184v193q0 33 -13.5 46.5t-46.5 13.5q-29 0 -59 -11v130q47 19 111 19q87 0 123 -33t36 -107v-251zM202 608q-25 23 -25 58t25 58t68 23q42 0 67 -23t25 -58t-25 -58t-67 -23q-43 0 -68 23z" />
    <glyph glyph-name="iacute_j.loclNLD" horiz-adv-x="896" 
d="M367 130h158v-130h-493v130h184v193q0 33 -13.5 46.5t-46.5 13.5q-29 0 -59 -11v130q47 19 111 19q87 0 123 -33t36 -107v-251zM314 577h-140l95 171h182zM530 -208q-25 4 -52 14v127q44 -16 87 -16q61 0 89.5 24t28.5 71v311q0 33 -14 46.5t-46 13.5q-29 0 -59 -11v130
q47 19 111 19q87 0 123 -33t36 -107v-371q0 -108 -61.5 -165t-182.5 -57q-35 0 -60 4zM780 577h-140l95 171h182z" />
    <glyph glyph-name="f_f_j" horiz-adv-x="1419" 
d="M1246 481q57 -9 81 -41t24 -94v-336q0 -108 -61 -165t-182 -57q-36 0 -61 4t-51 14v127q43 -16 86 -16q61 0 89 24t28 71v293q0 33 -14 47t-48 14h-298v-366h-157v366h-360v-366h-158v366h-149v117h183v15q-64 3 -97.5 29t-33.5 68q0 54 67.5 88.5t231.5 34.5
q95 0 164 -17t107 -41q29 26 88 42t152 16q125 0 211.5 -33.5t157.5 -91.5v-112zM693 485q-100 121 -305 121q-169 0 -169 -62q0 -21 15 -34.5t38 -24.5h421zM1186 485q-42 51 -118.5 86t-180.5 35q-163 0 -163 -62q0 -21 15 -34.5t38 -24.5h409z" />
    <glyph glyph-name="f_j" horiz-adv-x="1069" 
d="M848 598q-25 23 -25 58t25 58t68 23q42 0 67 -23t25 -58t-25 -58t-67 -23q-43 0 -68 23zM700.5 -208q-25.5 4 -52.5 14v127q44 -16 87 -16q61 0 89 24t28 71v293q0 33 -14 47t-48 14h-468v-366h-158v366h-149v117h183v15q-62 2 -96.5 28t-34.5 69q0 123 308 123
q158 0 233 -50.5t75 -129.5v-3h-158v4q0 29 -35 48t-118 19t-118 -17.5t-35 -44.5q0 -36 53 -59h572q87 0 123.5 -32.5t36.5 -106.5v-336q0 -108 -61 -165t-182 -57q-35 0 -60.5 4z" />
    <glyph glyph-name="f_f_i.ss01" horiz-adv-x="1419" 
d="M1246 481q57 -9 81 -41t24 -94v-346h-152v305q0 33 -14 47t-48 14h-298v-366h-157v366h-360v-366h-158v366h-149v117h183v15q-64 3 -97.5 29t-33.5 68q0 54 67.5 88.5t231.5 34.5q95 0 164 -17t107 -41q29 26 88 42t152 16q125 0 211.5 -33.5t157.5 -91.5v-112zM693 485
q-100 121 -305 121q-169 0 -169 -62q0 -21 15 -34.5t38 -24.5h421zM1186 485q-42 51 -118.5 86t-180.5 35q-163 0 -163 -62q0 -21 15 -34.5t38 -24.5h409z" />
    <glyph glyph-name="fi.ss01" horiz-adv-x="906" 
d="M164 0v366h-149v117h183v15q-62 2 -96.5 28t-34.5 69q0 123 308 123q158 0 233 -50.5t75 -129.5v-3h-158v4q0 29 -35 48t-118 19t-118 -17.5t-35 -44.5q0 -36 53 -59h407q88 0 124 -32t36 -107v-346h-157v305q0 33 -14 47t-48 14h-298v-366h-158z" />
    <glyph glyph-name="f_j.ss01" horiz-adv-x="906" 
d="M535 -208q-25 4 -51 14v127q40 -16 83 -16q59 0 87 24t28 71v293q0 33 -14 47t-48 14h-298v-366h-158v366h-149v117h183v15q-62 2 -96.5 28t-34.5 69q0 123 308 123q158 0 233 -50.5t75 -129.5v-3h-158v4q0 29 -35 48t-118 19t-118 -17.5t-35 -44.5q0 -36 53 -59h407
q88 0 124 -32t36 -107v-336q0 -108 -61 -165t-182 -57q-36 0 -61 4z" />
    <glyph glyph-name="I.ss01" horiz-adv-x="337" 
d="M258 0h-178v700h178v-700z" />
    <glyph glyph-name="Ibreve.ss01" horiz-adv-x="337" 
d="M258 0h-178v700h178v-700zM-26.5 812.5q-66.5 50.5 -75.5 140.5h144q5 -35 36 -55.5t90 -20.5q61 0 91.5 20.5t36.5 55.5h143q-9 -90 -75.5 -140.5t-195.5 -50.5q-128 0 -194.5 50.5z" />
    <glyph glyph-name="Icircumflex.ss01" horiz-adv-x="337" 
d="M258 0h-178v700h178v-700zM242 948l192 -181h-170l-95 98l-96 -98h-170l192 181h147z" />
    <glyph glyph-name="Idieresis.ss01" horiz-adv-x="337" 
d="M258 0h-178v700h178v-700zM-49 798.5q-25 21.5 -25 56.5q0 34 25 56t69 22t69 -22t25 -56q0 -35 -25 -56.5t-69 -21.5t-69 21.5zM248 798.5q-25 21.5 -25 56.5q0 34 25 56t69 22t69 -22t25 -56q0 -35 -24.5 -56.5t-69.5 -21.5q-44 0 -69 21.5z" />
    <glyph glyph-name="Idotaccent.ss01" horiz-adv-x="337" 
d="M258 0h-178v700h178v-700zM88.5 797.5q-29.5 25.5 -29.5 64.5q0 38 29.5 63.5t79.5 25.5q51 0 80.5 -25.5t29.5 -63.5q0 -39 -29.5 -64.5t-80.5 -25.5q-50 0 -79.5 25.5z" />
    <glyph glyph-name="Igrave.ss01" horiz-adv-x="337" 
d="M258 0h-178v700h178v-700zM277 767h-154l-167 181h207z" />
    <glyph glyph-name="Imacron.ss01" horiz-adv-x="337" 
d="M258 0h-178v700h178v-700zM396 801h-454v123h454v-123z" />
    <glyph glyph-name="Iogonek.ss01" horiz-adv-x="337" 
d="M258 0q-65 -19 -91 -41t-26 -47q0 -22 16.5 -35t48.5 -13q25 0 52 9v-102q-38 -16 -88 -16q-75 0 -114 32t-39 85q0 38 22.5 72.5t67.5 55.5h-27v700h178v-700z" />
    <glyph glyph-name="Itilde.ss01" horiz-adv-x="337" 
d="M258 0h-178v700h178v-700zM-52 765q-22 53 -22 90q0 50 29.5 79t81.5 29q41 0 73 -14t73 -40q27 -17 42 -24.5t29 -7.5q31 0 31 32q0 24 -16 54h121q22 -55 22 -90q0 -50 -29 -79t-81 -29q-41 0 -73 13.5t-75 40.5q-25 16 -40.5 24t-29.5 8q-15 0 -23 -8.5t-8 -24.5
q0 -23 16 -53h-121z" />
    <glyph glyph-name="Iacute.ss01" horiz-adv-x="337" 
d="M258 0h-178v700h178v-700zM216 767h-155l115 181h206z" />
    <glyph glyph-name="IJ.ss01" horiz-adv-x="1146" 
d="M258 0h-178v700h178v-700zM460.5 66q-88.5 79 -88.5 220v19h178v-13q0 -76 43.5 -116.5t130.5 -40.5t130.5 40.5t43.5 116.5v260h-426v148h604v-412q0 -143 -88.5 -222t-263.5 -79t-263.5 79z" />
    <glyph glyph-name="Iacute_J.loclNLD.ss01" horiz-adv-x="1146" 
d="M258 0h-178v700h178v-700zM216 767h-155l115 181h206zM460.5 66q-88.5 79 -88.5 220v19h178v-13q0 -76 43.5 -116.5t130.5 -40.5t130.5 40.5t43.5 116.5v260h-426v148h604v-412q0 -143 -88.5 -222t-263.5 -79t-263.5 79zM821 767h-155l115 181h206z" />
    <glyph glyph-name="R.ss01" horiz-adv-x="895" 
d="M667 0l-157 235h-252v-235h-178v700h472q142 0 214 -62t72 -170q0 -78 -37.5 -133t-111.5 -80l179 -255h-201zM249 560v-197h289q60 0 91 26.5t31 72.5q0 45 -31 71.5t-91 26.5h-289z" />
    <glyph glyph-name="Racute.ss01" horiz-adv-x="895" 
d="M667 0l-157 235h-252v-235h-178v700h472q142 0 214 -62t72 -170q0 -78 -37.5 -133t-111.5 -80l179 -255h-201zM249 560v-197h289q60 0 91 26.5t31 72.5q0 45 -31 71.5t-91 26.5h-289zM500 767h-155l115 181h206z" />
    <glyph glyph-name="Rcaron.ss01" horiz-adv-x="895" 
d="M667 0l-157 235h-252v-235h-178v700h472q142 0 214 -62t72 -170q0 -78 -37.5 -133t-111.5 -80l179 -255h-201zM249 560v-197h289q60 0 91 26.5t31 72.5q0 45 -31 71.5t-91 26.5h-289zM453 850l95 98h170l-192 -181h-147l-192 181h170z" />
    <glyph glyph-name="uni0156.ss01" horiz-adv-x="895" 
d="M667 0l-157 235h-252v-235h-178v700h472q142 0 214 -62t72 -170q0 -78 -37.5 -133t-111.5 -80l179 -255h-201zM249 560v-197h289q60 0 91 26.5t31 72.5q0 45 -31 71.5t-91 26.5h-289zM528 -79q23 -26 23 -78q0 -57 -24.5 -103t-67 -72.5t-94.5 -26.5v95h12
q46 0 73.5 13.5t38.5 42.5q-14 -2 -21 -2q-38 0 -62 22.5t-24 56.5q0 33 23 55.5t57 22.5q43 0 66 -26z" />
    <glyph glyph-name="a.ss01" horiz-adv-x="803" 
d="M178.5 20.5q-64.5 33.5 -99 94t-34.5 139.5q0 78 34.5 138.5t99 94.5t150.5 34q104 0 168 -39.5t88 -111.5h16l-23 138h157v-508h-157l23 137h-16q-24 -71 -88 -110.5t-168 -39.5q-86 0 -150.5 33.5zM527 151.5q49 40.5 49 102.5t-49 102t-138 40q-90 0 -138.5 -40
t-48.5 -102t49 -102.5t138 -40.5t138 40.5z" />
    <glyph glyph-name="aacute.ss01" horiz-adv-x="803" 
d="M178.5 20.5q-64.5 33.5 -99 94t-34.5 139.5q0 78 34.5 138.5t99 94.5t150.5 34q104 0 168 -39.5t88 -111.5h16l-23 138h157v-508h-157l23 137h-16q-24 -71 -88 -110.5t-168 -39.5q-86 0 -150.5 33.5zM527 151.5q49 40.5 49 102.5t-49 102t-138 40q-90 0 -138.5 -40
t-48.5 -102t49 -102.5t138 -40.5t138 40.5zM440 577h-140l95 171h182z" />
    <glyph glyph-name="abreve.ss01" horiz-adv-x="803" 
d="M178.5 20.5q-64.5 33.5 -99 94t-34.5 139.5q0 78 34.5 138.5t99 94.5t150.5 34q104 0 168 -39.5t88 -111.5h16l-23 138h157v-508h-157l23 137h-16q-24 -71 -88 -110.5t-168 -39.5q-86 0 -150.5 33.5zM527 151.5q49 40.5 49 102.5t-49 102t-138 40q-90 0 -138.5 -40
t-48.5 -102t49 -102.5t138 -40.5t138 40.5zM225.5 621.5q-61.5 49.5 -69.5 131.5h133q4 -36 31 -56.5t76 -20.5q50 0 77 20.5t31 56.5h133q-8 -82 -69.5 -131.5t-171.5 -49.5q-109 0 -170.5 49.5z" />
    <glyph glyph-name="acircumflex.ss01" horiz-adv-x="803" 
d="M178.5 20.5q-64.5 33.5 -99 94t-34.5 139.5q0 78 34.5 138.5t99 94.5t150.5 34q104 0 168 -39.5t88 -111.5h16l-23 138h157v-508h-157l23 137h-16q-24 -71 -88 -110.5t-168 -39.5q-86 0 -150.5 33.5zM527 151.5q49 40.5 49 102.5t-49 102t-138 40q-90 0 -138.5 -40
t-48.5 -102t49 -102.5t138 -40.5t138 40.5zM457 748l174 -171h-151l-84 87l-85 -87h-151l174 171h123z" />
    <glyph glyph-name="adieresis.ss01" horiz-adv-x="803" 
d="M178.5 20.5q-64.5 33.5 -99 94t-34.5 139.5q0 78 34.5 138.5t99 94.5t150.5 34q104 0 168 -39.5t88 -111.5h16l-23 138h157v-508h-157l23 137h-16q-24 -71 -88 -110.5t-168 -39.5q-86 0 -150.5 33.5zM527 151.5q49 40.5 49 102.5t-49 102t-138 40q-90 0 -138.5 -40
t-48.5 -102t49 -102.5t138 -40.5t138 40.5zM212 616.5q-22 19.5 -22 49.5t22 50t59 20t59 -20t22 -50t-22 -49.5t-59 -19.5t-59 19.5zM463 616.5q-22 19.5 -22 49.5t22 50t59 20t59 -20t22 -50t-22 -49.5t-59 -19.5t-59 19.5z" />
    <glyph glyph-name="agrave.ss01" horiz-adv-x="803" 
d="M178.5 20.5q-64.5 33.5 -99 94t-34.5 139.5q0 78 34.5 138.5t99 94.5t150.5 34q104 0 168 -39.5t88 -111.5h16l-23 138h157v-508h-157l23 137h-16q-24 -71 -88 -110.5t-168 -39.5q-86 0 -150.5 33.5zM527 151.5q49 40.5 49 102.5t-49 102t-138 40q-90 0 -138.5 -40
t-48.5 -102t49 -102.5t138 -40.5t138 40.5zM492 577h-139l-138 171h182z" />
    <glyph glyph-name="amacron.ss01" horiz-adv-x="803" 
d="M178.5 20.5q-64.5 33.5 -99 94t-34.5 139.5q0 78 34.5 138.5t99 94.5t150.5 34q104 0 168 -39.5t88 -111.5h16l-23 138h157v-508h-157l23 137h-16q-24 -71 -88 -110.5t-168 -39.5q-86 0 -150.5 33.5zM527 151.5q49 40.5 49 102.5t-49 102t-138 40q-90 0 -138.5 -40
t-48.5 -102t49 -102.5t138 -40.5t138 40.5zM610 615h-428v112h428v-112z" />
    <glyph glyph-name="aogonek.ss01" horiz-adv-x="803" 
d="M735 0q-77 -17 -105.5 -38t-28.5 -48q0 -50 76 -50q28 0 58 9v-102q-39 -16 -95 -16q-80 0 -121.5 34t-41.5 90q0 38 24 72.5t79 58.5l21 127h-16q-24 -71 -88 -110.5t-168 -39.5q-86 0 -150.5 33.5t-99 94t-34.5 139.5q0 78 34.5 138.5t99 94.5t150.5 34
q104 0 168 -39.5t88 -111.5h16l-23 138h157v-508zM527 151.5q49 40.5 49 102.5t-49 102t-138 40q-90 0 -138.5 -40t-48.5 -102t49 -102.5t138 -40.5t138 40.5z" />
    <glyph glyph-name="aring.ss01" horiz-adv-x="803" 
d="M178.5 20.5q-64.5 33.5 -99 94t-34.5 139.5q0 78 34.5 138.5t99 94.5t150.5 34q104 0 168 -39.5t88 -111.5h16l-23 138h157v-508h-157l23 137h-16q-24 -71 -88 -110.5t-168 -39.5q-86 0 -150.5 33.5zM527 151.5q49 40.5 49 102.5t-49 102t-138 40q-90 0 -138.5 -40
t-48.5 -102t49 -102.5t138 -40.5t138 40.5zM281.5 595q-41.5 35 -41.5 89t41.5 89t114.5 35t114 -35t41 -89t-41 -89t-114 -35t-114.5 35zM445 652q17 13 17 32t-17 32t-49 13q-33 0 -50 -13t-17 -32t17 -32t50 -13q32 0 49 13z" />
    <glyph glyph-name="atilde.ss01" horiz-adv-x="803" 
d="M178.5 20.5q-64.5 33.5 -99 94t-34.5 139.5q0 78 34.5 138.5t99 94.5t150.5 34q104 0 168 -39.5t88 -111.5h16l-23 138h157v-508h-157l23 137h-16q-24 -71 -88 -110.5t-168 -39.5q-86 0 -150.5 33.5zM527 151.5q49 40.5 49 102.5t-49 102t-138 40q-90 0 -138.5 -40
t-48.5 -102t49 -102.5t138 -40.5t138 40.5zM190 572q-22 42 -22 82q0 48 28.5 76t77.5 28q34 0 62 -13t65 -37q27 -18 42.5 -26t30.5 -8t24 9t9 24q0 23 -16 51h110q23 -43 23 -82q0 -48 -28.5 -76t-77.5 -28q-35 0 -64 13.5t-63 37.5q-29 18 -43.5 25.5t-29.5 7.5
q-16 0 -24.5 -9t-8.5 -24q0 -23 16 -51h-111z" />
    <glyph glyph-name="g.ss01" horiz-adv-x="803" 
d="M202 -202q-55 10 -112 31v129q67 -21 118.5 -29.5t110.5 -8.5q143 0 210.5 57t67.5 162v20h-15q-25 -65 -84 -99t-167 -34q-89 0 -153.5 32t-98.5 88t-34 128q0 71 34 127t98 88t152 32q105 0 168 -39t87 -110h16l-22 135h157v-321q0 -204 -98 -301t-307 -97
q-73 0 -128 10zM528.5 173.5q47.5 36.5 47.5 93.5t-47.5 93t-139.5 36t-139.5 -36t-47.5 -93t47.5 -93.5t139.5 -36.5t139.5 36.5z" />
    <glyph glyph-name="uni01F5.ss01" horiz-adv-x="803" 
d="M202 -202q-55 10 -112 31v129q67 -21 118.5 -29.5t110.5 -8.5q143 0 210.5 57t67.5 162v20h-15q-25 -65 -84 -99t-167 -34q-89 0 -153.5 32t-98.5 88t-34 128q0 71 34 127t98 88t152 32q105 0 168 -39t87 -110h16l-22 135h157v-321q0 -204 -98 -301t-307 -97
q-73 0 -128 10zM528.5 173.5q47.5 36.5 47.5 93.5t-47.5 93t-139.5 36t-139.5 -36t-47.5 -93t47.5 -93.5t139.5 -36.5t139.5 36.5zM439 577h-140l95 171h182z" />
    <glyph glyph-name="gbreve.ss01" horiz-adv-x="803" 
d="M202 -202q-55 10 -112 31v129q67 -21 118.5 -29.5t110.5 -8.5q143 0 210.5 57t67.5 162v20h-15q-25 -65 -84 -99t-167 -34q-89 0 -153.5 32t-98.5 88t-34 128q0 71 34 127t98 88t152 32q105 0 168 -39t87 -110h16l-22 135h157v-321q0 -204 -98 -301t-307 -97
q-73 0 -128 10zM528.5 173.5q47.5 36.5 47.5 93.5t-47.5 93t-139.5 36t-139.5 -36t-47.5 -93t47.5 -93.5t139.5 -36.5t139.5 36.5zM224.5 621.5q-61.5 49.5 -69.5 131.5h133q4 -36 31 -56.5t76 -20.5q50 0 77 20.5t31 56.5h133q-8 -82 -69.5 -131.5t-171.5 -49.5
q-109 0 -170.5 49.5z" />
    <glyph glyph-name="gcircumflex.ss01" horiz-adv-x="803" 
d="M202 -202q-55 10 -112 31v129q67 -21 118.5 -29.5t110.5 -8.5q143 0 210.5 57t67.5 162v20h-15q-25 -65 -84 -99t-167 -34q-89 0 -153.5 32t-98.5 88t-34 128q0 71 34 127t98 88t152 32q105 0 168 -39t87 -110h16l-22 135h157v-321q0 -204 -98 -301t-307 -97
q-73 0 -128 10zM528.5 173.5q47.5 36.5 47.5 93.5t-47.5 93t-139.5 36t-139.5 -36t-47.5 -93t47.5 -93.5t139.5 -36.5t139.5 36.5zM456 748l174 -171h-151l-84 87l-85 -87h-151l174 171h123z" />
    <glyph glyph-name="uni0123.ss01" horiz-adv-x="803" 
d="M202 -202q-55 10 -112 31v129q67 -21 118.5 -29.5t110.5 -8.5q143 0 210.5 57t67.5 162v20h-15q-25 -65 -84 -99t-167 -34q-89 0 -153.5 32t-98.5 88t-34 128q0 71 34 127t98 88t152 32q105 0 168 -39t87 -110h16l-22 135h157v-321q0 -204 -98 -301t-307 -97
q-73 0 -128 10zM528.5 173.5q47.5 36.5 47.5 93.5t-47.5 93t-139.5 36t-139.5 -36t-47.5 -93t47.5 -93.5t139.5 -36.5t139.5 36.5zM335.5 778.5q24.5 46.5 67 73t94.5 26.5v-96h-12q-47 0 -74 -13t-38 -43q14 2 22 2q38 0 61.5 -22t23.5 -56t-22.5 -56t-57.5 -22
q-42 0 -65.5 26t-23.5 78q0 56 24.5 102.5z" />
    <glyph glyph-name="gdotaccent.ss01" horiz-adv-x="803" 
d="M202 -202q-55 10 -112 31v129q67 -21 118.5 -29.5t110.5 -8.5q143 0 210.5 57t67.5 162v20h-15q-25 -65 -84 -99t-167 -34q-89 0 -153.5 32t-98.5 88t-34 128q0 71 34 127t98 88t152 32q105 0 168 -39t87 -110h16l-22 135h157v-321q0 -204 -98 -301t-307 -97
q-73 0 -128 10zM528.5 173.5q47.5 36.5 47.5 93.5t-47.5 93t-139.5 36t-139.5 -36t-47.5 -93t47.5 -93.5t139.5 -36.5t139.5 36.5zM328 608q-25 23 -25 58t25 58t68 23q42 0 67 -23t25 -58t-25 -58t-67 -23q-43 0 -68 23z" />
    <glyph glyph-name="i.ss01" horiz-adv-x="292" 
d="M225 0h-158v508h158v-508zM78 608q-25 23 -25 58t25 58t68 23q42 0 67 -23t25 -58t-25 -58t-67 -23q-43 0 -68 23z" />
    <glyph glyph-name="dotlessi.ss01" horiz-adv-x="292" 
d="M225 0h-158v508h158v-508z" />
    <glyph glyph-name="iacute.ss01" horiz-adv-x="292" 
d="M225 0h-158v508h158v-508zM190 577h-140l95 171h182z" />
    <glyph glyph-name="ibreve.ss01" horiz-adv-x="292" 
d="M225 0h-158v508h158v-508zM-25.5 621.5q-61.5 49.5 -69.5 131.5h133q4 -36 31 -56.5t76 -20.5q50 0 77 20.5t31 56.5h133q-8 -82 -69.5 -131.5t-171.5 -49.5q-109 0 -170.5 49.5z" />
    <glyph glyph-name="icircumflex.ss01" horiz-adv-x="292" 
d="M225 0h-158v508h158v-508zM207 748l174 -171h-151l-84 87l-85 -87h-151l174 171h123z" />
    <glyph glyph-name="idieresis.ss01" horiz-adv-x="292" 
d="M225 0h-158v508h158v-508zM-39 616.5q-22 19.5 -22 49.5t22 50t59 20t59 -20t22 -50t-22 -49.5t-59 -19.5t-59 19.5zM212 616.5q-22 19.5 -22 49.5t22 50t59 20t59 -20t22 -50t-22 -49.5t-59 -19.5t-59 19.5z" />
    <glyph glyph-name="i.loclTRK.ss01" horiz-adv-x="292" 
d="M225 0h-158v508h158v-508zM78 608q-25 23 -25 58t25 58t68 23q42 0 67 -23t25 -58t-25 -58t-67 -23q-43 0 -68 23z" />
    <glyph glyph-name="igrave.ss01" horiz-adv-x="292" 
d="M225 0h-158v508h158v-508zM242 577h-139l-138 171h182z" />
    <glyph glyph-name="imacron.ss01" horiz-adv-x="292" 
d="M225 0h-158v508h158v-508zM360 615h-428v112h428v-112z" />
    <glyph glyph-name="iogonek.ss01" horiz-adv-x="292" 
d="M78 608q-25 23 -25 58t25 58t68 23q42 0 67 -23t25 -58t-25 -58t-67 -23q-43 0 -68 23zM67 0v508h158v-508q-65 -19 -91 -41t-26 -47q0 -22 16.5 -35t48.5 -13q25 0 52 9v-102q-38 -16 -88 -16q-75 0 -114 32t-39 85q0 38 22.5 72.5t67.5 55.5h-7z" />
    <glyph glyph-name="itilde.ss01" horiz-adv-x="292" 
d="M225 0h-158v508h158v-508zM-60 572q-22 42 -22 82q0 48 28.5 76t77.5 28q34 0 62 -13t65 -37q27 -18 42.5 -26t30.5 -8t24 9t9 24q0 23 -16 51h110q23 -43 23 -82q0 -48 -28.5 -76t-77.5 -28q-35 0 -64 13.5t-63 37.5q-29 18 -43.5 25.5t-29.5 7.5q-16 0 -24.5 -9
t-8.5 -24q0 -23 16 -51h-111z" />
    </font>
</defs>
</svg>
